%TF.GenerationSoftware,KiCad,Pcbnew,8.0.5*%
%TF.CreationDate,2024-10-13T13:29:04-04:00*%
%TF.ProjectId,2024.10.10 Bing Bong Drum Module FACEPLATE,32303234-2e31-4302-9e31-302042696e67,rev?*%
%TF.SameCoordinates,Original*%
%TF.FileFunction,Drillmap*%
%TF.FilePolarity,Positive*%
%FSLAX45Y45*%
G04 Gerber Fmt 4.5, Leading zero omitted, Abs format (unit mm)*
G04 Created by KiCad (PCBNEW 8.0.5) date 2024-10-13 13:29:04*
%MOMM*%
%LPD*%
G01*
G04 APERTURE LIST*
%ADD10C,0.100000*%
%ADD11C,0.200000*%
%ADD12C,0.150000*%
G04 APERTURE END LIST*
D10*
X16106840Y-8995053D02*
G75*
G02*
X15393840Y-8995053I-356500J0D01*
G01*
X15393840Y-8995053D02*
G75*
G02*
X16106840Y-8995053I356500J0D01*
G01*
X16106840Y-12564000D02*
G75*
G02*
X15393840Y-12564000I-356500J0D01*
G01*
X15393840Y-12564000D02*
G75*
G02*
X16106840Y-12564000I356500J0D01*
G01*
X16046880Y-14400420D02*
G75*
G02*
X15433880Y-14400420I-306500J0D01*
G01*
X15433880Y-14400420D02*
G75*
G02*
X16046880Y-14400420I306500J0D01*
G01*
X14178360Y-7306200D02*
G75*
G02*
X13565360Y-7306200I-306500J0D01*
G01*
X13565360Y-7306200D02*
G75*
G02*
X14178360Y-7306200I306500J0D01*
G01*
D11*
X12800040Y-3558400D02*
X16830040Y-3558400D01*
X16830040Y-16408400D01*
X12800040Y-16408400D01*
X12800040Y-3558400D01*
D10*
X14178360Y-10874733D02*
G75*
G02*
X13565360Y-10874733I-306500J0D01*
G01*
X13565360Y-10874733D02*
G75*
G02*
X14178360Y-10874733I306500J0D01*
G01*
X14190140Y-14395340D02*
G75*
G02*
X13577140Y-14395340I-306500J0D01*
G01*
X13577140Y-14395340D02*
G75*
G02*
X14190140Y-14395340I306500J0D01*
G01*
X16110840Y-5121800D02*
G75*
G02*
X15397840Y-5121800I-356500J0D01*
G01*
X15397840Y-5121800D02*
G75*
G02*
X16110840Y-5121800I356500J0D01*
G01*
X14178360Y-9090467D02*
G75*
G02*
X13565360Y-9090467I-306500J0D01*
G01*
X13565360Y-9090467D02*
G75*
G02*
X14178360Y-9090467I306500J0D01*
G01*
X12987020Y-4598560D02*
X14886940Y-4598560D01*
X14886940Y-6508640D01*
X12987020Y-6508640D01*
X12987020Y-4598560D01*
D12*
X16250000Y-3860000D02*
G75*
G02*
X15910000Y-3860000I-170000J0D01*
G01*
X15910000Y-3860000D02*
G75*
G02*
X16250000Y-3860000I170000J0D01*
G01*
D10*
X16104500Y-7210580D02*
G75*
G02*
X15391500Y-7210580I-356500J0D01*
G01*
X15391500Y-7210580D02*
G75*
G02*
X16104500Y-7210580I356500J0D01*
G01*
X16104500Y-10779527D02*
G75*
G02*
X15391500Y-10779527I-356500J0D01*
G01*
X15391500Y-10779527D02*
G75*
G02*
X16104500Y-10779527I356500J0D01*
G01*
D12*
X13720000Y-16100000D02*
G75*
G02*
X13380000Y-16100000I-170000J0D01*
G01*
X13380000Y-16100000D02*
G75*
G02*
X13720000Y-16100000I170000J0D01*
G01*
D10*
X14178360Y-12659000D02*
G75*
G02*
X13565360Y-12659000I-306500J0D01*
G01*
X13565360Y-12659000D02*
G75*
G02*
X14178360Y-12659000I306500J0D01*
G01*
D11*
X13050817Y-16729884D02*
X13050817Y-16529884D01*
X13050817Y-16529884D02*
X13098436Y-16529884D01*
X13098436Y-16529884D02*
X13127007Y-16539408D01*
X13127007Y-16539408D02*
X13146055Y-16558455D01*
X13146055Y-16558455D02*
X13155579Y-16577503D01*
X13155579Y-16577503D02*
X13165102Y-16615598D01*
X13165102Y-16615598D02*
X13165102Y-16644169D01*
X13165102Y-16644169D02*
X13155579Y-16682265D01*
X13155579Y-16682265D02*
X13146055Y-16701312D01*
X13146055Y-16701312D02*
X13127007Y-16720360D01*
X13127007Y-16720360D02*
X13098436Y-16729884D01*
X13098436Y-16729884D02*
X13050817Y-16729884D01*
X13250817Y-16729884D02*
X13250817Y-16596550D01*
X13250817Y-16634646D02*
X13260341Y-16615598D01*
X13260341Y-16615598D02*
X13269864Y-16606074D01*
X13269864Y-16606074D02*
X13288912Y-16596550D01*
X13288912Y-16596550D02*
X13307960Y-16596550D01*
X13374626Y-16729884D02*
X13374626Y-16596550D01*
X13374626Y-16529884D02*
X13365102Y-16539408D01*
X13365102Y-16539408D02*
X13374626Y-16548931D01*
X13374626Y-16548931D02*
X13384150Y-16539408D01*
X13384150Y-16539408D02*
X13374626Y-16529884D01*
X13374626Y-16529884D02*
X13374626Y-16548931D01*
X13498436Y-16729884D02*
X13479388Y-16720360D01*
X13479388Y-16720360D02*
X13469864Y-16701312D01*
X13469864Y-16701312D02*
X13469864Y-16529884D01*
X13603198Y-16729884D02*
X13584150Y-16720360D01*
X13584150Y-16720360D02*
X13574626Y-16701312D01*
X13574626Y-16701312D02*
X13574626Y-16529884D01*
X13831769Y-16729884D02*
X13831769Y-16529884D01*
X13831769Y-16529884D02*
X13898436Y-16672741D01*
X13898436Y-16672741D02*
X13965102Y-16529884D01*
X13965102Y-16529884D02*
X13965102Y-16729884D01*
X14146055Y-16729884D02*
X14146055Y-16625122D01*
X14146055Y-16625122D02*
X14136531Y-16606074D01*
X14136531Y-16606074D02*
X14117483Y-16596550D01*
X14117483Y-16596550D02*
X14079388Y-16596550D01*
X14079388Y-16596550D02*
X14060341Y-16606074D01*
X14146055Y-16720360D02*
X14127007Y-16729884D01*
X14127007Y-16729884D02*
X14079388Y-16729884D01*
X14079388Y-16729884D02*
X14060341Y-16720360D01*
X14060341Y-16720360D02*
X14050817Y-16701312D01*
X14050817Y-16701312D02*
X14050817Y-16682265D01*
X14050817Y-16682265D02*
X14060341Y-16663217D01*
X14060341Y-16663217D02*
X14079388Y-16653693D01*
X14079388Y-16653693D02*
X14127007Y-16653693D01*
X14127007Y-16653693D02*
X14146055Y-16644169D01*
X14241293Y-16596550D02*
X14241293Y-16796550D01*
X14241293Y-16606074D02*
X14260341Y-16596550D01*
X14260341Y-16596550D02*
X14298436Y-16596550D01*
X14298436Y-16596550D02*
X14317483Y-16606074D01*
X14317483Y-16606074D02*
X14327007Y-16615598D01*
X14327007Y-16615598D02*
X14336531Y-16634646D01*
X14336531Y-16634646D02*
X14336531Y-16691788D01*
X14336531Y-16691788D02*
X14327007Y-16710836D01*
X14327007Y-16710836D02*
X14317483Y-16720360D01*
X14317483Y-16720360D02*
X14298436Y-16729884D01*
X14298436Y-16729884D02*
X14260341Y-16729884D01*
X14260341Y-16729884D02*
X14241293Y-16720360D01*
X14422245Y-16710836D02*
X14431769Y-16720360D01*
X14431769Y-16720360D02*
X14422245Y-16729884D01*
X14422245Y-16729884D02*
X14412722Y-16720360D01*
X14412722Y-16720360D02*
X14422245Y-16710836D01*
X14422245Y-16710836D02*
X14422245Y-16729884D01*
X14422245Y-16606074D02*
X14431769Y-16615598D01*
X14431769Y-16615598D02*
X14422245Y-16625122D01*
X14422245Y-16625122D02*
X14412722Y-16615598D01*
X14412722Y-16615598D02*
X14422245Y-16606074D01*
X14422245Y-16606074D02*
X14422245Y-16625122D01*
M02*
