%TF.GenerationSoftware,KiCad,Pcbnew,8.0.5*%
%TF.CreationDate,2024-10-13T13:29:01-04:00*%
%TF.ProjectId,2024.10.10 Bing Bong Drum Module FACEPLATE,32303234-2e31-4302-9e31-302042696e67,rev?*%
%TF.SameCoordinates,Original*%
%TF.FileFunction,Copper,L1,Top*%
%TF.FilePolarity,Positive*%
%FSLAX46Y46*%
G04 Gerber Fmt 4.6, Leading zero omitted, Abs format (unit mm)*
G04 Created by KiCad (PCBNEW 8.0.5) date 2024-10-13 13:29:01*
%MOMM*%
%LPD*%
G01*
G04 APERTURE LIST*
G04 APERTURE END LIST*
%TA.AperFunction,NonConductor*%
G36*
X168243439Y-35743685D02*
G01*
X168289194Y-35796489D01*
X168300400Y-35848000D01*
X168300400Y-163870000D01*
X168280715Y-163937039D01*
X168227911Y-163982794D01*
X168176400Y-163994000D01*
X128292155Y-163994000D01*
X128225116Y-163974315D01*
X128179361Y-163921511D01*
X128168155Y-163870246D01*
X128162471Y-160999997D01*
X133797499Y-160999997D01*
X133797499Y-161000000D01*
X133817451Y-161259884D01*
X133817451Y-161259889D01*
X133876840Y-161513677D01*
X133876841Y-161513682D01*
X133974277Y-161755435D01*
X133974281Y-161755441D01*
X134107474Y-161979481D01*
X134273311Y-162180570D01*
X134374794Y-162271011D01*
X134467899Y-162353986D01*
X134467907Y-162353993D01*
X134686676Y-162495666D01*
X134686684Y-162495670D01*
X134924523Y-162602291D01*
X134924525Y-162602292D01*
X135034861Y-162632612D01*
X135175859Y-162671360D01*
X135434790Y-162701252D01*
X135695249Y-162691269D01*
X135951131Y-162641643D01*
X135951134Y-162641642D01*
X136196435Y-162553541D01*
X136196436Y-162553540D01*
X136196440Y-162553539D01*
X136425425Y-162429021D01*
X136632718Y-162271008D01*
X136813461Y-162083204D01*
X136963419Y-161870010D01*
X137079074Y-161636424D01*
X137157718Y-161387921D01*
X137197506Y-161130325D01*
X137200000Y-161000000D01*
X137197506Y-160869675D01*
X137157718Y-160612079D01*
X137079074Y-160363576D01*
X136963419Y-160129990D01*
X136813461Y-159916796D01*
X136632718Y-159728992D01*
X136425425Y-159570979D01*
X136295500Y-159500328D01*
X136196435Y-159446458D01*
X135951134Y-159358357D01*
X135695249Y-159308730D01*
X135434790Y-159298748D01*
X135175857Y-159328640D01*
X135175853Y-159328641D01*
X134924525Y-159397707D01*
X134924523Y-159397708D01*
X134686684Y-159504329D01*
X134686676Y-159504333D01*
X134467907Y-159646006D01*
X134467899Y-159646013D01*
X134273309Y-159819431D01*
X134107473Y-160020520D01*
X133974281Y-160244558D01*
X133974277Y-160244564D01*
X133876841Y-160486317D01*
X133876840Y-160486322D01*
X133817451Y-160740110D01*
X133817451Y-160740115D01*
X133797499Y-160999997D01*
X128162471Y-160999997D01*
X128128716Y-143953400D01*
X135768897Y-143953400D01*
X135788890Y-144303066D01*
X135848613Y-144648171D01*
X135848617Y-144648188D01*
X135947288Y-144984233D01*
X136083623Y-145306839D01*
X136083625Y-145306843D01*
X136083627Y-145306847D01*
X136112311Y-145357639D01*
X136255851Y-145611817D01*
X136255859Y-145611828D01*
X136397828Y-145807232D01*
X136461718Y-145895168D01*
X136698542Y-146153204D01*
X136893881Y-146322467D01*
X136963235Y-146382563D01*
X137252343Y-146580250D01*
X137252347Y-146580253D01*
X137252349Y-146580254D01*
X137562113Y-146743699D01*
X137857271Y-146858614D01*
X137888494Y-146870771D01*
X138227219Y-146959806D01*
X138227223Y-146959807D01*
X138573898Y-147009651D01*
X138748947Y-147014652D01*
X138923984Y-147019653D01*
X138923991Y-147019653D01*
X138923992Y-147019652D01*
X138923996Y-147019653D01*
X139272951Y-146989681D01*
X139272966Y-146989678D01*
X139616203Y-146920129D01*
X139616208Y-146920127D01*
X139616216Y-146920126D01*
X139949314Y-146811896D01*
X140267904Y-146666401D01*
X140567832Y-146485538D01*
X140845188Y-146271664D01*
X141096356Y-146027569D01*
X141318062Y-145756433D01*
X141474773Y-145512587D01*
X141507408Y-145461807D01*
X141507411Y-145461800D01*
X141507417Y-145461792D01*
X141661950Y-145147487D01*
X141779648Y-144817616D01*
X141819047Y-144648188D01*
X141858975Y-144476483D01*
X141873044Y-144353869D01*
X141898901Y-144128520D01*
X141900675Y-144004200D01*
X154336297Y-144004200D01*
X154356290Y-144353866D01*
X154416013Y-144698971D01*
X154416017Y-144698988D01*
X154514688Y-145035033D01*
X154651023Y-145357639D01*
X154651025Y-145357643D01*
X154651027Y-145357647D01*
X154709849Y-145461807D01*
X154823251Y-145662617D01*
X154823259Y-145662628D01*
X154992209Y-145895168D01*
X155029118Y-145945968D01*
X155265942Y-146204004D01*
X155472009Y-146382563D01*
X155530635Y-146433363D01*
X155819743Y-146631050D01*
X155819747Y-146631053D01*
X155819749Y-146631054D01*
X156129513Y-146794499D01*
X156325411Y-146870769D01*
X156455894Y-146921571D01*
X156790978Y-147009649D01*
X156794623Y-147010607D01*
X157141298Y-147060451D01*
X157316347Y-147065452D01*
X157491384Y-147070453D01*
X157491391Y-147070453D01*
X157491392Y-147070452D01*
X157491396Y-147070453D01*
X157840351Y-147040481D01*
X157840366Y-147040478D01*
X158183603Y-146970929D01*
X158183608Y-146970927D01*
X158183616Y-146970926D01*
X158516714Y-146862696D01*
X158835304Y-146717201D01*
X159135232Y-146536338D01*
X159412588Y-146322464D01*
X159663756Y-146078369D01*
X159885462Y-145807233D01*
X160011049Y-145611817D01*
X160074808Y-145512607D01*
X160074811Y-145512600D01*
X160074817Y-145512592D01*
X160229350Y-145198287D01*
X160347048Y-144868416D01*
X160386447Y-144698988D01*
X160426375Y-144527283D01*
X160432204Y-144476483D01*
X160466301Y-144179320D01*
X160468800Y-144004200D01*
X160466301Y-143829080D01*
X160426376Y-143481123D01*
X160426375Y-143481121D01*
X160426375Y-143481116D01*
X160347049Y-143139988D01*
X160347048Y-143139984D01*
X160229350Y-142810113D01*
X160074817Y-142495808D01*
X160074815Y-142495805D01*
X160074808Y-142495792D01*
X159885463Y-142201169D01*
X159885462Y-142201167D01*
X159843923Y-142150367D01*
X159663756Y-141930031D01*
X159412588Y-141685936D01*
X159412584Y-141685932D01*
X159412579Y-141685928D01*
X159135238Y-141472067D01*
X159135232Y-141472062D01*
X159135223Y-141472057D01*
X159135218Y-141472053D01*
X158835309Y-141291201D01*
X158835299Y-141291196D01*
X158516720Y-141145706D01*
X158183625Y-141037476D01*
X158183603Y-141037470D01*
X157840366Y-140967921D01*
X157840344Y-140967918D01*
X157491387Y-140937946D01*
X157141310Y-140947948D01*
X157141300Y-140947948D01*
X157141298Y-140947949D01*
X157141293Y-140947949D01*
X157141290Y-140947950D01*
X156794619Y-140997793D01*
X156455894Y-141086828D01*
X156129522Y-141213897D01*
X156129508Y-141213903D01*
X155819747Y-141377346D01*
X155819743Y-141377349D01*
X155530635Y-141575036D01*
X155265938Y-141804399D01*
X155029115Y-142062435D01*
X155029114Y-142062436D01*
X154823259Y-142345771D01*
X154823251Y-142345782D01*
X154651023Y-142650760D01*
X154514688Y-142973366D01*
X154416017Y-143309411D01*
X154416013Y-143309428D01*
X154356290Y-143654533D01*
X154336297Y-144004200D01*
X141900675Y-144004200D01*
X141901400Y-143953400D01*
X141898901Y-143778280D01*
X141858976Y-143430323D01*
X141858975Y-143430321D01*
X141858975Y-143430316D01*
X141779649Y-143089188D01*
X141738324Y-142973366D01*
X141661950Y-142759313D01*
X141507417Y-142445008D01*
X141507415Y-142445005D01*
X141507408Y-142444992D01*
X141318063Y-142150369D01*
X141318062Y-142150367D01*
X141246161Y-142062436D01*
X141096356Y-141879231D01*
X140845188Y-141635136D01*
X140845184Y-141635132D01*
X140845179Y-141635128D01*
X140567838Y-141421267D01*
X140567832Y-141421262D01*
X140567823Y-141421257D01*
X140567818Y-141421253D01*
X140267909Y-141240401D01*
X140267899Y-141240396D01*
X139949320Y-141094906D01*
X139616225Y-140986676D01*
X139616203Y-140986670D01*
X139272966Y-140917121D01*
X139272944Y-140917118D01*
X138923987Y-140887146D01*
X138573910Y-140897148D01*
X138573900Y-140897148D01*
X138573898Y-140897149D01*
X138573893Y-140897149D01*
X138573890Y-140897150D01*
X138227219Y-140946993D01*
X137888494Y-141036028D01*
X137562122Y-141163097D01*
X137562108Y-141163103D01*
X137252347Y-141326546D01*
X137252343Y-141326549D01*
X136963235Y-141524236D01*
X136698538Y-141753599D01*
X136461715Y-142011635D01*
X136461714Y-142011636D01*
X136255859Y-142294971D01*
X136255851Y-142294982D01*
X136083623Y-142599960D01*
X135947288Y-142922566D01*
X135848617Y-143258611D01*
X135848613Y-143258628D01*
X135788890Y-143603733D01*
X135768897Y-143953400D01*
X128128716Y-143953400D01*
X128094333Y-126590000D01*
X135651097Y-126590000D01*
X135671090Y-126939666D01*
X135730813Y-127284771D01*
X135730817Y-127284788D01*
X135829488Y-127620833D01*
X135965823Y-127943439D01*
X135965825Y-127943443D01*
X135965827Y-127943447D01*
X136031584Y-128059887D01*
X136138051Y-128248417D01*
X136138059Y-128248428D01*
X136281635Y-128446044D01*
X136343918Y-128531768D01*
X136580742Y-128789804D01*
X136738852Y-128926808D01*
X136845435Y-129019163D01*
X137134543Y-129216850D01*
X137134547Y-129216853D01*
X137134549Y-129216854D01*
X137444313Y-129380299D01*
X137739471Y-129495214D01*
X137770694Y-129507371D01*
X138109419Y-129596406D01*
X138109423Y-129596407D01*
X138456098Y-129646251D01*
X138631147Y-129651252D01*
X138806184Y-129656253D01*
X138806191Y-129656253D01*
X138806192Y-129656252D01*
X138806196Y-129656253D01*
X139155151Y-129626281D01*
X139155166Y-129626278D01*
X139498403Y-129556729D01*
X139498408Y-129556727D01*
X139498416Y-129556726D01*
X139831514Y-129448496D01*
X140150104Y-129303001D01*
X140450032Y-129122138D01*
X140727388Y-128908264D01*
X140978556Y-128664169D01*
X141200262Y-128393033D01*
X141326900Y-128195981D01*
X141389608Y-128098407D01*
X141389611Y-128098400D01*
X141389617Y-128098392D01*
X141544150Y-127784087D01*
X141661848Y-127454216D01*
X141684980Y-127354736D01*
X141741175Y-127113083D01*
X141761133Y-126939145D01*
X141781101Y-126765120D01*
X141783600Y-126590000D01*
X141781101Y-126414880D01*
X141741176Y-126066923D01*
X141741175Y-126066921D01*
X141741175Y-126066916D01*
X141661849Y-125725788D01*
X141631238Y-125639994D01*
X153935870Y-125639994D01*
X153935870Y-125640000D01*
X153956079Y-126019191D01*
X153956082Y-126019218D01*
X154016483Y-126394111D01*
X154016483Y-126394114D01*
X154116394Y-126760471D01*
X154116396Y-126760478D01*
X154254683Y-127114147D01*
X154254684Y-127114148D01*
X154429780Y-127451113D01*
X154639697Y-127767552D01*
X154639704Y-127767561D01*
X154882061Y-128059887D01*
X154882074Y-128059901D01*
X155154144Y-128324822D01*
X155452823Y-128559316D01*
X155452833Y-128559323D01*
X155774744Y-128760741D01*
X155774748Y-128760743D01*
X155774750Y-128760744D01*
X156116258Y-128926808D01*
X156473483Y-129055632D01*
X156473488Y-129055633D01*
X156473493Y-129055635D01*
X156842368Y-129145753D01*
X156842370Y-129145753D01*
X156842377Y-129145755D01*
X157218761Y-129196157D01*
X157598370Y-129206266D01*
X157976902Y-129175967D01*
X158350070Y-129105605D01*
X158713645Y-128995976D01*
X159063507Y-128848323D01*
X159395693Y-128664318D01*
X159395694Y-128664316D01*
X159395698Y-128664315D01*
X159584399Y-128531768D01*
X159706438Y-128446046D01*
X159992221Y-128195981D01*
X160249806Y-127916955D01*
X160476272Y-127612131D01*
X160669055Y-127284961D01*
X160825970Y-126939154D01*
X160945238Y-126578626D01*
X161025509Y-126207464D01*
X161065874Y-125829872D01*
X161068400Y-125640000D01*
X161065874Y-125450128D01*
X161025509Y-125072536D01*
X160945238Y-124701374D01*
X160825970Y-124340846D01*
X160669055Y-123995039D01*
X160476272Y-123667869D01*
X160249806Y-123363045D01*
X159992221Y-123084019D01*
X159992219Y-123084017D01*
X159992217Y-123084015D01*
X159706439Y-122833955D01*
X159706431Y-122833949D01*
X159395697Y-122615684D01*
X159395698Y-122615684D01*
X159063510Y-122431678D01*
X158713645Y-122284023D01*
X158350076Y-122174396D01*
X157976908Y-122104034D01*
X157976906Y-122104033D01*
X157976902Y-122104033D01*
X157598370Y-122073734D01*
X157598365Y-122073734D01*
X157598364Y-122073734D01*
X157218770Y-122083842D01*
X157218762Y-122083842D01*
X157218761Y-122083843D01*
X157218754Y-122083844D01*
X156842381Y-122134244D01*
X156842368Y-122134246D01*
X156473493Y-122224364D01*
X156116260Y-122353191D01*
X155774748Y-122519256D01*
X155774744Y-122519258D01*
X155452833Y-122720676D01*
X155452823Y-122720683D01*
X155154144Y-122955177D01*
X154882074Y-123220098D01*
X154882061Y-123220112D01*
X154639704Y-123512438D01*
X154639697Y-123512447D01*
X154429780Y-123828886D01*
X154257290Y-124160836D01*
X154254683Y-124165853D01*
X154117839Y-124515831D01*
X154116395Y-124519525D01*
X154116394Y-124519528D01*
X154016483Y-124885885D01*
X154016483Y-124885888D01*
X153956082Y-125260781D01*
X153956079Y-125260808D01*
X153935870Y-125639994D01*
X141631238Y-125639994D01*
X141544150Y-125395913D01*
X141389617Y-125081608D01*
X141389615Y-125081605D01*
X141389608Y-125081592D01*
X141200263Y-124786969D01*
X141200262Y-124786967D01*
X141130262Y-124701360D01*
X140978556Y-124515831D01*
X140727388Y-124271736D01*
X140727384Y-124271732D01*
X140727379Y-124271728D01*
X140450038Y-124057867D01*
X140450032Y-124057862D01*
X140450023Y-124057857D01*
X140450018Y-124057853D01*
X140150109Y-123877001D01*
X140150099Y-123876996D01*
X139831520Y-123731506D01*
X139498425Y-123623276D01*
X139498403Y-123623270D01*
X139155166Y-123553721D01*
X139155144Y-123553718D01*
X138806187Y-123523746D01*
X138456110Y-123533748D01*
X138456100Y-123533748D01*
X138456098Y-123533749D01*
X138456093Y-123533749D01*
X138456090Y-123533750D01*
X138109419Y-123583593D01*
X137770694Y-123672628D01*
X137444322Y-123799697D01*
X137444308Y-123799703D01*
X137134547Y-123963146D01*
X137134543Y-123963149D01*
X136845435Y-124160836D01*
X136580738Y-124390199D01*
X136343915Y-124648235D01*
X136343914Y-124648236D01*
X136138059Y-124931571D01*
X136138051Y-124931582D01*
X135965823Y-125236560D01*
X135829488Y-125559166D01*
X135730817Y-125895211D01*
X135730813Y-125895228D01*
X135671090Y-126240333D01*
X135651097Y-126590000D01*
X128094333Y-126590000D01*
X128059001Y-108747332D01*
X135651097Y-108747332D01*
X135671090Y-109096998D01*
X135730813Y-109442103D01*
X135730817Y-109442120D01*
X135829488Y-109778165D01*
X135965823Y-110100771D01*
X135965825Y-110100775D01*
X135965827Y-110100779D01*
X136030417Y-110215153D01*
X136138051Y-110405749D01*
X136138059Y-110405760D01*
X136280134Y-110601310D01*
X136343918Y-110689100D01*
X136580742Y-110947136D01*
X136736468Y-111082074D01*
X136845435Y-111176495D01*
X137134543Y-111374182D01*
X137134547Y-111374185D01*
X137134549Y-111374186D01*
X137444313Y-111537631D01*
X137739471Y-111652546D01*
X137770694Y-111664703D01*
X138109419Y-111753738D01*
X138109423Y-111753739D01*
X138456098Y-111803583D01*
X138631147Y-111808584D01*
X138806184Y-111813585D01*
X138806191Y-111813585D01*
X138806192Y-111813584D01*
X138806196Y-111813585D01*
X139155151Y-111783613D01*
X139155166Y-111783610D01*
X139498403Y-111714061D01*
X139498408Y-111714059D01*
X139498416Y-111714058D01*
X139831514Y-111605828D01*
X140150104Y-111460333D01*
X140450032Y-111279470D01*
X140727388Y-111065596D01*
X140978556Y-110821501D01*
X141200262Y-110550365D01*
X141328228Y-110351247D01*
X141389608Y-110255739D01*
X141389611Y-110255732D01*
X141389617Y-110255724D01*
X141544150Y-109941419D01*
X141661848Y-109611548D01*
X141701247Y-109442120D01*
X141741175Y-109270415D01*
X141761370Y-109094411D01*
X141781101Y-108922452D01*
X141783600Y-108747332D01*
X141781101Y-108572212D01*
X141741176Y-108224255D01*
X141741175Y-108224253D01*
X141741175Y-108224248D01*
X141661849Y-107883120D01*
X141630503Y-107795266D01*
X141630501Y-107795260D01*
X153912470Y-107795260D01*
X153912470Y-107795266D01*
X153932679Y-108174457D01*
X153932682Y-108174484D01*
X153993083Y-108549377D01*
X153993083Y-108549380D01*
X154092994Y-108915737D01*
X154092996Y-108915744D01*
X154231283Y-109269413D01*
X154406380Y-109606379D01*
X154616297Y-109922818D01*
X154616304Y-109922827D01*
X154858661Y-110215153D01*
X154858674Y-110215167D01*
X155130744Y-110480088D01*
X155429423Y-110714582D01*
X155429433Y-110714589D01*
X155751344Y-110916007D01*
X155751348Y-110916009D01*
X155751350Y-110916010D01*
X156092858Y-111082074D01*
X156450083Y-111210898D01*
X156450088Y-111210899D01*
X156450093Y-111210901D01*
X156818968Y-111301019D01*
X156818970Y-111301019D01*
X156818977Y-111301021D01*
X157195361Y-111351423D01*
X157574970Y-111361532D01*
X157953502Y-111331233D01*
X158326670Y-111260871D01*
X158690245Y-111151242D01*
X159040107Y-111003589D01*
X159372293Y-110819584D01*
X159372294Y-110819582D01*
X159372298Y-110819581D01*
X159521780Y-110714582D01*
X159683038Y-110601312D01*
X159968821Y-110351247D01*
X160226406Y-110072221D01*
X160452872Y-109767397D01*
X160645655Y-109440227D01*
X160802570Y-109094420D01*
X160921838Y-108733892D01*
X161002109Y-108362730D01*
X161042474Y-107985138D01*
X161045000Y-107795266D01*
X161042474Y-107605394D01*
X161002109Y-107227802D01*
X160921838Y-106856640D01*
X160802570Y-106496112D01*
X160645655Y-106150305D01*
X160452872Y-105823135D01*
X160421275Y-105780606D01*
X160369600Y-105711051D01*
X160226406Y-105518311D01*
X159968821Y-105239285D01*
X159968819Y-105239283D01*
X159968817Y-105239281D01*
X159683039Y-104989221D01*
X159683031Y-104989215D01*
X159372297Y-104770950D01*
X159372298Y-104770950D01*
X159040110Y-104586944D01*
X158690245Y-104439289D01*
X158326676Y-104329662D01*
X157953508Y-104259300D01*
X157953506Y-104259299D01*
X157953502Y-104259299D01*
X157574970Y-104229000D01*
X157574965Y-104229000D01*
X157574964Y-104229000D01*
X157195370Y-104239108D01*
X157195362Y-104239108D01*
X157195361Y-104239109D01*
X157195354Y-104239110D01*
X156818981Y-104289510D01*
X156818968Y-104289512D01*
X156450093Y-104379630D01*
X156092860Y-104508457D01*
X155751348Y-104674522D01*
X155751344Y-104674524D01*
X155429433Y-104875942D01*
X155429423Y-104875949D01*
X155130744Y-105110443D01*
X154858674Y-105375364D01*
X154858661Y-105375378D01*
X154616304Y-105667704D01*
X154616297Y-105667713D01*
X154406380Y-105984152D01*
X154286322Y-106215199D01*
X154231283Y-106321119D01*
X154092996Y-106674788D01*
X154092995Y-106674791D01*
X154092994Y-106674794D01*
X153993083Y-107041151D01*
X153993083Y-107041154D01*
X153932682Y-107416047D01*
X153932679Y-107416074D01*
X153912470Y-107795260D01*
X141630501Y-107795260D01*
X141544150Y-107553245D01*
X141389617Y-107238940D01*
X141389615Y-107238937D01*
X141389608Y-107238924D01*
X141200263Y-106944301D01*
X141200262Y-106944299D01*
X141128572Y-106856626D01*
X140978556Y-106673163D01*
X140727388Y-106429068D01*
X140727384Y-106429064D01*
X140727379Y-106429060D01*
X140450038Y-106215199D01*
X140450032Y-106215194D01*
X140450023Y-106215189D01*
X140450018Y-106215185D01*
X140150109Y-106034333D01*
X140150099Y-106034328D01*
X139831520Y-105888838D01*
X139498425Y-105780608D01*
X139498403Y-105780602D01*
X139155166Y-105711053D01*
X139155144Y-105711050D01*
X138806187Y-105681078D01*
X138456110Y-105691080D01*
X138456100Y-105691080D01*
X138456098Y-105691081D01*
X138456093Y-105691081D01*
X138456090Y-105691082D01*
X138109419Y-105740925D01*
X137770694Y-105829960D01*
X137444322Y-105957029D01*
X137444308Y-105957035D01*
X137134547Y-106120478D01*
X137134543Y-106120481D01*
X136845435Y-106318168D01*
X136580738Y-106547531D01*
X136343915Y-106805567D01*
X136343914Y-106805568D01*
X136138059Y-107088903D01*
X136138051Y-107088914D01*
X135965823Y-107393892D01*
X135829488Y-107716498D01*
X135730817Y-108052543D01*
X135730813Y-108052560D01*
X135671090Y-108397665D01*
X135651097Y-108747332D01*
X128059001Y-108747332D01*
X128023669Y-90904666D01*
X135651097Y-90904666D01*
X135671090Y-91254332D01*
X135730813Y-91599437D01*
X135730817Y-91599454D01*
X135829488Y-91935499D01*
X135965823Y-92258105D01*
X135965825Y-92258109D01*
X135965827Y-92258113D01*
X136138052Y-92563084D01*
X136343918Y-92846434D01*
X136465435Y-92978835D01*
X136550277Y-93071277D01*
X136580742Y-93104470D01*
X136813906Y-93306509D01*
X136845435Y-93333829D01*
X137134543Y-93531516D01*
X137134547Y-93531519D01*
X137134549Y-93531520D01*
X137444313Y-93694965D01*
X137739471Y-93809880D01*
X137770694Y-93822037D01*
X138109419Y-93911072D01*
X138109423Y-93911073D01*
X138456098Y-93960917D01*
X138631147Y-93965918D01*
X138806184Y-93970919D01*
X138806191Y-93970919D01*
X138806192Y-93970918D01*
X138806196Y-93970919D01*
X139155151Y-93940947D01*
X139155166Y-93940944D01*
X139498403Y-93871395D01*
X139498408Y-93871393D01*
X139498416Y-93871392D01*
X139831514Y-93763162D01*
X140150104Y-93617667D01*
X140450032Y-93436804D01*
X140727388Y-93222930D01*
X140978556Y-92978835D01*
X141200262Y-92707699D01*
X141329556Y-92506514D01*
X141389608Y-92413073D01*
X141389611Y-92413066D01*
X141389617Y-92413058D01*
X141544150Y-92098753D01*
X141661848Y-91768882D01*
X141701247Y-91599454D01*
X141741175Y-91427749D01*
X141761607Y-91249678D01*
X141781101Y-91079786D01*
X141783600Y-90904666D01*
X141781101Y-90729546D01*
X141741176Y-90381589D01*
X141741175Y-90381587D01*
X141741175Y-90381582D01*
X141661849Y-90040454D01*
X141661848Y-90040450D01*
X141629763Y-89950527D01*
X153935870Y-89950527D01*
X153935870Y-89950533D01*
X153956079Y-90329724D01*
X153956082Y-90329751D01*
X154016483Y-90704644D01*
X154016483Y-90704647D01*
X154116394Y-91071004D01*
X154116396Y-91071011D01*
X154254683Y-91424680D01*
X154429780Y-91761646D01*
X154639697Y-92078085D01*
X154639704Y-92078094D01*
X154882061Y-92370420D01*
X154882074Y-92370434D01*
X155154144Y-92635355D01*
X155452823Y-92869849D01*
X155452833Y-92869856D01*
X155774744Y-93071274D01*
X155774748Y-93071276D01*
X155774750Y-93071277D01*
X156116258Y-93237341D01*
X156473483Y-93366165D01*
X156473488Y-93366166D01*
X156473493Y-93366168D01*
X156842368Y-93456286D01*
X156842370Y-93456286D01*
X156842377Y-93456288D01*
X157218761Y-93506690D01*
X157598370Y-93516799D01*
X157976902Y-93486500D01*
X158350070Y-93416138D01*
X158713645Y-93306509D01*
X159063507Y-93158856D01*
X159395693Y-92974851D01*
X159395694Y-92974849D01*
X159395698Y-92974848D01*
X159578515Y-92846434D01*
X159706438Y-92756579D01*
X159992221Y-92506514D01*
X160249806Y-92227488D01*
X160476272Y-91922664D01*
X160669055Y-91595494D01*
X160825970Y-91249687D01*
X160945238Y-90889159D01*
X161025509Y-90517997D01*
X161065874Y-90140405D01*
X161068400Y-89950533D01*
X161065874Y-89760661D01*
X161025509Y-89383069D01*
X160945238Y-89011907D01*
X160825970Y-88651379D01*
X160669055Y-88305572D01*
X160476272Y-87978402D01*
X160249806Y-87673578D01*
X159992221Y-87394552D01*
X159992219Y-87394550D01*
X159992217Y-87394548D01*
X159706439Y-87144488D01*
X159706431Y-87144482D01*
X159395697Y-86926217D01*
X159395698Y-86926217D01*
X159063510Y-86742211D01*
X158713645Y-86594556D01*
X158350076Y-86484929D01*
X157976908Y-86414567D01*
X157976906Y-86414566D01*
X157976902Y-86414566D01*
X157598370Y-86384267D01*
X157598365Y-86384267D01*
X157598364Y-86384267D01*
X157218770Y-86394375D01*
X157218762Y-86394375D01*
X157218761Y-86394376D01*
X157218754Y-86394377D01*
X156842381Y-86444777D01*
X156842368Y-86444779D01*
X156473493Y-86534897D01*
X156116260Y-86663724D01*
X155774748Y-86829789D01*
X155774744Y-86829791D01*
X155452833Y-87031209D01*
X155452823Y-87031216D01*
X155154144Y-87265710D01*
X154882074Y-87530631D01*
X154882061Y-87530645D01*
X154639704Y-87822971D01*
X154639697Y-87822980D01*
X154429780Y-88139419D01*
X154308648Y-88372533D01*
X154254683Y-88476386D01*
X154165346Y-88704865D01*
X154116395Y-88830058D01*
X154116394Y-88830061D01*
X154016483Y-89196418D01*
X154016483Y-89196421D01*
X153956082Y-89571314D01*
X153956079Y-89571341D01*
X153935870Y-89950527D01*
X141629763Y-89950527D01*
X141544150Y-89710579D01*
X141389617Y-89396274D01*
X141389615Y-89396271D01*
X141389608Y-89396258D01*
X141200263Y-89101635D01*
X141200262Y-89101633D01*
X140978556Y-88830497D01*
X140727388Y-88586402D01*
X140727384Y-88586398D01*
X140727379Y-88586394D01*
X140450038Y-88372533D01*
X140450032Y-88372528D01*
X140450023Y-88372523D01*
X140450018Y-88372519D01*
X140150109Y-88191667D01*
X140150099Y-88191662D01*
X139831520Y-88046172D01*
X139498425Y-87937942D01*
X139498403Y-87937936D01*
X139155166Y-87868387D01*
X139155144Y-87868384D01*
X138806187Y-87838412D01*
X138456110Y-87848414D01*
X138456100Y-87848414D01*
X138456098Y-87848415D01*
X138456093Y-87848415D01*
X138456090Y-87848416D01*
X138109419Y-87898259D01*
X137770694Y-87987294D01*
X137444322Y-88114363D01*
X137444308Y-88114369D01*
X137134547Y-88277812D01*
X137134543Y-88277815D01*
X136845435Y-88475502D01*
X136580738Y-88704865D01*
X136343915Y-88962901D01*
X136343914Y-88962902D01*
X136138059Y-89246237D01*
X136138051Y-89246248D01*
X135965823Y-89551226D01*
X135829488Y-89873832D01*
X135730817Y-90209877D01*
X135730813Y-90209894D01*
X135671090Y-90554999D01*
X135651097Y-90904666D01*
X128023669Y-90904666D01*
X128000400Y-79154000D01*
X128000400Y-73062000D01*
X135651097Y-73062000D01*
X135671090Y-73411666D01*
X135730813Y-73756771D01*
X135730817Y-73756788D01*
X135829488Y-74092833D01*
X135965823Y-74415439D01*
X135965825Y-74415443D01*
X135965827Y-74415447D01*
X136028089Y-74525698D01*
X136138051Y-74720417D01*
X136138059Y-74720428D01*
X136277135Y-74911850D01*
X136343918Y-75003768D01*
X136465435Y-75136169D01*
X136548380Y-75226544D01*
X136580742Y-75261804D01*
X136731697Y-75392608D01*
X136845435Y-75491163D01*
X137134543Y-75688850D01*
X137134547Y-75688853D01*
X137134549Y-75688854D01*
X137444313Y-75852299D01*
X137739471Y-75967214D01*
X137770694Y-75979371D01*
X138109419Y-76068406D01*
X138109423Y-76068407D01*
X138456098Y-76118251D01*
X138631147Y-76123252D01*
X138806184Y-76128253D01*
X138806191Y-76128253D01*
X138806192Y-76128252D01*
X138806196Y-76128253D01*
X139155151Y-76098281D01*
X139155166Y-76098278D01*
X139498403Y-76028729D01*
X139498408Y-76028727D01*
X139498416Y-76028726D01*
X139831514Y-75920496D01*
X140150104Y-75775001D01*
X140450032Y-75594138D01*
X140727388Y-75380264D01*
X140978556Y-75136169D01*
X141200262Y-74865033D01*
X141330885Y-74661781D01*
X141389608Y-74570407D01*
X141389611Y-74570400D01*
X141389617Y-74570392D01*
X141544150Y-74256087D01*
X141661848Y-73926216D01*
X141701247Y-73756788D01*
X141741175Y-73585083D01*
X141741176Y-73585077D01*
X141781101Y-73237120D01*
X141783600Y-73062000D01*
X141781101Y-72886880D01*
X141741176Y-72538923D01*
X141741175Y-72538921D01*
X141741175Y-72538916D01*
X141661849Y-72197788D01*
X141629028Y-72105800D01*
X141629026Y-72105794D01*
X153912470Y-72105794D01*
X153912470Y-72105800D01*
X153932679Y-72484991D01*
X153932682Y-72485018D01*
X153993083Y-72859911D01*
X153993083Y-72859914D01*
X154043406Y-73044439D01*
X154092996Y-73226278D01*
X154231283Y-73579947D01*
X154323175Y-73756788D01*
X154406380Y-73916913D01*
X154616297Y-74233352D01*
X154616304Y-74233361D01*
X154858661Y-74525687D01*
X154858674Y-74525701D01*
X155130744Y-74790622D01*
X155429423Y-75025116D01*
X155429433Y-75025123D01*
X155751344Y-75226541D01*
X155751348Y-75226543D01*
X155751350Y-75226544D01*
X156092858Y-75392608D01*
X156450083Y-75521432D01*
X156450088Y-75521433D01*
X156450093Y-75521435D01*
X156818968Y-75611553D01*
X156818970Y-75611553D01*
X156818977Y-75611555D01*
X157195361Y-75661957D01*
X157574970Y-75672066D01*
X157953502Y-75641767D01*
X158326670Y-75571405D01*
X158690245Y-75461776D01*
X159040107Y-75314123D01*
X159372293Y-75130118D01*
X159372294Y-75130116D01*
X159372298Y-75130115D01*
X159552179Y-75003763D01*
X159683038Y-74911846D01*
X159968821Y-74661781D01*
X160226406Y-74382755D01*
X160452872Y-74077931D01*
X160645655Y-73750761D01*
X160802570Y-73404954D01*
X160921838Y-73044426D01*
X161002109Y-72673264D01*
X161042474Y-72295672D01*
X161045000Y-72105800D01*
X161042474Y-71915928D01*
X161002109Y-71538336D01*
X160921838Y-71167174D01*
X160802570Y-70806646D01*
X160645655Y-70460839D01*
X160452872Y-70133669D01*
X160226406Y-69828845D01*
X159968821Y-69549819D01*
X159968819Y-69549817D01*
X159968817Y-69549815D01*
X159683039Y-69299755D01*
X159683031Y-69299749D01*
X159372297Y-69081484D01*
X159372298Y-69081484D01*
X159040110Y-68897478D01*
X158690245Y-68749823D01*
X158326676Y-68640196D01*
X157953508Y-68569834D01*
X157953506Y-68569833D01*
X157953502Y-68569833D01*
X157574970Y-68539534D01*
X157574965Y-68539534D01*
X157574964Y-68539534D01*
X157195370Y-68549642D01*
X157195362Y-68549642D01*
X157195361Y-68549643D01*
X157195354Y-68549644D01*
X156818981Y-68600044D01*
X156818968Y-68600046D01*
X156450093Y-68690164D01*
X156092860Y-68818991D01*
X155751348Y-68985056D01*
X155751344Y-68985058D01*
X155429433Y-69186476D01*
X155429423Y-69186483D01*
X155130744Y-69420977D01*
X154858674Y-69685898D01*
X154858661Y-69685912D01*
X154616304Y-69978238D01*
X154616297Y-69978247D01*
X154406380Y-70294686D01*
X154284181Y-70529853D01*
X154231283Y-70631653D01*
X154141139Y-70862196D01*
X154092995Y-70985325D01*
X154092994Y-70985328D01*
X153993083Y-71351685D01*
X153993083Y-71351688D01*
X153932682Y-71726581D01*
X153932679Y-71726608D01*
X153912470Y-72105794D01*
X141629026Y-72105794D01*
X141544150Y-71867913D01*
X141389617Y-71553608D01*
X141389615Y-71553605D01*
X141389608Y-71553592D01*
X141200263Y-71258969D01*
X141200262Y-71258967D01*
X141125217Y-71167191D01*
X140978556Y-70987831D01*
X140978553Y-70987828D01*
X140727384Y-70743732D01*
X140727379Y-70743728D01*
X140450038Y-70529867D01*
X140450032Y-70529862D01*
X140450023Y-70529857D01*
X140450018Y-70529853D01*
X140150109Y-70349001D01*
X140150099Y-70348996D01*
X139831520Y-70203506D01*
X139498425Y-70095276D01*
X139498403Y-70095270D01*
X139155166Y-70025721D01*
X139155144Y-70025718D01*
X138806187Y-69995746D01*
X138456110Y-70005748D01*
X138456100Y-70005748D01*
X138456098Y-70005749D01*
X138456093Y-70005749D01*
X138456090Y-70005750D01*
X138109419Y-70055593D01*
X137770694Y-70144628D01*
X137444322Y-70271697D01*
X137444308Y-70271703D01*
X137134547Y-70435146D01*
X137134543Y-70435149D01*
X136845435Y-70632836D01*
X136580738Y-70862199D01*
X136343915Y-71120235D01*
X136343914Y-71120236D01*
X136138059Y-71403571D01*
X136138051Y-71403582D01*
X135965823Y-71708560D01*
X135829488Y-72031166D01*
X135730817Y-72367211D01*
X135730813Y-72367228D01*
X135671090Y-72712333D01*
X135651097Y-73062000D01*
X128000400Y-73062000D01*
X128000400Y-65086400D01*
X129870200Y-65086400D01*
X148869400Y-65086400D01*
X148869400Y-51217994D01*
X153975870Y-51217994D01*
X153975870Y-51218000D01*
X153996079Y-51597191D01*
X153996082Y-51597218D01*
X154056483Y-51972111D01*
X154056483Y-51972114D01*
X154106806Y-52156639D01*
X154156396Y-52338478D01*
X154294683Y-52692147D01*
X154294684Y-52692148D01*
X154469780Y-53029113D01*
X154679697Y-53345552D01*
X154679704Y-53345561D01*
X154922061Y-53637887D01*
X154922074Y-53637901D01*
X155194144Y-53902822D01*
X155492823Y-54137316D01*
X155492833Y-54137323D01*
X155814744Y-54338741D01*
X155814748Y-54338743D01*
X155814750Y-54338744D01*
X156156258Y-54504808D01*
X156513483Y-54633632D01*
X156513488Y-54633633D01*
X156513493Y-54633635D01*
X156882368Y-54723753D01*
X156882370Y-54723753D01*
X156882377Y-54723755D01*
X157258761Y-54774157D01*
X157638370Y-54784266D01*
X158016902Y-54753967D01*
X158390070Y-54683605D01*
X158753645Y-54573976D01*
X159103507Y-54426323D01*
X159435693Y-54242318D01*
X159435694Y-54242316D01*
X159435698Y-54242315D01*
X159585180Y-54137316D01*
X159746438Y-54024046D01*
X160032221Y-53773981D01*
X160289806Y-53494955D01*
X160516272Y-53190131D01*
X160709055Y-52862961D01*
X160865970Y-52517154D01*
X160985238Y-52156626D01*
X161065509Y-51785464D01*
X161105874Y-51407872D01*
X161108400Y-51218000D01*
X161105874Y-51028128D01*
X161065509Y-50650536D01*
X160985238Y-50279374D01*
X160865970Y-49918846D01*
X160709055Y-49573039D01*
X160516272Y-49245869D01*
X160289806Y-48941045D01*
X160032221Y-48662019D01*
X160032219Y-48662017D01*
X160032217Y-48662015D01*
X159746439Y-48411955D01*
X159746431Y-48411949D01*
X159435697Y-48193684D01*
X159435698Y-48193684D01*
X159103510Y-48009678D01*
X158753645Y-47862023D01*
X158390076Y-47752396D01*
X158016908Y-47682034D01*
X158016906Y-47682033D01*
X158016902Y-47682033D01*
X157638370Y-47651734D01*
X157638365Y-47651734D01*
X157638364Y-47651734D01*
X157258770Y-47661842D01*
X157258762Y-47661842D01*
X157258761Y-47661843D01*
X157258754Y-47661844D01*
X156882381Y-47712244D01*
X156882368Y-47712246D01*
X156513493Y-47802364D01*
X156156260Y-47931191D01*
X155814748Y-48097256D01*
X155814744Y-48097258D01*
X155492833Y-48298676D01*
X155492823Y-48298683D01*
X155194144Y-48533177D01*
X154922074Y-48798098D01*
X154922061Y-48798112D01*
X154679704Y-49090438D01*
X154679697Y-49090447D01*
X154469780Y-49406886D01*
X154294684Y-49743851D01*
X154294683Y-49743853D01*
X154156396Y-50097522D01*
X154156395Y-50097525D01*
X154156394Y-50097528D01*
X154056483Y-50463885D01*
X154056483Y-50463888D01*
X153996082Y-50838781D01*
X153996079Y-50838808D01*
X153975870Y-51217994D01*
X148869400Y-51217994D01*
X148869400Y-45985600D01*
X129870200Y-45985600D01*
X129870200Y-65086400D01*
X128000400Y-65086400D01*
X128000400Y-38599997D01*
X159097499Y-38599997D01*
X159097499Y-38600000D01*
X159117451Y-38859884D01*
X159117451Y-38859889D01*
X159176840Y-39113677D01*
X159176841Y-39113682D01*
X159274277Y-39355435D01*
X159274281Y-39355441D01*
X159407474Y-39579481D01*
X159573311Y-39780570D01*
X159674794Y-39871011D01*
X159767899Y-39953986D01*
X159767907Y-39953993D01*
X159986676Y-40095666D01*
X159986684Y-40095670D01*
X160224523Y-40202291D01*
X160224525Y-40202292D01*
X160334861Y-40232612D01*
X160475859Y-40271360D01*
X160734790Y-40301252D01*
X160995249Y-40291269D01*
X161251131Y-40241643D01*
X161251134Y-40241642D01*
X161496435Y-40153541D01*
X161496436Y-40153540D01*
X161496440Y-40153539D01*
X161725425Y-40029021D01*
X161932718Y-39871008D01*
X162113461Y-39683204D01*
X162263419Y-39470010D01*
X162379074Y-39236424D01*
X162457718Y-38987921D01*
X162497506Y-38730325D01*
X162500000Y-38600000D01*
X162497506Y-38469675D01*
X162457718Y-38212079D01*
X162379074Y-37963576D01*
X162263419Y-37729990D01*
X162113461Y-37516796D01*
X161932718Y-37328992D01*
X161725425Y-37170979D01*
X161595500Y-37100328D01*
X161496435Y-37046458D01*
X161251134Y-36958357D01*
X160995249Y-36908730D01*
X160734790Y-36898748D01*
X160475857Y-36928640D01*
X160475853Y-36928641D01*
X160224525Y-36997707D01*
X160224523Y-36997708D01*
X159986684Y-37104329D01*
X159986676Y-37104333D01*
X159767907Y-37246006D01*
X159767899Y-37246013D01*
X159573309Y-37419431D01*
X159407473Y-37620520D01*
X159274281Y-37844558D01*
X159274277Y-37844564D01*
X159176841Y-38086317D01*
X159176840Y-38086322D01*
X159117451Y-38340110D01*
X159117451Y-38340115D01*
X159097499Y-38599997D01*
X128000400Y-38599997D01*
X128000400Y-35848000D01*
X128020085Y-35780961D01*
X128072889Y-35735206D01*
X128124400Y-35724000D01*
X168176400Y-35724000D01*
X168243439Y-35743685D01*
G37*
%TD.AperFunction*%
M02*
