%TF.GenerationSoftware,KiCad,Pcbnew,8.0.5*%
%TF.CreationDate,2024-10-13T13:29:01-04:00*%
%TF.ProjectId,2024.10.10 Bing Bong Drum Module FACEPLATE,32303234-2e31-4302-9e31-302042696e67,rev?*%
%TF.SameCoordinates,Original*%
%TF.FileFunction,Profile,NP*%
%FSLAX46Y46*%
G04 Gerber Fmt 4.6, Leading zero omitted, Abs format (unit mm)*
G04 Created by KiCad (PCBNEW 8.0.5) date 2024-10-13 13:29:01*
%MOMM*%
%LPD*%
G01*
G04 APERTURE LIST*
%TA.AperFunction,Profile*%
%ADD10C,0.100000*%
%TD*%
%TA.AperFunction,Profile*%
%ADD11C,0.200000*%
%TD*%
%TA.AperFunction,Profile*%
%ADD12C,0.150000*%
%TD*%
G04 APERTURE END LIST*
D10*
X161068400Y-89950533D02*
G75*
G02*
X153938400Y-89950533I-3565000J0D01*
G01*
X153938400Y-89950533D02*
G75*
G02*
X161068400Y-89950533I3565000J0D01*
G01*
X161068400Y-125640000D02*
G75*
G02*
X153938400Y-125640000I-3565000J0D01*
G01*
X153938400Y-125640000D02*
G75*
G02*
X161068400Y-125640000I3565000J0D01*
G01*
X160468800Y-144004200D02*
G75*
G02*
X154338800Y-144004200I-3065000J0D01*
G01*
X154338800Y-144004200D02*
G75*
G02*
X160468800Y-144004200I3065000J0D01*
G01*
X141783600Y-73062000D02*
G75*
G02*
X135653600Y-73062000I-3065000J0D01*
G01*
X135653600Y-73062000D02*
G75*
G02*
X141783600Y-73062000I3065000J0D01*
G01*
D11*
X128000400Y-35584000D02*
X168300400Y-35584000D01*
X168300400Y-164084000D01*
X128000400Y-164084000D01*
X128000400Y-35584000D01*
D10*
X141783600Y-108747332D02*
G75*
G02*
X135653600Y-108747332I-3065000J0D01*
G01*
X135653600Y-108747332D02*
G75*
G02*
X141783600Y-108747332I3065000J0D01*
G01*
X141901400Y-143953400D02*
G75*
G02*
X135771400Y-143953400I-3065000J0D01*
G01*
X135771400Y-143953400D02*
G75*
G02*
X141901400Y-143953400I3065000J0D01*
G01*
X161108400Y-51218000D02*
G75*
G02*
X153978400Y-51218000I-3565000J0D01*
G01*
X153978400Y-51218000D02*
G75*
G02*
X161108400Y-51218000I3565000J0D01*
G01*
X141783600Y-90904666D02*
G75*
G02*
X135653600Y-90904666I-3065000J0D01*
G01*
X135653600Y-90904666D02*
G75*
G02*
X141783600Y-90904666I3065000J0D01*
G01*
X129870200Y-45985600D02*
X148869400Y-45985600D01*
X148869400Y-65086400D01*
X129870200Y-65086400D01*
X129870200Y-45985600D01*
D12*
X162500000Y-38600000D02*
G75*
G02*
X159100000Y-38600000I-1700000J0D01*
G01*
X159100000Y-38600000D02*
G75*
G02*
X162500000Y-38600000I1700000J0D01*
G01*
D10*
X161045000Y-72105800D02*
G75*
G02*
X153915000Y-72105800I-3565000J0D01*
G01*
X153915000Y-72105800D02*
G75*
G02*
X161045000Y-72105800I3565000J0D01*
G01*
X161045000Y-107795266D02*
G75*
G02*
X153915000Y-107795266I-3565000J0D01*
G01*
X153915000Y-107795266D02*
G75*
G02*
X161045000Y-107795266I3565000J0D01*
G01*
D12*
X137200000Y-161000000D02*
G75*
G02*
X133800000Y-161000000I-1700000J0D01*
G01*
X133800000Y-161000000D02*
G75*
G02*
X137200000Y-161000000I1700000J0D01*
G01*
D10*
X141783600Y-126590000D02*
G75*
G02*
X135653600Y-126590000I-3065000J0D01*
G01*
X135653600Y-126590000D02*
G75*
G02*
X141783600Y-126590000I3065000J0D01*
G01*
M02*
