M48
; DRILL file {KiCad 8.0.7} date 2025-01-12T14:22:45-0500
; FORMAT={-:-/ absolute / metric / decimal}
; #@! TF.CreationDate,2025-01-12T14:22:45-05:00
; #@! TF.GenerationSoftware,Kicad,Pcbnew,8.0.7
; #@! TF.FileFunction,MixedPlating,1,2
FMAT,2
METRIC
; #@! TA.AperFunction,Plated,PTH,ViaDrill
T1C0.400
; #@! TA.AperFunction,Plated,PTH,ComponentDrill
T2C0.800
; #@! TA.AperFunction,Plated,PTH,ComponentDrill
T3C0.900
; #@! TA.AperFunction,Plated,PTH,ComponentDrill
T4C1.000
; #@! TA.AperFunction,Plated,PTH,ComponentDrill
T5C1.100
; #@! TA.AperFunction,NonPlated,NPTH,ComponentDrill
T6C3.500
%
G90
G05
T1
X146.939Y-108.321
X148.209Y-122.291
T2
X129.794Y-41.011
X129.794Y-48.631
X129.794Y-51.171
X129.794Y-56.171
X129.794Y-58.791
X129.794Y-66.411
X132.969Y-68.316
X132.969Y-71.491
X132.969Y-77.841
X132.969Y-81.016
X132.969Y-88.636
X132.969Y-91.811
X132.969Y-100.701
X132.969Y-103.876
X132.969Y-122.926
X132.969Y-126.101
X132.969Y-129.276
X132.969Y-132.451
X132.969Y-135.626
X132.969Y-138.801
X132.969Y-141.976
X132.969Y-145.151
X133.009Y-42.916
X135.509Y-42.916
X135.549Y-96.256
X135.589Y-74.666
X137.414Y-109.591
X137.414Y-114.591
X140.549Y-96.256
X140.589Y-68.316
X140.589Y-71.491
X140.589Y-74.666
X140.589Y-77.841
X140.589Y-81.016
X140.589Y-88.636
X140.589Y-91.811
X140.589Y-100.701
X140.589Y-103.876
X140.589Y-109.591
X140.589Y-117.211
X140.589Y-122.926
X140.589Y-126.101
X140.589Y-129.276
X140.589Y-132.451
X140.589Y-135.626
X140.589Y-138.801
X140.589Y-141.976
X140.589Y-145.151
X143.764Y-63.871
X143.764Y-67.056
X143.764Y-69.596
X143.764Y-72.136
X143.764Y-74.676
X143.764Y-77.216
X143.764Y-79.756
X143.764Y-82.296
X143.764Y-88.646
X143.764Y-91.186
X143.764Y-93.726
X143.764Y-96.266
X143.764Y-98.806
X143.764Y-101.346
X143.764Y-103.886
X143.774Y-110.236
X143.774Y-112.776
X143.774Y-115.316
X143.774Y-117.856
X145.074Y-121.021
X150.074Y-121.021
X151.384Y-63.871
X151.384Y-67.056
X151.384Y-69.596
X151.384Y-72.136
X151.384Y-74.676
X151.384Y-77.216
X151.384Y-79.756
X151.384Y-82.296
X151.384Y-88.646
X151.384Y-91.186
X151.384Y-93.726
X151.384Y-96.266
X151.384Y-98.806
X151.384Y-101.346
X151.384Y-103.886
X151.394Y-110.236
X151.394Y-112.776
X151.394Y-115.316
X151.394Y-117.856
X154.559Y-68.316
X154.559Y-71.491
X154.559Y-77.841
X154.559Y-81.016
X154.559Y-88.636
X154.559Y-91.811
X154.559Y-100.701
X154.559Y-103.876
X154.559Y-108.361
X154.559Y-113.361
X154.639Y-96.256
X155.894Y-121.021
X157.734Y-108.321
X157.734Y-115.941
X158.394Y-121.021
X158.496Y-46.091
X158.496Y-53.711
X159.639Y-96.256
X160.274Y-56.251
X160.274Y-58.791
X160.274Y-61.331
X161.584Y-115.941
X162.179Y-68.316
X162.179Y-71.491
X162.179Y-77.841
X162.179Y-81.016
X162.179Y-88.636
X162.179Y-91.811
X162.179Y-100.701
X162.179Y-103.876
X162.219Y-121.021
X164.719Y-121.021
X166.584Y-115.941
T3
X132.969Y-65.141
X132.969Y-84.191
X140.589Y-65.141
X140.589Y-84.191
X154.559Y-65.141
X154.559Y-84.191
X161.798Y-46.091
X161.798Y-53.711
X162.179Y-65.141
X162.179Y-84.191
T4
X129.794Y-126.736
X129.794Y-129.276
X129.794Y-131.816
X129.794Y-134.356
X129.794Y-136.896
X129.794Y-139.436
X129.794Y-141.976
X129.794Y-144.516
X160.909Y-130.546
X160.909Y-133.086
X160.909Y-135.626
X160.909Y-138.166
X160.909Y-140.706
X163.449Y-130.546
X163.449Y-133.086
X163.449Y-135.626
X163.449Y-138.166
X163.449Y-140.706
X165.354Y-41.646
X165.354Y-44.186
X165.354Y-46.726
X165.354Y-49.266
X165.354Y-51.806
X165.354Y-54.346
X165.354Y-56.886
X165.354Y-59.426
T5
X148.082Y-144.856
X150.622Y-144.856
X153.162Y-144.856
T6
X150.622Y-128.196
M30
