M48
; DRILL file {KiCad 8.0.7} date 2025-02-18T18:38:35-0500
; FORMAT={-:-/ absolute / metric / decimal}
; #@! TF.CreationDate,2025-02-18T18:38:35-05:00
; #@! TF.GenerationSoftware,Kicad,Pcbnew,8.0.7
; #@! TF.FileFunction,MixedPlating,1,2
FMAT,2
METRIC
; #@! TA.AperFunction,Plated,PTH,ComponentDrill
T1C1.000
; #@! TA.AperFunction,Plated,PTH,ComponentDrill
T2C1.220
; #@! TA.AperFunction,Plated,PTH,ComponentDrill
T3C1.420
; #@! TA.AperFunction,Plated,PTH,ComponentDrill
T4C1.430
; #@! TA.AperFunction,Plated,PTH,ComponentDrill
T5C1.500
; #@! TA.AperFunction,NonPlated,NPTH,ComponentDrill
T6C1.700
; #@! TA.AperFunction,NonPlated,NPTH,ComponentDrill
T7C2.200
; #@! TA.AperFunction,NonPlated,NPTH,ComponentDrill
T8C4.000
%
G90
G05
T1
X123.393Y-48.311
X123.393Y-50.851
X123.393Y-53.391
X123.393Y-55.931
X123.393Y-58.471
X123.393Y-61.011
X123.393Y-63.551
X123.393Y-66.091
X147.95Y-78.948
X147.95Y-96.791
X147.95Y-114.633
X147.95Y-132.476
X150.45Y-78.948
X150.45Y-96.791
X150.45Y-114.633
X150.45Y-132.476
X152.95Y-78.948
X152.95Y-96.791
X152.95Y-114.633
X152.95Y-132.476
X158.953Y-133.3
X158.953Y-135.84
X158.953Y-138.38
X158.953Y-140.92
X158.953Y-143.46
X158.953Y-146.0
X158.953Y-148.54
X158.953Y-151.08
T2
X131.826Y-150.306
X138.176Y-72.898
X138.176Y-90.741
X138.176Y-108.583
X138.176Y-126.426
X150.368Y-150.338
T3
X131.826Y-147.206
X135.076Y-72.898
X135.076Y-90.741
X135.076Y-108.583
X135.076Y-126.426
X150.368Y-147.238
T4
X126.776Y-72.898
X126.776Y-90.741
X126.776Y-108.583
X126.776Y-126.426
X131.826Y-138.906
X150.368Y-138.938
T5
X128.524Y-52.832
X134.874Y-50.292
T6
X127.254Y-55.372
X137.414Y-55.372
T7
X146.05Y-71.948
X146.05Y-89.791
X146.05Y-107.633
X146.05Y-125.476
X154.85Y-71.948
X154.85Y-89.791
X154.85Y-107.633
X154.85Y-125.476
T8
X132.334Y-55.372
T1
G00X146.04Y-51.704
M15
G01X146.04Y-50.404
M16
G05
G00X150.49Y-51.704
M15
G01X150.49Y-50.404
M16
G05
G00X154.94Y-51.704
M15
G01X154.94Y-50.404
M16
G05
M30
