%TF.GenerationSoftware,KiCad,Pcbnew,8.0.7*%
%TF.CreationDate,2025-02-18T18:38:33-05:00*%
%TF.ProjectId,bing-bong-pcb-control,62696e67-2d62-46f6-9e67-2d7063622d63,rev?*%
%TF.SameCoordinates,Original*%
%TF.FileFunction,Copper,L1,Top*%
%TF.FilePolarity,Positive*%
%FSLAX46Y46*%
G04 Gerber Fmt 4.6, Leading zero omitted, Abs format (unit mm)*
G04 Created by KiCad (PCBNEW 8.0.7) date 2025-02-18 18:38:33*
%MOMM*%
%LPD*%
G01*
G04 APERTURE LIST*
%TA.AperFunction,ComponentPad*%
%ADD10R,1.830000X1.930000*%
%TD*%
%TA.AperFunction,ComponentPad*%
%ADD11C,2.130000*%
%TD*%
%TA.AperFunction,ComponentPad*%
%ADD12R,1.930000X1.830000*%
%TD*%
%TA.AperFunction,WasherPad*%
%ADD13C,4.000000*%
%TD*%
%TA.AperFunction,ComponentPad*%
%ADD14C,1.800000*%
%TD*%
%TA.AperFunction,ComponentPad*%
%ADD15O,3.200000X5.000000*%
%TD*%
%TA.AperFunction,ComponentPad*%
%ADD16R,1.700000X1.700000*%
%TD*%
%TA.AperFunction,ComponentPad*%
%ADD17O,1.700000X1.700000*%
%TD*%
%TA.AperFunction,ComponentPad*%
%ADD18C,2.200000*%
%TD*%
%TA.AperFunction,Conductor*%
%ADD19C,0.254000*%
%TD*%
%TA.AperFunction,Conductor*%
%ADD20C,0.250000*%
%TD*%
G04 APERTURE END LIST*
D10*
%TO.P,J5,S*%
%TO.N,GND*%
X138176000Y-126426000D03*
D11*
%TO.P,J5,T*%
%TO.N,CV_4*%
X126776000Y-126426000D03*
%TO.P,J5,TN*%
%TO.N,unconnected-(J5-PadTN)*%
X135076000Y-126426000D03*
%TD*%
D12*
%TO.P,J6,S*%
%TO.N,GND*%
X131826000Y-150306000D03*
D11*
%TO.P,J6,T*%
%TO.N,TRIG_IN*%
X131826000Y-138906000D03*
%TO.P,J6,TN*%
%TO.N,unconnected-(J6-PadTN)*%
X131826000Y-147206000D03*
%TD*%
D10*
%TO.P,J2,S*%
%TO.N,GND*%
X138176000Y-72898000D03*
D11*
%TO.P,J2,T*%
%TO.N,CV_1*%
X126776000Y-72898000D03*
%TO.P,J2,TN*%
%TO.N,unconnected-(J2-PadTN)*%
X135076000Y-72898000D03*
%TD*%
D10*
%TO.P,J4,S*%
%TO.N,GND*%
X138176000Y-108583332D03*
D11*
%TO.P,J4,T*%
%TO.N,CV_3*%
X126776000Y-108583332D03*
%TO.P,J4,TN*%
%TO.N,unconnected-(J4-PadTN)*%
X135076000Y-108583332D03*
%TD*%
D13*
%TO.P,RV7,*%
%TO.N,*%
X146050000Y-125476000D03*
X154850000Y-125476000D03*
D14*
%TO.P,RV7,1,1*%
%TO.N,+3.3V*%
X152950000Y-132476000D03*
%TO.P,RV7,2,2*%
%TO.N,POT_4*%
X150450000Y-132476000D03*
%TO.P,RV7,3,3*%
%TO.N,GND*%
X147950000Y-132476000D03*
%TD*%
D15*
%TO.P,SW2,1,A*%
%TO.N,+3.3V*%
X154940000Y-51054000D03*
%TO.P,SW2,2,B*%
%TO.N,D9*%
X150490000Y-51054000D03*
%TO.P,SW2,3,C*%
%TO.N,GND*%
X146040000Y-51054000D03*
%TD*%
D13*
%TO.P,RV1,*%
%TO.N,*%
X146050000Y-71948000D03*
X154850000Y-71948000D03*
D14*
%TO.P,RV1,1,1*%
%TO.N,+3.3V*%
X152950000Y-78948000D03*
%TO.P,RV1,2,2*%
%TO.N,POT_1*%
X150450000Y-78948000D03*
%TO.P,RV1,3,3*%
%TO.N,GND*%
X147950000Y-78948000D03*
%TD*%
D13*
%TO.P,RV5,*%
%TO.N,*%
X146050000Y-89790666D03*
X154850000Y-89790666D03*
D14*
%TO.P,RV5,1,1*%
%TO.N,+3.3V*%
X152950000Y-96790666D03*
%TO.P,RV5,2,2*%
%TO.N,POT_2*%
X150450000Y-96790666D03*
%TO.P,RV5,3,3*%
%TO.N,GND*%
X147950000Y-96790666D03*
%TD*%
D12*
%TO.P,J1,S*%
%TO.N,GND*%
X150368000Y-150338000D03*
D11*
%TO.P,J1,T*%
%TO.N,AUDIO_OUT*%
X150368000Y-138938000D03*
%TO.P,J1,TN*%
%TO.N,unconnected-(J1-PadTN)*%
X150368000Y-147238000D03*
%TD*%
D16*
%TO.P,J8,1,Pin_1*%
%TO.N,+3.3V*%
X123393200Y-48311200D03*
D17*
%TO.P,J8,2,Pin_2*%
%TO.N,GND*%
X123393200Y-50851200D03*
%TO.P,J8,3,Pin_3*%
X123393200Y-53391200D03*
%TO.P,J8,4,Pin_4*%
X123393200Y-55931200D03*
%TO.P,J8,5,Pin_5*%
%TO.N,D9*%
X123393200Y-58471200D03*
%TO.P,J8,6,Pin_6*%
%TO.N,D7*%
X123393200Y-61011200D03*
%TO.P,J8,7,Pin_7*%
%TO.N,TRIG_IN*%
X123393200Y-63551200D03*
%TO.P,J8,8,Pin_8*%
%TO.N,AUDIO_OUT*%
X123393200Y-66091200D03*
%TD*%
D16*
%TO.P,J9,1,Pin_1*%
%TO.N,POT_1*%
X158953200Y-133299600D03*
D17*
%TO.P,J9,2,Pin_2*%
%TO.N,CV_1*%
X158953200Y-135839600D03*
%TO.P,J9,3,Pin_3*%
%TO.N,POT_2*%
X158953200Y-138379600D03*
%TO.P,J9,4,Pin_4*%
%TO.N,CV_2*%
X158953200Y-140919600D03*
%TO.P,J9,5,Pin_5*%
%TO.N,POT_3*%
X158953200Y-143459600D03*
%TO.P,J9,6,Pin_6*%
%TO.N,CV_3*%
X158953200Y-145999600D03*
%TO.P,J9,7,Pin_7*%
%TO.N,POT_4*%
X158953200Y-148539600D03*
%TO.P,J9,8,Pin_8*%
%TO.N,CV_4*%
X158953200Y-151079600D03*
%TD*%
D18*
%TO.P,SW1,1,1*%
%TO.N,D7*%
X134874000Y-50292000D03*
%TO.P,SW1,2,2*%
%TO.N,GND*%
X128524000Y-52832000D03*
%TD*%
D10*
%TO.P,J3,S*%
%TO.N,GND*%
X138176000Y-90740666D03*
D11*
%TO.P,J3,T*%
%TO.N,CV_2*%
X126776000Y-90740666D03*
%TO.P,J3,TN*%
%TO.N,unconnected-(J3-PadTN)*%
X135076000Y-90740666D03*
%TD*%
D13*
%TO.P,RV6,*%
%TO.N,*%
X146050000Y-107633332D03*
X154850000Y-107633332D03*
D14*
%TO.P,RV6,1,1*%
%TO.N,+3.3V*%
X152950000Y-114633332D03*
%TO.P,RV6,2,2*%
%TO.N,POT_3*%
X150450000Y-114633332D03*
%TO.P,RV6,3,3*%
%TO.N,GND*%
X147950000Y-114633332D03*
%TD*%
D19*
%TO.N,AUDIO_OUT*%
X123393200Y-127457200D02*
X134904000Y-138968000D01*
X134904000Y-138968000D02*
X150368000Y-138968000D01*
X123393200Y-66091200D02*
X123393200Y-127457200D01*
%TO.N,CV_1*%
X151130000Y-81280000D02*
X158499200Y-88649200D01*
X157734000Y-134620400D02*
X158953200Y-135839600D01*
X157734000Y-132164800D02*
X157734000Y-134620400D01*
D20*
X134396000Y-80518000D02*
X150368000Y-80518000D01*
D19*
X158499200Y-88649200D02*
X158499200Y-131572000D01*
X158326800Y-131572000D02*
X157734000Y-132164800D01*
D20*
X126776000Y-72898000D02*
X134396000Y-80518000D01*
X150368000Y-80518000D02*
X151130000Y-81280000D01*
D19*
X158499200Y-131572000D02*
X158326800Y-131572000D01*
%TO.N,CV_2*%
X156826000Y-138792400D02*
X158953200Y-140919600D01*
D20*
X134333334Y-98298000D02*
X150114000Y-98298000D01*
X126776000Y-90740666D02*
X134333334Y-98298000D01*
D19*
X152844500Y-101028500D02*
X157480000Y-105664000D01*
X157480000Y-131134694D02*
X156826000Y-131788696D01*
X156826000Y-131788696D02*
X156826000Y-138792400D01*
X157480000Y-105664000D02*
X157480000Y-131134694D01*
D20*
X150114000Y-98298000D02*
X152844500Y-101028500D01*
%TO.N,CV_3*%
X149987000Y-116205000D02*
X150368000Y-116586000D01*
D19*
X151638000Y-117856000D02*
X151638000Y-128524000D01*
X155918000Y-142964400D02*
X158953200Y-145999600D01*
D20*
X126776000Y-108583332D02*
X134397668Y-116205000D01*
X134397668Y-116205000D02*
X149987000Y-116205000D01*
D19*
X151638000Y-128524000D02*
X155918000Y-132804000D01*
X150368000Y-116586000D02*
X151638000Y-117856000D01*
X155918000Y-132804000D02*
X155918000Y-142964400D01*
D20*
%TO.N,CV_4*%
X134208000Y-133858000D02*
X134493000Y-133858000D01*
X126776000Y-126426000D02*
X134208000Y-133858000D01*
D19*
X151130000Y-133858000D02*
X155010000Y-137738000D01*
X155010000Y-147136400D02*
X158953200Y-151079600D01*
X134493000Y-133858000D02*
X151130000Y-133858000D01*
X155010000Y-137738000D02*
X155010000Y-147136400D01*
%TO.N,TRIG_IN*%
X122174000Y-64770400D02*
X122174000Y-129254000D01*
X122174000Y-129254000D02*
X131826000Y-138906000D01*
X123393200Y-63551200D02*
X122174000Y-64770400D01*
%TO.N,D9*%
X121920000Y-56998000D02*
X121920000Y-47430400D01*
X145918000Y-46482000D02*
X150490000Y-51054000D01*
X121920000Y-47430400D02*
X122868400Y-46482000D01*
X122868400Y-46482000D02*
X145918000Y-46482000D01*
X123393200Y-58471200D02*
X121920000Y-56998000D01*
%TO.N,D7*%
X134874000Y-58420000D02*
X134874000Y-50292000D01*
X132282800Y-61011200D02*
X134874000Y-58420000D01*
X123393200Y-61011200D02*
X132282800Y-61011200D01*
%TO.N,POT_1*%
X158953200Y-87452200D02*
X158953200Y-133299600D01*
X150450000Y-78949000D02*
X158953200Y-87452200D01*
X150450000Y-78948000D02*
X150450000Y-78949000D01*
D20*
%TO.N,POT_2*%
X150450000Y-96790666D02*
X157988000Y-104328666D01*
D19*
X157280000Y-136706400D02*
X158953200Y-138379600D01*
D20*
X157988000Y-104328666D02*
X157988000Y-105664000D01*
D19*
X157988000Y-131268747D02*
X157280000Y-131976748D01*
X157280000Y-131976748D02*
X157280000Y-136706400D01*
X157988000Y-105664000D02*
X157988000Y-131268747D01*
%TO.N,POT_3*%
X156372000Y-140878400D02*
X158953200Y-143459600D01*
X156372000Y-131734000D02*
X156372000Y-140878400D01*
D20*
X150450000Y-114633332D02*
X152146000Y-116329332D01*
X152146000Y-116329332D02*
X152146000Y-117348000D01*
D19*
X152146000Y-117348000D02*
X152146000Y-127508000D01*
X152146000Y-127508000D02*
X156372000Y-131734000D01*
%TO.N,POT_4*%
X150450000Y-132476000D02*
X155464000Y-137490000D01*
X155464000Y-137490000D02*
X155464000Y-145050400D01*
X155464000Y-145050400D02*
X158953200Y-148539600D01*
%TD*%
%TA.AperFunction,Conductor*%
%TO.N,GND*%
G36*
X122575185Y-45714685D02*
G01*
X122620940Y-45767489D01*
X122630884Y-45836647D01*
X122601859Y-45900203D01*
X122575416Y-45921311D01*
X122576232Y-45922532D01*
X122468392Y-45994588D01*
X122468388Y-45994591D01*
X121519992Y-46942989D01*
X121476289Y-46986692D01*
X121432586Y-47030394D01*
X121432585Y-47030396D01*
X121363233Y-47134189D01*
X121361586Y-47138793D01*
X121316614Y-47247364D01*
X121316614Y-47247365D01*
X121295460Y-47353717D01*
X121295460Y-47353719D01*
X121292500Y-47368597D01*
X121292500Y-57059807D01*
X121316612Y-57181028D01*
X121316613Y-57181032D01*
X121316614Y-57181035D01*
X121344037Y-57247238D01*
X121363917Y-57295233D01*
X121430407Y-57394743D01*
X121432587Y-57398005D01*
X121432596Y-57398016D01*
X122052364Y-58017783D01*
X122085849Y-58079106D01*
X122084458Y-58137556D01*
X122058139Y-58235783D01*
X122058136Y-58235796D01*
X122037541Y-58471199D01*
X122037541Y-58471200D01*
X122058136Y-58706603D01*
X122058138Y-58706613D01*
X122119294Y-58934855D01*
X122119296Y-58934859D01*
X122119297Y-58934863D01*
X122219165Y-59149030D01*
X122219167Y-59149034D01*
X122354701Y-59342595D01*
X122354706Y-59342602D01*
X122521797Y-59509693D01*
X122521803Y-59509698D01*
X122707358Y-59639625D01*
X122750983Y-59694202D01*
X122758177Y-59763700D01*
X122726654Y-59826055D01*
X122707358Y-59842775D01*
X122521797Y-59972705D01*
X122354705Y-60139797D01*
X122219165Y-60333369D01*
X122219164Y-60333371D01*
X122119298Y-60547535D01*
X122119294Y-60547544D01*
X122058138Y-60775786D01*
X122058136Y-60775796D01*
X122037541Y-61011199D01*
X122037541Y-61011200D01*
X122058136Y-61246603D01*
X122058138Y-61246613D01*
X122119294Y-61474855D01*
X122119296Y-61474859D01*
X122119297Y-61474863D01*
X122162394Y-61567284D01*
X122219165Y-61689030D01*
X122219167Y-61689034D01*
X122354701Y-61882595D01*
X122354706Y-61882602D01*
X122521797Y-62049693D01*
X122521803Y-62049698D01*
X122707358Y-62179625D01*
X122750983Y-62234202D01*
X122758177Y-62303700D01*
X122726654Y-62366055D01*
X122707358Y-62382775D01*
X122521797Y-62512705D01*
X122354705Y-62679797D01*
X122219165Y-62873369D01*
X122219164Y-62873371D01*
X122119298Y-63087535D01*
X122119294Y-63087544D01*
X122058138Y-63315786D01*
X122058136Y-63315796D01*
X122037541Y-63551199D01*
X122037541Y-63551200D01*
X122058136Y-63786603D01*
X122058138Y-63786613D01*
X122084458Y-63884841D01*
X122082795Y-63954691D01*
X122052364Y-64004615D01*
X121773992Y-64282989D01*
X121730289Y-64326692D01*
X121686586Y-64370394D01*
X121686585Y-64370396D01*
X121617233Y-64474189D01*
X121615586Y-64478793D01*
X121570614Y-64587364D01*
X121570612Y-64587372D01*
X121546500Y-64708592D01*
X121546500Y-129315807D01*
X121570612Y-129437027D01*
X121570614Y-129437035D01*
X121604062Y-129517785D01*
X121617915Y-129551229D01*
X121617920Y-129551239D01*
X121686588Y-129654007D01*
X121686591Y-129654011D01*
X130309312Y-138276731D01*
X130342797Y-138338054D01*
X130337813Y-138407746D01*
X130336192Y-138411864D01*
X130332517Y-138420734D01*
X130332517Y-138420736D01*
X130274993Y-138660341D01*
X130255659Y-138906000D01*
X130274993Y-139151658D01*
X130332517Y-139391264D01*
X130426815Y-139618920D01*
X130555563Y-139829018D01*
X130555564Y-139829020D01*
X130600046Y-139881101D01*
X130715601Y-140016399D01*
X130860648Y-140140280D01*
X130902979Y-140176435D01*
X130902981Y-140176436D01*
X131113079Y-140305184D01*
X131340735Y-140399482D01*
X131340736Y-140399482D01*
X131340738Y-140399483D01*
X131580345Y-140457007D01*
X131826000Y-140476341D01*
X132071655Y-140457007D01*
X132311262Y-140399483D01*
X132538920Y-140305184D01*
X132749023Y-140176433D01*
X132936399Y-140016399D01*
X133096433Y-139829023D01*
X133225184Y-139618920D01*
X133319483Y-139391262D01*
X133377007Y-139151655D01*
X133396341Y-138906000D01*
X133377007Y-138660345D01*
X133374784Y-138651086D01*
X133378272Y-138581308D01*
X133418933Y-138524488D01*
X133483859Y-138498672D01*
X133552435Y-138512056D01*
X133583038Y-138534457D01*
X134416589Y-139368008D01*
X134466674Y-139418093D01*
X134503994Y-139455413D01*
X134503996Y-139455414D01*
X134584769Y-139509385D01*
X134584770Y-139509385D01*
X134606767Y-139524083D01*
X134606769Y-139524083D01*
X134606773Y-139524086D01*
X134678112Y-139553635D01*
X134720965Y-139571385D01*
X134720969Y-139571385D01*
X134720970Y-139571386D01*
X134842193Y-139595500D01*
X134842196Y-139595500D01*
X134842197Y-139595500D01*
X148865411Y-139595500D01*
X148932450Y-139615185D01*
X148971138Y-139654710D01*
X149097563Y-139861018D01*
X149097564Y-139861020D01*
X149114719Y-139881106D01*
X149257601Y-140048399D01*
X149379700Y-140152681D01*
X149444979Y-140208435D01*
X149444981Y-140208436D01*
X149655079Y-140337184D01*
X149882735Y-140431482D01*
X149882736Y-140431482D01*
X149882738Y-140431483D01*
X150122345Y-140489007D01*
X150368000Y-140508341D01*
X150613655Y-140489007D01*
X150853262Y-140431483D01*
X151080920Y-140337184D01*
X151291023Y-140208433D01*
X151478399Y-140048399D01*
X151638433Y-139861023D01*
X151767184Y-139650920D01*
X151861483Y-139423262D01*
X151919007Y-139183655D01*
X151938341Y-138938000D01*
X151919007Y-138692345D01*
X151861483Y-138452738D01*
X151848228Y-138420738D01*
X151767184Y-138225079D01*
X151638436Y-138014981D01*
X151638435Y-138014979D01*
X151553843Y-137915935D01*
X151478399Y-137827601D01*
X151331071Y-137701771D01*
X151291020Y-137667564D01*
X151291018Y-137667563D01*
X151080920Y-137538815D01*
X150853264Y-137444517D01*
X150613658Y-137386993D01*
X150368000Y-137367659D01*
X150122341Y-137386993D01*
X149882735Y-137444517D01*
X149655079Y-137538815D01*
X149444981Y-137667563D01*
X149444979Y-137667564D01*
X149257601Y-137827601D01*
X149097564Y-138014979D01*
X149097563Y-138014981D01*
X148968815Y-138225079D01*
X148952714Y-138263953D01*
X148908873Y-138318356D01*
X148842579Y-138340421D01*
X148838153Y-138340500D01*
X135215281Y-138340500D01*
X135148242Y-138320815D01*
X135127600Y-138304181D01*
X124057019Y-127233600D01*
X124023534Y-127172277D01*
X124020700Y-127145919D01*
X124020700Y-72898000D01*
X125205659Y-72898000D01*
X125224993Y-73143658D01*
X125282517Y-73383264D01*
X125376815Y-73610920D01*
X125505563Y-73821018D01*
X125505564Y-73821020D01*
X125505567Y-73821023D01*
X125665601Y-74008399D01*
X125810648Y-74132280D01*
X125852979Y-74168435D01*
X125852981Y-74168436D01*
X126063079Y-74297184D01*
X126290735Y-74391482D01*
X126290736Y-74391482D01*
X126290738Y-74391483D01*
X126530345Y-74449007D01*
X126776000Y-74468341D01*
X127021655Y-74449007D01*
X127261262Y-74391483D01*
X127272132Y-74386980D01*
X127341595Y-74379508D01*
X127404076Y-74410778D01*
X127407267Y-74413857D01*
X133910141Y-80916732D01*
X133910142Y-80916733D01*
X133997267Y-81003858D01*
X133997268Y-81003859D01*
X134099707Y-81072307D01*
X134099713Y-81072310D01*
X134099714Y-81072311D01*
X134213548Y-81119463D01*
X134273971Y-81131481D01*
X134334393Y-81143500D01*
X134334394Y-81143500D01*
X150057548Y-81143500D01*
X150124587Y-81163185D01*
X150145229Y-81179819D01*
X150628256Y-81662846D01*
X150638582Y-81675427D01*
X150638731Y-81675306D01*
X150642594Y-81680014D01*
X157835381Y-88872800D01*
X157868866Y-88934123D01*
X157871700Y-88960481D01*
X157871700Y-103028414D01*
X157852015Y-103095453D01*
X157799211Y-103141208D01*
X157730053Y-103151152D01*
X157666497Y-103122127D01*
X157660019Y-103116095D01*
X152946771Y-98402847D01*
X152913286Y-98341524D01*
X152918270Y-98271832D01*
X152960142Y-98215899D01*
X153025606Y-98191482D01*
X153034452Y-98191166D01*
X153066048Y-98191166D01*
X153066049Y-98191166D01*
X153294981Y-98152964D01*
X153514503Y-98077602D01*
X153718626Y-97967136D01*
X153901784Y-97824579D01*
X154058979Y-97653819D01*
X154185924Y-97459515D01*
X154279157Y-97246966D01*
X154336134Y-97021971D01*
X154336135Y-97021963D01*
X154355300Y-96790672D01*
X154355300Y-96790659D01*
X154336135Y-96559368D01*
X154336133Y-96559357D01*
X154279157Y-96334365D01*
X154185924Y-96121817D01*
X154058983Y-95927518D01*
X154058980Y-95927515D01*
X154058979Y-95927513D01*
X153901784Y-95756753D01*
X153901779Y-95756749D01*
X153901777Y-95756747D01*
X153718634Y-95614201D01*
X153718628Y-95614197D01*
X153514504Y-95503730D01*
X153514495Y-95503727D01*
X153294984Y-95428368D01*
X153123282Y-95399716D01*
X153066049Y-95390166D01*
X152833951Y-95390166D01*
X152788164Y-95397806D01*
X152605015Y-95428368D01*
X152385504Y-95503727D01*
X152385495Y-95503730D01*
X152181371Y-95614197D01*
X152181365Y-95614201D01*
X151998222Y-95756747D01*
X151998219Y-95756750D01*
X151841015Y-95927520D01*
X151803808Y-95984470D01*
X151750662Y-96029827D01*
X151681430Y-96039250D01*
X151618095Y-96009748D01*
X151596192Y-95984470D01*
X151558984Y-95927520D01*
X151558982Y-95927518D01*
X151558979Y-95927513D01*
X151401784Y-95756753D01*
X151401779Y-95756749D01*
X151401777Y-95756747D01*
X151218634Y-95614201D01*
X151218628Y-95614197D01*
X151014504Y-95503730D01*
X151014495Y-95503727D01*
X150794984Y-95428368D01*
X150623282Y-95399716D01*
X150566049Y-95390166D01*
X150333951Y-95390166D01*
X150288164Y-95397806D01*
X150105015Y-95428368D01*
X149885504Y-95503727D01*
X149885495Y-95503730D01*
X149681371Y-95614197D01*
X149681365Y-95614201D01*
X149498222Y-95756747D01*
X149498219Y-95756750D01*
X149498216Y-95756752D01*
X149498216Y-95756753D01*
X149341021Y-95927513D01*
X149341019Y-95927515D01*
X149341017Y-95927518D01*
X149303509Y-95984928D01*
X149250362Y-96030284D01*
X149181131Y-96039707D01*
X149117795Y-96010204D01*
X149103084Y-95993227D01*
X149101186Y-95993030D01*
X148432962Y-96661255D01*
X148415925Y-96597673D01*
X148350099Y-96483659D01*
X148257007Y-96390567D01*
X148142993Y-96324741D01*
X148079409Y-96307703D01*
X148748797Y-95638313D01*
X148748797Y-95638311D01*
X148718360Y-95614621D01*
X148718354Y-95614617D01*
X148514302Y-95504189D01*
X148514293Y-95504186D01*
X148294860Y-95428854D01*
X148066007Y-95390666D01*
X147833993Y-95390666D01*
X147605139Y-95428854D01*
X147385706Y-95504186D01*
X147385697Y-95504189D01*
X147181650Y-95614615D01*
X147151200Y-95638313D01*
X147820591Y-96307703D01*
X147757007Y-96324741D01*
X147642993Y-96390567D01*
X147549901Y-96483659D01*
X147484075Y-96597673D01*
X147467037Y-96661256D01*
X146798812Y-95993031D01*
X146714516Y-96122057D01*
X146714514Y-96122061D01*
X146621317Y-96334530D01*
X146564361Y-96559447D01*
X146545202Y-96790660D01*
X146545202Y-96790666D01*
X146564361Y-97021884D01*
X146621317Y-97246801D01*
X146714516Y-97459275D01*
X146728500Y-97480679D01*
X146748687Y-97547568D01*
X146729507Y-97614754D01*
X146677049Y-97660904D01*
X146624691Y-97672500D01*
X134643786Y-97672500D01*
X134576747Y-97652815D01*
X134556105Y-97636181D01*
X128291858Y-91371934D01*
X128258373Y-91310611D01*
X128263357Y-91240919D01*
X128264944Y-91236885D01*
X128269483Y-91225928D01*
X128327007Y-90986321D01*
X128340967Y-90808948D01*
X130192408Y-90808948D01*
X130223750Y-91053603D01*
X130294627Y-91289850D01*
X130294628Y-91289852D01*
X130294630Y-91289857D01*
X130327845Y-91357657D01*
X130403144Y-91511363D01*
X130546374Y-91712165D01*
X130546380Y-91712172D01*
X130720487Y-91886888D01*
X130720492Y-91886892D01*
X130920791Y-92030822D01*
X130920797Y-92030825D01*
X131141918Y-92140110D01*
X131141919Y-92140110D01*
X131141921Y-92140111D01*
X131377926Y-92211815D01*
X131622474Y-92244010D01*
X131688914Y-92245633D01*
X131695995Y-92245807D01*
X131695996Y-92245806D01*
X131696000Y-92245807D01*
X131941829Y-92225596D01*
X132181055Y-92165507D01*
X132407256Y-92067152D01*
X132614355Y-91933174D01*
X132796790Y-91767170D01*
X132949664Y-91573598D01*
X133068869Y-91357658D01*
X133075299Y-91339503D01*
X133151203Y-91125157D01*
X133151203Y-91125155D01*
X133151206Y-91125148D01*
X133173912Y-90997675D01*
X133194461Y-90882314D01*
X133194531Y-90876566D01*
X133196192Y-90740666D01*
X133505659Y-90740666D01*
X133524993Y-90986324D01*
X133582517Y-91225930D01*
X133676815Y-91453586D01*
X133805563Y-91663684D01*
X133805564Y-91663686D01*
X133805567Y-91663689D01*
X133965601Y-91851065D01*
X134110648Y-91974946D01*
X134152979Y-92011101D01*
X134152981Y-92011102D01*
X134363079Y-92139850D01*
X134590735Y-92234148D01*
X134590736Y-92234148D01*
X134590738Y-92234149D01*
X134830345Y-92291673D01*
X135076000Y-92311007D01*
X135321655Y-92291673D01*
X135561262Y-92234149D01*
X135788920Y-92139850D01*
X135999023Y-92011099D01*
X136186399Y-91851065D01*
X136346433Y-91663689D01*
X136475184Y-91453586D01*
X136502783Y-91386956D01*
X136522439Y-91339503D01*
X136566280Y-91285100D01*
X136632574Y-91263035D01*
X136700273Y-91280314D01*
X136747884Y-91331451D01*
X136761000Y-91386956D01*
X136761000Y-91753510D01*
X136767401Y-91813038D01*
X136767403Y-91813045D01*
X136817645Y-91947752D01*
X136817649Y-91947759D01*
X136903809Y-92062853D01*
X136903812Y-92062856D01*
X137018906Y-92149016D01*
X137018913Y-92149020D01*
X137153620Y-92199262D01*
X137153627Y-92199264D01*
X137213155Y-92205665D01*
X137213172Y-92205666D01*
X137926000Y-92205666D01*
X137926000Y-91297372D01*
X137998069Y-91327224D01*
X138115920Y-91350666D01*
X138236080Y-91350666D01*
X138353931Y-91327224D01*
X138426000Y-91297372D01*
X138426000Y-92205666D01*
X139138828Y-92205666D01*
X139138844Y-92205665D01*
X139198372Y-92199264D01*
X139198379Y-92199262D01*
X139333086Y-92149020D01*
X139333093Y-92149016D01*
X139448187Y-92062856D01*
X139448190Y-92062853D01*
X139534350Y-91947759D01*
X139534354Y-91947752D01*
X139584596Y-91813045D01*
X139584598Y-91813038D01*
X139590999Y-91753510D01*
X139591000Y-91753493D01*
X139591000Y-90990666D01*
X138732706Y-90990666D01*
X138762558Y-90918597D01*
X138786000Y-90800746D01*
X138786000Y-90680586D01*
X138762558Y-90562735D01*
X138732706Y-90490666D01*
X139591000Y-90490666D01*
X139591000Y-89790660D01*
X143544556Y-89790660D01*
X143544556Y-89790671D01*
X143564310Y-90104670D01*
X143564311Y-90104677D01*
X143593063Y-90255401D01*
X143619093Y-90391856D01*
X143623270Y-90413749D01*
X143720497Y-90712982D01*
X143720499Y-90712987D01*
X143854461Y-90997669D01*
X143854464Y-90997675D01*
X144023051Y-91263327D01*
X144023054Y-91263331D01*
X144223606Y-91505756D01*
X144223608Y-91505758D01*
X144223610Y-91505760D01*
X144391782Y-91663684D01*
X144452968Y-91721142D01*
X144452978Y-91721150D01*
X144707504Y-91906074D01*
X144707509Y-91906076D01*
X144707516Y-91906082D01*
X144983234Y-92057660D01*
X144983239Y-92057662D01*
X144983241Y-92057663D01*
X144983242Y-92057664D01*
X145275771Y-92173484D01*
X145275774Y-92173485D01*
X145580523Y-92251731D01*
X145580527Y-92251732D01*
X145618460Y-92256524D01*
X145892670Y-92291165D01*
X145892679Y-92291165D01*
X145892682Y-92291166D01*
X145892684Y-92291166D01*
X146207316Y-92291166D01*
X146207318Y-92291166D01*
X146207321Y-92291165D01*
X146207329Y-92291165D01*
X146393593Y-92267634D01*
X146519473Y-92251732D01*
X146824225Y-92173485D01*
X146824228Y-92173484D01*
X147116757Y-92057664D01*
X147116758Y-92057663D01*
X147116756Y-92057663D01*
X147116766Y-92057660D01*
X147392484Y-91906082D01*
X147647030Y-91721144D01*
X147876390Y-91505760D01*
X148076947Y-91263329D01*
X148245537Y-90997673D01*
X148379503Y-90712981D01*
X148476731Y-90413745D01*
X148535688Y-90104681D01*
X148535689Y-90104670D01*
X148555444Y-89790671D01*
X148555444Y-89790660D01*
X152344556Y-89790660D01*
X152344556Y-89790671D01*
X152364310Y-90104670D01*
X152364311Y-90104677D01*
X152393063Y-90255401D01*
X152419093Y-90391856D01*
X152423270Y-90413749D01*
X152520497Y-90712982D01*
X152520499Y-90712987D01*
X152654461Y-90997669D01*
X152654464Y-90997675D01*
X152823051Y-91263327D01*
X152823054Y-91263331D01*
X153023606Y-91505756D01*
X153023608Y-91505758D01*
X153023610Y-91505760D01*
X153191782Y-91663684D01*
X153252968Y-91721142D01*
X153252978Y-91721150D01*
X153507504Y-91906074D01*
X153507509Y-91906076D01*
X153507516Y-91906082D01*
X153783234Y-92057660D01*
X153783239Y-92057662D01*
X153783241Y-92057663D01*
X153783242Y-92057664D01*
X154075771Y-92173484D01*
X154075774Y-92173485D01*
X154380523Y-92251731D01*
X154380527Y-92251732D01*
X154418460Y-92256524D01*
X154692670Y-92291165D01*
X154692679Y-92291165D01*
X154692682Y-92291166D01*
X154692684Y-92291166D01*
X155007316Y-92291166D01*
X155007318Y-92291166D01*
X155007321Y-92291165D01*
X155007329Y-92291165D01*
X155193593Y-92267634D01*
X155319473Y-92251732D01*
X155624225Y-92173485D01*
X155624228Y-92173484D01*
X155916757Y-92057664D01*
X155916758Y-92057663D01*
X155916756Y-92057663D01*
X155916766Y-92057660D01*
X156192484Y-91906082D01*
X156447030Y-91721144D01*
X156676390Y-91505760D01*
X156876947Y-91263329D01*
X157045537Y-90997673D01*
X157179503Y-90712981D01*
X157276731Y-90413745D01*
X157335688Y-90104681D01*
X157335689Y-90104670D01*
X157355444Y-89790671D01*
X157355444Y-89790660D01*
X157335689Y-89476661D01*
X157335688Y-89476654D01*
X157335688Y-89476651D01*
X157276731Y-89167587D01*
X157179503Y-88868351D01*
X157045537Y-88583659D01*
X156876947Y-88318003D01*
X156876945Y-88318000D01*
X156676393Y-88075575D01*
X156676391Y-88075573D01*
X156447031Y-87860189D01*
X156447021Y-87860181D01*
X156192495Y-87675257D01*
X156192488Y-87675252D01*
X156192484Y-87675250D01*
X155916766Y-87523672D01*
X155916763Y-87523670D01*
X155916758Y-87523668D01*
X155916757Y-87523667D01*
X155624228Y-87407847D01*
X155624225Y-87407846D01*
X155319476Y-87329600D01*
X155319463Y-87329598D01*
X155007329Y-87290166D01*
X155007318Y-87290166D01*
X154692682Y-87290166D01*
X154692670Y-87290166D01*
X154380536Y-87329598D01*
X154380523Y-87329600D01*
X154075774Y-87407846D01*
X154075771Y-87407847D01*
X153783242Y-87523667D01*
X153783241Y-87523668D01*
X153507516Y-87675250D01*
X153507504Y-87675257D01*
X153252978Y-87860181D01*
X153252968Y-87860189D01*
X153023608Y-88075573D01*
X153023606Y-88075575D01*
X152823054Y-88318000D01*
X152823051Y-88318004D01*
X152654464Y-88583656D01*
X152654461Y-88583662D01*
X152520499Y-88868344D01*
X152520497Y-88868349D01*
X152423270Y-89167582D01*
X152364311Y-89476654D01*
X152364310Y-89476661D01*
X152344556Y-89790660D01*
X148555444Y-89790660D01*
X148535689Y-89476661D01*
X148535688Y-89476654D01*
X148535688Y-89476651D01*
X148476731Y-89167587D01*
X148379503Y-88868351D01*
X148245537Y-88583659D01*
X148076947Y-88318003D01*
X148076945Y-88318000D01*
X147876393Y-88075575D01*
X147876391Y-88075573D01*
X147647031Y-87860189D01*
X147647021Y-87860181D01*
X147392495Y-87675257D01*
X147392488Y-87675252D01*
X147392484Y-87675250D01*
X147116766Y-87523672D01*
X147116763Y-87523670D01*
X147116758Y-87523668D01*
X147116757Y-87523667D01*
X146824228Y-87407847D01*
X146824225Y-87407846D01*
X146519476Y-87329600D01*
X146519463Y-87329598D01*
X146207329Y-87290166D01*
X146207318Y-87290166D01*
X145892682Y-87290166D01*
X145892670Y-87290166D01*
X145580536Y-87329598D01*
X145580523Y-87329600D01*
X145275774Y-87407846D01*
X145275771Y-87407847D01*
X144983242Y-87523667D01*
X144983241Y-87523668D01*
X144707516Y-87675250D01*
X144707504Y-87675257D01*
X144452978Y-87860181D01*
X144452968Y-87860189D01*
X144223608Y-88075573D01*
X144223606Y-88075575D01*
X144023054Y-88318000D01*
X144023051Y-88318004D01*
X143854464Y-88583656D01*
X143854461Y-88583662D01*
X143720499Y-88868344D01*
X143720497Y-88868349D01*
X143623270Y-89167582D01*
X143564311Y-89476654D01*
X143564310Y-89476661D01*
X143544556Y-89790660D01*
X139591000Y-89790660D01*
X139591000Y-89727838D01*
X139590999Y-89727821D01*
X139584598Y-89668293D01*
X139584596Y-89668286D01*
X139534354Y-89533579D01*
X139534350Y-89533572D01*
X139448190Y-89418478D01*
X139448187Y-89418475D01*
X139333093Y-89332315D01*
X139333086Y-89332311D01*
X139198379Y-89282069D01*
X139198372Y-89282067D01*
X139138844Y-89275666D01*
X138426000Y-89275666D01*
X138426000Y-90183959D01*
X138353931Y-90154108D01*
X138236080Y-90130666D01*
X138115920Y-90130666D01*
X137998069Y-90154108D01*
X137926000Y-90183959D01*
X137926000Y-89275666D01*
X137213155Y-89275666D01*
X137153627Y-89282067D01*
X137153620Y-89282069D01*
X137018913Y-89332311D01*
X137018906Y-89332315D01*
X136903812Y-89418475D01*
X136903809Y-89418478D01*
X136817649Y-89533572D01*
X136817645Y-89533579D01*
X136767403Y-89668286D01*
X136767401Y-89668293D01*
X136761000Y-89727821D01*
X136761000Y-90094375D01*
X136741315Y-90161414D01*
X136688511Y-90207169D01*
X136619353Y-90217113D01*
X136555797Y-90188088D01*
X136522439Y-90141828D01*
X136475184Y-90027745D01*
X136346436Y-89817647D01*
X136346435Y-89817645D01*
X136310280Y-89775314D01*
X136186399Y-89630267D01*
X136062516Y-89524461D01*
X135999020Y-89470230D01*
X135999018Y-89470229D01*
X135788920Y-89341481D01*
X135561264Y-89247183D01*
X135321658Y-89189659D01*
X135076000Y-89170325D01*
X134830341Y-89189659D01*
X134590735Y-89247183D01*
X134363079Y-89341481D01*
X134152981Y-89470229D01*
X134152979Y-89470230D01*
X133965601Y-89630267D01*
X133805564Y-89817645D01*
X133805563Y-89817647D01*
X133676815Y-90027745D01*
X133582517Y-90255401D01*
X133524993Y-90495007D01*
X133505659Y-90740666D01*
X133196192Y-90740666D01*
X133197475Y-90635673D01*
X133160165Y-90391853D01*
X133083534Y-90157400D01*
X133056088Y-90104677D01*
X132969643Y-89938617D01*
X132969641Y-89938614D01*
X132969640Y-89938612D01*
X132821542Y-89741363D01*
X132745071Y-89668286D01*
X132643220Y-89570955D01*
X132643207Y-89570945D01*
X132439452Y-89431953D01*
X132439447Y-89431951D01*
X132215731Y-89328105D01*
X132215723Y-89328102D01*
X131978039Y-89262186D01*
X131978038Y-89262185D01*
X131978035Y-89262185D01*
X131918489Y-89255821D01*
X131732774Y-89235973D01*
X131486525Y-89250173D01*
X131486520Y-89250173D01*
X131245907Y-89304397D01*
X131017363Y-89397199D01*
X130807052Y-89526078D01*
X130620619Y-89687573D01*
X130463062Y-89877351D01*
X130463054Y-89877362D01*
X130338614Y-90090316D01*
X130250624Y-90320738D01*
X130201447Y-90562451D01*
X130192408Y-90808948D01*
X128340967Y-90808948D01*
X128346341Y-90740666D01*
X128327007Y-90495011D01*
X128269483Y-90255404D01*
X128269482Y-90255401D01*
X128175184Y-90027745D01*
X128046436Y-89817647D01*
X128046435Y-89817645D01*
X128010280Y-89775314D01*
X127886399Y-89630267D01*
X127762516Y-89524461D01*
X127699020Y-89470230D01*
X127699018Y-89470229D01*
X127488920Y-89341481D01*
X127261264Y-89247183D01*
X127021658Y-89189659D01*
X126776000Y-89170325D01*
X126530341Y-89189659D01*
X126290735Y-89247183D01*
X126063079Y-89341481D01*
X125852981Y-89470229D01*
X125852979Y-89470230D01*
X125665601Y-89630267D01*
X125505564Y-89817645D01*
X125505563Y-89817647D01*
X125376815Y-90027745D01*
X125282517Y-90255401D01*
X125224993Y-90495007D01*
X125205659Y-90740666D01*
X125224993Y-90986324D01*
X125282517Y-91225930D01*
X125376815Y-91453586D01*
X125505563Y-91663684D01*
X125505564Y-91663686D01*
X125505567Y-91663689D01*
X125665601Y-91851065D01*
X125810648Y-91974946D01*
X125852979Y-92011101D01*
X125852981Y-92011102D01*
X126063079Y-92139850D01*
X126290735Y-92234148D01*
X126290736Y-92234148D01*
X126290738Y-92234149D01*
X126530345Y-92291673D01*
X126776000Y-92311007D01*
X127021655Y-92291673D01*
X127261262Y-92234149D01*
X127272132Y-92229646D01*
X127341595Y-92222174D01*
X127404076Y-92253444D01*
X127407268Y-92256524D01*
X133844350Y-98693606D01*
X133844379Y-98693637D01*
X133934597Y-98783855D01*
X133934601Y-98783858D01*
X134037041Y-98852307D01*
X134037047Y-98852310D01*
X134037048Y-98852311D01*
X134150882Y-98899463D01*
X134211305Y-98911481D01*
X134271727Y-98923500D01*
X134271728Y-98923500D01*
X149803548Y-98923500D01*
X149870587Y-98943185D01*
X149891229Y-98959819D01*
X152342756Y-101411346D01*
X152353082Y-101423927D01*
X152353231Y-101423806D01*
X152357094Y-101428514D01*
X156140568Y-105211987D01*
X156174053Y-105273310D01*
X156169069Y-105343002D01*
X156127197Y-105398935D01*
X156061733Y-105423352D01*
X155993460Y-105408500D01*
X155993150Y-105408330D01*
X155916765Y-105366337D01*
X155916757Y-105366333D01*
X155624228Y-105250513D01*
X155624225Y-105250512D01*
X155319476Y-105172266D01*
X155319463Y-105172264D01*
X155007329Y-105132832D01*
X155007318Y-105132832D01*
X154692682Y-105132832D01*
X154692670Y-105132832D01*
X154380536Y-105172264D01*
X154380523Y-105172266D01*
X154075774Y-105250512D01*
X154075771Y-105250513D01*
X153783242Y-105366333D01*
X153783241Y-105366334D01*
X153507516Y-105517916D01*
X153507504Y-105517923D01*
X153252978Y-105702847D01*
X153252968Y-105702855D01*
X153023608Y-105918239D01*
X153023606Y-105918241D01*
X152823054Y-106160666D01*
X152823051Y-106160670D01*
X152654464Y-106426322D01*
X152654461Y-106426328D01*
X152520499Y-106711010D01*
X152520497Y-106711015D01*
X152423270Y-107010248D01*
X152364311Y-107319320D01*
X152364310Y-107319327D01*
X152344556Y-107633326D01*
X152344556Y-107633337D01*
X152364310Y-107947336D01*
X152364311Y-107947343D01*
X152393063Y-108098067D01*
X152419093Y-108234522D01*
X152423270Y-108256415D01*
X152520497Y-108555648D01*
X152520499Y-108555653D01*
X152654461Y-108840335D01*
X152654464Y-108840341D01*
X152823051Y-109105993D01*
X152823054Y-109105997D01*
X153023606Y-109348422D01*
X153023608Y-109348424D01*
X153023610Y-109348426D01*
X153191782Y-109506350D01*
X153252968Y-109563808D01*
X153252978Y-109563816D01*
X153507504Y-109748740D01*
X153507509Y-109748742D01*
X153507516Y-109748748D01*
X153783234Y-109900326D01*
X153783239Y-109900328D01*
X153783241Y-109900329D01*
X153783242Y-109900330D01*
X154075771Y-110016150D01*
X154075774Y-110016151D01*
X154380523Y-110094397D01*
X154380527Y-110094398D01*
X154418460Y-110099190D01*
X154692670Y-110133831D01*
X154692679Y-110133831D01*
X154692682Y-110133832D01*
X154692684Y-110133832D01*
X155007316Y-110133832D01*
X155007318Y-110133832D01*
X155007321Y-110133831D01*
X155007329Y-110133831D01*
X155193593Y-110110300D01*
X155319473Y-110094398D01*
X155624225Y-110016151D01*
X155624228Y-110016150D01*
X155916757Y-109900330D01*
X155916758Y-109900329D01*
X155916756Y-109900329D01*
X155916766Y-109900326D01*
X156192484Y-109748748D01*
X156447030Y-109563810D01*
X156643618Y-109379200D01*
X156705960Y-109347660D01*
X156775461Y-109354831D01*
X156830052Y-109398438D01*
X156852401Y-109464637D01*
X156852500Y-109469594D01*
X156852500Y-123639736D01*
X156832815Y-123706775D01*
X156780011Y-123752530D01*
X156710853Y-123762474D01*
X156647297Y-123733449D01*
X156643616Y-123730128D01*
X156447031Y-123545523D01*
X156447021Y-123545515D01*
X156192495Y-123360591D01*
X156192488Y-123360586D01*
X156192484Y-123360584D01*
X155916766Y-123209006D01*
X155916763Y-123209004D01*
X155916758Y-123209002D01*
X155916757Y-123209001D01*
X155624228Y-123093181D01*
X155624225Y-123093180D01*
X155319476Y-123014934D01*
X155319463Y-123014932D01*
X155007329Y-122975500D01*
X155007318Y-122975500D01*
X154692682Y-122975500D01*
X154692670Y-122975500D01*
X154380536Y-123014932D01*
X154380523Y-123014934D01*
X154075774Y-123093180D01*
X154075771Y-123093181D01*
X153783242Y-123209001D01*
X153783241Y-123209002D01*
X153507516Y-123360584D01*
X153507504Y-123360591D01*
X153252978Y-123545515D01*
X153252968Y-123545523D01*
X153023608Y-123760907D01*
X153023606Y-123760909D01*
X152993043Y-123797854D01*
X152935143Y-123836961D01*
X152865292Y-123838557D01*
X152805666Y-123802135D01*
X152775197Y-123739259D01*
X152773500Y-123718813D01*
X152773500Y-117286196D01*
X152772903Y-117280134D01*
X152773094Y-117280115D01*
X152771500Y-117263928D01*
X152771500Y-116267725D01*
X152771499Y-116267723D01*
X152771275Y-116266595D01*
X152771268Y-116266562D01*
X152754453Y-116182022D01*
X152760682Y-116112430D01*
X152803545Y-116057253D01*
X152869435Y-116034010D01*
X152876071Y-116033832D01*
X153066048Y-116033832D01*
X153066049Y-116033832D01*
X153294981Y-115995630D01*
X153514503Y-115920268D01*
X153718626Y-115809802D01*
X153901784Y-115667245D01*
X154058979Y-115496485D01*
X154185924Y-115302181D01*
X154279157Y-115089632D01*
X154336134Y-114864637D01*
X154336135Y-114864629D01*
X154355300Y-114633338D01*
X154355300Y-114633325D01*
X154336135Y-114402034D01*
X154336133Y-114402023D01*
X154279157Y-114177031D01*
X154185924Y-113964483D01*
X154058983Y-113770184D01*
X154058980Y-113770181D01*
X154058979Y-113770179D01*
X153901784Y-113599419D01*
X153901779Y-113599415D01*
X153901777Y-113599413D01*
X153718634Y-113456867D01*
X153718628Y-113456863D01*
X153514504Y-113346396D01*
X153514495Y-113346393D01*
X153294984Y-113271034D01*
X153123282Y-113242382D01*
X153066049Y-113232832D01*
X152833951Y-113232832D01*
X152788164Y-113240472D01*
X152605015Y-113271034D01*
X152385504Y-113346393D01*
X152385495Y-113346396D01*
X152181371Y-113456863D01*
X152181365Y-113456867D01*
X151998222Y-113599413D01*
X151998219Y-113599416D01*
X151841015Y-113770186D01*
X151803808Y-113827136D01*
X151750662Y-113872493D01*
X151681430Y-113881916D01*
X151618095Y-113852414D01*
X151596192Y-113827136D01*
X151558984Y-113770186D01*
X151558982Y-113770184D01*
X151558979Y-113770179D01*
X151401784Y-113599419D01*
X151401779Y-113599415D01*
X151401777Y-113599413D01*
X151218634Y-113456867D01*
X151218628Y-113456863D01*
X151014504Y-113346396D01*
X151014495Y-113346393D01*
X150794984Y-113271034D01*
X150623282Y-113242382D01*
X150566049Y-113232832D01*
X150333951Y-113232832D01*
X150288164Y-113240472D01*
X150105015Y-113271034D01*
X149885504Y-113346393D01*
X149885495Y-113346396D01*
X149681371Y-113456863D01*
X149681365Y-113456867D01*
X149498222Y-113599413D01*
X149498219Y-113599416D01*
X149498216Y-113599418D01*
X149498216Y-113599419D01*
X149341021Y-113770179D01*
X149341019Y-113770181D01*
X149341017Y-113770184D01*
X149303509Y-113827594D01*
X149250362Y-113872950D01*
X149181131Y-113882373D01*
X149117795Y-113852870D01*
X149103084Y-113835893D01*
X149101186Y-113835696D01*
X148432962Y-114503921D01*
X148415925Y-114440339D01*
X148350099Y-114326325D01*
X148257007Y-114233233D01*
X148142993Y-114167407D01*
X148079409Y-114150369D01*
X148748797Y-113480979D01*
X148748797Y-113480977D01*
X148718360Y-113457287D01*
X148718354Y-113457283D01*
X148514302Y-113346855D01*
X148514293Y-113346852D01*
X148294860Y-113271520D01*
X148066007Y-113233332D01*
X147833993Y-113233332D01*
X147605139Y-113271520D01*
X147385706Y-113346852D01*
X147385697Y-113346855D01*
X147181650Y-113457281D01*
X147151200Y-113480979D01*
X147820591Y-114150369D01*
X147757007Y-114167407D01*
X147642993Y-114233233D01*
X147549901Y-114326325D01*
X147484075Y-114440339D01*
X147467037Y-114503922D01*
X146798812Y-113835697D01*
X146714516Y-113964723D01*
X146714514Y-113964727D01*
X146621317Y-114177196D01*
X146564361Y-114402113D01*
X146545202Y-114633326D01*
X146545202Y-114633332D01*
X146564361Y-114864550D01*
X146621317Y-115089467D01*
X146714516Y-115301941D01*
X146770531Y-115387679D01*
X146790719Y-115454569D01*
X146771538Y-115521754D01*
X146719079Y-115567904D01*
X146666722Y-115579500D01*
X134708120Y-115579500D01*
X134641081Y-115559815D01*
X134620439Y-115543181D01*
X128291858Y-109214600D01*
X128258373Y-109153277D01*
X128263357Y-109083585D01*
X128264944Y-109079551D01*
X128269483Y-109068594D01*
X128327007Y-108828987D01*
X128340967Y-108651614D01*
X130192408Y-108651614D01*
X130223750Y-108896269D01*
X130294627Y-109132516D01*
X130294628Y-109132518D01*
X130294630Y-109132523D01*
X130327845Y-109200323D01*
X130403144Y-109354029D01*
X130546374Y-109554831D01*
X130546380Y-109554838D01*
X130720487Y-109729554D01*
X130720492Y-109729558D01*
X130920791Y-109873488D01*
X130920797Y-109873491D01*
X131141918Y-109982776D01*
X131141919Y-109982776D01*
X131141921Y-109982777D01*
X131377926Y-110054481D01*
X131622474Y-110086676D01*
X131688914Y-110088299D01*
X131695995Y-110088473D01*
X131695996Y-110088472D01*
X131696000Y-110088473D01*
X131941829Y-110068262D01*
X132181055Y-110008173D01*
X132407256Y-109909818D01*
X132614355Y-109775840D01*
X132796790Y-109609836D01*
X132949664Y-109416264D01*
X133068869Y-109200324D01*
X133075299Y-109182169D01*
X133151203Y-108967823D01*
X133151203Y-108967821D01*
X133151206Y-108967814D01*
X133173912Y-108840341D01*
X133194461Y-108724980D01*
X133194531Y-108719232D01*
X133196192Y-108583332D01*
X133505659Y-108583332D01*
X133524993Y-108828990D01*
X133582517Y-109068596D01*
X133676815Y-109296252D01*
X133805563Y-109506350D01*
X133805564Y-109506352D01*
X133805567Y-109506355D01*
X133965601Y-109693731D01*
X134110648Y-109817612D01*
X134152979Y-109853767D01*
X134152981Y-109853768D01*
X134363079Y-109982516D01*
X134590735Y-110076814D01*
X134590736Y-110076814D01*
X134590738Y-110076815D01*
X134830345Y-110134339D01*
X135076000Y-110153673D01*
X135321655Y-110134339D01*
X135561262Y-110076815D01*
X135788920Y-109982516D01*
X135999023Y-109853765D01*
X136186399Y-109693731D01*
X136346433Y-109506355D01*
X136475184Y-109296252D01*
X136502783Y-109229622D01*
X136522439Y-109182169D01*
X136566280Y-109127766D01*
X136632574Y-109105701D01*
X136700273Y-109122980D01*
X136747884Y-109174117D01*
X136761000Y-109229622D01*
X136761000Y-109596176D01*
X136767401Y-109655704D01*
X136767403Y-109655711D01*
X136817645Y-109790418D01*
X136817649Y-109790425D01*
X136903809Y-109905519D01*
X136903812Y-109905522D01*
X137018906Y-109991682D01*
X137018913Y-109991686D01*
X137153620Y-110041928D01*
X137153627Y-110041930D01*
X137213155Y-110048331D01*
X137213172Y-110048332D01*
X137926000Y-110048332D01*
X137926000Y-109140038D01*
X137998069Y-109169890D01*
X138115920Y-109193332D01*
X138236080Y-109193332D01*
X138353931Y-109169890D01*
X138426000Y-109140038D01*
X138426000Y-110048332D01*
X139138828Y-110048332D01*
X139138844Y-110048331D01*
X139198372Y-110041930D01*
X139198379Y-110041928D01*
X139333086Y-109991686D01*
X139333093Y-109991682D01*
X139448187Y-109905522D01*
X139448190Y-109905519D01*
X139534350Y-109790425D01*
X139534354Y-109790418D01*
X139584596Y-109655711D01*
X139584598Y-109655704D01*
X139590999Y-109596176D01*
X139591000Y-109596159D01*
X139591000Y-108833332D01*
X138732706Y-108833332D01*
X138762558Y-108761263D01*
X138786000Y-108643412D01*
X138786000Y-108523252D01*
X138762558Y-108405401D01*
X138732706Y-108333332D01*
X139591000Y-108333332D01*
X139591000Y-107633326D01*
X143544556Y-107633326D01*
X143544556Y-107633337D01*
X143564310Y-107947336D01*
X143564311Y-107947343D01*
X143593063Y-108098067D01*
X143619093Y-108234522D01*
X143623270Y-108256415D01*
X143720497Y-108555648D01*
X143720499Y-108555653D01*
X143854461Y-108840335D01*
X143854464Y-108840341D01*
X144023051Y-109105993D01*
X144023054Y-109105997D01*
X144223606Y-109348422D01*
X144223608Y-109348424D01*
X144223610Y-109348426D01*
X144391782Y-109506350D01*
X144452968Y-109563808D01*
X144452978Y-109563816D01*
X144707504Y-109748740D01*
X144707509Y-109748742D01*
X144707516Y-109748748D01*
X144983234Y-109900326D01*
X144983239Y-109900328D01*
X144983241Y-109900329D01*
X144983242Y-109900330D01*
X145275771Y-110016150D01*
X145275774Y-110016151D01*
X145580523Y-110094397D01*
X145580527Y-110094398D01*
X145618460Y-110099190D01*
X145892670Y-110133831D01*
X145892679Y-110133831D01*
X145892682Y-110133832D01*
X145892684Y-110133832D01*
X146207316Y-110133832D01*
X146207318Y-110133832D01*
X146207321Y-110133831D01*
X146207329Y-110133831D01*
X146393593Y-110110300D01*
X146519473Y-110094398D01*
X146824225Y-110016151D01*
X146824228Y-110016150D01*
X147116757Y-109900330D01*
X147116758Y-109900329D01*
X147116756Y-109900329D01*
X147116766Y-109900326D01*
X147392484Y-109748748D01*
X147647030Y-109563810D01*
X147876390Y-109348426D01*
X148076947Y-109105995D01*
X148245537Y-108840339D01*
X148379503Y-108555647D01*
X148476731Y-108256411D01*
X148535688Y-107947347D01*
X148535689Y-107947336D01*
X148555444Y-107633337D01*
X148555444Y-107633326D01*
X148535689Y-107319327D01*
X148535688Y-107319320D01*
X148535688Y-107319317D01*
X148476731Y-107010253D01*
X148379503Y-106711017D01*
X148245537Y-106426325D01*
X148076947Y-106160669D01*
X148076945Y-106160666D01*
X147876393Y-105918241D01*
X147876391Y-105918239D01*
X147647031Y-105702855D01*
X147647021Y-105702847D01*
X147392495Y-105517923D01*
X147392488Y-105517918D01*
X147392484Y-105517916D01*
X147116766Y-105366338D01*
X147116763Y-105366336D01*
X147116758Y-105366334D01*
X147116757Y-105366333D01*
X146824228Y-105250513D01*
X146824225Y-105250512D01*
X146519476Y-105172266D01*
X146519463Y-105172264D01*
X146207329Y-105132832D01*
X146207318Y-105132832D01*
X145892682Y-105132832D01*
X145892670Y-105132832D01*
X145580536Y-105172264D01*
X145580523Y-105172266D01*
X145275774Y-105250512D01*
X145275771Y-105250513D01*
X144983242Y-105366333D01*
X144983241Y-105366334D01*
X144707516Y-105517916D01*
X144707504Y-105517923D01*
X144452978Y-105702847D01*
X144452968Y-105702855D01*
X144223608Y-105918239D01*
X144223606Y-105918241D01*
X144023054Y-106160666D01*
X144023051Y-106160670D01*
X143854464Y-106426322D01*
X143854461Y-106426328D01*
X143720499Y-106711010D01*
X143720497Y-106711015D01*
X143623270Y-107010248D01*
X143564311Y-107319320D01*
X143564310Y-107319327D01*
X143544556Y-107633326D01*
X139591000Y-107633326D01*
X139591000Y-107570504D01*
X139590999Y-107570487D01*
X139584598Y-107510959D01*
X139584596Y-107510952D01*
X139534354Y-107376245D01*
X139534350Y-107376238D01*
X139448190Y-107261144D01*
X139448187Y-107261141D01*
X139333093Y-107174981D01*
X139333086Y-107174977D01*
X139198379Y-107124735D01*
X139198372Y-107124733D01*
X139138844Y-107118332D01*
X138426000Y-107118332D01*
X138426000Y-108026625D01*
X138353931Y-107996774D01*
X138236080Y-107973332D01*
X138115920Y-107973332D01*
X137998069Y-107996774D01*
X137926000Y-108026625D01*
X137926000Y-107118332D01*
X137213155Y-107118332D01*
X137153627Y-107124733D01*
X137153620Y-107124735D01*
X137018913Y-107174977D01*
X137018906Y-107174981D01*
X136903812Y-107261141D01*
X136903809Y-107261144D01*
X136817649Y-107376238D01*
X136817645Y-107376245D01*
X136767403Y-107510952D01*
X136767401Y-107510959D01*
X136761000Y-107570487D01*
X136761000Y-107937041D01*
X136741315Y-108004080D01*
X136688511Y-108049835D01*
X136619353Y-108059779D01*
X136555797Y-108030754D01*
X136522439Y-107984494D01*
X136475184Y-107870411D01*
X136346436Y-107660313D01*
X136346435Y-107660311D01*
X136310280Y-107617980D01*
X136186399Y-107472933D01*
X136062516Y-107367127D01*
X135999020Y-107312896D01*
X135999018Y-107312895D01*
X135788920Y-107184147D01*
X135561264Y-107089849D01*
X135321658Y-107032325D01*
X135076000Y-107012991D01*
X134830341Y-107032325D01*
X134590735Y-107089849D01*
X134363079Y-107184147D01*
X134152981Y-107312895D01*
X134152979Y-107312896D01*
X133965601Y-107472933D01*
X133805564Y-107660311D01*
X133805563Y-107660313D01*
X133676815Y-107870411D01*
X133582517Y-108098067D01*
X133524993Y-108337673D01*
X133505659Y-108583332D01*
X133196192Y-108583332D01*
X133197475Y-108478339D01*
X133160165Y-108234519D01*
X133083534Y-108000066D01*
X133056088Y-107947343D01*
X132969643Y-107781283D01*
X132969641Y-107781280D01*
X132969640Y-107781278D01*
X132821542Y-107584029D01*
X132745071Y-107510952D01*
X132643220Y-107413621D01*
X132643207Y-107413611D01*
X132439452Y-107274619D01*
X132439447Y-107274617D01*
X132215731Y-107170771D01*
X132215723Y-107170768D01*
X131978039Y-107104852D01*
X131978038Y-107104851D01*
X131978035Y-107104851D01*
X131918489Y-107098487D01*
X131732774Y-107078639D01*
X131486525Y-107092839D01*
X131486520Y-107092839D01*
X131245907Y-107147063D01*
X131017363Y-107239865D01*
X130807052Y-107368744D01*
X130620619Y-107530239D01*
X130463062Y-107720017D01*
X130463054Y-107720028D01*
X130338614Y-107932982D01*
X130250624Y-108163404D01*
X130201447Y-108405117D01*
X130192408Y-108651614D01*
X128340967Y-108651614D01*
X128346341Y-108583332D01*
X128327007Y-108337677D01*
X128269483Y-108098070D01*
X128269482Y-108098067D01*
X128175184Y-107870411D01*
X128046436Y-107660313D01*
X128046435Y-107660311D01*
X128010280Y-107617980D01*
X127886399Y-107472933D01*
X127762516Y-107367127D01*
X127699020Y-107312896D01*
X127699018Y-107312895D01*
X127488920Y-107184147D01*
X127261264Y-107089849D01*
X127021658Y-107032325D01*
X126776000Y-107012991D01*
X126530341Y-107032325D01*
X126290735Y-107089849D01*
X126063079Y-107184147D01*
X125852981Y-107312895D01*
X125852979Y-107312896D01*
X125665601Y-107472933D01*
X125505564Y-107660311D01*
X125505563Y-107660313D01*
X125376815Y-107870411D01*
X125282517Y-108098067D01*
X125224993Y-108337673D01*
X125205659Y-108583332D01*
X125224993Y-108828990D01*
X125282517Y-109068596D01*
X125376815Y-109296252D01*
X125505563Y-109506350D01*
X125505564Y-109506352D01*
X125505567Y-109506355D01*
X125665601Y-109693731D01*
X125810648Y-109817612D01*
X125852979Y-109853767D01*
X125852981Y-109853768D01*
X126063079Y-109982516D01*
X126290735Y-110076814D01*
X126290736Y-110076814D01*
X126290738Y-110076815D01*
X126530345Y-110134339D01*
X126776000Y-110153673D01*
X127021655Y-110134339D01*
X127261262Y-110076815D01*
X127272132Y-110072312D01*
X127341595Y-110064840D01*
X127404076Y-110096110D01*
X127407268Y-110099190D01*
X133908684Y-116600606D01*
X133908713Y-116600637D01*
X133998931Y-116690855D01*
X133998935Y-116690858D01*
X134101375Y-116759307D01*
X134101381Y-116759310D01*
X134101382Y-116759311D01*
X134215216Y-116806463D01*
X134259086Y-116815189D01*
X134336059Y-116830499D01*
X134336060Y-116830500D01*
X134336061Y-116830500D01*
X134336062Y-116830500D01*
X149676548Y-116830500D01*
X149743587Y-116850185D01*
X149764229Y-116866819D01*
X149866256Y-116968846D01*
X149876581Y-116981426D01*
X149876730Y-116981305D01*
X149880592Y-116986012D01*
X150974181Y-118079600D01*
X151007666Y-118140923D01*
X151010500Y-118167281D01*
X151010500Y-128585807D01*
X151034612Y-128707028D01*
X151034614Y-128707035D01*
X151059283Y-128766589D01*
X151081917Y-128821233D01*
X151081919Y-128821237D01*
X151103805Y-128853991D01*
X151103807Y-128853993D01*
X151150590Y-128924010D01*
X151150591Y-128924011D01*
X153090400Y-130863819D01*
X153123885Y-130925142D01*
X153118901Y-130994834D01*
X153077029Y-131050767D01*
X153011565Y-131075184D01*
X153002719Y-131075500D01*
X152833951Y-131075500D01*
X152788164Y-131083140D01*
X152605015Y-131113702D01*
X152385504Y-131189061D01*
X152385495Y-131189064D01*
X152181371Y-131299531D01*
X152181365Y-131299535D01*
X151998222Y-131442081D01*
X151998219Y-131442084D01*
X151841015Y-131612854D01*
X151803808Y-131669804D01*
X151750662Y-131715161D01*
X151681430Y-131724584D01*
X151618095Y-131695082D01*
X151596192Y-131669804D01*
X151558984Y-131612854D01*
X151558982Y-131612852D01*
X151558979Y-131612847D01*
X151401784Y-131442087D01*
X151401779Y-131442083D01*
X151401777Y-131442081D01*
X151218634Y-131299535D01*
X151218628Y-131299531D01*
X151014504Y-131189064D01*
X151014495Y-131189061D01*
X150794984Y-131113702D01*
X150623282Y-131085050D01*
X150566049Y-131075500D01*
X150333951Y-131075500D01*
X150288164Y-131083140D01*
X150105015Y-131113702D01*
X149885504Y-131189061D01*
X149885495Y-131189064D01*
X149681371Y-131299531D01*
X149681365Y-131299535D01*
X149498222Y-131442081D01*
X149498219Y-131442084D01*
X149498216Y-131442086D01*
X149498216Y-131442087D01*
X149341021Y-131612847D01*
X149341019Y-131612849D01*
X149341017Y-131612852D01*
X149303509Y-131670262D01*
X149250362Y-131715618D01*
X149181131Y-131725041D01*
X149117795Y-131695538D01*
X149103084Y-131678561D01*
X149101186Y-131678364D01*
X148432962Y-132346589D01*
X148415925Y-132283007D01*
X148350099Y-132168993D01*
X148257007Y-132075901D01*
X148142993Y-132010075D01*
X148079409Y-131993037D01*
X148748797Y-131323647D01*
X148748797Y-131323645D01*
X148718360Y-131299955D01*
X148718354Y-131299951D01*
X148514302Y-131189523D01*
X148514293Y-131189520D01*
X148294860Y-131114188D01*
X148066007Y-131076000D01*
X147833993Y-131076000D01*
X147605139Y-131114188D01*
X147385706Y-131189520D01*
X147385697Y-131189523D01*
X147181650Y-131299949D01*
X147151200Y-131323647D01*
X147820591Y-131993037D01*
X147757007Y-132010075D01*
X147642993Y-132075901D01*
X147549901Y-132168993D01*
X147484075Y-132283007D01*
X147467037Y-132346590D01*
X146798812Y-131678365D01*
X146714516Y-131807391D01*
X146714514Y-131807395D01*
X146621317Y-132019864D01*
X146564361Y-132244781D01*
X146545202Y-132475994D01*
X146545202Y-132476000D01*
X146564361Y-132707218D01*
X146621317Y-132932135D01*
X146675952Y-133056690D01*
X146684855Y-133125990D01*
X146654878Y-133189102D01*
X146595538Y-133225989D01*
X146562396Y-133230500D01*
X134516452Y-133230500D01*
X134449413Y-133210815D01*
X134428771Y-133194181D01*
X128291858Y-127057268D01*
X128258373Y-126995945D01*
X128263357Y-126926253D01*
X128264944Y-126922219D01*
X128269483Y-126911262D01*
X128327007Y-126671655D01*
X128340967Y-126494282D01*
X130192408Y-126494282D01*
X130223750Y-126738937D01*
X130294627Y-126975184D01*
X130294628Y-126975186D01*
X130294630Y-126975191D01*
X130327845Y-127042991D01*
X130403144Y-127196697D01*
X130546374Y-127397499D01*
X130546380Y-127397506D01*
X130720487Y-127572222D01*
X130720492Y-127572226D01*
X130920791Y-127716156D01*
X130920797Y-127716159D01*
X131141918Y-127825444D01*
X131141919Y-127825444D01*
X131141921Y-127825445D01*
X131377926Y-127897149D01*
X131622474Y-127929344D01*
X131688914Y-127930967D01*
X131695995Y-127931141D01*
X131695996Y-127931140D01*
X131696000Y-127931141D01*
X131941829Y-127910930D01*
X132181055Y-127850841D01*
X132407256Y-127752486D01*
X132614355Y-127618508D01*
X132796790Y-127452504D01*
X132949664Y-127258932D01*
X133068869Y-127042992D01*
X133075299Y-127024837D01*
X133151203Y-126810491D01*
X133151203Y-126810489D01*
X133151206Y-126810482D01*
X133173912Y-126683009D01*
X133194461Y-126567648D01*
X133194531Y-126561900D01*
X133196192Y-126426000D01*
X133505659Y-126426000D01*
X133524993Y-126671658D01*
X133582517Y-126911264D01*
X133676815Y-127138920D01*
X133805563Y-127349018D01*
X133805564Y-127349020D01*
X133805567Y-127349023D01*
X133965601Y-127536399D01*
X134110648Y-127660280D01*
X134152979Y-127696435D01*
X134152981Y-127696436D01*
X134363079Y-127825184D01*
X134590735Y-127919482D01*
X134590736Y-127919482D01*
X134590738Y-127919483D01*
X134830345Y-127977007D01*
X135076000Y-127996341D01*
X135321655Y-127977007D01*
X135561262Y-127919483D01*
X135788920Y-127825184D01*
X135999023Y-127696433D01*
X136186399Y-127536399D01*
X136346433Y-127349023D01*
X136475184Y-127138920D01*
X136502783Y-127072290D01*
X136522439Y-127024837D01*
X136566280Y-126970434D01*
X136632574Y-126948369D01*
X136700273Y-126965648D01*
X136747884Y-127016785D01*
X136761000Y-127072290D01*
X136761000Y-127438844D01*
X136767401Y-127498372D01*
X136767403Y-127498379D01*
X136817645Y-127633086D01*
X136817649Y-127633093D01*
X136903809Y-127748187D01*
X136903812Y-127748190D01*
X137018906Y-127834350D01*
X137018913Y-127834354D01*
X137153620Y-127884596D01*
X137153627Y-127884598D01*
X137213155Y-127890999D01*
X137213172Y-127891000D01*
X137926000Y-127891000D01*
X137926000Y-126982706D01*
X137998069Y-127012558D01*
X138115920Y-127036000D01*
X138236080Y-127036000D01*
X138353931Y-127012558D01*
X138426000Y-126982706D01*
X138426000Y-127891000D01*
X139138828Y-127891000D01*
X139138844Y-127890999D01*
X139198372Y-127884598D01*
X139198379Y-127884596D01*
X139333086Y-127834354D01*
X139333093Y-127834350D01*
X139448187Y-127748190D01*
X139448190Y-127748187D01*
X139534350Y-127633093D01*
X139534354Y-127633086D01*
X139584596Y-127498379D01*
X139584598Y-127498372D01*
X139590999Y-127438844D01*
X139591000Y-127438827D01*
X139591000Y-126676000D01*
X138732706Y-126676000D01*
X138762558Y-126603931D01*
X138786000Y-126486080D01*
X138786000Y-126365920D01*
X138762558Y-126248069D01*
X138732706Y-126176000D01*
X139591000Y-126176000D01*
X139591000Y-125475994D01*
X143544556Y-125475994D01*
X143544556Y-125476005D01*
X143564310Y-125790004D01*
X143564311Y-125790011D01*
X143593063Y-125940735D01*
X143619093Y-126077190D01*
X143623270Y-126099083D01*
X143720497Y-126398316D01*
X143720499Y-126398321D01*
X143854461Y-126683003D01*
X143854464Y-126683009D01*
X144023051Y-126948661D01*
X144023054Y-126948665D01*
X144223606Y-127191090D01*
X144223608Y-127191092D01*
X144223610Y-127191094D01*
X144391782Y-127349018D01*
X144452968Y-127406476D01*
X144452978Y-127406484D01*
X144707504Y-127591408D01*
X144707509Y-127591410D01*
X144707516Y-127591416D01*
X144983234Y-127742994D01*
X144983239Y-127742996D01*
X144983241Y-127742997D01*
X144983242Y-127742998D01*
X145275771Y-127858818D01*
X145275774Y-127858819D01*
X145580523Y-127937065D01*
X145580527Y-127937066D01*
X145618460Y-127941858D01*
X145892670Y-127976499D01*
X145892679Y-127976499D01*
X145892682Y-127976500D01*
X145892684Y-127976500D01*
X146207316Y-127976500D01*
X146207318Y-127976500D01*
X146207321Y-127976499D01*
X146207329Y-127976499D01*
X146393593Y-127952968D01*
X146519473Y-127937066D01*
X146824225Y-127858819D01*
X146828294Y-127857208D01*
X147116757Y-127742998D01*
X147116758Y-127742997D01*
X147116756Y-127742997D01*
X147116766Y-127742994D01*
X147392484Y-127591416D01*
X147647030Y-127406478D01*
X147876390Y-127191094D01*
X148076947Y-126948663D01*
X148245537Y-126683007D01*
X148379503Y-126398315D01*
X148476731Y-126099079D01*
X148535688Y-125790015D01*
X148535689Y-125790004D01*
X148555444Y-125476005D01*
X148555444Y-125475994D01*
X148535689Y-125161995D01*
X148535688Y-125161988D01*
X148535688Y-125161985D01*
X148476731Y-124852921D01*
X148379503Y-124553685D01*
X148245537Y-124268993D01*
X148076947Y-124003337D01*
X148076945Y-124003334D01*
X147876393Y-123760909D01*
X147876391Y-123760907D01*
X147818747Y-123706775D01*
X147647030Y-123545522D01*
X147647027Y-123545520D01*
X147647021Y-123545515D01*
X147392495Y-123360591D01*
X147392488Y-123360586D01*
X147392484Y-123360584D01*
X147116766Y-123209006D01*
X147116763Y-123209004D01*
X147116758Y-123209002D01*
X147116757Y-123209001D01*
X146824228Y-123093181D01*
X146824225Y-123093180D01*
X146519476Y-123014934D01*
X146519463Y-123014932D01*
X146207329Y-122975500D01*
X146207318Y-122975500D01*
X145892682Y-122975500D01*
X145892670Y-122975500D01*
X145580536Y-123014932D01*
X145580523Y-123014934D01*
X145275774Y-123093180D01*
X145275771Y-123093181D01*
X144983242Y-123209001D01*
X144983241Y-123209002D01*
X144707516Y-123360584D01*
X144707504Y-123360591D01*
X144452978Y-123545515D01*
X144452968Y-123545523D01*
X144223608Y-123760907D01*
X144223606Y-123760909D01*
X144023054Y-124003334D01*
X144023051Y-124003338D01*
X143854464Y-124268990D01*
X143854461Y-124268996D01*
X143720499Y-124553678D01*
X143720497Y-124553683D01*
X143623270Y-124852916D01*
X143564311Y-125161988D01*
X143564310Y-125161995D01*
X143544556Y-125475994D01*
X139591000Y-125475994D01*
X139591000Y-125413172D01*
X139590999Y-125413155D01*
X139584598Y-125353627D01*
X139584596Y-125353620D01*
X139534354Y-125218913D01*
X139534350Y-125218906D01*
X139448190Y-125103812D01*
X139448187Y-125103809D01*
X139333093Y-125017649D01*
X139333086Y-125017645D01*
X139198379Y-124967403D01*
X139198372Y-124967401D01*
X139138844Y-124961000D01*
X138426000Y-124961000D01*
X138426000Y-125869293D01*
X138353931Y-125839442D01*
X138236080Y-125816000D01*
X138115920Y-125816000D01*
X137998069Y-125839442D01*
X137926000Y-125869293D01*
X137926000Y-124961000D01*
X137213155Y-124961000D01*
X137153627Y-124967401D01*
X137153620Y-124967403D01*
X137018913Y-125017645D01*
X137018906Y-125017649D01*
X136903812Y-125103809D01*
X136903809Y-125103812D01*
X136817649Y-125218906D01*
X136817645Y-125218913D01*
X136767403Y-125353620D01*
X136767401Y-125353627D01*
X136761000Y-125413155D01*
X136761000Y-125779709D01*
X136741315Y-125846748D01*
X136688511Y-125892503D01*
X136619353Y-125902447D01*
X136555797Y-125873422D01*
X136522439Y-125827162D01*
X136475184Y-125713079D01*
X136346436Y-125502981D01*
X136346435Y-125502979D01*
X136310280Y-125460648D01*
X136186399Y-125315601D01*
X136062516Y-125209795D01*
X135999020Y-125155564D01*
X135999018Y-125155563D01*
X135788920Y-125026815D01*
X135561264Y-124932517D01*
X135321658Y-124874993D01*
X135076000Y-124855659D01*
X134830341Y-124874993D01*
X134590735Y-124932517D01*
X134363079Y-125026815D01*
X134152981Y-125155563D01*
X134152979Y-125155564D01*
X133965601Y-125315601D01*
X133805564Y-125502979D01*
X133805563Y-125502981D01*
X133676815Y-125713079D01*
X133582517Y-125940735D01*
X133524993Y-126180341D01*
X133505659Y-126426000D01*
X133196192Y-126426000D01*
X133197475Y-126321007D01*
X133160165Y-126077187D01*
X133083534Y-125842734D01*
X133056088Y-125790011D01*
X132969643Y-125623951D01*
X132969641Y-125623948D01*
X132969640Y-125623946D01*
X132821542Y-125426697D01*
X132745071Y-125353620D01*
X132643220Y-125256289D01*
X132643207Y-125256279D01*
X132439452Y-125117287D01*
X132439447Y-125117285D01*
X132215731Y-125013439D01*
X132215723Y-125013436D01*
X131978039Y-124947520D01*
X131978038Y-124947519D01*
X131978035Y-124947519D01*
X131918489Y-124941155D01*
X131732774Y-124921307D01*
X131486525Y-124935507D01*
X131486520Y-124935507D01*
X131245907Y-124989731D01*
X131017363Y-125082533D01*
X130807052Y-125211412D01*
X130620619Y-125372907D01*
X130463062Y-125562685D01*
X130463054Y-125562696D01*
X130338614Y-125775650D01*
X130250624Y-126006072D01*
X130201447Y-126247785D01*
X130192408Y-126494282D01*
X128340967Y-126494282D01*
X128346341Y-126426000D01*
X128327007Y-126180345D01*
X128269483Y-125940738D01*
X128269482Y-125940735D01*
X128175184Y-125713079D01*
X128046436Y-125502981D01*
X128046435Y-125502979D01*
X128010280Y-125460648D01*
X127886399Y-125315601D01*
X127762516Y-125209795D01*
X127699020Y-125155564D01*
X127699018Y-125155563D01*
X127488920Y-125026815D01*
X127261264Y-124932517D01*
X127021658Y-124874993D01*
X126776000Y-124855659D01*
X126530341Y-124874993D01*
X126290735Y-124932517D01*
X126063079Y-125026815D01*
X125852981Y-125155563D01*
X125852979Y-125155564D01*
X125665601Y-125315601D01*
X125505564Y-125502979D01*
X125505563Y-125502981D01*
X125376815Y-125713079D01*
X125282517Y-125940735D01*
X125224993Y-126180341D01*
X125205659Y-126426000D01*
X125224993Y-126671658D01*
X125282517Y-126911264D01*
X125376815Y-127138920D01*
X125505563Y-127349018D01*
X125505564Y-127349020D01*
X125505567Y-127349023D01*
X125665601Y-127536399D01*
X125810648Y-127660280D01*
X125852979Y-127696435D01*
X125852981Y-127696436D01*
X126063079Y-127825184D01*
X126290735Y-127919482D01*
X126290736Y-127919482D01*
X126290738Y-127919483D01*
X126530345Y-127977007D01*
X126776000Y-127996341D01*
X127021655Y-127977007D01*
X127261262Y-127919483D01*
X127272132Y-127914980D01*
X127341595Y-127907508D01*
X127404076Y-127938778D01*
X127407268Y-127941858D01*
X133719016Y-134253606D01*
X133719045Y-134253637D01*
X133809263Y-134343855D01*
X133809267Y-134343858D01*
X133911707Y-134412307D01*
X133911713Y-134412310D01*
X133911714Y-134412311D01*
X134025548Y-134459463D01*
X134085971Y-134471481D01*
X134146393Y-134483500D01*
X134146394Y-134483500D01*
X134408928Y-134483500D01*
X134425111Y-134485094D01*
X134425130Y-134484903D01*
X134431193Y-134485500D01*
X134431197Y-134485500D01*
X150818719Y-134485500D01*
X150885758Y-134505185D01*
X150906400Y-134521819D01*
X154346181Y-137961600D01*
X154379666Y-138022923D01*
X154382500Y-138049281D01*
X154382500Y-147198207D01*
X154406612Y-147319427D01*
X154406614Y-147319435D01*
X154440062Y-147400185D01*
X154453915Y-147433629D01*
X154453920Y-147433639D01*
X154522588Y-147536407D01*
X154522591Y-147536411D01*
X157612364Y-150626183D01*
X157645849Y-150687506D01*
X157644458Y-150745956D01*
X157618139Y-150844183D01*
X157618136Y-150844196D01*
X157597541Y-151079599D01*
X157597541Y-151079600D01*
X157618136Y-151315003D01*
X157618138Y-151315013D01*
X157679294Y-151543255D01*
X157679296Y-151543259D01*
X157679297Y-151543263D01*
X157710506Y-151610190D01*
X157779165Y-151757430D01*
X157779167Y-151757434D01*
X157887481Y-151912121D01*
X157914705Y-151951001D01*
X158081799Y-152118095D01*
X158178584Y-152185865D01*
X158275365Y-152253632D01*
X158275367Y-152253633D01*
X158275370Y-152253635D01*
X158489537Y-152353503D01*
X158717792Y-152414663D01*
X158906118Y-152431139D01*
X158953199Y-152435259D01*
X158953200Y-152435259D01*
X158953201Y-152435259D01*
X158992434Y-152431826D01*
X159188608Y-152414663D01*
X159416863Y-152353503D01*
X159631030Y-152253635D01*
X159824601Y-152118095D01*
X159991695Y-151951001D01*
X160127235Y-151757430D01*
X160227103Y-151543263D01*
X160288263Y-151315008D01*
X160308859Y-151079600D01*
X160288263Y-150844192D01*
X160227103Y-150615937D01*
X160127235Y-150401771D01*
X160018108Y-150245920D01*
X159991694Y-150208197D01*
X159824602Y-150041106D01*
X159824596Y-150041101D01*
X159639042Y-149911175D01*
X159595417Y-149856598D01*
X159588223Y-149787100D01*
X159619746Y-149724745D01*
X159639042Y-149708025D01*
X159661226Y-149692491D01*
X159824601Y-149578095D01*
X159991695Y-149411001D01*
X160127235Y-149217430D01*
X160227103Y-149003263D01*
X160288263Y-148775008D01*
X160308859Y-148539600D01*
X160288263Y-148304192D01*
X160227103Y-148075937D01*
X160127235Y-147861771D01*
X160030251Y-147723262D01*
X159991694Y-147668197D01*
X159824602Y-147501106D01*
X159824596Y-147501101D01*
X159639042Y-147371175D01*
X159595417Y-147316598D01*
X159588223Y-147247100D01*
X159619746Y-147184745D01*
X159639042Y-147168025D01*
X159661226Y-147152491D01*
X159824601Y-147038095D01*
X159991695Y-146871001D01*
X160127235Y-146677430D01*
X160227103Y-146463263D01*
X160288263Y-146235008D01*
X160308859Y-145999600D01*
X160288263Y-145764192D01*
X160227103Y-145535937D01*
X160127235Y-145321771D01*
X160121240Y-145313208D01*
X159991694Y-145128197D01*
X159824602Y-144961106D01*
X159824596Y-144961101D01*
X159639042Y-144831175D01*
X159595417Y-144776598D01*
X159588223Y-144707100D01*
X159619746Y-144644745D01*
X159639042Y-144628025D01*
X159676999Y-144601447D01*
X159824601Y-144498095D01*
X159991695Y-144331001D01*
X160127235Y-144137430D01*
X160227103Y-143923263D01*
X160288263Y-143695008D01*
X160308859Y-143459600D01*
X160288263Y-143224192D01*
X160227103Y-142995937D01*
X160127235Y-142781771D01*
X160105423Y-142750619D01*
X159991694Y-142588197D01*
X159824602Y-142421106D01*
X159824596Y-142421101D01*
X159639042Y-142291175D01*
X159595417Y-142236598D01*
X159588223Y-142167100D01*
X159619746Y-142104745D01*
X159639042Y-142088025D01*
X159661226Y-142072491D01*
X159824601Y-141958095D01*
X159991695Y-141791001D01*
X160127235Y-141597430D01*
X160227103Y-141383263D01*
X160288263Y-141155008D01*
X160308859Y-140919600D01*
X160288263Y-140684192D01*
X160227390Y-140457007D01*
X160227105Y-140455944D01*
X160227104Y-140455943D01*
X160227103Y-140455937D01*
X160127235Y-140241771D01*
X160081488Y-140176436D01*
X159991694Y-140048197D01*
X159824602Y-139881106D01*
X159824596Y-139881101D01*
X159639042Y-139751175D01*
X159595417Y-139696598D01*
X159588223Y-139627100D01*
X159619746Y-139564745D01*
X159639042Y-139548025D01*
X159771308Y-139455411D01*
X159824601Y-139418095D01*
X159991695Y-139251001D01*
X160127235Y-139057430D01*
X160227103Y-138843263D01*
X160288263Y-138615008D01*
X160308859Y-138379600D01*
X160288263Y-138144192D01*
X160227103Y-137915937D01*
X160127235Y-137701771D01*
X160103286Y-137667567D01*
X159991694Y-137508197D01*
X159824602Y-137341106D01*
X159824596Y-137341101D01*
X159639042Y-137211175D01*
X159595417Y-137156598D01*
X159588223Y-137087100D01*
X159619746Y-137024745D01*
X159639042Y-137008025D01*
X159661226Y-136992491D01*
X159824601Y-136878095D01*
X159991695Y-136711001D01*
X160127235Y-136517430D01*
X160227103Y-136303263D01*
X160288263Y-136075008D01*
X160308859Y-135839600D01*
X160288263Y-135604192D01*
X160227103Y-135375937D01*
X160127235Y-135161771D01*
X159991695Y-134968199D01*
X159869767Y-134846271D01*
X159836284Y-134784951D01*
X159841268Y-134715259D01*
X159883139Y-134659325D01*
X159914115Y-134642410D01*
X160045531Y-134593396D01*
X160160746Y-134507146D01*
X160246996Y-134391931D01*
X160297291Y-134257083D01*
X160303700Y-134197473D01*
X160303699Y-132401728D01*
X160297291Y-132342117D01*
X160290577Y-132324117D01*
X160246997Y-132207271D01*
X160246993Y-132207264D01*
X160160747Y-132092055D01*
X160160744Y-132092052D01*
X160045535Y-132005806D01*
X160045528Y-132005802D01*
X159910682Y-131955508D01*
X159910683Y-131955508D01*
X159851083Y-131949101D01*
X159851081Y-131949100D01*
X159851073Y-131949100D01*
X159851065Y-131949100D01*
X159704700Y-131949100D01*
X159637661Y-131929415D01*
X159591906Y-131876611D01*
X159580700Y-131825100D01*
X159580700Y-87390396D01*
X159580699Y-87390392D01*
X159568607Y-87329600D01*
X159556586Y-87269166D01*
X159511607Y-87160579D01*
X159509963Y-87155984D01*
X159440614Y-87052196D01*
X159440613Y-87052194D01*
X159440611Y-87052192D01*
X159353208Y-86964789D01*
X152948600Y-80560181D01*
X152915115Y-80498858D01*
X152920099Y-80429166D01*
X152961971Y-80373233D01*
X153027435Y-80348816D01*
X153036281Y-80348500D01*
X153066048Y-80348500D01*
X153066049Y-80348500D01*
X153294981Y-80310298D01*
X153514503Y-80234936D01*
X153718626Y-80124470D01*
X153901784Y-79981913D01*
X154058979Y-79811153D01*
X154185924Y-79616849D01*
X154279157Y-79404300D01*
X154336134Y-79179305D01*
X154336135Y-79179297D01*
X154355300Y-78948006D01*
X154355300Y-78947993D01*
X154336135Y-78716702D01*
X154336133Y-78716691D01*
X154279157Y-78491699D01*
X154185924Y-78279151D01*
X154058983Y-78084852D01*
X154058980Y-78084849D01*
X154058979Y-78084847D01*
X153901784Y-77914087D01*
X153901779Y-77914083D01*
X153901777Y-77914081D01*
X153718634Y-77771535D01*
X153718628Y-77771531D01*
X153514504Y-77661064D01*
X153514495Y-77661061D01*
X153294984Y-77585702D01*
X153123282Y-77557050D01*
X153066049Y-77547500D01*
X152833951Y-77547500D01*
X152788164Y-77555140D01*
X152605015Y-77585702D01*
X152385504Y-77661061D01*
X152385495Y-77661064D01*
X152181371Y-77771531D01*
X152181365Y-77771535D01*
X151998222Y-77914081D01*
X151998219Y-77914084D01*
X151841015Y-78084854D01*
X151803808Y-78141804D01*
X151750662Y-78187161D01*
X151681430Y-78196584D01*
X151618095Y-78167082D01*
X151596192Y-78141804D01*
X151558984Y-78084854D01*
X151558982Y-78084852D01*
X151558979Y-78084847D01*
X151401784Y-77914087D01*
X151401779Y-77914083D01*
X151401777Y-77914081D01*
X151218634Y-77771535D01*
X151218628Y-77771531D01*
X151014504Y-77661064D01*
X151014495Y-77661061D01*
X150794984Y-77585702D01*
X150623282Y-77557050D01*
X150566049Y-77547500D01*
X150333951Y-77547500D01*
X150288164Y-77555140D01*
X150105015Y-77585702D01*
X149885504Y-77661061D01*
X149885495Y-77661064D01*
X149681371Y-77771531D01*
X149681365Y-77771535D01*
X149498222Y-77914081D01*
X149498219Y-77914084D01*
X149498216Y-77914086D01*
X149498216Y-77914087D01*
X149341021Y-78084847D01*
X149341019Y-78084849D01*
X149341017Y-78084852D01*
X149303509Y-78142262D01*
X149250362Y-78187618D01*
X149181131Y-78197041D01*
X149117795Y-78167538D01*
X149103084Y-78150561D01*
X149101186Y-78150364D01*
X148432962Y-78818589D01*
X148415925Y-78755007D01*
X148350099Y-78640993D01*
X148257007Y-78547901D01*
X148142993Y-78482075D01*
X148079409Y-78465037D01*
X148748797Y-77795647D01*
X148748797Y-77795645D01*
X148718360Y-77771955D01*
X148718354Y-77771951D01*
X148514302Y-77661523D01*
X148514293Y-77661520D01*
X148294860Y-77586188D01*
X148066007Y-77548000D01*
X147833993Y-77548000D01*
X147605139Y-77586188D01*
X147385706Y-77661520D01*
X147385697Y-77661523D01*
X147181650Y-77771949D01*
X147151200Y-77795647D01*
X147820591Y-78465037D01*
X147757007Y-78482075D01*
X147642993Y-78547901D01*
X147549901Y-78640993D01*
X147484075Y-78755007D01*
X147467037Y-78818590D01*
X146798812Y-78150365D01*
X146714516Y-78279391D01*
X146714514Y-78279395D01*
X146621317Y-78491864D01*
X146564361Y-78716781D01*
X146545202Y-78947994D01*
X146545202Y-78948000D01*
X146564361Y-79179218D01*
X146621317Y-79404135D01*
X146714515Y-79616606D01*
X146769442Y-79700678D01*
X146789629Y-79767568D01*
X146770449Y-79834753D01*
X146717991Y-79880904D01*
X146665633Y-79892500D01*
X134706453Y-79892500D01*
X134639414Y-79872815D01*
X134618772Y-79856181D01*
X128291858Y-73529268D01*
X128258373Y-73467945D01*
X128263357Y-73398253D01*
X128264944Y-73394219D01*
X128269483Y-73383262D01*
X128327007Y-73143655D01*
X128340967Y-72966282D01*
X130192408Y-72966282D01*
X130223750Y-73210937D01*
X130294627Y-73447184D01*
X130294628Y-73447186D01*
X130294630Y-73447191D01*
X130327845Y-73514991D01*
X130403144Y-73668697D01*
X130546374Y-73869499D01*
X130546380Y-73869506D01*
X130720487Y-74044222D01*
X130720492Y-74044226D01*
X130920791Y-74188156D01*
X130920797Y-74188159D01*
X131141918Y-74297444D01*
X131141919Y-74297444D01*
X131141921Y-74297445D01*
X131377926Y-74369149D01*
X131622474Y-74401344D01*
X131688914Y-74402967D01*
X131695995Y-74403141D01*
X131695996Y-74403140D01*
X131696000Y-74403141D01*
X131941829Y-74382930D01*
X132181055Y-74322841D01*
X132407256Y-74224486D01*
X132614355Y-74090508D01*
X132796790Y-73924504D01*
X132949664Y-73730932D01*
X133068869Y-73514992D01*
X133075299Y-73496837D01*
X133151203Y-73282491D01*
X133151203Y-73282489D01*
X133151206Y-73282482D01*
X133173912Y-73155009D01*
X133194461Y-73039648D01*
X133194531Y-73033900D01*
X133196192Y-72898000D01*
X133505659Y-72898000D01*
X133524993Y-73143658D01*
X133582517Y-73383264D01*
X133676815Y-73610920D01*
X133805563Y-73821018D01*
X133805564Y-73821020D01*
X133805567Y-73821023D01*
X133965601Y-74008399D01*
X134110648Y-74132280D01*
X134152979Y-74168435D01*
X134152981Y-74168436D01*
X134363079Y-74297184D01*
X134590735Y-74391482D01*
X134590736Y-74391482D01*
X134590738Y-74391483D01*
X134830345Y-74449007D01*
X135076000Y-74468341D01*
X135321655Y-74449007D01*
X135561262Y-74391483D01*
X135788920Y-74297184D01*
X135999023Y-74168433D01*
X136186399Y-74008399D01*
X136346433Y-73821023D01*
X136475184Y-73610920D01*
X136502783Y-73544290D01*
X136522439Y-73496837D01*
X136566280Y-73442434D01*
X136632574Y-73420369D01*
X136700273Y-73437648D01*
X136747884Y-73488785D01*
X136761000Y-73544290D01*
X136761000Y-73910844D01*
X136767401Y-73970372D01*
X136767403Y-73970379D01*
X136817645Y-74105086D01*
X136817649Y-74105093D01*
X136903809Y-74220187D01*
X136903812Y-74220190D01*
X137018906Y-74306350D01*
X137018913Y-74306354D01*
X137153620Y-74356596D01*
X137153627Y-74356598D01*
X137213155Y-74362999D01*
X137213172Y-74363000D01*
X137926000Y-74363000D01*
X137926000Y-73454706D01*
X137998069Y-73484558D01*
X138115920Y-73508000D01*
X138236080Y-73508000D01*
X138353931Y-73484558D01*
X138426000Y-73454706D01*
X138426000Y-74363000D01*
X139138828Y-74363000D01*
X139138844Y-74362999D01*
X139198372Y-74356598D01*
X139198379Y-74356596D01*
X139333086Y-74306354D01*
X139333093Y-74306350D01*
X139448187Y-74220190D01*
X139448190Y-74220187D01*
X139534350Y-74105093D01*
X139534354Y-74105086D01*
X139584596Y-73970379D01*
X139584598Y-73970372D01*
X139590999Y-73910844D01*
X139591000Y-73910827D01*
X139591000Y-73148000D01*
X138732706Y-73148000D01*
X138762558Y-73075931D01*
X138786000Y-72958080D01*
X138786000Y-72837920D01*
X138762558Y-72720069D01*
X138732706Y-72648000D01*
X139591000Y-72648000D01*
X139591000Y-71947994D01*
X143544556Y-71947994D01*
X143544556Y-71948005D01*
X143564310Y-72262004D01*
X143564311Y-72262011D01*
X143593063Y-72412735D01*
X143619093Y-72549190D01*
X143623270Y-72571083D01*
X143720497Y-72870316D01*
X143720499Y-72870321D01*
X143854461Y-73155003D01*
X143854464Y-73155009D01*
X144023051Y-73420661D01*
X144023054Y-73420665D01*
X144223606Y-73663090D01*
X144223608Y-73663092D01*
X144223610Y-73663094D01*
X144391782Y-73821018D01*
X144452968Y-73878476D01*
X144452978Y-73878484D01*
X144707504Y-74063408D01*
X144707509Y-74063410D01*
X144707516Y-74063416D01*
X144983234Y-74214994D01*
X144983239Y-74214996D01*
X144983241Y-74214997D01*
X144983242Y-74214998D01*
X145275771Y-74330818D01*
X145275774Y-74330819D01*
X145580523Y-74409065D01*
X145580527Y-74409066D01*
X145618460Y-74413858D01*
X145892670Y-74448499D01*
X145892679Y-74448499D01*
X145892682Y-74448500D01*
X145892684Y-74448500D01*
X146207316Y-74448500D01*
X146207318Y-74448500D01*
X146207321Y-74448499D01*
X146207329Y-74448499D01*
X146393593Y-74424968D01*
X146519473Y-74409066D01*
X146824225Y-74330819D01*
X146824228Y-74330818D01*
X147116757Y-74214998D01*
X147116758Y-74214997D01*
X147116756Y-74214997D01*
X147116766Y-74214994D01*
X147392484Y-74063416D01*
X147647030Y-73878478D01*
X147876390Y-73663094D01*
X148076947Y-73420663D01*
X148245537Y-73155007D01*
X148379503Y-72870315D01*
X148476731Y-72571079D01*
X148535688Y-72262015D01*
X148535689Y-72262004D01*
X148555444Y-71948005D01*
X148555444Y-71947994D01*
X152344556Y-71947994D01*
X152344556Y-71948005D01*
X152364310Y-72262004D01*
X152364311Y-72262011D01*
X152393063Y-72412735D01*
X152419093Y-72549190D01*
X152423270Y-72571083D01*
X152520497Y-72870316D01*
X152520499Y-72870321D01*
X152654461Y-73155003D01*
X152654464Y-73155009D01*
X152823051Y-73420661D01*
X152823054Y-73420665D01*
X153023606Y-73663090D01*
X153023608Y-73663092D01*
X153023610Y-73663094D01*
X153191782Y-73821018D01*
X153252968Y-73878476D01*
X153252978Y-73878484D01*
X153507504Y-74063408D01*
X153507509Y-74063410D01*
X153507516Y-74063416D01*
X153783234Y-74214994D01*
X153783239Y-74214996D01*
X153783241Y-74214997D01*
X153783242Y-74214998D01*
X154075771Y-74330818D01*
X154075774Y-74330819D01*
X154380523Y-74409065D01*
X154380527Y-74409066D01*
X154418460Y-74413858D01*
X154692670Y-74448499D01*
X154692679Y-74448499D01*
X154692682Y-74448500D01*
X154692684Y-74448500D01*
X155007316Y-74448500D01*
X155007318Y-74448500D01*
X155007321Y-74448499D01*
X155007329Y-74448499D01*
X155193593Y-74424968D01*
X155319473Y-74409066D01*
X155624225Y-74330819D01*
X155624228Y-74330818D01*
X155916757Y-74214998D01*
X155916758Y-74214997D01*
X155916756Y-74214997D01*
X155916766Y-74214994D01*
X156192484Y-74063416D01*
X156447030Y-73878478D01*
X156676390Y-73663094D01*
X156876947Y-73420663D01*
X157045537Y-73155007D01*
X157179503Y-72870315D01*
X157276731Y-72571079D01*
X157335688Y-72262015D01*
X157335689Y-72262004D01*
X157355444Y-71948005D01*
X157355444Y-71947994D01*
X157335689Y-71633995D01*
X157335688Y-71633988D01*
X157335688Y-71633985D01*
X157276731Y-71324921D01*
X157179503Y-71025685D01*
X157045537Y-70740993D01*
X156876947Y-70475337D01*
X156876945Y-70475334D01*
X156676393Y-70232909D01*
X156676391Y-70232907D01*
X156447031Y-70017523D01*
X156447021Y-70017515D01*
X156192495Y-69832591D01*
X156192488Y-69832586D01*
X156192484Y-69832584D01*
X155916766Y-69681006D01*
X155916763Y-69681004D01*
X155916758Y-69681002D01*
X155916757Y-69681001D01*
X155624228Y-69565181D01*
X155624225Y-69565180D01*
X155319476Y-69486934D01*
X155319463Y-69486932D01*
X155007329Y-69447500D01*
X155007318Y-69447500D01*
X154692682Y-69447500D01*
X154692670Y-69447500D01*
X154380536Y-69486932D01*
X154380523Y-69486934D01*
X154075774Y-69565180D01*
X154075771Y-69565181D01*
X153783242Y-69681001D01*
X153783241Y-69681002D01*
X153507516Y-69832584D01*
X153507504Y-69832591D01*
X153252978Y-70017515D01*
X153252968Y-70017523D01*
X153023608Y-70232907D01*
X153023606Y-70232909D01*
X152823054Y-70475334D01*
X152823051Y-70475338D01*
X152654464Y-70740990D01*
X152654461Y-70740996D01*
X152520499Y-71025678D01*
X152520497Y-71025683D01*
X152423270Y-71324916D01*
X152364311Y-71633988D01*
X152364310Y-71633995D01*
X152344556Y-71947994D01*
X148555444Y-71947994D01*
X148535689Y-71633995D01*
X148535688Y-71633988D01*
X148535688Y-71633985D01*
X148476731Y-71324921D01*
X148379503Y-71025685D01*
X148245537Y-70740993D01*
X148076947Y-70475337D01*
X148076945Y-70475334D01*
X147876393Y-70232909D01*
X147876391Y-70232907D01*
X147647031Y-70017523D01*
X147647021Y-70017515D01*
X147392495Y-69832591D01*
X147392488Y-69832586D01*
X147392484Y-69832584D01*
X147116766Y-69681006D01*
X147116763Y-69681004D01*
X147116758Y-69681002D01*
X147116757Y-69681001D01*
X146824228Y-69565181D01*
X146824225Y-69565180D01*
X146519476Y-69486934D01*
X146519463Y-69486932D01*
X146207329Y-69447500D01*
X146207318Y-69447500D01*
X145892682Y-69447500D01*
X145892670Y-69447500D01*
X145580536Y-69486932D01*
X145580523Y-69486934D01*
X145275774Y-69565180D01*
X145275771Y-69565181D01*
X144983242Y-69681001D01*
X144983241Y-69681002D01*
X144707516Y-69832584D01*
X144707504Y-69832591D01*
X144452978Y-70017515D01*
X144452968Y-70017523D01*
X144223608Y-70232907D01*
X144223606Y-70232909D01*
X144023054Y-70475334D01*
X144023051Y-70475338D01*
X143854464Y-70740990D01*
X143854461Y-70740996D01*
X143720499Y-71025678D01*
X143720497Y-71025683D01*
X143623270Y-71324916D01*
X143564311Y-71633988D01*
X143564310Y-71633995D01*
X143544556Y-71947994D01*
X139591000Y-71947994D01*
X139591000Y-71885172D01*
X139590999Y-71885155D01*
X139584598Y-71825627D01*
X139584596Y-71825620D01*
X139534354Y-71690913D01*
X139534350Y-71690906D01*
X139448190Y-71575812D01*
X139448187Y-71575809D01*
X139333093Y-71489649D01*
X139333086Y-71489645D01*
X139198379Y-71439403D01*
X139198372Y-71439401D01*
X139138844Y-71433000D01*
X138426000Y-71433000D01*
X138426000Y-72341293D01*
X138353931Y-72311442D01*
X138236080Y-72288000D01*
X138115920Y-72288000D01*
X137998069Y-72311442D01*
X137926000Y-72341293D01*
X137926000Y-71433000D01*
X137213155Y-71433000D01*
X137153627Y-71439401D01*
X137153620Y-71439403D01*
X137018913Y-71489645D01*
X137018906Y-71489649D01*
X136903812Y-71575809D01*
X136903809Y-71575812D01*
X136817649Y-71690906D01*
X136817645Y-71690913D01*
X136767403Y-71825620D01*
X136767401Y-71825627D01*
X136761000Y-71885155D01*
X136761000Y-72251709D01*
X136741315Y-72318748D01*
X136688511Y-72364503D01*
X136619353Y-72374447D01*
X136555797Y-72345422D01*
X136522439Y-72299162D01*
X136475184Y-72185079D01*
X136346436Y-71974981D01*
X136346435Y-71974979D01*
X136310280Y-71932648D01*
X136186399Y-71787601D01*
X136062516Y-71681795D01*
X135999020Y-71627564D01*
X135999018Y-71627563D01*
X135788920Y-71498815D01*
X135561264Y-71404517D01*
X135321658Y-71346993D01*
X135076000Y-71327659D01*
X134830341Y-71346993D01*
X134590735Y-71404517D01*
X134363079Y-71498815D01*
X134152981Y-71627563D01*
X134152979Y-71627564D01*
X133965601Y-71787601D01*
X133805564Y-71974979D01*
X133805563Y-71974981D01*
X133676815Y-72185079D01*
X133582517Y-72412735D01*
X133524993Y-72652341D01*
X133505659Y-72898000D01*
X133196192Y-72898000D01*
X133197475Y-72793007D01*
X133160165Y-72549187D01*
X133083534Y-72314734D01*
X133056088Y-72262011D01*
X132969643Y-72095951D01*
X132969641Y-72095948D01*
X132969640Y-72095946D01*
X132821542Y-71898697D01*
X132745071Y-71825620D01*
X132643220Y-71728289D01*
X132643207Y-71728279D01*
X132439452Y-71589287D01*
X132439447Y-71589285D01*
X132215731Y-71485439D01*
X132215723Y-71485436D01*
X131978039Y-71419520D01*
X131978038Y-71419519D01*
X131978035Y-71419519D01*
X131918489Y-71413155D01*
X131732774Y-71393307D01*
X131486525Y-71407507D01*
X131486520Y-71407507D01*
X131245907Y-71461731D01*
X131017363Y-71554533D01*
X130807052Y-71683412D01*
X130620619Y-71844907D01*
X130463062Y-72034685D01*
X130463054Y-72034696D01*
X130338614Y-72247650D01*
X130250624Y-72478072D01*
X130201447Y-72719785D01*
X130192408Y-72966282D01*
X128340967Y-72966282D01*
X128346341Y-72898000D01*
X128327007Y-72652345D01*
X128269483Y-72412738D01*
X128269482Y-72412735D01*
X128175184Y-72185079D01*
X128046436Y-71974981D01*
X128046435Y-71974979D01*
X128010280Y-71932648D01*
X127886399Y-71787601D01*
X127762516Y-71681795D01*
X127699020Y-71627564D01*
X127699018Y-71627563D01*
X127488920Y-71498815D01*
X127261264Y-71404517D01*
X127021658Y-71346993D01*
X126776000Y-71327659D01*
X126530341Y-71346993D01*
X126290735Y-71404517D01*
X126063079Y-71498815D01*
X125852981Y-71627563D01*
X125852979Y-71627564D01*
X125665601Y-71787601D01*
X125505564Y-71974979D01*
X125505563Y-71974981D01*
X125376815Y-72185079D01*
X125282517Y-72412735D01*
X125224993Y-72652341D01*
X125205659Y-72898000D01*
X124020700Y-72898000D01*
X124020700Y-67365026D01*
X124040385Y-67297987D01*
X124073575Y-67263452D01*
X124264601Y-67129695D01*
X124431695Y-66962601D01*
X124567235Y-66769030D01*
X124667103Y-66554863D01*
X124728263Y-66326608D01*
X124748859Y-66091200D01*
X124728263Y-65855792D01*
X124667103Y-65627537D01*
X124567235Y-65413371D01*
X124431695Y-65219799D01*
X124431694Y-65219797D01*
X124264602Y-65052706D01*
X124264596Y-65052701D01*
X124079042Y-64922775D01*
X124035417Y-64868198D01*
X124028223Y-64798700D01*
X124059746Y-64736345D01*
X124079042Y-64719625D01*
X124101226Y-64704091D01*
X124264601Y-64589695D01*
X124431695Y-64422601D01*
X124567235Y-64229030D01*
X124667103Y-64014863D01*
X124728263Y-63786608D01*
X124748859Y-63551200D01*
X124728263Y-63315792D01*
X124667103Y-63087537D01*
X124567235Y-62873371D01*
X124431695Y-62679799D01*
X124431694Y-62679797D01*
X124264602Y-62512706D01*
X124264596Y-62512701D01*
X124079042Y-62382775D01*
X124035417Y-62328198D01*
X124028223Y-62258700D01*
X124059746Y-62196345D01*
X124079042Y-62179625D01*
X124101226Y-62164091D01*
X124264601Y-62049695D01*
X124431695Y-61882601D01*
X124565452Y-61691575D01*
X124620029Y-61647952D01*
X124667027Y-61638700D01*
X132344604Y-61638700D01*
X132344605Y-61638699D01*
X132465835Y-61614586D01*
X132546584Y-61581137D01*
X132580033Y-61567283D01*
X132682808Y-61498611D01*
X132770211Y-61411208D01*
X135361411Y-58820008D01*
X135399479Y-58763035D01*
X135430083Y-58717233D01*
X135477385Y-58603035D01*
X135501500Y-58481803D01*
X135501500Y-55285389D01*
X136313500Y-55285389D01*
X136313500Y-55458611D01*
X136314941Y-55467707D01*
X136339725Y-55624193D01*
X136340598Y-55629701D01*
X136394127Y-55794445D01*
X136472768Y-55948788D01*
X136574586Y-56088928D01*
X136697072Y-56211414D01*
X136837212Y-56313232D01*
X136991555Y-56391873D01*
X137156299Y-56445402D01*
X137327389Y-56472500D01*
X137327390Y-56472500D01*
X137500610Y-56472500D01*
X137500611Y-56472500D01*
X137671701Y-56445402D01*
X137836445Y-56391873D01*
X137990788Y-56313232D01*
X138130928Y-56211414D01*
X138253414Y-56088928D01*
X138355232Y-55948788D01*
X138433873Y-55794445D01*
X138487402Y-55629701D01*
X138514500Y-55458611D01*
X138514500Y-55285389D01*
X138487402Y-55114299D01*
X138433873Y-54949555D01*
X138355232Y-54795212D01*
X138253414Y-54655072D01*
X138130928Y-54532586D01*
X137990788Y-54430768D01*
X137836445Y-54352127D01*
X137671701Y-54298598D01*
X137671699Y-54298597D01*
X137671698Y-54298597D01*
X137523271Y-54275089D01*
X137500611Y-54271500D01*
X137327389Y-54271500D01*
X137304729Y-54275089D01*
X137156302Y-54298597D01*
X136991552Y-54352128D01*
X136837211Y-54430768D01*
X136789822Y-54465199D01*
X136697072Y-54532586D01*
X136697070Y-54532588D01*
X136697069Y-54532588D01*
X136574588Y-54655069D01*
X136574588Y-54655070D01*
X136574586Y-54655072D01*
X136535988Y-54708198D01*
X136472768Y-54795211D01*
X136394128Y-54949552D01*
X136340597Y-55114302D01*
X136323146Y-55224486D01*
X136313500Y-55285389D01*
X135501500Y-55285389D01*
X135501500Y-51847304D01*
X135521185Y-51780265D01*
X135573989Y-51734510D01*
X135578050Y-51732742D01*
X135602859Y-51722466D01*
X135817659Y-51590836D01*
X136009224Y-51427224D01*
X136172836Y-51235659D01*
X136304466Y-51020859D01*
X136400873Y-50788111D01*
X136459683Y-50543148D01*
X136479449Y-50292000D01*
X136459683Y-50040852D01*
X136400873Y-49795889D01*
X136304466Y-49563141D01*
X136304466Y-49563140D01*
X136172839Y-49348346D01*
X136172838Y-49348343D01*
X136135875Y-49305066D01*
X136009224Y-49156776D01*
X135882571Y-49048604D01*
X135817656Y-48993161D01*
X135817653Y-48993160D01*
X135602859Y-48861533D01*
X135370110Y-48765126D01*
X135125151Y-48706317D01*
X134874000Y-48686551D01*
X134622848Y-48706317D01*
X134377889Y-48765126D01*
X134145140Y-48861533D01*
X133930346Y-48993160D01*
X133930343Y-48993161D01*
X133738776Y-49156776D01*
X133575161Y-49348343D01*
X133575160Y-49348346D01*
X133443533Y-49563140D01*
X133347126Y-49795889D01*
X133288317Y-50040848D01*
X133268551Y-50292000D01*
X133288317Y-50543151D01*
X133347126Y-50788110D01*
X133443533Y-51020859D01*
X133575160Y-51235653D01*
X133575161Y-51235656D01*
X133630604Y-51300571D01*
X133738776Y-51427224D01*
X133863288Y-51533567D01*
X133930343Y-51590838D01*
X133930346Y-51590839D01*
X134145141Y-51722466D01*
X134169950Y-51732742D01*
X134224354Y-51776581D01*
X134246421Y-51842875D01*
X134246500Y-51847304D01*
X134246500Y-53802771D01*
X134226815Y-53869810D01*
X134174011Y-53915565D01*
X134104853Y-53925509D01*
X134041297Y-53896484D01*
X134032552Y-53887792D01*
X134032517Y-53887828D01*
X133821047Y-53676358D01*
X133821040Y-53676352D01*
X133586993Y-53496761D01*
X133331510Y-53349258D01*
X133331500Y-53349254D01*
X133058961Y-53236364D01*
X133058954Y-53236362D01*
X133058952Y-53236361D01*
X132773993Y-53160007D01*
X132725113Y-53153571D01*
X132481513Y-53121500D01*
X132481506Y-53121500D01*
X132186494Y-53121500D01*
X132186486Y-53121500D01*
X131908085Y-53158153D01*
X131894007Y-53160007D01*
X131751442Y-53198207D01*
X131609048Y-53236361D01*
X131609038Y-53236364D01*
X131336499Y-53349254D01*
X131336489Y-53349258D01*
X131081006Y-53496761D01*
X130846959Y-53676352D01*
X130846952Y-53676358D01*
X130638358Y-53884952D01*
X130638352Y-53884959D01*
X130458761Y-54119006D01*
X130311258Y-54374489D01*
X130311254Y-54374499D01*
X130198364Y-54647038D01*
X130198361Y-54647048D01*
X130122008Y-54932004D01*
X130122006Y-54932015D01*
X130083500Y-55224486D01*
X130083500Y-55519513D01*
X130112293Y-55738207D01*
X130122007Y-55811993D01*
X130196212Y-56088930D01*
X130198361Y-56096951D01*
X130198364Y-56096961D01*
X130311254Y-56369500D01*
X130311258Y-56369510D01*
X130458761Y-56624993D01*
X130638352Y-56859040D01*
X130638358Y-56859047D01*
X130846952Y-57067641D01*
X130846959Y-57067647D01*
X131081006Y-57247238D01*
X131336489Y-57394741D01*
X131336490Y-57394741D01*
X131336493Y-57394743D01*
X131609048Y-57507639D01*
X131894007Y-57583993D01*
X132186494Y-57622500D01*
X132186501Y-57622500D01*
X132481499Y-57622500D01*
X132481506Y-57622500D01*
X132773993Y-57583993D01*
X133058952Y-57507639D01*
X133331507Y-57394743D01*
X133586994Y-57247238D01*
X133821042Y-57067646D01*
X133919383Y-56969305D01*
X134032517Y-56856172D01*
X134033275Y-56856930D01*
X134088272Y-56822046D01*
X134158141Y-56822460D01*
X134216693Y-56860583D01*
X134245340Y-56924310D01*
X134246500Y-56941228D01*
X134246500Y-58108719D01*
X134226815Y-58175758D01*
X134210181Y-58196400D01*
X132059200Y-60347381D01*
X131997877Y-60380866D01*
X131971519Y-60383700D01*
X124667026Y-60383700D01*
X124599987Y-60364015D01*
X124565451Y-60330823D01*
X124431694Y-60139797D01*
X124264602Y-59972706D01*
X124264596Y-59972701D01*
X124079042Y-59842775D01*
X124035417Y-59788198D01*
X124028223Y-59718700D01*
X124059746Y-59656345D01*
X124079042Y-59639625D01*
X124101226Y-59624091D01*
X124264601Y-59509695D01*
X124431695Y-59342601D01*
X124567235Y-59149030D01*
X124667103Y-58934863D01*
X124728263Y-58706608D01*
X124748859Y-58471200D01*
X124728263Y-58235792D01*
X124667103Y-58007537D01*
X124567235Y-57793371D01*
X124447591Y-57622500D01*
X124431694Y-57599797D01*
X124264602Y-57432706D01*
X124264601Y-57432705D01*
X124078605Y-57302469D01*
X124034981Y-57247892D01*
X124027788Y-57178393D01*
X124059310Y-57116039D01*
X124078605Y-57099319D01*
X124264282Y-56969305D01*
X124431305Y-56802282D01*
X124566800Y-56608778D01*
X124666629Y-56394692D01*
X124666632Y-56394686D01*
X124723836Y-56181200D01*
X123826212Y-56181200D01*
X123859125Y-56124193D01*
X123893200Y-55997026D01*
X123893200Y-55865374D01*
X123859125Y-55738207D01*
X123826212Y-55681200D01*
X124723836Y-55681200D01*
X124723835Y-55681199D01*
X124666632Y-55467713D01*
X124666629Y-55467707D01*
X124581613Y-55285389D01*
X126153500Y-55285389D01*
X126153500Y-55458611D01*
X126154941Y-55467707D01*
X126179725Y-55624193D01*
X126180598Y-55629701D01*
X126234127Y-55794445D01*
X126312768Y-55948788D01*
X126414586Y-56088928D01*
X126537072Y-56211414D01*
X126677212Y-56313232D01*
X126831555Y-56391873D01*
X126996299Y-56445402D01*
X127167389Y-56472500D01*
X127167390Y-56472500D01*
X127340610Y-56472500D01*
X127340611Y-56472500D01*
X127511701Y-56445402D01*
X127676445Y-56391873D01*
X127830788Y-56313232D01*
X127970928Y-56211414D01*
X128093414Y-56088928D01*
X128195232Y-55948788D01*
X128273873Y-55794445D01*
X128327402Y-55629701D01*
X128354500Y-55458611D01*
X128354500Y-55285389D01*
X128327402Y-55114299D01*
X128273873Y-54949555D01*
X128195232Y-54795212D01*
X128093414Y-54655072D01*
X128034556Y-54596214D01*
X128001071Y-54534891D01*
X128006055Y-54465199D01*
X128047927Y-54409266D01*
X128113391Y-54384849D01*
X128151184Y-54387959D01*
X128272928Y-54417187D01*
X128524000Y-54436947D01*
X128775072Y-54417187D01*
X129019956Y-54358396D01*
X129252631Y-54262019D01*
X129467361Y-54130432D01*
X129467363Y-54130430D01*
X129468180Y-54129732D01*
X128848025Y-53509578D01*
X128879258Y-53496641D01*
X129002097Y-53414563D01*
X129106563Y-53310097D01*
X129188641Y-53187258D01*
X129201578Y-53156025D01*
X129821732Y-53776180D01*
X129822430Y-53775363D01*
X129822432Y-53775361D01*
X129954019Y-53560631D01*
X130050396Y-53327956D01*
X130109187Y-53083072D01*
X130128947Y-52832000D01*
X130109187Y-52580927D01*
X130050396Y-52336043D01*
X129954019Y-52103368D01*
X129822429Y-51888634D01*
X129821733Y-51887819D01*
X129821732Y-51887819D01*
X129201577Y-52507973D01*
X129188641Y-52476742D01*
X129106563Y-52353903D01*
X129002097Y-52249437D01*
X128879258Y-52167359D01*
X128848023Y-52154421D01*
X129468179Y-51534266D01*
X129467362Y-51533568D01*
X129252631Y-51401980D01*
X129019956Y-51305603D01*
X128775072Y-51246812D01*
X128524000Y-51227052D01*
X128272927Y-51246812D01*
X128028043Y-51305603D01*
X127795368Y-51401980D01*
X127580637Y-51533567D01*
X127579818Y-51534266D01*
X128199974Y-52154421D01*
X128168742Y-52167359D01*
X128045903Y-52249437D01*
X127941437Y-52353903D01*
X127859359Y-52476742D01*
X127846421Y-52507974D01*
X127226266Y-51887818D01*
X127225567Y-51888637D01*
X127093980Y-52103368D01*
X126997603Y-52336043D01*
X126938812Y-52580927D01*
X126919052Y-52832000D01*
X126938812Y-53083072D01*
X126997603Y-53327956D01*
X127093980Y-53560631D01*
X127225568Y-53775362D01*
X127226266Y-53776179D01*
X127846421Y-53156024D01*
X127859359Y-53187258D01*
X127941437Y-53310097D01*
X128045903Y-53414563D01*
X128168742Y-53496641D01*
X128199974Y-53509577D01*
X127579819Y-54129732D01*
X127580989Y-54159539D01*
X127563948Y-54227299D01*
X127512980Y-54275089D01*
X127444264Y-54287738D01*
X127437686Y-54286875D01*
X127363271Y-54275089D01*
X127340611Y-54271500D01*
X127167389Y-54271500D01*
X127144729Y-54275089D01*
X126996302Y-54298597D01*
X126831552Y-54352128D01*
X126677211Y-54430768D01*
X126629822Y-54465199D01*
X126537072Y-54532586D01*
X126537070Y-54532588D01*
X126537069Y-54532588D01*
X126414588Y-54655069D01*
X126414588Y-54655070D01*
X126414586Y-54655072D01*
X126375988Y-54708198D01*
X126312768Y-54795211D01*
X126234128Y-54949552D01*
X126180597Y-55114302D01*
X126163146Y-55224486D01*
X126153500Y-55285389D01*
X124581613Y-55285389D01*
X124566800Y-55253622D01*
X124566799Y-55253620D01*
X124431313Y-55060126D01*
X124431308Y-55060120D01*
X124264282Y-54893094D01*
X124078168Y-54762775D01*
X124034544Y-54708198D01*
X124027351Y-54638699D01*
X124058873Y-54576345D01*
X124078168Y-54559625D01*
X124264282Y-54429305D01*
X124431305Y-54262282D01*
X124566800Y-54068778D01*
X124666629Y-53854692D01*
X124666632Y-53854686D01*
X124723836Y-53641200D01*
X123826212Y-53641200D01*
X123859125Y-53584193D01*
X123893200Y-53457026D01*
X123893200Y-53325374D01*
X123859125Y-53198207D01*
X123826212Y-53141200D01*
X124723836Y-53141200D01*
X124723835Y-53141199D01*
X124666632Y-52927713D01*
X124666629Y-52927707D01*
X124566800Y-52713622D01*
X124566799Y-52713620D01*
X124431313Y-52520126D01*
X124431308Y-52520120D01*
X124264282Y-52353094D01*
X124078168Y-52222775D01*
X124034544Y-52168198D01*
X124027351Y-52098699D01*
X124058873Y-52036345D01*
X124078168Y-52019625D01*
X124264282Y-51889305D01*
X124431305Y-51722282D01*
X124566800Y-51528778D01*
X124666629Y-51314692D01*
X124666632Y-51314686D01*
X124723836Y-51101200D01*
X123826212Y-51101200D01*
X123859125Y-51044193D01*
X123893200Y-50917026D01*
X123893200Y-50785374D01*
X123859125Y-50658207D01*
X123826212Y-50601200D01*
X124723836Y-50601200D01*
X124723835Y-50601199D01*
X124666632Y-50387713D01*
X124666629Y-50387707D01*
X124566800Y-50173622D01*
X124566799Y-50173620D01*
X124431313Y-49980126D01*
X124431308Y-49980120D01*
X124309253Y-49858065D01*
X124275768Y-49796742D01*
X124280752Y-49727050D01*
X124322624Y-49671117D01*
X124353600Y-49654202D01*
X124485531Y-49604996D01*
X124600746Y-49518746D01*
X124686996Y-49403531D01*
X124737291Y-49268683D01*
X124743700Y-49209073D01*
X124743699Y-47413328D01*
X124737291Y-47353717D01*
X124708614Y-47276832D01*
X124703631Y-47207142D01*
X124737116Y-47145819D01*
X124798439Y-47112334D01*
X124824797Y-47109500D01*
X145606719Y-47109500D01*
X145673758Y-47129185D01*
X145694400Y-47145819D01*
X146408706Y-47860125D01*
X146442191Y-47921448D01*
X146437207Y-47991140D01*
X146395335Y-48047073D01*
X146329871Y-48071490D01*
X146304840Y-48070745D01*
X146290000Y-48068791D01*
X146290000Y-49970988D01*
X146232993Y-49938075D01*
X146105826Y-49904000D01*
X145974174Y-49904000D01*
X145847007Y-49938075D01*
X145790000Y-49970988D01*
X145790000Y-48068791D01*
X145629434Y-48089930D01*
X145363528Y-48161180D01*
X145109212Y-48266520D01*
X145109197Y-48266527D01*
X144870798Y-48404166D01*
X144652402Y-48571749D01*
X144457749Y-48766402D01*
X144290166Y-48984798D01*
X144152527Y-49223197D01*
X144152520Y-49223212D01*
X144047180Y-49477528D01*
X143975930Y-49743434D01*
X143940000Y-50016358D01*
X143940000Y-50804000D01*
X145540000Y-50804000D01*
X145540000Y-51304000D01*
X143940000Y-51304000D01*
X143940000Y-52091641D01*
X143975930Y-52364565D01*
X144047180Y-52630471D01*
X144152520Y-52884787D01*
X144152527Y-52884802D01*
X144290166Y-53123201D01*
X144457749Y-53341597D01*
X144457757Y-53341606D01*
X144652394Y-53536243D01*
X144652402Y-53536250D01*
X144870798Y-53703833D01*
X145109197Y-53841472D01*
X145109212Y-53841479D01*
X145363528Y-53946819D01*
X145629431Y-54018068D01*
X145629438Y-54018069D01*
X145789999Y-54039206D01*
X145790000Y-54039206D01*
X145790000Y-52137012D01*
X145847007Y-52169925D01*
X145974174Y-52204000D01*
X146105826Y-52204000D01*
X146232993Y-52169925D01*
X146290000Y-52137012D01*
X146290000Y-54039206D01*
X146450561Y-54018069D01*
X146450568Y-54018068D01*
X146716471Y-53946819D01*
X146970787Y-53841479D01*
X146970802Y-53841472D01*
X147209201Y-53703833D01*
X147427597Y-53536250D01*
X147427606Y-53536243D01*
X147622243Y-53341606D01*
X147622250Y-53341597D01*
X147789833Y-53123201D01*
X147927472Y-52884802D01*
X147927479Y-52884787D01*
X148032819Y-52630471D01*
X148104069Y-52364565D01*
X148140000Y-52091641D01*
X148140000Y-51304000D01*
X146540000Y-51304000D01*
X146540000Y-50804000D01*
X148140000Y-50804000D01*
X148140000Y-50016358D01*
X148123254Y-49889159D01*
X148134020Y-49820124D01*
X148180400Y-49767868D01*
X148247669Y-49748983D01*
X148314469Y-49769464D01*
X148333874Y-49785293D01*
X148366666Y-49818085D01*
X148400151Y-49879408D01*
X148401924Y-49921951D01*
X148389500Y-50016325D01*
X148389500Y-52091667D01*
X148389501Y-52091684D01*
X148425438Y-52364655D01*
X148425439Y-52364660D01*
X148425440Y-52364666D01*
X148425441Y-52364668D01*
X148496704Y-52630630D01*
X148602075Y-52885017D01*
X148602080Y-52885028D01*
X148626725Y-52927713D01*
X148739751Y-53123479D01*
X148739753Y-53123482D01*
X148739754Y-53123483D01*
X148907370Y-53341926D01*
X148907376Y-53341933D01*
X149102066Y-53536623D01*
X149102072Y-53536628D01*
X149320521Y-53704249D01*
X149445109Y-53776180D01*
X149558971Y-53841919D01*
X149558976Y-53841921D01*
X149558979Y-53841923D01*
X149813368Y-53947295D01*
X150079334Y-54018560D01*
X150352326Y-54054500D01*
X150352333Y-54054500D01*
X150627667Y-54054500D01*
X150627674Y-54054500D01*
X150900666Y-54018560D01*
X151166632Y-53947295D01*
X151421021Y-53841923D01*
X151659479Y-53704249D01*
X151877928Y-53536628D01*
X152072628Y-53341928D01*
X152240249Y-53123479D01*
X152377923Y-52885021D01*
X152483295Y-52630632D01*
X152554560Y-52364666D01*
X152590500Y-52091674D01*
X152590500Y-50016332D01*
X152839500Y-50016332D01*
X152839500Y-52091667D01*
X152839501Y-52091684D01*
X152875438Y-52364655D01*
X152875439Y-52364660D01*
X152875440Y-52364666D01*
X152875441Y-52364668D01*
X152946704Y-52630630D01*
X153052075Y-52885017D01*
X153052080Y-52885028D01*
X153076725Y-52927713D01*
X153189751Y-53123479D01*
X153189753Y-53123482D01*
X153189754Y-53123483D01*
X153357370Y-53341926D01*
X153357376Y-53341933D01*
X153552066Y-53536623D01*
X153552072Y-53536628D01*
X153770521Y-53704249D01*
X153895109Y-53776180D01*
X154008971Y-53841919D01*
X154008976Y-53841921D01*
X154008979Y-53841923D01*
X154263368Y-53947295D01*
X154529334Y-54018560D01*
X154802326Y-54054500D01*
X154802333Y-54054500D01*
X155077667Y-54054500D01*
X155077674Y-54054500D01*
X155350666Y-54018560D01*
X155616632Y-53947295D01*
X155871021Y-53841923D01*
X156109479Y-53704249D01*
X156327928Y-53536628D01*
X156522628Y-53341928D01*
X156690249Y-53123479D01*
X156827923Y-52885021D01*
X156933295Y-52630632D01*
X157004560Y-52364666D01*
X157040500Y-52091674D01*
X157040500Y-50016326D01*
X157004560Y-49743334D01*
X156933295Y-49477368D01*
X156827923Y-49222979D01*
X156827921Y-49222976D01*
X156827919Y-49222971D01*
X156778732Y-49137778D01*
X156690249Y-48984521D01*
X156595878Y-48861534D01*
X156522629Y-48766073D01*
X156522623Y-48766066D01*
X156327933Y-48571376D01*
X156327926Y-48571370D01*
X156109483Y-48403754D01*
X156109482Y-48403753D01*
X156109479Y-48403751D01*
X156014407Y-48348861D01*
X155871028Y-48266080D01*
X155871017Y-48266075D01*
X155616630Y-48160704D01*
X155483649Y-48125072D01*
X155350666Y-48089440D01*
X155350660Y-48089439D01*
X155350655Y-48089438D01*
X155077684Y-48053501D01*
X155077679Y-48053500D01*
X155077674Y-48053500D01*
X154802326Y-48053500D01*
X154802320Y-48053500D01*
X154802315Y-48053501D01*
X154529344Y-48089438D01*
X154529337Y-48089439D01*
X154529334Y-48089440D01*
X154473125Y-48104500D01*
X154263369Y-48160704D01*
X154008982Y-48266075D01*
X154008971Y-48266080D01*
X153770516Y-48403754D01*
X153552073Y-48571370D01*
X153552066Y-48571376D01*
X153357376Y-48766066D01*
X153357370Y-48766073D01*
X153189754Y-48984516D01*
X153052080Y-49222971D01*
X153052075Y-49222982D01*
X152946704Y-49477369D01*
X152875441Y-49743331D01*
X152875438Y-49743344D01*
X152839501Y-50016315D01*
X152839500Y-50016332D01*
X152590500Y-50016332D01*
X152590500Y-50016326D01*
X152554560Y-49743334D01*
X152483295Y-49477368D01*
X152377923Y-49222979D01*
X152377921Y-49222976D01*
X152377919Y-49222971D01*
X152328732Y-49137778D01*
X152240249Y-48984521D01*
X152145878Y-48861534D01*
X152072629Y-48766073D01*
X152072623Y-48766066D01*
X151877933Y-48571376D01*
X151877926Y-48571370D01*
X151659483Y-48403754D01*
X151659482Y-48403753D01*
X151659479Y-48403751D01*
X151564407Y-48348861D01*
X151421028Y-48266080D01*
X151421017Y-48266075D01*
X151166630Y-48160704D01*
X151033649Y-48125072D01*
X150900666Y-48089440D01*
X150900660Y-48089439D01*
X150900655Y-48089438D01*
X150627684Y-48053501D01*
X150627679Y-48053500D01*
X150627674Y-48053500D01*
X150352326Y-48053500D01*
X150352320Y-48053500D01*
X150352315Y-48053501D01*
X150079344Y-48089438D01*
X150079337Y-48089439D01*
X150079334Y-48089440D01*
X150023125Y-48104500D01*
X149813369Y-48160704D01*
X149558982Y-48266075D01*
X149558971Y-48266080D01*
X149320516Y-48403754D01*
X149102077Y-48571366D01*
X149086110Y-48587334D01*
X149024786Y-48620817D01*
X148955094Y-48615831D01*
X148910750Y-48587331D01*
X146318011Y-45994591D01*
X146318007Y-45994588D01*
X146210168Y-45922532D01*
X146211638Y-45920331D01*
X146169973Y-45879425D01*
X146154494Y-45811292D01*
X146178308Y-45745606D01*
X146233854Y-45703222D01*
X146278254Y-45695000D01*
X161123000Y-45695000D01*
X161190039Y-45714685D01*
X161235794Y-45767489D01*
X161247000Y-45819000D01*
X161247000Y-153521000D01*
X161227315Y-153588039D01*
X161174511Y-153633794D01*
X161123000Y-153645000D01*
X121071000Y-153645000D01*
X121003961Y-153625315D01*
X120958206Y-153572511D01*
X120947000Y-153521000D01*
X120947000Y-147206000D01*
X130255659Y-147206000D01*
X130274993Y-147451658D01*
X130332517Y-147691264D01*
X130426815Y-147918920D01*
X130555563Y-148129018D01*
X130555564Y-148129020D01*
X130609795Y-148192516D01*
X130715601Y-148316399D01*
X130860648Y-148440280D01*
X130902979Y-148476435D01*
X130902981Y-148476436D01*
X131113080Y-148605184D01*
X131113079Y-148605184D01*
X131227162Y-148652439D01*
X131281565Y-148696280D01*
X131303630Y-148762574D01*
X131286351Y-148830274D01*
X131235213Y-148877884D01*
X131179709Y-148891000D01*
X130813155Y-148891000D01*
X130753627Y-148897401D01*
X130753620Y-148897403D01*
X130618913Y-148947645D01*
X130618906Y-148947649D01*
X130503812Y-149033809D01*
X130503809Y-149033812D01*
X130417649Y-149148906D01*
X130417645Y-149148913D01*
X130367403Y-149283620D01*
X130367401Y-149283627D01*
X130361000Y-149343155D01*
X130361000Y-150056000D01*
X131269294Y-150056000D01*
X131239442Y-150128069D01*
X131216000Y-150245920D01*
X131216000Y-150366080D01*
X131239442Y-150483931D01*
X131269294Y-150556000D01*
X130361000Y-150556000D01*
X130361000Y-151268844D01*
X130367401Y-151328372D01*
X130367403Y-151328379D01*
X130417645Y-151463086D01*
X130417649Y-151463093D01*
X130503809Y-151578187D01*
X130503812Y-151578190D01*
X130618906Y-151664350D01*
X130618913Y-151664354D01*
X130753620Y-151714596D01*
X130753627Y-151714598D01*
X130813155Y-151720999D01*
X130813172Y-151721000D01*
X131576000Y-151721000D01*
X131576000Y-150862706D01*
X131648069Y-150892558D01*
X131765920Y-150916000D01*
X131886080Y-150916000D01*
X132003931Y-150892558D01*
X132076000Y-150862706D01*
X132076000Y-151721000D01*
X132838828Y-151721000D01*
X132838844Y-151720999D01*
X132898372Y-151714598D01*
X132898379Y-151714596D01*
X133033086Y-151664354D01*
X133033093Y-151664350D01*
X133148187Y-151578190D01*
X133148190Y-151578187D01*
X133234350Y-151463093D01*
X133234354Y-151463086D01*
X133284596Y-151328379D01*
X133284598Y-151328372D01*
X133290999Y-151268844D01*
X133291000Y-151268827D01*
X133291000Y-150556000D01*
X132382706Y-150556000D01*
X132412558Y-150483931D01*
X132436000Y-150366080D01*
X132436000Y-150245920D01*
X132412558Y-150128069D01*
X132382706Y-150056000D01*
X133291000Y-150056000D01*
X133291000Y-149343172D01*
X133290999Y-149343155D01*
X133284598Y-149283627D01*
X133284596Y-149283620D01*
X133234354Y-149148913D01*
X133234350Y-149148906D01*
X133148190Y-149033812D01*
X133148187Y-149033809D01*
X133033093Y-148947649D01*
X133033086Y-148947645D01*
X132898379Y-148897403D01*
X132898372Y-148897401D01*
X132838844Y-148891000D01*
X132472291Y-148891000D01*
X132405252Y-148871315D01*
X132359497Y-148818511D01*
X132349553Y-148749353D01*
X132378578Y-148685797D01*
X132424838Y-148652439D01*
X132538920Y-148605184D01*
X132749018Y-148476436D01*
X132749020Y-148476435D01*
X132749020Y-148476434D01*
X132749023Y-148476433D01*
X132936399Y-148316399D01*
X133096433Y-148129023D01*
X133225184Y-147918920D01*
X133319483Y-147691262D01*
X133377007Y-147451655D01*
X133393822Y-147238000D01*
X148797659Y-147238000D01*
X148816993Y-147483658D01*
X148874517Y-147723264D01*
X148968815Y-147950920D01*
X149097563Y-148161018D01*
X149097564Y-148161020D01*
X149097567Y-148161023D01*
X149257601Y-148348399D01*
X149402648Y-148472280D01*
X149444979Y-148508435D01*
X149444981Y-148508436D01*
X149655080Y-148637184D01*
X149655079Y-148637184D01*
X149769162Y-148684439D01*
X149823565Y-148728280D01*
X149845630Y-148794574D01*
X149828351Y-148862274D01*
X149777213Y-148909884D01*
X149721709Y-148923000D01*
X149355155Y-148923000D01*
X149295627Y-148929401D01*
X149295620Y-148929403D01*
X149160913Y-148979645D01*
X149160906Y-148979649D01*
X149045812Y-149065809D01*
X149045809Y-149065812D01*
X148959649Y-149180906D01*
X148959645Y-149180913D01*
X148909403Y-149315620D01*
X148909401Y-149315627D01*
X148903000Y-149375155D01*
X148903000Y-150088000D01*
X149811294Y-150088000D01*
X149781442Y-150160069D01*
X149758000Y-150277920D01*
X149758000Y-150398080D01*
X149781442Y-150515931D01*
X149811294Y-150588000D01*
X148903000Y-150588000D01*
X148903000Y-151300844D01*
X148909401Y-151360372D01*
X148909403Y-151360379D01*
X148959645Y-151495086D01*
X148959649Y-151495093D01*
X149045809Y-151610187D01*
X149045812Y-151610190D01*
X149160906Y-151696350D01*
X149160913Y-151696354D01*
X149295620Y-151746596D01*
X149295627Y-151746598D01*
X149355155Y-151752999D01*
X149355172Y-151753000D01*
X150118000Y-151753000D01*
X150118000Y-150894706D01*
X150190069Y-150924558D01*
X150307920Y-150948000D01*
X150428080Y-150948000D01*
X150545931Y-150924558D01*
X150618000Y-150894706D01*
X150618000Y-151753000D01*
X151380828Y-151753000D01*
X151380844Y-151752999D01*
X151440372Y-151746598D01*
X151440379Y-151746596D01*
X151575086Y-151696354D01*
X151575093Y-151696350D01*
X151690187Y-151610190D01*
X151690190Y-151610187D01*
X151776350Y-151495093D01*
X151776354Y-151495086D01*
X151826596Y-151360379D01*
X151826598Y-151360372D01*
X151832999Y-151300844D01*
X151833000Y-151300827D01*
X151833000Y-150588000D01*
X150924706Y-150588000D01*
X150954558Y-150515931D01*
X150978000Y-150398080D01*
X150978000Y-150277920D01*
X150954558Y-150160069D01*
X150924706Y-150088000D01*
X151833000Y-150088000D01*
X151833000Y-149375172D01*
X151832999Y-149375155D01*
X151826598Y-149315627D01*
X151826596Y-149315620D01*
X151776354Y-149180913D01*
X151776350Y-149180906D01*
X151690190Y-149065812D01*
X151690187Y-149065809D01*
X151575093Y-148979649D01*
X151575086Y-148979645D01*
X151440379Y-148929403D01*
X151440372Y-148929401D01*
X151380844Y-148923000D01*
X151014291Y-148923000D01*
X150947252Y-148903315D01*
X150901497Y-148850511D01*
X150891553Y-148781353D01*
X150920578Y-148717797D01*
X150966838Y-148684439D01*
X151080920Y-148637184D01*
X151291018Y-148508436D01*
X151291020Y-148508435D01*
X151291020Y-148508434D01*
X151291023Y-148508433D01*
X151478399Y-148348399D01*
X151638433Y-148161023D01*
X151767184Y-147950920D01*
X151861483Y-147723262D01*
X151919007Y-147483655D01*
X151938341Y-147238000D01*
X151919007Y-146992345D01*
X151861483Y-146752738D01*
X151830291Y-146677434D01*
X151767184Y-146525079D01*
X151638436Y-146314981D01*
X151638435Y-146314979D01*
X151570129Y-146235003D01*
X151478399Y-146127601D01*
X151354516Y-146021795D01*
X151291020Y-145967564D01*
X151291018Y-145967563D01*
X151080920Y-145838815D01*
X150853264Y-145744517D01*
X150613658Y-145686993D01*
X150368000Y-145667659D01*
X150122341Y-145686993D01*
X149882735Y-145744517D01*
X149655079Y-145838815D01*
X149444981Y-145967563D01*
X149444979Y-145967564D01*
X149257601Y-146127601D01*
X149097564Y-146314979D01*
X149097563Y-146314981D01*
X148968815Y-146525079D01*
X148874517Y-146752735D01*
X148816993Y-146992341D01*
X148797659Y-147238000D01*
X133393822Y-147238000D01*
X133396341Y-147206000D01*
X133377007Y-146960345D01*
X133319483Y-146720738D01*
X133301546Y-146677434D01*
X133225184Y-146493079D01*
X133096436Y-146282981D01*
X133096435Y-146282979D01*
X133055459Y-146235003D01*
X132936399Y-146095601D01*
X132786486Y-145967563D01*
X132749020Y-145935564D01*
X132749018Y-145935563D01*
X132538920Y-145806815D01*
X132311264Y-145712517D01*
X132071658Y-145654993D01*
X131826000Y-145635659D01*
X131580341Y-145654993D01*
X131340735Y-145712517D01*
X131113079Y-145806815D01*
X130902981Y-145935563D01*
X130902979Y-145935564D01*
X130715601Y-146095601D01*
X130555564Y-146282979D01*
X130555563Y-146282981D01*
X130426815Y-146493079D01*
X130332517Y-146720735D01*
X130274993Y-146960341D01*
X130255659Y-147206000D01*
X120947000Y-147206000D01*
X120947000Y-143825995D01*
X130320858Y-143825995D01*
X130320859Y-143826007D01*
X130341070Y-144071831D01*
X130401159Y-144311055D01*
X130401162Y-144311063D01*
X130499512Y-144537253D01*
X130499514Y-144537256D01*
X130633492Y-144744355D01*
X130799496Y-144926790D01*
X130993068Y-145079664D01*
X131087228Y-145131643D01*
X131209008Y-145198869D01*
X131209017Y-145198873D01*
X131441508Y-145281203D01*
X131441513Y-145281204D01*
X131441518Y-145281206D01*
X131441524Y-145281207D01*
X131441528Y-145281208D01*
X131491797Y-145290162D01*
X131684354Y-145324461D01*
X131684347Y-145324461D01*
X131703566Y-145324695D01*
X131930993Y-145327475D01*
X132174813Y-145290165D01*
X132409266Y-145213534D01*
X132628054Y-145099640D01*
X132825303Y-144951542D01*
X132995714Y-144773216D01*
X133134712Y-144569452D01*
X133238564Y-144345722D01*
X133304481Y-144108035D01*
X133330692Y-143862774D01*
X133330416Y-143857995D01*
X148862858Y-143857995D01*
X148862859Y-143858007D01*
X148883070Y-144103831D01*
X148943159Y-144343055D01*
X148943162Y-144343063D01*
X149041512Y-144569253D01*
X149090350Y-144644745D01*
X149175492Y-144776355D01*
X149341496Y-144958790D01*
X149535068Y-145111664D01*
X149693040Y-145198869D01*
X149751008Y-145230869D01*
X149751017Y-145230873D01*
X149983508Y-145313203D01*
X149983513Y-145313204D01*
X149983518Y-145313206D01*
X149983524Y-145313207D01*
X149983528Y-145313208D01*
X150117371Y-145337048D01*
X150226354Y-145356461D01*
X150226347Y-145356461D01*
X150245566Y-145356695D01*
X150472993Y-145359475D01*
X150716813Y-145322165D01*
X150951266Y-145245534D01*
X151170054Y-145131640D01*
X151367303Y-144983542D01*
X151537714Y-144805216D01*
X151676712Y-144601452D01*
X151780564Y-144377722D01*
X151846481Y-144140035D01*
X151872692Y-143894774D01*
X151858493Y-143648525D01*
X151858492Y-143648520D01*
X151804268Y-143407907D01*
X151804266Y-143407901D01*
X151711468Y-143179366D01*
X151582589Y-142969055D01*
X151582588Y-142969054D01*
X151582587Y-142969052D01*
X151479882Y-142850487D01*
X151421092Y-142782618D01*
X151231313Y-142625061D01*
X151231311Y-142625059D01*
X151231303Y-142625054D01*
X151018349Y-142500614D01*
X150787927Y-142412624D01*
X150723731Y-142399563D01*
X150546215Y-142363447D01*
X150546216Y-142363447D01*
X150505132Y-142361940D01*
X150299722Y-142354408D01*
X150299720Y-142354408D01*
X150299717Y-142354408D01*
X150055062Y-142385750D01*
X149818815Y-142456627D01*
X149818813Y-142456628D01*
X149597302Y-142565144D01*
X149396500Y-142708374D01*
X149396493Y-142708380D01*
X149221777Y-142882487D01*
X149221773Y-142882492D01*
X149077843Y-143082791D01*
X149077840Y-143082797D01*
X148968555Y-143303918D01*
X148968554Y-143303923D01*
X148896850Y-143539928D01*
X148864657Y-143784459D01*
X148864656Y-143784480D01*
X148862858Y-143857995D01*
X133330416Y-143857995D01*
X133316493Y-143616525D01*
X133301698Y-143550873D01*
X133262268Y-143375907D01*
X133262266Y-143375901D01*
X133169468Y-143147366D01*
X133040589Y-142937055D01*
X133040588Y-142937054D01*
X133040587Y-142937052D01*
X132906811Y-142782618D01*
X132879092Y-142750618D01*
X132689313Y-142593061D01*
X132689311Y-142593059D01*
X132689303Y-142593054D01*
X132476349Y-142468614D01*
X132245927Y-142380624D01*
X132161499Y-142363447D01*
X132004215Y-142331447D01*
X132004216Y-142331447D01*
X131963132Y-142329940D01*
X131757722Y-142322408D01*
X131757720Y-142322408D01*
X131757717Y-142322408D01*
X131513062Y-142353750D01*
X131276815Y-142424627D01*
X131276813Y-142424628D01*
X131055302Y-142533144D01*
X130854500Y-142676374D01*
X130854493Y-142676380D01*
X130679777Y-142850487D01*
X130679773Y-142850492D01*
X130535843Y-143050791D01*
X130535840Y-143050797D01*
X130426555Y-143271918D01*
X130426554Y-143271923D01*
X130354850Y-143507928D01*
X130322657Y-143752459D01*
X130322656Y-143752480D01*
X130320858Y-143825995D01*
X120947000Y-143825995D01*
X120947000Y-45819000D01*
X120966685Y-45751961D01*
X121019489Y-45706206D01*
X121071000Y-45695000D01*
X122508146Y-45695000D01*
X122575185Y-45714685D01*
G37*
%TD.AperFunction*%
%TA.AperFunction,Conductor*%
G36*
X123643200Y-55498188D02*
G01*
X123586193Y-55465275D01*
X123459026Y-55431200D01*
X123327374Y-55431200D01*
X123200207Y-55465275D01*
X123143200Y-55498188D01*
X123143200Y-53824212D01*
X123200207Y-53857125D01*
X123327374Y-53891200D01*
X123459026Y-53891200D01*
X123586193Y-53857125D01*
X123643200Y-53824212D01*
X123643200Y-55498188D01*
G37*
%TD.AperFunction*%
%TA.AperFunction,Conductor*%
G36*
X123643200Y-52958188D02*
G01*
X123586193Y-52925275D01*
X123459026Y-52891200D01*
X123327374Y-52891200D01*
X123200207Y-52925275D01*
X123143200Y-52958188D01*
X123143200Y-51284212D01*
X123200207Y-51317125D01*
X123327374Y-51351200D01*
X123459026Y-51351200D01*
X123586193Y-51317125D01*
X123643200Y-51284212D01*
X123643200Y-52958188D01*
G37*
%TD.AperFunction*%
%TD*%
M02*
