%TF.GenerationSoftware,KiCad,Pcbnew,8.0.5*%
%TF.CreationDate,2024-10-13T12:49:18-04:00*%
%TF.ProjectId,2024.10.10 Bing Bong Drum Module CONTROL,32303234-2e31-4302-9e31-302042696e67,rev?*%
%TF.SameCoordinates,Original*%
%TF.FileFunction,Drillmap*%
%TF.FilePolarity,Positive*%
%FSLAX45Y45*%
G04 Gerber Fmt 4.5, Leading zero omitted, Abs format (unit mm)*
G04 Created by KiCad (PCBNEW 8.0.5) date 2024-10-13 12:49:18*
%MOMM*%
%LPD*%
G01*
G04 APERTURE LIST*
%ADD10C,0.200000*%
%ADD11C,0.100000*%
%ADD12C,0.122000*%
%ADD13C,0.142000*%
%ADD14C,0.143000*%
%ADD15C,0.150000*%
%ADD16C,0.170000*%
%ADD17C,0.220000*%
%ADD18C,0.400000*%
G04 APERTURE END LIST*
D10*
X12094700Y-4567000D02*
X16124700Y-4567000D01*
X16124700Y-15367000D01*
X12094700Y-15367000D01*
X12094700Y-4567000D01*
D11*
X12289320Y-4781120D02*
X12389320Y-4881120D01*
X12389320Y-4781120D02*
X12289320Y-4881120D01*
X12289320Y-5035120D02*
X12389320Y-5135120D01*
X12389320Y-5035120D02*
X12289320Y-5135120D01*
X12289320Y-5289120D02*
X12389320Y-5389120D01*
X12389320Y-5289120D02*
X12289320Y-5389120D01*
X12289320Y-5543120D02*
X12389320Y-5643120D01*
X12389320Y-5543120D02*
X12289320Y-5643120D01*
X12289320Y-5797120D02*
X12389320Y-5897120D01*
X12389320Y-5797120D02*
X12289320Y-5897120D01*
X12289320Y-6051120D02*
X12389320Y-6151120D01*
X12389320Y-6051120D02*
X12289320Y-6151120D01*
X12289320Y-6305120D02*
X12389320Y-6405120D01*
X12389320Y-6305120D02*
X12289320Y-6405120D01*
X12289320Y-6559120D02*
X12389320Y-6659120D01*
X12389320Y-6559120D02*
X12289320Y-6659120D01*
X14554000Y-5055400D02*
X14654000Y-5155400D01*
X14654000Y-5055400D02*
X14554000Y-5155400D01*
X14654000Y-5170400D02*
X14654000Y-5040400D01*
X14554000Y-5040400D02*
G75*
G02*
X14654000Y-5040400I50000J0D01*
G01*
X14554000Y-5040400D02*
X14554000Y-5170400D01*
X14554000Y-5170400D02*
G75*
G03*
X14654000Y-5170400I50000J0D01*
G01*
X14745000Y-7844800D02*
X14845000Y-7944800D01*
X14845000Y-7844800D02*
X14745000Y-7944800D01*
X14745000Y-9629067D02*
X14845000Y-9729067D01*
X14845000Y-9629067D02*
X14745000Y-9729067D01*
X14745000Y-11413333D02*
X14845000Y-11513333D01*
X14845000Y-11413333D02*
X14745000Y-11513333D01*
X14745000Y-13197600D02*
X14845000Y-13297600D01*
X14845000Y-13197600D02*
X14745000Y-13297600D01*
X14995000Y-7844800D02*
X15095000Y-7944800D01*
X15095000Y-7844800D02*
X14995000Y-7944800D01*
X14995000Y-9629067D02*
X15095000Y-9729067D01*
X15095000Y-9629067D02*
X14995000Y-9729067D01*
X14995000Y-11413333D02*
X15095000Y-11513333D01*
X15095000Y-11413333D02*
X14995000Y-11513333D01*
X14995000Y-13197600D02*
X15095000Y-13297600D01*
X15095000Y-13197600D02*
X14995000Y-13297600D01*
X14999000Y-5055400D02*
X15099000Y-5155400D01*
X15099000Y-5055400D02*
X14999000Y-5155400D01*
X15099000Y-5170400D02*
X15099000Y-5040400D01*
X14999000Y-5040400D02*
G75*
G02*
X15099000Y-5040400I50000J0D01*
G01*
X14999000Y-5040400D02*
X14999000Y-5170400D01*
X14999000Y-5170400D02*
G75*
G03*
X15099000Y-5170400I50000J0D01*
G01*
X15245000Y-7844800D02*
X15345000Y-7944800D01*
X15345000Y-7844800D02*
X15245000Y-7944800D01*
X15245000Y-9629067D02*
X15345000Y-9729067D01*
X15345000Y-9629067D02*
X15245000Y-9729067D01*
X15245000Y-11413333D02*
X15345000Y-11513333D01*
X15345000Y-11413333D02*
X15245000Y-11513333D01*
X15245000Y-13197600D02*
X15345000Y-13297600D01*
X15345000Y-13197600D02*
X15245000Y-13297600D01*
X15444000Y-5055400D02*
X15544000Y-5155400D01*
X15544000Y-5055400D02*
X15444000Y-5155400D01*
X15544000Y-5170400D02*
X15544000Y-5040400D01*
X15444000Y-5040400D02*
G75*
G02*
X15544000Y-5040400I50000J0D01*
G01*
X15444000Y-5040400D02*
X15444000Y-5170400D01*
X15444000Y-5170400D02*
G75*
G03*
X15544000Y-5170400I50000J0D01*
G01*
X15845320Y-13279960D02*
X15945320Y-13379960D01*
X15945320Y-13279960D02*
X15845320Y-13379960D01*
X15845320Y-13533960D02*
X15945320Y-13633960D01*
X15945320Y-13533960D02*
X15845320Y-13633960D01*
X15845320Y-13787960D02*
X15945320Y-13887960D01*
X15945320Y-13787960D02*
X15845320Y-13887960D01*
X15845320Y-14041960D02*
X15945320Y-14141960D01*
X15945320Y-14041960D02*
X15845320Y-14141960D01*
X15845320Y-14295960D02*
X15945320Y-14395960D01*
X15945320Y-14295960D02*
X15845320Y-14395960D01*
X15845320Y-14549960D02*
X15945320Y-14649960D01*
X15945320Y-14549960D02*
X15845320Y-14649960D01*
X15845320Y-14803960D02*
X15945320Y-14903960D01*
X15945320Y-14803960D02*
X15845320Y-14903960D01*
X15845320Y-15057960D02*
X15945320Y-15157960D01*
X15945320Y-15057960D02*
X15845320Y-15157960D01*
D12*
X13243600Y-15030600D02*
G75*
G02*
X13121600Y-15030600I-61000J0D01*
G01*
X13121600Y-15030600D02*
G75*
G02*
X13243600Y-15030600I61000J0D01*
G01*
X13878600Y-7289800D02*
G75*
G02*
X13756600Y-7289800I-61000J0D01*
G01*
X13756600Y-7289800D02*
G75*
G02*
X13878600Y-7289800I61000J0D01*
G01*
X13878600Y-9074067D02*
G75*
G02*
X13756600Y-9074067I-61000J0D01*
G01*
X13756600Y-9074067D02*
G75*
G02*
X13878600Y-9074067I61000J0D01*
G01*
X13878600Y-10858333D02*
G75*
G02*
X13756600Y-10858333I-61000J0D01*
G01*
X13756600Y-10858333D02*
G75*
G02*
X13878600Y-10858333I61000J0D01*
G01*
X13878600Y-12642600D02*
G75*
G02*
X13756600Y-12642600I-61000J0D01*
G01*
X13756600Y-12642600D02*
G75*
G02*
X13878600Y-12642600I61000J0D01*
G01*
X15097800Y-15033800D02*
G75*
G02*
X14975800Y-15033800I-61000J0D01*
G01*
X14975800Y-15033800D02*
G75*
G02*
X15097800Y-15033800I61000J0D01*
G01*
D13*
X13182600Y-14649600D02*
X13182600Y-14791600D01*
X13111600Y-14720600D02*
X13253600Y-14720600D01*
X13507600Y-7218800D02*
X13507600Y-7360800D01*
X13436600Y-7289800D02*
X13578600Y-7289800D01*
X13507600Y-9003067D02*
X13507600Y-9145067D01*
X13436600Y-9074067D02*
X13578600Y-9074067D01*
X13507600Y-10787333D02*
X13507600Y-10929333D01*
X13436600Y-10858333D02*
X13578600Y-10858333D01*
X13507600Y-12571600D02*
X13507600Y-12713600D01*
X13436600Y-12642600D02*
X13578600Y-12642600D01*
X15036800Y-14652800D02*
X15036800Y-14794800D01*
X14965800Y-14723800D02*
X15107800Y-14723800D01*
D14*
X12728159Y-7340359D02*
X12728159Y-7239241D01*
X12627041Y-7239241D01*
X12627041Y-7340359D01*
X12728159Y-7340359D01*
X12728159Y-9124625D02*
X12728159Y-9023508D01*
X12627041Y-9023508D01*
X12627041Y-9124625D01*
X12728159Y-9124625D01*
X12728159Y-10908892D02*
X12728159Y-10807775D01*
X12627041Y-10807775D01*
X12627041Y-10908892D01*
X12728159Y-10908892D01*
X12728159Y-12693159D02*
X12728159Y-12592041D01*
X12627041Y-12592041D01*
X12627041Y-12693159D01*
X12728159Y-12693159D01*
X13233159Y-13941159D02*
X13233159Y-13840041D01*
X13132041Y-13840041D01*
X13132041Y-13941159D01*
X13233159Y-13941159D01*
X15087359Y-13944359D02*
X15087359Y-13843241D01*
X14986241Y-13843241D01*
X14986241Y-13944359D01*
X15087359Y-13944359D01*
D15*
X12852400Y-5358200D02*
X12927400Y-5283200D01*
X12852400Y-5208200D01*
X12777400Y-5283200D01*
X12852400Y-5358200D01*
X13487400Y-5104200D02*
X13562400Y-5029200D01*
X13487400Y-4954200D01*
X13412400Y-5029200D01*
X13487400Y-5104200D01*
D16*
X12640400Y-5452200D02*
X12810400Y-5622200D01*
X12810400Y-5452200D02*
X12640400Y-5622200D01*
X12810400Y-5537200D02*
G75*
G02*
X12640400Y-5537200I-85000J0D01*
G01*
X12640400Y-5537200D02*
G75*
G02*
X12810400Y-5537200I85000J0D01*
G01*
X13656400Y-5452200D02*
X13826400Y-5622200D01*
X13826400Y-5452200D02*
X13656400Y-5622200D01*
X13826400Y-5537200D02*
G75*
G02*
X13656400Y-5537200I-85000J0D01*
G01*
X13656400Y-5537200D02*
G75*
G02*
X13826400Y-5537200I85000J0D01*
G01*
D17*
X14495000Y-7084800D02*
X14715000Y-7304800D01*
X14715000Y-7084800D02*
X14495000Y-7304800D01*
X14605000Y-7084800D02*
X14605000Y-7304800D01*
X14495000Y-7194800D02*
X14715000Y-7194800D01*
X14495000Y-8869067D02*
X14715000Y-9089067D01*
X14715000Y-8869067D02*
X14495000Y-9089067D01*
X14605000Y-8869067D02*
X14605000Y-9089067D01*
X14495000Y-8979067D02*
X14715000Y-8979067D01*
X14495000Y-10653333D02*
X14715000Y-10873333D01*
X14715000Y-10653333D02*
X14495000Y-10873333D01*
X14605000Y-10653333D02*
X14605000Y-10873333D01*
X14495000Y-10763333D02*
X14715000Y-10763333D01*
X14495000Y-12437600D02*
X14715000Y-12657600D01*
X14715000Y-12437600D02*
X14495000Y-12657600D01*
X14605000Y-12437600D02*
X14605000Y-12657600D01*
X14495000Y-12547600D02*
X14715000Y-12547600D01*
X15375000Y-7084800D02*
X15595000Y-7304800D01*
X15595000Y-7084800D02*
X15375000Y-7304800D01*
X15485000Y-7084800D02*
X15485000Y-7304800D01*
X15375000Y-7194800D02*
X15595000Y-7194800D01*
X15375000Y-8869067D02*
X15595000Y-9089067D01*
X15595000Y-8869067D02*
X15375000Y-9089067D01*
X15485000Y-8869067D02*
X15485000Y-9089067D01*
X15375000Y-8979067D02*
X15595000Y-8979067D01*
X15375000Y-10653333D02*
X15595000Y-10873333D01*
X15595000Y-10653333D02*
X15375000Y-10873333D01*
X15485000Y-10653333D02*
X15485000Y-10873333D01*
X15375000Y-10763333D02*
X15595000Y-10763333D01*
X15375000Y-12437600D02*
X15595000Y-12657600D01*
X15595000Y-12437600D02*
X15375000Y-12657600D01*
X15485000Y-12437600D02*
X15485000Y-12657600D01*
X15375000Y-12547600D02*
X15595000Y-12547600D01*
D18*
X13033400Y-5337200D02*
X13433400Y-5737200D01*
X13433400Y-5337200D02*
X13033400Y-5737200D01*
X13374823Y-5678623D02*
X13374823Y-5395777D01*
X13091977Y-5395777D01*
X13091977Y-5678623D01*
X13374823Y-5678623D01*
D10*
X12345477Y-15688484D02*
X12345477Y-15488484D01*
X12345477Y-15488484D02*
X12393096Y-15488484D01*
X12393096Y-15488484D02*
X12421667Y-15498008D01*
X12421667Y-15498008D02*
X12440715Y-15517055D01*
X12440715Y-15517055D02*
X12450239Y-15536103D01*
X12450239Y-15536103D02*
X12459762Y-15574198D01*
X12459762Y-15574198D02*
X12459762Y-15602769D01*
X12459762Y-15602769D02*
X12450239Y-15640865D01*
X12450239Y-15640865D02*
X12440715Y-15659912D01*
X12440715Y-15659912D02*
X12421667Y-15678960D01*
X12421667Y-15678960D02*
X12393096Y-15688484D01*
X12393096Y-15688484D02*
X12345477Y-15688484D01*
X12545477Y-15688484D02*
X12545477Y-15555150D01*
X12545477Y-15593246D02*
X12555001Y-15574198D01*
X12555001Y-15574198D02*
X12564524Y-15564674D01*
X12564524Y-15564674D02*
X12583572Y-15555150D01*
X12583572Y-15555150D02*
X12602620Y-15555150D01*
X12669286Y-15688484D02*
X12669286Y-15555150D01*
X12669286Y-15488484D02*
X12659762Y-15498008D01*
X12659762Y-15498008D02*
X12669286Y-15507531D01*
X12669286Y-15507531D02*
X12678810Y-15498008D01*
X12678810Y-15498008D02*
X12669286Y-15488484D01*
X12669286Y-15488484D02*
X12669286Y-15507531D01*
X12793096Y-15688484D02*
X12774048Y-15678960D01*
X12774048Y-15678960D02*
X12764524Y-15659912D01*
X12764524Y-15659912D02*
X12764524Y-15488484D01*
X12897858Y-15688484D02*
X12878810Y-15678960D01*
X12878810Y-15678960D02*
X12869286Y-15659912D01*
X12869286Y-15659912D02*
X12869286Y-15488484D01*
X13126429Y-15688484D02*
X13126429Y-15488484D01*
X13126429Y-15488484D02*
X13193096Y-15631341D01*
X13193096Y-15631341D02*
X13259762Y-15488484D01*
X13259762Y-15488484D02*
X13259762Y-15688484D01*
X13440715Y-15688484D02*
X13440715Y-15583722D01*
X13440715Y-15583722D02*
X13431191Y-15564674D01*
X13431191Y-15564674D02*
X13412143Y-15555150D01*
X13412143Y-15555150D02*
X13374048Y-15555150D01*
X13374048Y-15555150D02*
X13355001Y-15564674D01*
X13440715Y-15678960D02*
X13421667Y-15688484D01*
X13421667Y-15688484D02*
X13374048Y-15688484D01*
X13374048Y-15688484D02*
X13355001Y-15678960D01*
X13355001Y-15678960D02*
X13345477Y-15659912D01*
X13345477Y-15659912D02*
X13345477Y-15640865D01*
X13345477Y-15640865D02*
X13355001Y-15621817D01*
X13355001Y-15621817D02*
X13374048Y-15612293D01*
X13374048Y-15612293D02*
X13421667Y-15612293D01*
X13421667Y-15612293D02*
X13440715Y-15602769D01*
X13535953Y-15555150D02*
X13535953Y-15755150D01*
X13535953Y-15564674D02*
X13555001Y-15555150D01*
X13555001Y-15555150D02*
X13593096Y-15555150D01*
X13593096Y-15555150D02*
X13612143Y-15564674D01*
X13612143Y-15564674D02*
X13621667Y-15574198D01*
X13621667Y-15574198D02*
X13631191Y-15593246D01*
X13631191Y-15593246D02*
X13631191Y-15650388D01*
X13631191Y-15650388D02*
X13621667Y-15669436D01*
X13621667Y-15669436D02*
X13612143Y-15678960D01*
X13612143Y-15678960D02*
X13593096Y-15688484D01*
X13593096Y-15688484D02*
X13555001Y-15688484D01*
X13555001Y-15688484D02*
X13535953Y-15678960D01*
X13716905Y-15669436D02*
X13726429Y-15678960D01*
X13726429Y-15678960D02*
X13716905Y-15688484D01*
X13716905Y-15688484D02*
X13707382Y-15678960D01*
X13707382Y-15678960D02*
X13716905Y-15669436D01*
X13716905Y-15669436D02*
X13716905Y-15688484D01*
X13716905Y-15564674D02*
X13726429Y-15574198D01*
X13726429Y-15574198D02*
X13716905Y-15583722D01*
X13716905Y-15583722D02*
X13707382Y-15574198D01*
X13707382Y-15574198D02*
X13716905Y-15564674D01*
X13716905Y-15564674D02*
X13716905Y-15583722D01*
D11*
X11984700Y-15967000D02*
X12084700Y-16067000D01*
X12084700Y-15967000D02*
X11984700Y-16067000D01*
D10*
X12450239Y-16108484D02*
X12335953Y-16108484D01*
X12393096Y-16108484D02*
X12393096Y-15908484D01*
X12393096Y-15908484D02*
X12374048Y-15937055D01*
X12374048Y-15937055D02*
X12355001Y-15956103D01*
X12355001Y-15956103D02*
X12335953Y-15965627D01*
X12535953Y-16089436D02*
X12545477Y-16098960D01*
X12545477Y-16098960D02*
X12535953Y-16108484D01*
X12535953Y-16108484D02*
X12526429Y-16098960D01*
X12526429Y-16098960D02*
X12535953Y-16089436D01*
X12535953Y-16089436D02*
X12535953Y-16108484D01*
X12669286Y-15908484D02*
X12688334Y-15908484D01*
X12688334Y-15908484D02*
X12707382Y-15918008D01*
X12707382Y-15918008D02*
X12716905Y-15927531D01*
X12716905Y-15927531D02*
X12726429Y-15946579D01*
X12726429Y-15946579D02*
X12735953Y-15984674D01*
X12735953Y-15984674D02*
X12735953Y-16032293D01*
X12735953Y-16032293D02*
X12726429Y-16070388D01*
X12726429Y-16070388D02*
X12716905Y-16089436D01*
X12716905Y-16089436D02*
X12707382Y-16098960D01*
X12707382Y-16098960D02*
X12688334Y-16108484D01*
X12688334Y-16108484D02*
X12669286Y-16108484D01*
X12669286Y-16108484D02*
X12650239Y-16098960D01*
X12650239Y-16098960D02*
X12640715Y-16089436D01*
X12640715Y-16089436D02*
X12631191Y-16070388D01*
X12631191Y-16070388D02*
X12621667Y-16032293D01*
X12621667Y-16032293D02*
X12621667Y-15984674D01*
X12621667Y-15984674D02*
X12631191Y-15946579D01*
X12631191Y-15946579D02*
X12640715Y-15927531D01*
X12640715Y-15927531D02*
X12650239Y-15918008D01*
X12650239Y-15918008D02*
X12669286Y-15908484D01*
X12859762Y-15908484D02*
X12878810Y-15908484D01*
X12878810Y-15908484D02*
X12897858Y-15918008D01*
X12897858Y-15918008D02*
X12907382Y-15927531D01*
X12907382Y-15927531D02*
X12916905Y-15946579D01*
X12916905Y-15946579D02*
X12926429Y-15984674D01*
X12926429Y-15984674D02*
X12926429Y-16032293D01*
X12926429Y-16032293D02*
X12916905Y-16070388D01*
X12916905Y-16070388D02*
X12907382Y-16089436D01*
X12907382Y-16089436D02*
X12897858Y-16098960D01*
X12897858Y-16098960D02*
X12878810Y-16108484D01*
X12878810Y-16108484D02*
X12859762Y-16108484D01*
X12859762Y-16108484D02*
X12840715Y-16098960D01*
X12840715Y-16098960D02*
X12831191Y-16089436D01*
X12831191Y-16089436D02*
X12821667Y-16070388D01*
X12821667Y-16070388D02*
X12812143Y-16032293D01*
X12812143Y-16032293D02*
X12812143Y-15984674D01*
X12812143Y-15984674D02*
X12821667Y-15946579D01*
X12821667Y-15946579D02*
X12831191Y-15927531D01*
X12831191Y-15927531D02*
X12840715Y-15918008D01*
X12840715Y-15918008D02*
X12859762Y-15908484D01*
X13050239Y-15908484D02*
X13069286Y-15908484D01*
X13069286Y-15908484D02*
X13088334Y-15918008D01*
X13088334Y-15918008D02*
X13097858Y-15927531D01*
X13097858Y-15927531D02*
X13107382Y-15946579D01*
X13107382Y-15946579D02*
X13116905Y-15984674D01*
X13116905Y-15984674D02*
X13116905Y-16032293D01*
X13116905Y-16032293D02*
X13107382Y-16070388D01*
X13107382Y-16070388D02*
X13097858Y-16089436D01*
X13097858Y-16089436D02*
X13088334Y-16098960D01*
X13088334Y-16098960D02*
X13069286Y-16108484D01*
X13069286Y-16108484D02*
X13050239Y-16108484D01*
X13050239Y-16108484D02*
X13031191Y-16098960D01*
X13031191Y-16098960D02*
X13021667Y-16089436D01*
X13021667Y-16089436D02*
X13012143Y-16070388D01*
X13012143Y-16070388D02*
X13002620Y-16032293D01*
X13002620Y-16032293D02*
X13002620Y-15984674D01*
X13002620Y-15984674D02*
X13012143Y-15946579D01*
X13012143Y-15946579D02*
X13021667Y-15927531D01*
X13021667Y-15927531D02*
X13031191Y-15918008D01*
X13031191Y-15918008D02*
X13050239Y-15908484D01*
X13202620Y-16108484D02*
X13202620Y-15975150D01*
X13202620Y-15994198D02*
X13212143Y-15984674D01*
X13212143Y-15984674D02*
X13231191Y-15975150D01*
X13231191Y-15975150D02*
X13259763Y-15975150D01*
X13259763Y-15975150D02*
X13278810Y-15984674D01*
X13278810Y-15984674D02*
X13288334Y-16003722D01*
X13288334Y-16003722D02*
X13288334Y-16108484D01*
X13288334Y-16003722D02*
X13297858Y-15984674D01*
X13297858Y-15984674D02*
X13316905Y-15975150D01*
X13316905Y-15975150D02*
X13345477Y-15975150D01*
X13345477Y-15975150D02*
X13364524Y-15984674D01*
X13364524Y-15984674D02*
X13374048Y-16003722D01*
X13374048Y-16003722D02*
X13374048Y-16108484D01*
X13469286Y-16108484D02*
X13469286Y-15975150D01*
X13469286Y-15994198D02*
X13478810Y-15984674D01*
X13478810Y-15984674D02*
X13497858Y-15975150D01*
X13497858Y-15975150D02*
X13526429Y-15975150D01*
X13526429Y-15975150D02*
X13545477Y-15984674D01*
X13545477Y-15984674D02*
X13555001Y-16003722D01*
X13555001Y-16003722D02*
X13555001Y-16108484D01*
X13555001Y-16003722D02*
X13564524Y-15984674D01*
X13564524Y-15984674D02*
X13583572Y-15975150D01*
X13583572Y-15975150D02*
X13612143Y-15975150D01*
X13612143Y-15975150D02*
X13631191Y-15984674D01*
X13631191Y-15984674D02*
X13640715Y-16003722D01*
X13640715Y-16003722D02*
X13640715Y-16108484D01*
X14031191Y-15898960D02*
X13859763Y-16156103D01*
X14288334Y-15908484D02*
X14307382Y-15908484D01*
X14307382Y-15908484D02*
X14326429Y-15918008D01*
X14326429Y-15918008D02*
X14335953Y-15927531D01*
X14335953Y-15927531D02*
X14345477Y-15946579D01*
X14345477Y-15946579D02*
X14355001Y-15984674D01*
X14355001Y-15984674D02*
X14355001Y-16032293D01*
X14355001Y-16032293D02*
X14345477Y-16070388D01*
X14345477Y-16070388D02*
X14335953Y-16089436D01*
X14335953Y-16089436D02*
X14326429Y-16098960D01*
X14326429Y-16098960D02*
X14307382Y-16108484D01*
X14307382Y-16108484D02*
X14288334Y-16108484D01*
X14288334Y-16108484D02*
X14269286Y-16098960D01*
X14269286Y-16098960D02*
X14259763Y-16089436D01*
X14259763Y-16089436D02*
X14250239Y-16070388D01*
X14250239Y-16070388D02*
X14240715Y-16032293D01*
X14240715Y-16032293D02*
X14240715Y-15984674D01*
X14240715Y-15984674D02*
X14250239Y-15946579D01*
X14250239Y-15946579D02*
X14259763Y-15927531D01*
X14259763Y-15927531D02*
X14269286Y-15918008D01*
X14269286Y-15918008D02*
X14288334Y-15908484D01*
X14440715Y-16089436D02*
X14450239Y-16098960D01*
X14450239Y-16098960D02*
X14440715Y-16108484D01*
X14440715Y-16108484D02*
X14431191Y-16098960D01*
X14431191Y-16098960D02*
X14440715Y-16089436D01*
X14440715Y-16089436D02*
X14440715Y-16108484D01*
X14574048Y-15908484D02*
X14593096Y-15908484D01*
X14593096Y-15908484D02*
X14612144Y-15918008D01*
X14612144Y-15918008D02*
X14621667Y-15927531D01*
X14621667Y-15927531D02*
X14631191Y-15946579D01*
X14631191Y-15946579D02*
X14640715Y-15984674D01*
X14640715Y-15984674D02*
X14640715Y-16032293D01*
X14640715Y-16032293D02*
X14631191Y-16070388D01*
X14631191Y-16070388D02*
X14621667Y-16089436D01*
X14621667Y-16089436D02*
X14612144Y-16098960D01*
X14612144Y-16098960D02*
X14593096Y-16108484D01*
X14593096Y-16108484D02*
X14574048Y-16108484D01*
X14574048Y-16108484D02*
X14555001Y-16098960D01*
X14555001Y-16098960D02*
X14545477Y-16089436D01*
X14545477Y-16089436D02*
X14535953Y-16070388D01*
X14535953Y-16070388D02*
X14526429Y-16032293D01*
X14526429Y-16032293D02*
X14526429Y-15984674D01*
X14526429Y-15984674D02*
X14535953Y-15946579D01*
X14535953Y-15946579D02*
X14545477Y-15927531D01*
X14545477Y-15927531D02*
X14555001Y-15918008D01*
X14555001Y-15918008D02*
X14574048Y-15908484D01*
X14707382Y-15908484D02*
X14831191Y-15908484D01*
X14831191Y-15908484D02*
X14764525Y-15984674D01*
X14764525Y-15984674D02*
X14793096Y-15984674D01*
X14793096Y-15984674D02*
X14812144Y-15994198D01*
X14812144Y-15994198D02*
X14821667Y-16003722D01*
X14821667Y-16003722D02*
X14831191Y-16022769D01*
X14831191Y-16022769D02*
X14831191Y-16070388D01*
X14831191Y-16070388D02*
X14821667Y-16089436D01*
X14821667Y-16089436D02*
X14812144Y-16098960D01*
X14812144Y-16098960D02*
X14793096Y-16108484D01*
X14793096Y-16108484D02*
X14735953Y-16108484D01*
X14735953Y-16108484D02*
X14716906Y-16098960D01*
X14716906Y-16098960D02*
X14707382Y-16089436D01*
X14926429Y-16108484D02*
X14964525Y-16108484D01*
X14964525Y-16108484D02*
X14983572Y-16098960D01*
X14983572Y-16098960D02*
X14993096Y-16089436D01*
X14993096Y-16089436D02*
X15012144Y-16060865D01*
X15012144Y-16060865D02*
X15021667Y-16022769D01*
X15021667Y-16022769D02*
X15021667Y-15946579D01*
X15021667Y-15946579D02*
X15012144Y-15927531D01*
X15012144Y-15927531D02*
X15002620Y-15918008D01*
X15002620Y-15918008D02*
X14983572Y-15908484D01*
X14983572Y-15908484D02*
X14945477Y-15908484D01*
X14945477Y-15908484D02*
X14926429Y-15918008D01*
X14926429Y-15918008D02*
X14916906Y-15927531D01*
X14916906Y-15927531D02*
X14907382Y-15946579D01*
X14907382Y-15946579D02*
X14907382Y-15994198D01*
X14907382Y-15994198D02*
X14916906Y-16013246D01*
X14916906Y-16013246D02*
X14926429Y-16022769D01*
X14926429Y-16022769D02*
X14945477Y-16032293D01*
X14945477Y-16032293D02*
X14983572Y-16032293D01*
X14983572Y-16032293D02*
X15002620Y-16022769D01*
X15002620Y-16022769D02*
X15012144Y-16013246D01*
X15012144Y-16013246D02*
X15021667Y-15994198D01*
X15193096Y-15975150D02*
X15193096Y-16108484D01*
X15145477Y-15898960D02*
X15097858Y-16041817D01*
X15097858Y-16041817D02*
X15221667Y-16041817D01*
X15288334Y-15908484D02*
X15288334Y-15946579D01*
X15364525Y-15908484D02*
X15364525Y-15946579D01*
X15659763Y-16184674D02*
X15650239Y-16175150D01*
X15650239Y-16175150D02*
X15631191Y-16146579D01*
X15631191Y-16146579D02*
X15621668Y-16127531D01*
X15621668Y-16127531D02*
X15612144Y-16098960D01*
X15612144Y-16098960D02*
X15602620Y-16051341D01*
X15602620Y-16051341D02*
X15602620Y-16013246D01*
X15602620Y-16013246D02*
X15612144Y-15965627D01*
X15612144Y-15965627D02*
X15621668Y-15937055D01*
X15621668Y-15937055D02*
X15631191Y-15918008D01*
X15631191Y-15918008D02*
X15650239Y-15889436D01*
X15650239Y-15889436D02*
X15659763Y-15879912D01*
X15726429Y-15927531D02*
X15735953Y-15918008D01*
X15735953Y-15918008D02*
X15755001Y-15908484D01*
X15755001Y-15908484D02*
X15802620Y-15908484D01*
X15802620Y-15908484D02*
X15821668Y-15918008D01*
X15821668Y-15918008D02*
X15831191Y-15927531D01*
X15831191Y-15927531D02*
X15840715Y-15946579D01*
X15840715Y-15946579D02*
X15840715Y-15965627D01*
X15840715Y-15965627D02*
X15831191Y-15994198D01*
X15831191Y-15994198D02*
X15716906Y-16108484D01*
X15716906Y-16108484D02*
X15840715Y-16108484D01*
X15955001Y-15994198D02*
X15935953Y-15984674D01*
X15935953Y-15984674D02*
X15926429Y-15975150D01*
X15926429Y-15975150D02*
X15916906Y-15956103D01*
X15916906Y-15956103D02*
X15916906Y-15946579D01*
X15916906Y-15946579D02*
X15926429Y-15927531D01*
X15926429Y-15927531D02*
X15935953Y-15918008D01*
X15935953Y-15918008D02*
X15955001Y-15908484D01*
X15955001Y-15908484D02*
X15993096Y-15908484D01*
X15993096Y-15908484D02*
X16012144Y-15918008D01*
X16012144Y-15918008D02*
X16021668Y-15927531D01*
X16021668Y-15927531D02*
X16031191Y-15946579D01*
X16031191Y-15946579D02*
X16031191Y-15956103D01*
X16031191Y-15956103D02*
X16021668Y-15975150D01*
X16021668Y-15975150D02*
X16012144Y-15984674D01*
X16012144Y-15984674D02*
X15993096Y-15994198D01*
X15993096Y-15994198D02*
X15955001Y-15994198D01*
X15955001Y-15994198D02*
X15935953Y-16003722D01*
X15935953Y-16003722D02*
X15926429Y-16013246D01*
X15926429Y-16013246D02*
X15916906Y-16032293D01*
X15916906Y-16032293D02*
X15916906Y-16070388D01*
X15916906Y-16070388D02*
X15926429Y-16089436D01*
X15926429Y-16089436D02*
X15935953Y-16098960D01*
X15935953Y-16098960D02*
X15955001Y-16108484D01*
X15955001Y-16108484D02*
X15993096Y-16108484D01*
X15993096Y-16108484D02*
X16012144Y-16098960D01*
X16012144Y-16098960D02*
X16021668Y-16089436D01*
X16021668Y-16089436D02*
X16031191Y-16070388D01*
X16031191Y-16070388D02*
X16031191Y-16032293D01*
X16031191Y-16032293D02*
X16021668Y-16013246D01*
X16021668Y-16013246D02*
X16012144Y-16003722D01*
X16012144Y-16003722D02*
X15993096Y-15994198D01*
X16269287Y-16108484D02*
X16269287Y-15908484D01*
X16355001Y-16108484D02*
X16355001Y-16003722D01*
X16355001Y-16003722D02*
X16345477Y-15984674D01*
X16345477Y-15984674D02*
X16326430Y-15975150D01*
X16326430Y-15975150D02*
X16297858Y-15975150D01*
X16297858Y-15975150D02*
X16278810Y-15984674D01*
X16278810Y-15984674D02*
X16269287Y-15994198D01*
X16478810Y-16108484D02*
X16459763Y-16098960D01*
X16459763Y-16098960D02*
X16450239Y-16089436D01*
X16450239Y-16089436D02*
X16440715Y-16070388D01*
X16440715Y-16070388D02*
X16440715Y-16013246D01*
X16440715Y-16013246D02*
X16450239Y-15994198D01*
X16450239Y-15994198D02*
X16459763Y-15984674D01*
X16459763Y-15984674D02*
X16478810Y-15975150D01*
X16478810Y-15975150D02*
X16507382Y-15975150D01*
X16507382Y-15975150D02*
X16526430Y-15984674D01*
X16526430Y-15984674D02*
X16535953Y-15994198D01*
X16535953Y-15994198D02*
X16545477Y-16013246D01*
X16545477Y-16013246D02*
X16545477Y-16070388D01*
X16545477Y-16070388D02*
X16535953Y-16089436D01*
X16535953Y-16089436D02*
X16526430Y-16098960D01*
X16526430Y-16098960D02*
X16507382Y-16108484D01*
X16507382Y-16108484D02*
X16478810Y-16108484D01*
X16659763Y-16108484D02*
X16640715Y-16098960D01*
X16640715Y-16098960D02*
X16631191Y-16079912D01*
X16631191Y-16079912D02*
X16631191Y-15908484D01*
X16812144Y-16098960D02*
X16793096Y-16108484D01*
X16793096Y-16108484D02*
X16755001Y-16108484D01*
X16755001Y-16108484D02*
X16735953Y-16098960D01*
X16735953Y-16098960D02*
X16726430Y-16079912D01*
X16726430Y-16079912D02*
X16726430Y-16003722D01*
X16726430Y-16003722D02*
X16735953Y-15984674D01*
X16735953Y-15984674D02*
X16755001Y-15975150D01*
X16755001Y-15975150D02*
X16793096Y-15975150D01*
X16793096Y-15975150D02*
X16812144Y-15984674D01*
X16812144Y-15984674D02*
X16821668Y-16003722D01*
X16821668Y-16003722D02*
X16821668Y-16022769D01*
X16821668Y-16022769D02*
X16726430Y-16041817D01*
X16897858Y-16098960D02*
X16916906Y-16108484D01*
X16916906Y-16108484D02*
X16955001Y-16108484D01*
X16955001Y-16108484D02*
X16974049Y-16098960D01*
X16974049Y-16098960D02*
X16983573Y-16079912D01*
X16983573Y-16079912D02*
X16983573Y-16070388D01*
X16983573Y-16070388D02*
X16974049Y-16051341D01*
X16974049Y-16051341D02*
X16955001Y-16041817D01*
X16955001Y-16041817D02*
X16926430Y-16041817D01*
X16926430Y-16041817D02*
X16907382Y-16032293D01*
X16907382Y-16032293D02*
X16897858Y-16013246D01*
X16897858Y-16013246D02*
X16897858Y-16003722D01*
X16897858Y-16003722D02*
X16907382Y-15984674D01*
X16907382Y-15984674D02*
X16926430Y-15975150D01*
X16926430Y-15975150D02*
X16955001Y-15975150D01*
X16955001Y-15975150D02*
X16974049Y-15984674D01*
X17221668Y-16032293D02*
X17374049Y-16032293D01*
X17297858Y-16108484D02*
X17297858Y-15956103D01*
X17602620Y-15908484D02*
X17726430Y-15908484D01*
X17726430Y-15908484D02*
X17659763Y-15984674D01*
X17659763Y-15984674D02*
X17688335Y-15984674D01*
X17688335Y-15984674D02*
X17707382Y-15994198D01*
X17707382Y-15994198D02*
X17716906Y-16003722D01*
X17716906Y-16003722D02*
X17726430Y-16022769D01*
X17726430Y-16022769D02*
X17726430Y-16070388D01*
X17726430Y-16070388D02*
X17716906Y-16089436D01*
X17716906Y-16089436D02*
X17707382Y-16098960D01*
X17707382Y-16098960D02*
X17688335Y-16108484D01*
X17688335Y-16108484D02*
X17631192Y-16108484D01*
X17631192Y-16108484D02*
X17612144Y-16098960D01*
X17612144Y-16098960D02*
X17602620Y-16089436D01*
X17955001Y-16098960D02*
X17974049Y-16108484D01*
X17974049Y-16108484D02*
X18012144Y-16108484D01*
X18012144Y-16108484D02*
X18031192Y-16098960D01*
X18031192Y-16098960D02*
X18040716Y-16079912D01*
X18040716Y-16079912D02*
X18040716Y-16070388D01*
X18040716Y-16070388D02*
X18031192Y-16051341D01*
X18031192Y-16051341D02*
X18012144Y-16041817D01*
X18012144Y-16041817D02*
X17983573Y-16041817D01*
X17983573Y-16041817D02*
X17964525Y-16032293D01*
X17964525Y-16032293D02*
X17955001Y-16013246D01*
X17955001Y-16013246D02*
X17955001Y-16003722D01*
X17955001Y-16003722D02*
X17964525Y-15984674D01*
X17964525Y-15984674D02*
X17983573Y-15975150D01*
X17983573Y-15975150D02*
X18012144Y-15975150D01*
X18012144Y-15975150D02*
X18031192Y-15984674D01*
X18155001Y-16108484D02*
X18135954Y-16098960D01*
X18135954Y-16098960D02*
X18126430Y-16079912D01*
X18126430Y-16079912D02*
X18126430Y-15908484D01*
X18259763Y-16108484D02*
X18240716Y-16098960D01*
X18240716Y-16098960D02*
X18231192Y-16089436D01*
X18231192Y-16089436D02*
X18221668Y-16070388D01*
X18221668Y-16070388D02*
X18221668Y-16013246D01*
X18221668Y-16013246D02*
X18231192Y-15994198D01*
X18231192Y-15994198D02*
X18240716Y-15984674D01*
X18240716Y-15984674D02*
X18259763Y-15975150D01*
X18259763Y-15975150D02*
X18288335Y-15975150D01*
X18288335Y-15975150D02*
X18307382Y-15984674D01*
X18307382Y-15984674D02*
X18316906Y-15994198D01*
X18316906Y-15994198D02*
X18326430Y-16013246D01*
X18326430Y-16013246D02*
X18326430Y-16070388D01*
X18326430Y-16070388D02*
X18316906Y-16089436D01*
X18316906Y-16089436D02*
X18307382Y-16098960D01*
X18307382Y-16098960D02*
X18288335Y-16108484D01*
X18288335Y-16108484D02*
X18259763Y-16108484D01*
X18383573Y-15975150D02*
X18459763Y-15975150D01*
X18412144Y-15908484D02*
X18412144Y-16079912D01*
X18412144Y-16079912D02*
X18421668Y-16098960D01*
X18421668Y-16098960D02*
X18440716Y-16108484D01*
X18440716Y-16108484D02*
X18459763Y-16108484D01*
X18516906Y-16098960D02*
X18535954Y-16108484D01*
X18535954Y-16108484D02*
X18574049Y-16108484D01*
X18574049Y-16108484D02*
X18593097Y-16098960D01*
X18593097Y-16098960D02*
X18602620Y-16079912D01*
X18602620Y-16079912D02*
X18602620Y-16070388D01*
X18602620Y-16070388D02*
X18593097Y-16051341D01*
X18593097Y-16051341D02*
X18574049Y-16041817D01*
X18574049Y-16041817D02*
X18545477Y-16041817D01*
X18545477Y-16041817D02*
X18526430Y-16032293D01*
X18526430Y-16032293D02*
X18516906Y-16013246D01*
X18516906Y-16013246D02*
X18516906Y-16003722D01*
X18516906Y-16003722D02*
X18526430Y-15984674D01*
X18526430Y-15984674D02*
X18545477Y-15975150D01*
X18545477Y-15975150D02*
X18574049Y-15975150D01*
X18574049Y-15975150D02*
X18593097Y-15984674D01*
X18669287Y-16184674D02*
X18678811Y-16175150D01*
X18678811Y-16175150D02*
X18697858Y-16146579D01*
X18697858Y-16146579D02*
X18707382Y-16127531D01*
X18707382Y-16127531D02*
X18716906Y-16098960D01*
X18716906Y-16098960D02*
X18726430Y-16051341D01*
X18726430Y-16051341D02*
X18726430Y-16013246D01*
X18726430Y-16013246D02*
X18716906Y-15965627D01*
X18716906Y-15965627D02*
X18707382Y-15937055D01*
X18707382Y-15937055D02*
X18697858Y-15918008D01*
X18697858Y-15918008D02*
X18678811Y-15889436D01*
X18678811Y-15889436D02*
X18669287Y-15879912D01*
D12*
X12084700Y-16281000D02*
G75*
G02*
X11962700Y-16281000I-61000J0D01*
G01*
X11962700Y-16281000D02*
G75*
G02*
X12084700Y-16281000I61000J0D01*
G01*
D10*
X12450239Y-16372484D02*
X12335953Y-16372484D01*
X12393096Y-16372484D02*
X12393096Y-16172484D01*
X12393096Y-16172484D02*
X12374048Y-16201055D01*
X12374048Y-16201055D02*
X12355001Y-16220103D01*
X12355001Y-16220103D02*
X12335953Y-16229627D01*
X12535953Y-16353436D02*
X12545477Y-16362960D01*
X12545477Y-16362960D02*
X12535953Y-16372484D01*
X12535953Y-16372484D02*
X12526429Y-16362960D01*
X12526429Y-16362960D02*
X12535953Y-16353436D01*
X12535953Y-16353436D02*
X12535953Y-16372484D01*
X12621667Y-16191531D02*
X12631191Y-16182008D01*
X12631191Y-16182008D02*
X12650239Y-16172484D01*
X12650239Y-16172484D02*
X12697858Y-16172484D01*
X12697858Y-16172484D02*
X12716905Y-16182008D01*
X12716905Y-16182008D02*
X12726429Y-16191531D01*
X12726429Y-16191531D02*
X12735953Y-16210579D01*
X12735953Y-16210579D02*
X12735953Y-16229627D01*
X12735953Y-16229627D02*
X12726429Y-16258198D01*
X12726429Y-16258198D02*
X12612143Y-16372484D01*
X12612143Y-16372484D02*
X12735953Y-16372484D01*
X12812143Y-16191531D02*
X12821667Y-16182008D01*
X12821667Y-16182008D02*
X12840715Y-16172484D01*
X12840715Y-16172484D02*
X12888334Y-16172484D01*
X12888334Y-16172484D02*
X12907382Y-16182008D01*
X12907382Y-16182008D02*
X12916905Y-16191531D01*
X12916905Y-16191531D02*
X12926429Y-16210579D01*
X12926429Y-16210579D02*
X12926429Y-16229627D01*
X12926429Y-16229627D02*
X12916905Y-16258198D01*
X12916905Y-16258198D02*
X12802620Y-16372484D01*
X12802620Y-16372484D02*
X12926429Y-16372484D01*
X13050239Y-16172484D02*
X13069286Y-16172484D01*
X13069286Y-16172484D02*
X13088334Y-16182008D01*
X13088334Y-16182008D02*
X13097858Y-16191531D01*
X13097858Y-16191531D02*
X13107382Y-16210579D01*
X13107382Y-16210579D02*
X13116905Y-16248674D01*
X13116905Y-16248674D02*
X13116905Y-16296293D01*
X13116905Y-16296293D02*
X13107382Y-16334388D01*
X13107382Y-16334388D02*
X13097858Y-16353436D01*
X13097858Y-16353436D02*
X13088334Y-16362960D01*
X13088334Y-16362960D02*
X13069286Y-16372484D01*
X13069286Y-16372484D02*
X13050239Y-16372484D01*
X13050239Y-16372484D02*
X13031191Y-16362960D01*
X13031191Y-16362960D02*
X13021667Y-16353436D01*
X13021667Y-16353436D02*
X13012143Y-16334388D01*
X13012143Y-16334388D02*
X13002620Y-16296293D01*
X13002620Y-16296293D02*
X13002620Y-16248674D01*
X13002620Y-16248674D02*
X13012143Y-16210579D01*
X13012143Y-16210579D02*
X13021667Y-16191531D01*
X13021667Y-16191531D02*
X13031191Y-16182008D01*
X13031191Y-16182008D02*
X13050239Y-16172484D01*
X13202620Y-16372484D02*
X13202620Y-16239150D01*
X13202620Y-16258198D02*
X13212143Y-16248674D01*
X13212143Y-16248674D02*
X13231191Y-16239150D01*
X13231191Y-16239150D02*
X13259763Y-16239150D01*
X13259763Y-16239150D02*
X13278810Y-16248674D01*
X13278810Y-16248674D02*
X13288334Y-16267722D01*
X13288334Y-16267722D02*
X13288334Y-16372484D01*
X13288334Y-16267722D02*
X13297858Y-16248674D01*
X13297858Y-16248674D02*
X13316905Y-16239150D01*
X13316905Y-16239150D02*
X13345477Y-16239150D01*
X13345477Y-16239150D02*
X13364524Y-16248674D01*
X13364524Y-16248674D02*
X13374048Y-16267722D01*
X13374048Y-16267722D02*
X13374048Y-16372484D01*
X13469286Y-16372484D02*
X13469286Y-16239150D01*
X13469286Y-16258198D02*
X13478810Y-16248674D01*
X13478810Y-16248674D02*
X13497858Y-16239150D01*
X13497858Y-16239150D02*
X13526429Y-16239150D01*
X13526429Y-16239150D02*
X13545477Y-16248674D01*
X13545477Y-16248674D02*
X13555001Y-16267722D01*
X13555001Y-16267722D02*
X13555001Y-16372484D01*
X13555001Y-16267722D02*
X13564524Y-16248674D01*
X13564524Y-16248674D02*
X13583572Y-16239150D01*
X13583572Y-16239150D02*
X13612143Y-16239150D01*
X13612143Y-16239150D02*
X13631191Y-16248674D01*
X13631191Y-16248674D02*
X13640715Y-16267722D01*
X13640715Y-16267722D02*
X13640715Y-16372484D01*
X14031191Y-16162960D02*
X13859763Y-16420103D01*
X14288334Y-16172484D02*
X14307382Y-16172484D01*
X14307382Y-16172484D02*
X14326429Y-16182008D01*
X14326429Y-16182008D02*
X14335953Y-16191531D01*
X14335953Y-16191531D02*
X14345477Y-16210579D01*
X14345477Y-16210579D02*
X14355001Y-16248674D01*
X14355001Y-16248674D02*
X14355001Y-16296293D01*
X14355001Y-16296293D02*
X14345477Y-16334388D01*
X14345477Y-16334388D02*
X14335953Y-16353436D01*
X14335953Y-16353436D02*
X14326429Y-16362960D01*
X14326429Y-16362960D02*
X14307382Y-16372484D01*
X14307382Y-16372484D02*
X14288334Y-16372484D01*
X14288334Y-16372484D02*
X14269286Y-16362960D01*
X14269286Y-16362960D02*
X14259763Y-16353436D01*
X14259763Y-16353436D02*
X14250239Y-16334388D01*
X14250239Y-16334388D02*
X14240715Y-16296293D01*
X14240715Y-16296293D02*
X14240715Y-16248674D01*
X14240715Y-16248674D02*
X14250239Y-16210579D01*
X14250239Y-16210579D02*
X14259763Y-16191531D01*
X14259763Y-16191531D02*
X14269286Y-16182008D01*
X14269286Y-16182008D02*
X14288334Y-16172484D01*
X14440715Y-16353436D02*
X14450239Y-16362960D01*
X14450239Y-16362960D02*
X14440715Y-16372484D01*
X14440715Y-16372484D02*
X14431191Y-16362960D01*
X14431191Y-16362960D02*
X14440715Y-16353436D01*
X14440715Y-16353436D02*
X14440715Y-16372484D01*
X14574048Y-16172484D02*
X14593096Y-16172484D01*
X14593096Y-16172484D02*
X14612144Y-16182008D01*
X14612144Y-16182008D02*
X14621667Y-16191531D01*
X14621667Y-16191531D02*
X14631191Y-16210579D01*
X14631191Y-16210579D02*
X14640715Y-16248674D01*
X14640715Y-16248674D02*
X14640715Y-16296293D01*
X14640715Y-16296293D02*
X14631191Y-16334388D01*
X14631191Y-16334388D02*
X14621667Y-16353436D01*
X14621667Y-16353436D02*
X14612144Y-16362960D01*
X14612144Y-16362960D02*
X14593096Y-16372484D01*
X14593096Y-16372484D02*
X14574048Y-16372484D01*
X14574048Y-16372484D02*
X14555001Y-16362960D01*
X14555001Y-16362960D02*
X14545477Y-16353436D01*
X14545477Y-16353436D02*
X14535953Y-16334388D01*
X14535953Y-16334388D02*
X14526429Y-16296293D01*
X14526429Y-16296293D02*
X14526429Y-16248674D01*
X14526429Y-16248674D02*
X14535953Y-16210579D01*
X14535953Y-16210579D02*
X14545477Y-16191531D01*
X14545477Y-16191531D02*
X14555001Y-16182008D01*
X14555001Y-16182008D02*
X14574048Y-16172484D01*
X14812144Y-16239150D02*
X14812144Y-16372484D01*
X14764525Y-16162960D02*
X14716906Y-16305817D01*
X14716906Y-16305817D02*
X14840715Y-16305817D01*
X14945477Y-16258198D02*
X14926429Y-16248674D01*
X14926429Y-16248674D02*
X14916906Y-16239150D01*
X14916906Y-16239150D02*
X14907382Y-16220103D01*
X14907382Y-16220103D02*
X14907382Y-16210579D01*
X14907382Y-16210579D02*
X14916906Y-16191531D01*
X14916906Y-16191531D02*
X14926429Y-16182008D01*
X14926429Y-16182008D02*
X14945477Y-16172484D01*
X14945477Y-16172484D02*
X14983572Y-16172484D01*
X14983572Y-16172484D02*
X15002620Y-16182008D01*
X15002620Y-16182008D02*
X15012144Y-16191531D01*
X15012144Y-16191531D02*
X15021667Y-16210579D01*
X15021667Y-16210579D02*
X15021667Y-16220103D01*
X15021667Y-16220103D02*
X15012144Y-16239150D01*
X15012144Y-16239150D02*
X15002620Y-16248674D01*
X15002620Y-16248674D02*
X14983572Y-16258198D01*
X14983572Y-16258198D02*
X14945477Y-16258198D01*
X14945477Y-16258198D02*
X14926429Y-16267722D01*
X14926429Y-16267722D02*
X14916906Y-16277246D01*
X14916906Y-16277246D02*
X14907382Y-16296293D01*
X14907382Y-16296293D02*
X14907382Y-16334388D01*
X14907382Y-16334388D02*
X14916906Y-16353436D01*
X14916906Y-16353436D02*
X14926429Y-16362960D01*
X14926429Y-16362960D02*
X14945477Y-16372484D01*
X14945477Y-16372484D02*
X14983572Y-16372484D01*
X14983572Y-16372484D02*
X15002620Y-16362960D01*
X15002620Y-16362960D02*
X15012144Y-16353436D01*
X15012144Y-16353436D02*
X15021667Y-16334388D01*
X15021667Y-16334388D02*
X15021667Y-16296293D01*
X15021667Y-16296293D02*
X15012144Y-16277246D01*
X15012144Y-16277246D02*
X15002620Y-16267722D01*
X15002620Y-16267722D02*
X14983572Y-16258198D01*
X15145477Y-16172484D02*
X15164525Y-16172484D01*
X15164525Y-16172484D02*
X15183572Y-16182008D01*
X15183572Y-16182008D02*
X15193096Y-16191531D01*
X15193096Y-16191531D02*
X15202620Y-16210579D01*
X15202620Y-16210579D02*
X15212144Y-16248674D01*
X15212144Y-16248674D02*
X15212144Y-16296293D01*
X15212144Y-16296293D02*
X15202620Y-16334388D01*
X15202620Y-16334388D02*
X15193096Y-16353436D01*
X15193096Y-16353436D02*
X15183572Y-16362960D01*
X15183572Y-16362960D02*
X15164525Y-16372484D01*
X15164525Y-16372484D02*
X15145477Y-16372484D01*
X15145477Y-16372484D02*
X15126429Y-16362960D01*
X15126429Y-16362960D02*
X15116906Y-16353436D01*
X15116906Y-16353436D02*
X15107382Y-16334388D01*
X15107382Y-16334388D02*
X15097858Y-16296293D01*
X15097858Y-16296293D02*
X15097858Y-16248674D01*
X15097858Y-16248674D02*
X15107382Y-16210579D01*
X15107382Y-16210579D02*
X15116906Y-16191531D01*
X15116906Y-16191531D02*
X15126429Y-16182008D01*
X15126429Y-16182008D02*
X15145477Y-16172484D01*
X15288334Y-16172484D02*
X15288334Y-16210579D01*
X15364525Y-16172484D02*
X15364525Y-16210579D01*
X15659763Y-16448674D02*
X15650239Y-16439150D01*
X15650239Y-16439150D02*
X15631191Y-16410579D01*
X15631191Y-16410579D02*
X15621668Y-16391531D01*
X15621668Y-16391531D02*
X15612144Y-16362960D01*
X15612144Y-16362960D02*
X15602620Y-16315341D01*
X15602620Y-16315341D02*
X15602620Y-16277246D01*
X15602620Y-16277246D02*
X15612144Y-16229627D01*
X15612144Y-16229627D02*
X15621668Y-16201055D01*
X15621668Y-16201055D02*
X15631191Y-16182008D01*
X15631191Y-16182008D02*
X15650239Y-16153436D01*
X15650239Y-16153436D02*
X15659763Y-16143912D01*
X15821668Y-16172484D02*
X15783572Y-16172484D01*
X15783572Y-16172484D02*
X15764525Y-16182008D01*
X15764525Y-16182008D02*
X15755001Y-16191531D01*
X15755001Y-16191531D02*
X15735953Y-16220103D01*
X15735953Y-16220103D02*
X15726429Y-16258198D01*
X15726429Y-16258198D02*
X15726429Y-16334388D01*
X15726429Y-16334388D02*
X15735953Y-16353436D01*
X15735953Y-16353436D02*
X15745477Y-16362960D01*
X15745477Y-16362960D02*
X15764525Y-16372484D01*
X15764525Y-16372484D02*
X15802620Y-16372484D01*
X15802620Y-16372484D02*
X15821668Y-16362960D01*
X15821668Y-16362960D02*
X15831191Y-16353436D01*
X15831191Y-16353436D02*
X15840715Y-16334388D01*
X15840715Y-16334388D02*
X15840715Y-16286769D01*
X15840715Y-16286769D02*
X15831191Y-16267722D01*
X15831191Y-16267722D02*
X15821668Y-16258198D01*
X15821668Y-16258198D02*
X15802620Y-16248674D01*
X15802620Y-16248674D02*
X15764525Y-16248674D01*
X15764525Y-16248674D02*
X15745477Y-16258198D01*
X15745477Y-16258198D02*
X15735953Y-16267722D01*
X15735953Y-16267722D02*
X15726429Y-16286769D01*
X16078810Y-16372484D02*
X16078810Y-16172484D01*
X16164525Y-16372484D02*
X16164525Y-16267722D01*
X16164525Y-16267722D02*
X16155001Y-16248674D01*
X16155001Y-16248674D02*
X16135953Y-16239150D01*
X16135953Y-16239150D02*
X16107382Y-16239150D01*
X16107382Y-16239150D02*
X16088334Y-16248674D01*
X16088334Y-16248674D02*
X16078810Y-16258198D01*
X16288334Y-16372484D02*
X16269287Y-16362960D01*
X16269287Y-16362960D02*
X16259763Y-16353436D01*
X16259763Y-16353436D02*
X16250239Y-16334388D01*
X16250239Y-16334388D02*
X16250239Y-16277246D01*
X16250239Y-16277246D02*
X16259763Y-16258198D01*
X16259763Y-16258198D02*
X16269287Y-16248674D01*
X16269287Y-16248674D02*
X16288334Y-16239150D01*
X16288334Y-16239150D02*
X16316906Y-16239150D01*
X16316906Y-16239150D02*
X16335953Y-16248674D01*
X16335953Y-16248674D02*
X16345477Y-16258198D01*
X16345477Y-16258198D02*
X16355001Y-16277246D01*
X16355001Y-16277246D02*
X16355001Y-16334388D01*
X16355001Y-16334388D02*
X16345477Y-16353436D01*
X16345477Y-16353436D02*
X16335953Y-16362960D01*
X16335953Y-16362960D02*
X16316906Y-16372484D01*
X16316906Y-16372484D02*
X16288334Y-16372484D01*
X16469287Y-16372484D02*
X16450239Y-16362960D01*
X16450239Y-16362960D02*
X16440715Y-16343912D01*
X16440715Y-16343912D02*
X16440715Y-16172484D01*
X16621668Y-16362960D02*
X16602620Y-16372484D01*
X16602620Y-16372484D02*
X16564525Y-16372484D01*
X16564525Y-16372484D02*
X16545477Y-16362960D01*
X16545477Y-16362960D02*
X16535953Y-16343912D01*
X16535953Y-16343912D02*
X16535953Y-16267722D01*
X16535953Y-16267722D02*
X16545477Y-16248674D01*
X16545477Y-16248674D02*
X16564525Y-16239150D01*
X16564525Y-16239150D02*
X16602620Y-16239150D01*
X16602620Y-16239150D02*
X16621668Y-16248674D01*
X16621668Y-16248674D02*
X16631191Y-16267722D01*
X16631191Y-16267722D02*
X16631191Y-16286769D01*
X16631191Y-16286769D02*
X16535953Y-16305817D01*
X16707382Y-16362960D02*
X16726430Y-16372484D01*
X16726430Y-16372484D02*
X16764525Y-16372484D01*
X16764525Y-16372484D02*
X16783573Y-16362960D01*
X16783573Y-16362960D02*
X16793096Y-16343912D01*
X16793096Y-16343912D02*
X16793096Y-16334388D01*
X16793096Y-16334388D02*
X16783573Y-16315341D01*
X16783573Y-16315341D02*
X16764525Y-16305817D01*
X16764525Y-16305817D02*
X16735953Y-16305817D01*
X16735953Y-16305817D02*
X16716906Y-16296293D01*
X16716906Y-16296293D02*
X16707382Y-16277246D01*
X16707382Y-16277246D02*
X16707382Y-16267722D01*
X16707382Y-16267722D02*
X16716906Y-16248674D01*
X16716906Y-16248674D02*
X16735953Y-16239150D01*
X16735953Y-16239150D02*
X16764525Y-16239150D01*
X16764525Y-16239150D02*
X16783573Y-16248674D01*
X16859763Y-16448674D02*
X16869287Y-16439150D01*
X16869287Y-16439150D02*
X16888334Y-16410579D01*
X16888334Y-16410579D02*
X16897858Y-16391531D01*
X16897858Y-16391531D02*
X16907382Y-16362960D01*
X16907382Y-16362960D02*
X16916906Y-16315341D01*
X16916906Y-16315341D02*
X16916906Y-16277246D01*
X16916906Y-16277246D02*
X16907382Y-16229627D01*
X16907382Y-16229627D02*
X16897858Y-16201055D01*
X16897858Y-16201055D02*
X16888334Y-16182008D01*
X16888334Y-16182008D02*
X16869287Y-16153436D01*
X16869287Y-16153436D02*
X16859763Y-16143912D01*
D13*
X12013700Y-16474000D02*
X12013700Y-16616000D01*
X11942700Y-16545000D02*
X12084700Y-16545000D01*
D10*
X12450239Y-16636484D02*
X12335953Y-16636484D01*
X12393096Y-16636484D02*
X12393096Y-16436484D01*
X12393096Y-16436484D02*
X12374048Y-16465055D01*
X12374048Y-16465055D02*
X12355001Y-16484103D01*
X12355001Y-16484103D02*
X12335953Y-16493627D01*
X12535953Y-16617436D02*
X12545477Y-16626960D01*
X12545477Y-16626960D02*
X12535953Y-16636484D01*
X12535953Y-16636484D02*
X12526429Y-16626960D01*
X12526429Y-16626960D02*
X12535953Y-16617436D01*
X12535953Y-16617436D02*
X12535953Y-16636484D01*
X12716905Y-16503150D02*
X12716905Y-16636484D01*
X12669286Y-16426960D02*
X12621667Y-16569817D01*
X12621667Y-16569817D02*
X12745477Y-16569817D01*
X12812143Y-16455531D02*
X12821667Y-16446008D01*
X12821667Y-16446008D02*
X12840715Y-16436484D01*
X12840715Y-16436484D02*
X12888334Y-16436484D01*
X12888334Y-16436484D02*
X12907382Y-16446008D01*
X12907382Y-16446008D02*
X12916905Y-16455531D01*
X12916905Y-16455531D02*
X12926429Y-16474579D01*
X12926429Y-16474579D02*
X12926429Y-16493627D01*
X12926429Y-16493627D02*
X12916905Y-16522198D01*
X12916905Y-16522198D02*
X12802620Y-16636484D01*
X12802620Y-16636484D02*
X12926429Y-16636484D01*
X13050239Y-16436484D02*
X13069286Y-16436484D01*
X13069286Y-16436484D02*
X13088334Y-16446008D01*
X13088334Y-16446008D02*
X13097858Y-16455531D01*
X13097858Y-16455531D02*
X13107382Y-16474579D01*
X13107382Y-16474579D02*
X13116905Y-16512674D01*
X13116905Y-16512674D02*
X13116905Y-16560293D01*
X13116905Y-16560293D02*
X13107382Y-16598388D01*
X13107382Y-16598388D02*
X13097858Y-16617436D01*
X13097858Y-16617436D02*
X13088334Y-16626960D01*
X13088334Y-16626960D02*
X13069286Y-16636484D01*
X13069286Y-16636484D02*
X13050239Y-16636484D01*
X13050239Y-16636484D02*
X13031191Y-16626960D01*
X13031191Y-16626960D02*
X13021667Y-16617436D01*
X13021667Y-16617436D02*
X13012143Y-16598388D01*
X13012143Y-16598388D02*
X13002620Y-16560293D01*
X13002620Y-16560293D02*
X13002620Y-16512674D01*
X13002620Y-16512674D02*
X13012143Y-16474579D01*
X13012143Y-16474579D02*
X13021667Y-16455531D01*
X13021667Y-16455531D02*
X13031191Y-16446008D01*
X13031191Y-16446008D02*
X13050239Y-16436484D01*
X13202620Y-16636484D02*
X13202620Y-16503150D01*
X13202620Y-16522198D02*
X13212143Y-16512674D01*
X13212143Y-16512674D02*
X13231191Y-16503150D01*
X13231191Y-16503150D02*
X13259763Y-16503150D01*
X13259763Y-16503150D02*
X13278810Y-16512674D01*
X13278810Y-16512674D02*
X13288334Y-16531722D01*
X13288334Y-16531722D02*
X13288334Y-16636484D01*
X13288334Y-16531722D02*
X13297858Y-16512674D01*
X13297858Y-16512674D02*
X13316905Y-16503150D01*
X13316905Y-16503150D02*
X13345477Y-16503150D01*
X13345477Y-16503150D02*
X13364524Y-16512674D01*
X13364524Y-16512674D02*
X13374048Y-16531722D01*
X13374048Y-16531722D02*
X13374048Y-16636484D01*
X13469286Y-16636484D02*
X13469286Y-16503150D01*
X13469286Y-16522198D02*
X13478810Y-16512674D01*
X13478810Y-16512674D02*
X13497858Y-16503150D01*
X13497858Y-16503150D02*
X13526429Y-16503150D01*
X13526429Y-16503150D02*
X13545477Y-16512674D01*
X13545477Y-16512674D02*
X13555001Y-16531722D01*
X13555001Y-16531722D02*
X13555001Y-16636484D01*
X13555001Y-16531722D02*
X13564524Y-16512674D01*
X13564524Y-16512674D02*
X13583572Y-16503150D01*
X13583572Y-16503150D02*
X13612143Y-16503150D01*
X13612143Y-16503150D02*
X13631191Y-16512674D01*
X13631191Y-16512674D02*
X13640715Y-16531722D01*
X13640715Y-16531722D02*
X13640715Y-16636484D01*
X14031191Y-16426960D02*
X13859763Y-16684103D01*
X14288334Y-16436484D02*
X14307382Y-16436484D01*
X14307382Y-16436484D02*
X14326429Y-16446008D01*
X14326429Y-16446008D02*
X14335953Y-16455531D01*
X14335953Y-16455531D02*
X14345477Y-16474579D01*
X14345477Y-16474579D02*
X14355001Y-16512674D01*
X14355001Y-16512674D02*
X14355001Y-16560293D01*
X14355001Y-16560293D02*
X14345477Y-16598388D01*
X14345477Y-16598388D02*
X14335953Y-16617436D01*
X14335953Y-16617436D02*
X14326429Y-16626960D01*
X14326429Y-16626960D02*
X14307382Y-16636484D01*
X14307382Y-16636484D02*
X14288334Y-16636484D01*
X14288334Y-16636484D02*
X14269286Y-16626960D01*
X14269286Y-16626960D02*
X14259763Y-16617436D01*
X14259763Y-16617436D02*
X14250239Y-16598388D01*
X14250239Y-16598388D02*
X14240715Y-16560293D01*
X14240715Y-16560293D02*
X14240715Y-16512674D01*
X14240715Y-16512674D02*
X14250239Y-16474579D01*
X14250239Y-16474579D02*
X14259763Y-16455531D01*
X14259763Y-16455531D02*
X14269286Y-16446008D01*
X14269286Y-16446008D02*
X14288334Y-16436484D01*
X14440715Y-16617436D02*
X14450239Y-16626960D01*
X14450239Y-16626960D02*
X14440715Y-16636484D01*
X14440715Y-16636484D02*
X14431191Y-16626960D01*
X14431191Y-16626960D02*
X14440715Y-16617436D01*
X14440715Y-16617436D02*
X14440715Y-16636484D01*
X14574048Y-16436484D02*
X14593096Y-16436484D01*
X14593096Y-16436484D02*
X14612144Y-16446008D01*
X14612144Y-16446008D02*
X14621667Y-16455531D01*
X14621667Y-16455531D02*
X14631191Y-16474579D01*
X14631191Y-16474579D02*
X14640715Y-16512674D01*
X14640715Y-16512674D02*
X14640715Y-16560293D01*
X14640715Y-16560293D02*
X14631191Y-16598388D01*
X14631191Y-16598388D02*
X14621667Y-16617436D01*
X14621667Y-16617436D02*
X14612144Y-16626960D01*
X14612144Y-16626960D02*
X14593096Y-16636484D01*
X14593096Y-16636484D02*
X14574048Y-16636484D01*
X14574048Y-16636484D02*
X14555001Y-16626960D01*
X14555001Y-16626960D02*
X14545477Y-16617436D01*
X14545477Y-16617436D02*
X14535953Y-16598388D01*
X14535953Y-16598388D02*
X14526429Y-16560293D01*
X14526429Y-16560293D02*
X14526429Y-16512674D01*
X14526429Y-16512674D02*
X14535953Y-16474579D01*
X14535953Y-16474579D02*
X14545477Y-16455531D01*
X14545477Y-16455531D02*
X14555001Y-16446008D01*
X14555001Y-16446008D02*
X14574048Y-16436484D01*
X14821667Y-16436484D02*
X14726429Y-16436484D01*
X14726429Y-16436484D02*
X14716906Y-16531722D01*
X14716906Y-16531722D02*
X14726429Y-16522198D01*
X14726429Y-16522198D02*
X14745477Y-16512674D01*
X14745477Y-16512674D02*
X14793096Y-16512674D01*
X14793096Y-16512674D02*
X14812144Y-16522198D01*
X14812144Y-16522198D02*
X14821667Y-16531722D01*
X14821667Y-16531722D02*
X14831191Y-16550769D01*
X14831191Y-16550769D02*
X14831191Y-16598388D01*
X14831191Y-16598388D02*
X14821667Y-16617436D01*
X14821667Y-16617436D02*
X14812144Y-16626960D01*
X14812144Y-16626960D02*
X14793096Y-16636484D01*
X14793096Y-16636484D02*
X14745477Y-16636484D01*
X14745477Y-16636484D02*
X14726429Y-16626960D01*
X14726429Y-16626960D02*
X14716906Y-16617436D01*
X15012144Y-16436484D02*
X14916906Y-16436484D01*
X14916906Y-16436484D02*
X14907382Y-16531722D01*
X14907382Y-16531722D02*
X14916906Y-16522198D01*
X14916906Y-16522198D02*
X14935953Y-16512674D01*
X14935953Y-16512674D02*
X14983572Y-16512674D01*
X14983572Y-16512674D02*
X15002620Y-16522198D01*
X15002620Y-16522198D02*
X15012144Y-16531722D01*
X15012144Y-16531722D02*
X15021667Y-16550769D01*
X15021667Y-16550769D02*
X15021667Y-16598388D01*
X15021667Y-16598388D02*
X15012144Y-16617436D01*
X15012144Y-16617436D02*
X15002620Y-16626960D01*
X15002620Y-16626960D02*
X14983572Y-16636484D01*
X14983572Y-16636484D02*
X14935953Y-16636484D01*
X14935953Y-16636484D02*
X14916906Y-16626960D01*
X14916906Y-16626960D02*
X14907382Y-16617436D01*
X15116906Y-16636484D02*
X15155001Y-16636484D01*
X15155001Y-16636484D02*
X15174048Y-16626960D01*
X15174048Y-16626960D02*
X15183572Y-16617436D01*
X15183572Y-16617436D02*
X15202620Y-16588865D01*
X15202620Y-16588865D02*
X15212144Y-16550769D01*
X15212144Y-16550769D02*
X15212144Y-16474579D01*
X15212144Y-16474579D02*
X15202620Y-16455531D01*
X15202620Y-16455531D02*
X15193096Y-16446008D01*
X15193096Y-16446008D02*
X15174048Y-16436484D01*
X15174048Y-16436484D02*
X15135953Y-16436484D01*
X15135953Y-16436484D02*
X15116906Y-16446008D01*
X15116906Y-16446008D02*
X15107382Y-16455531D01*
X15107382Y-16455531D02*
X15097858Y-16474579D01*
X15097858Y-16474579D02*
X15097858Y-16522198D01*
X15097858Y-16522198D02*
X15107382Y-16541246D01*
X15107382Y-16541246D02*
X15116906Y-16550769D01*
X15116906Y-16550769D02*
X15135953Y-16560293D01*
X15135953Y-16560293D02*
X15174048Y-16560293D01*
X15174048Y-16560293D02*
X15193096Y-16550769D01*
X15193096Y-16550769D02*
X15202620Y-16541246D01*
X15202620Y-16541246D02*
X15212144Y-16522198D01*
X15288334Y-16436484D02*
X15288334Y-16474579D01*
X15364525Y-16436484D02*
X15364525Y-16474579D01*
X15659763Y-16712674D02*
X15650239Y-16703150D01*
X15650239Y-16703150D02*
X15631191Y-16674579D01*
X15631191Y-16674579D02*
X15621668Y-16655531D01*
X15621668Y-16655531D02*
X15612144Y-16626960D01*
X15612144Y-16626960D02*
X15602620Y-16579341D01*
X15602620Y-16579341D02*
X15602620Y-16541246D01*
X15602620Y-16541246D02*
X15612144Y-16493627D01*
X15612144Y-16493627D02*
X15621668Y-16465055D01*
X15621668Y-16465055D02*
X15631191Y-16446008D01*
X15631191Y-16446008D02*
X15650239Y-16417436D01*
X15650239Y-16417436D02*
X15659763Y-16407912D01*
X15821668Y-16436484D02*
X15783572Y-16436484D01*
X15783572Y-16436484D02*
X15764525Y-16446008D01*
X15764525Y-16446008D02*
X15755001Y-16455531D01*
X15755001Y-16455531D02*
X15735953Y-16484103D01*
X15735953Y-16484103D02*
X15726429Y-16522198D01*
X15726429Y-16522198D02*
X15726429Y-16598388D01*
X15726429Y-16598388D02*
X15735953Y-16617436D01*
X15735953Y-16617436D02*
X15745477Y-16626960D01*
X15745477Y-16626960D02*
X15764525Y-16636484D01*
X15764525Y-16636484D02*
X15802620Y-16636484D01*
X15802620Y-16636484D02*
X15821668Y-16626960D01*
X15821668Y-16626960D02*
X15831191Y-16617436D01*
X15831191Y-16617436D02*
X15840715Y-16598388D01*
X15840715Y-16598388D02*
X15840715Y-16550769D01*
X15840715Y-16550769D02*
X15831191Y-16531722D01*
X15831191Y-16531722D02*
X15821668Y-16522198D01*
X15821668Y-16522198D02*
X15802620Y-16512674D01*
X15802620Y-16512674D02*
X15764525Y-16512674D01*
X15764525Y-16512674D02*
X15745477Y-16522198D01*
X15745477Y-16522198D02*
X15735953Y-16531722D01*
X15735953Y-16531722D02*
X15726429Y-16550769D01*
X16078810Y-16636484D02*
X16078810Y-16436484D01*
X16164525Y-16636484D02*
X16164525Y-16531722D01*
X16164525Y-16531722D02*
X16155001Y-16512674D01*
X16155001Y-16512674D02*
X16135953Y-16503150D01*
X16135953Y-16503150D02*
X16107382Y-16503150D01*
X16107382Y-16503150D02*
X16088334Y-16512674D01*
X16088334Y-16512674D02*
X16078810Y-16522198D01*
X16288334Y-16636484D02*
X16269287Y-16626960D01*
X16269287Y-16626960D02*
X16259763Y-16617436D01*
X16259763Y-16617436D02*
X16250239Y-16598388D01*
X16250239Y-16598388D02*
X16250239Y-16541246D01*
X16250239Y-16541246D02*
X16259763Y-16522198D01*
X16259763Y-16522198D02*
X16269287Y-16512674D01*
X16269287Y-16512674D02*
X16288334Y-16503150D01*
X16288334Y-16503150D02*
X16316906Y-16503150D01*
X16316906Y-16503150D02*
X16335953Y-16512674D01*
X16335953Y-16512674D02*
X16345477Y-16522198D01*
X16345477Y-16522198D02*
X16355001Y-16541246D01*
X16355001Y-16541246D02*
X16355001Y-16598388D01*
X16355001Y-16598388D02*
X16345477Y-16617436D01*
X16345477Y-16617436D02*
X16335953Y-16626960D01*
X16335953Y-16626960D02*
X16316906Y-16636484D01*
X16316906Y-16636484D02*
X16288334Y-16636484D01*
X16469287Y-16636484D02*
X16450239Y-16626960D01*
X16450239Y-16626960D02*
X16440715Y-16607912D01*
X16440715Y-16607912D02*
X16440715Y-16436484D01*
X16621668Y-16626960D02*
X16602620Y-16636484D01*
X16602620Y-16636484D02*
X16564525Y-16636484D01*
X16564525Y-16636484D02*
X16545477Y-16626960D01*
X16545477Y-16626960D02*
X16535953Y-16607912D01*
X16535953Y-16607912D02*
X16535953Y-16531722D01*
X16535953Y-16531722D02*
X16545477Y-16512674D01*
X16545477Y-16512674D02*
X16564525Y-16503150D01*
X16564525Y-16503150D02*
X16602620Y-16503150D01*
X16602620Y-16503150D02*
X16621668Y-16512674D01*
X16621668Y-16512674D02*
X16631191Y-16531722D01*
X16631191Y-16531722D02*
X16631191Y-16550769D01*
X16631191Y-16550769D02*
X16535953Y-16569817D01*
X16707382Y-16626960D02*
X16726430Y-16636484D01*
X16726430Y-16636484D02*
X16764525Y-16636484D01*
X16764525Y-16636484D02*
X16783573Y-16626960D01*
X16783573Y-16626960D02*
X16793096Y-16607912D01*
X16793096Y-16607912D02*
X16793096Y-16598388D01*
X16793096Y-16598388D02*
X16783573Y-16579341D01*
X16783573Y-16579341D02*
X16764525Y-16569817D01*
X16764525Y-16569817D02*
X16735953Y-16569817D01*
X16735953Y-16569817D02*
X16716906Y-16560293D01*
X16716906Y-16560293D02*
X16707382Y-16541246D01*
X16707382Y-16541246D02*
X16707382Y-16531722D01*
X16707382Y-16531722D02*
X16716906Y-16512674D01*
X16716906Y-16512674D02*
X16735953Y-16503150D01*
X16735953Y-16503150D02*
X16764525Y-16503150D01*
X16764525Y-16503150D02*
X16783573Y-16512674D01*
X16859763Y-16712674D02*
X16869287Y-16703150D01*
X16869287Y-16703150D02*
X16888334Y-16674579D01*
X16888334Y-16674579D02*
X16897858Y-16655531D01*
X16897858Y-16655531D02*
X16907382Y-16626960D01*
X16907382Y-16626960D02*
X16916906Y-16579341D01*
X16916906Y-16579341D02*
X16916906Y-16541246D01*
X16916906Y-16541246D02*
X16907382Y-16493627D01*
X16907382Y-16493627D02*
X16897858Y-16465055D01*
X16897858Y-16465055D02*
X16888334Y-16446008D01*
X16888334Y-16446008D02*
X16869287Y-16417436D01*
X16869287Y-16417436D02*
X16859763Y-16407912D01*
D14*
X12063759Y-16859559D02*
X12063759Y-16758441D01*
X11962641Y-16758441D01*
X11962641Y-16859559D01*
X12063759Y-16859559D01*
D10*
X12450239Y-16900484D02*
X12335953Y-16900484D01*
X12393096Y-16900484D02*
X12393096Y-16700484D01*
X12393096Y-16700484D02*
X12374048Y-16729055D01*
X12374048Y-16729055D02*
X12355001Y-16748103D01*
X12355001Y-16748103D02*
X12335953Y-16757627D01*
X12535953Y-16881436D02*
X12545477Y-16890960D01*
X12545477Y-16890960D02*
X12535953Y-16900484D01*
X12535953Y-16900484D02*
X12526429Y-16890960D01*
X12526429Y-16890960D02*
X12535953Y-16881436D01*
X12535953Y-16881436D02*
X12535953Y-16900484D01*
X12716905Y-16767150D02*
X12716905Y-16900484D01*
X12669286Y-16690960D02*
X12621667Y-16833817D01*
X12621667Y-16833817D02*
X12745477Y-16833817D01*
X12802620Y-16700484D02*
X12926429Y-16700484D01*
X12926429Y-16700484D02*
X12859762Y-16776674D01*
X12859762Y-16776674D02*
X12888334Y-16776674D01*
X12888334Y-16776674D02*
X12907382Y-16786198D01*
X12907382Y-16786198D02*
X12916905Y-16795722D01*
X12916905Y-16795722D02*
X12926429Y-16814770D01*
X12926429Y-16814770D02*
X12926429Y-16862389D01*
X12926429Y-16862389D02*
X12916905Y-16881436D01*
X12916905Y-16881436D02*
X12907382Y-16890960D01*
X12907382Y-16890960D02*
X12888334Y-16900484D01*
X12888334Y-16900484D02*
X12831191Y-16900484D01*
X12831191Y-16900484D02*
X12812143Y-16890960D01*
X12812143Y-16890960D02*
X12802620Y-16881436D01*
X13050239Y-16700484D02*
X13069286Y-16700484D01*
X13069286Y-16700484D02*
X13088334Y-16710008D01*
X13088334Y-16710008D02*
X13097858Y-16719531D01*
X13097858Y-16719531D02*
X13107382Y-16738579D01*
X13107382Y-16738579D02*
X13116905Y-16776674D01*
X13116905Y-16776674D02*
X13116905Y-16824293D01*
X13116905Y-16824293D02*
X13107382Y-16862389D01*
X13107382Y-16862389D02*
X13097858Y-16881436D01*
X13097858Y-16881436D02*
X13088334Y-16890960D01*
X13088334Y-16890960D02*
X13069286Y-16900484D01*
X13069286Y-16900484D02*
X13050239Y-16900484D01*
X13050239Y-16900484D02*
X13031191Y-16890960D01*
X13031191Y-16890960D02*
X13021667Y-16881436D01*
X13021667Y-16881436D02*
X13012143Y-16862389D01*
X13012143Y-16862389D02*
X13002620Y-16824293D01*
X13002620Y-16824293D02*
X13002620Y-16776674D01*
X13002620Y-16776674D02*
X13012143Y-16738579D01*
X13012143Y-16738579D02*
X13021667Y-16719531D01*
X13021667Y-16719531D02*
X13031191Y-16710008D01*
X13031191Y-16710008D02*
X13050239Y-16700484D01*
X13202620Y-16900484D02*
X13202620Y-16767150D01*
X13202620Y-16786198D02*
X13212143Y-16776674D01*
X13212143Y-16776674D02*
X13231191Y-16767150D01*
X13231191Y-16767150D02*
X13259763Y-16767150D01*
X13259763Y-16767150D02*
X13278810Y-16776674D01*
X13278810Y-16776674D02*
X13288334Y-16795722D01*
X13288334Y-16795722D02*
X13288334Y-16900484D01*
X13288334Y-16795722D02*
X13297858Y-16776674D01*
X13297858Y-16776674D02*
X13316905Y-16767150D01*
X13316905Y-16767150D02*
X13345477Y-16767150D01*
X13345477Y-16767150D02*
X13364524Y-16776674D01*
X13364524Y-16776674D02*
X13374048Y-16795722D01*
X13374048Y-16795722D02*
X13374048Y-16900484D01*
X13469286Y-16900484D02*
X13469286Y-16767150D01*
X13469286Y-16786198D02*
X13478810Y-16776674D01*
X13478810Y-16776674D02*
X13497858Y-16767150D01*
X13497858Y-16767150D02*
X13526429Y-16767150D01*
X13526429Y-16767150D02*
X13545477Y-16776674D01*
X13545477Y-16776674D02*
X13555001Y-16795722D01*
X13555001Y-16795722D02*
X13555001Y-16900484D01*
X13555001Y-16795722D02*
X13564524Y-16776674D01*
X13564524Y-16776674D02*
X13583572Y-16767150D01*
X13583572Y-16767150D02*
X13612143Y-16767150D01*
X13612143Y-16767150D02*
X13631191Y-16776674D01*
X13631191Y-16776674D02*
X13640715Y-16795722D01*
X13640715Y-16795722D02*
X13640715Y-16900484D01*
X14031191Y-16690960D02*
X13859763Y-16948103D01*
X14288334Y-16700484D02*
X14307382Y-16700484D01*
X14307382Y-16700484D02*
X14326429Y-16710008D01*
X14326429Y-16710008D02*
X14335953Y-16719531D01*
X14335953Y-16719531D02*
X14345477Y-16738579D01*
X14345477Y-16738579D02*
X14355001Y-16776674D01*
X14355001Y-16776674D02*
X14355001Y-16824293D01*
X14355001Y-16824293D02*
X14345477Y-16862389D01*
X14345477Y-16862389D02*
X14335953Y-16881436D01*
X14335953Y-16881436D02*
X14326429Y-16890960D01*
X14326429Y-16890960D02*
X14307382Y-16900484D01*
X14307382Y-16900484D02*
X14288334Y-16900484D01*
X14288334Y-16900484D02*
X14269286Y-16890960D01*
X14269286Y-16890960D02*
X14259763Y-16881436D01*
X14259763Y-16881436D02*
X14250239Y-16862389D01*
X14250239Y-16862389D02*
X14240715Y-16824293D01*
X14240715Y-16824293D02*
X14240715Y-16776674D01*
X14240715Y-16776674D02*
X14250239Y-16738579D01*
X14250239Y-16738579D02*
X14259763Y-16719531D01*
X14259763Y-16719531D02*
X14269286Y-16710008D01*
X14269286Y-16710008D02*
X14288334Y-16700484D01*
X14440715Y-16881436D02*
X14450239Y-16890960D01*
X14450239Y-16890960D02*
X14440715Y-16900484D01*
X14440715Y-16900484D02*
X14431191Y-16890960D01*
X14431191Y-16890960D02*
X14440715Y-16881436D01*
X14440715Y-16881436D02*
X14440715Y-16900484D01*
X14574048Y-16700484D02*
X14593096Y-16700484D01*
X14593096Y-16700484D02*
X14612144Y-16710008D01*
X14612144Y-16710008D02*
X14621667Y-16719531D01*
X14621667Y-16719531D02*
X14631191Y-16738579D01*
X14631191Y-16738579D02*
X14640715Y-16776674D01*
X14640715Y-16776674D02*
X14640715Y-16824293D01*
X14640715Y-16824293D02*
X14631191Y-16862389D01*
X14631191Y-16862389D02*
X14621667Y-16881436D01*
X14621667Y-16881436D02*
X14612144Y-16890960D01*
X14612144Y-16890960D02*
X14593096Y-16900484D01*
X14593096Y-16900484D02*
X14574048Y-16900484D01*
X14574048Y-16900484D02*
X14555001Y-16890960D01*
X14555001Y-16890960D02*
X14545477Y-16881436D01*
X14545477Y-16881436D02*
X14535953Y-16862389D01*
X14535953Y-16862389D02*
X14526429Y-16824293D01*
X14526429Y-16824293D02*
X14526429Y-16776674D01*
X14526429Y-16776674D02*
X14535953Y-16738579D01*
X14535953Y-16738579D02*
X14545477Y-16719531D01*
X14545477Y-16719531D02*
X14555001Y-16710008D01*
X14555001Y-16710008D02*
X14574048Y-16700484D01*
X14821667Y-16700484D02*
X14726429Y-16700484D01*
X14726429Y-16700484D02*
X14716906Y-16795722D01*
X14716906Y-16795722D02*
X14726429Y-16786198D01*
X14726429Y-16786198D02*
X14745477Y-16776674D01*
X14745477Y-16776674D02*
X14793096Y-16776674D01*
X14793096Y-16776674D02*
X14812144Y-16786198D01*
X14812144Y-16786198D02*
X14821667Y-16795722D01*
X14821667Y-16795722D02*
X14831191Y-16814770D01*
X14831191Y-16814770D02*
X14831191Y-16862389D01*
X14831191Y-16862389D02*
X14821667Y-16881436D01*
X14821667Y-16881436D02*
X14812144Y-16890960D01*
X14812144Y-16890960D02*
X14793096Y-16900484D01*
X14793096Y-16900484D02*
X14745477Y-16900484D01*
X14745477Y-16900484D02*
X14726429Y-16890960D01*
X14726429Y-16890960D02*
X14716906Y-16881436D01*
X15002620Y-16700484D02*
X14964525Y-16700484D01*
X14964525Y-16700484D02*
X14945477Y-16710008D01*
X14945477Y-16710008D02*
X14935953Y-16719531D01*
X14935953Y-16719531D02*
X14916906Y-16748103D01*
X14916906Y-16748103D02*
X14907382Y-16786198D01*
X14907382Y-16786198D02*
X14907382Y-16862389D01*
X14907382Y-16862389D02*
X14916906Y-16881436D01*
X14916906Y-16881436D02*
X14926429Y-16890960D01*
X14926429Y-16890960D02*
X14945477Y-16900484D01*
X14945477Y-16900484D02*
X14983572Y-16900484D01*
X14983572Y-16900484D02*
X15002620Y-16890960D01*
X15002620Y-16890960D02*
X15012144Y-16881436D01*
X15012144Y-16881436D02*
X15021667Y-16862389D01*
X15021667Y-16862389D02*
X15021667Y-16814770D01*
X15021667Y-16814770D02*
X15012144Y-16795722D01*
X15012144Y-16795722D02*
X15002620Y-16786198D01*
X15002620Y-16786198D02*
X14983572Y-16776674D01*
X14983572Y-16776674D02*
X14945477Y-16776674D01*
X14945477Y-16776674D02*
X14926429Y-16786198D01*
X14926429Y-16786198D02*
X14916906Y-16795722D01*
X14916906Y-16795722D02*
X14907382Y-16814770D01*
X15088334Y-16700484D02*
X15212144Y-16700484D01*
X15212144Y-16700484D02*
X15145477Y-16776674D01*
X15145477Y-16776674D02*
X15174048Y-16776674D01*
X15174048Y-16776674D02*
X15193096Y-16786198D01*
X15193096Y-16786198D02*
X15202620Y-16795722D01*
X15202620Y-16795722D02*
X15212144Y-16814770D01*
X15212144Y-16814770D02*
X15212144Y-16862389D01*
X15212144Y-16862389D02*
X15202620Y-16881436D01*
X15202620Y-16881436D02*
X15193096Y-16890960D01*
X15193096Y-16890960D02*
X15174048Y-16900484D01*
X15174048Y-16900484D02*
X15116906Y-16900484D01*
X15116906Y-16900484D02*
X15097858Y-16890960D01*
X15097858Y-16890960D02*
X15088334Y-16881436D01*
X15288334Y-16700484D02*
X15288334Y-16738579D01*
X15364525Y-16700484D02*
X15364525Y-16738579D01*
X15659763Y-16976674D02*
X15650239Y-16967150D01*
X15650239Y-16967150D02*
X15631191Y-16938579D01*
X15631191Y-16938579D02*
X15621668Y-16919531D01*
X15621668Y-16919531D02*
X15612144Y-16890960D01*
X15612144Y-16890960D02*
X15602620Y-16843341D01*
X15602620Y-16843341D02*
X15602620Y-16805246D01*
X15602620Y-16805246D02*
X15612144Y-16757627D01*
X15612144Y-16757627D02*
X15621668Y-16729055D01*
X15621668Y-16729055D02*
X15631191Y-16710008D01*
X15631191Y-16710008D02*
X15650239Y-16681436D01*
X15650239Y-16681436D02*
X15659763Y-16671912D01*
X15821668Y-16700484D02*
X15783572Y-16700484D01*
X15783572Y-16700484D02*
X15764525Y-16710008D01*
X15764525Y-16710008D02*
X15755001Y-16719531D01*
X15755001Y-16719531D02*
X15735953Y-16748103D01*
X15735953Y-16748103D02*
X15726429Y-16786198D01*
X15726429Y-16786198D02*
X15726429Y-16862389D01*
X15726429Y-16862389D02*
X15735953Y-16881436D01*
X15735953Y-16881436D02*
X15745477Y-16890960D01*
X15745477Y-16890960D02*
X15764525Y-16900484D01*
X15764525Y-16900484D02*
X15802620Y-16900484D01*
X15802620Y-16900484D02*
X15821668Y-16890960D01*
X15821668Y-16890960D02*
X15831191Y-16881436D01*
X15831191Y-16881436D02*
X15840715Y-16862389D01*
X15840715Y-16862389D02*
X15840715Y-16814770D01*
X15840715Y-16814770D02*
X15831191Y-16795722D01*
X15831191Y-16795722D02*
X15821668Y-16786198D01*
X15821668Y-16786198D02*
X15802620Y-16776674D01*
X15802620Y-16776674D02*
X15764525Y-16776674D01*
X15764525Y-16776674D02*
X15745477Y-16786198D01*
X15745477Y-16786198D02*
X15735953Y-16795722D01*
X15735953Y-16795722D02*
X15726429Y-16814770D01*
X16078810Y-16900484D02*
X16078810Y-16700484D01*
X16164525Y-16900484D02*
X16164525Y-16795722D01*
X16164525Y-16795722D02*
X16155001Y-16776674D01*
X16155001Y-16776674D02*
X16135953Y-16767150D01*
X16135953Y-16767150D02*
X16107382Y-16767150D01*
X16107382Y-16767150D02*
X16088334Y-16776674D01*
X16088334Y-16776674D02*
X16078810Y-16786198D01*
X16288334Y-16900484D02*
X16269287Y-16890960D01*
X16269287Y-16890960D02*
X16259763Y-16881436D01*
X16259763Y-16881436D02*
X16250239Y-16862389D01*
X16250239Y-16862389D02*
X16250239Y-16805246D01*
X16250239Y-16805246D02*
X16259763Y-16786198D01*
X16259763Y-16786198D02*
X16269287Y-16776674D01*
X16269287Y-16776674D02*
X16288334Y-16767150D01*
X16288334Y-16767150D02*
X16316906Y-16767150D01*
X16316906Y-16767150D02*
X16335953Y-16776674D01*
X16335953Y-16776674D02*
X16345477Y-16786198D01*
X16345477Y-16786198D02*
X16355001Y-16805246D01*
X16355001Y-16805246D02*
X16355001Y-16862389D01*
X16355001Y-16862389D02*
X16345477Y-16881436D01*
X16345477Y-16881436D02*
X16335953Y-16890960D01*
X16335953Y-16890960D02*
X16316906Y-16900484D01*
X16316906Y-16900484D02*
X16288334Y-16900484D01*
X16469287Y-16900484D02*
X16450239Y-16890960D01*
X16450239Y-16890960D02*
X16440715Y-16871912D01*
X16440715Y-16871912D02*
X16440715Y-16700484D01*
X16621668Y-16890960D02*
X16602620Y-16900484D01*
X16602620Y-16900484D02*
X16564525Y-16900484D01*
X16564525Y-16900484D02*
X16545477Y-16890960D01*
X16545477Y-16890960D02*
X16535953Y-16871912D01*
X16535953Y-16871912D02*
X16535953Y-16795722D01*
X16535953Y-16795722D02*
X16545477Y-16776674D01*
X16545477Y-16776674D02*
X16564525Y-16767150D01*
X16564525Y-16767150D02*
X16602620Y-16767150D01*
X16602620Y-16767150D02*
X16621668Y-16776674D01*
X16621668Y-16776674D02*
X16631191Y-16795722D01*
X16631191Y-16795722D02*
X16631191Y-16814770D01*
X16631191Y-16814770D02*
X16535953Y-16833817D01*
X16707382Y-16890960D02*
X16726430Y-16900484D01*
X16726430Y-16900484D02*
X16764525Y-16900484D01*
X16764525Y-16900484D02*
X16783573Y-16890960D01*
X16783573Y-16890960D02*
X16793096Y-16871912D01*
X16793096Y-16871912D02*
X16793096Y-16862389D01*
X16793096Y-16862389D02*
X16783573Y-16843341D01*
X16783573Y-16843341D02*
X16764525Y-16833817D01*
X16764525Y-16833817D02*
X16735953Y-16833817D01*
X16735953Y-16833817D02*
X16716906Y-16824293D01*
X16716906Y-16824293D02*
X16707382Y-16805246D01*
X16707382Y-16805246D02*
X16707382Y-16795722D01*
X16707382Y-16795722D02*
X16716906Y-16776674D01*
X16716906Y-16776674D02*
X16735953Y-16767150D01*
X16735953Y-16767150D02*
X16764525Y-16767150D01*
X16764525Y-16767150D02*
X16783573Y-16776674D01*
X16859763Y-16976674D02*
X16869287Y-16967150D01*
X16869287Y-16967150D02*
X16888334Y-16938579D01*
X16888334Y-16938579D02*
X16897858Y-16919531D01*
X16897858Y-16919531D02*
X16907382Y-16890960D01*
X16907382Y-16890960D02*
X16916906Y-16843341D01*
X16916906Y-16843341D02*
X16916906Y-16805246D01*
X16916906Y-16805246D02*
X16907382Y-16757627D01*
X16907382Y-16757627D02*
X16897858Y-16729055D01*
X16897858Y-16729055D02*
X16888334Y-16710008D01*
X16888334Y-16710008D02*
X16869287Y-16681436D01*
X16869287Y-16681436D02*
X16859763Y-16671912D01*
D15*
X12009700Y-17148000D02*
X12084700Y-17073000D01*
X12009700Y-16998000D01*
X11934700Y-17073000D01*
X12009700Y-17148000D01*
D10*
X12450239Y-17164484D02*
X12335953Y-17164484D01*
X12393096Y-17164484D02*
X12393096Y-16964484D01*
X12393096Y-16964484D02*
X12374048Y-16993055D01*
X12374048Y-16993055D02*
X12355001Y-17012103D01*
X12355001Y-17012103D02*
X12335953Y-17021627D01*
X12535953Y-17145436D02*
X12545477Y-17154960D01*
X12545477Y-17154960D02*
X12535953Y-17164484D01*
X12535953Y-17164484D02*
X12526429Y-17154960D01*
X12526429Y-17154960D02*
X12535953Y-17145436D01*
X12535953Y-17145436D02*
X12535953Y-17164484D01*
X12726429Y-16964484D02*
X12631191Y-16964484D01*
X12631191Y-16964484D02*
X12621667Y-17059722D01*
X12621667Y-17059722D02*
X12631191Y-17050198D01*
X12631191Y-17050198D02*
X12650239Y-17040674D01*
X12650239Y-17040674D02*
X12697858Y-17040674D01*
X12697858Y-17040674D02*
X12716905Y-17050198D01*
X12716905Y-17050198D02*
X12726429Y-17059722D01*
X12726429Y-17059722D02*
X12735953Y-17078770D01*
X12735953Y-17078770D02*
X12735953Y-17126389D01*
X12735953Y-17126389D02*
X12726429Y-17145436D01*
X12726429Y-17145436D02*
X12716905Y-17154960D01*
X12716905Y-17154960D02*
X12697858Y-17164484D01*
X12697858Y-17164484D02*
X12650239Y-17164484D01*
X12650239Y-17164484D02*
X12631191Y-17154960D01*
X12631191Y-17154960D02*
X12621667Y-17145436D01*
X12859762Y-16964484D02*
X12878810Y-16964484D01*
X12878810Y-16964484D02*
X12897858Y-16974008D01*
X12897858Y-16974008D02*
X12907382Y-16983531D01*
X12907382Y-16983531D02*
X12916905Y-17002579D01*
X12916905Y-17002579D02*
X12926429Y-17040674D01*
X12926429Y-17040674D02*
X12926429Y-17088293D01*
X12926429Y-17088293D02*
X12916905Y-17126389D01*
X12916905Y-17126389D02*
X12907382Y-17145436D01*
X12907382Y-17145436D02*
X12897858Y-17154960D01*
X12897858Y-17154960D02*
X12878810Y-17164484D01*
X12878810Y-17164484D02*
X12859762Y-17164484D01*
X12859762Y-17164484D02*
X12840715Y-17154960D01*
X12840715Y-17154960D02*
X12831191Y-17145436D01*
X12831191Y-17145436D02*
X12821667Y-17126389D01*
X12821667Y-17126389D02*
X12812143Y-17088293D01*
X12812143Y-17088293D02*
X12812143Y-17040674D01*
X12812143Y-17040674D02*
X12821667Y-17002579D01*
X12821667Y-17002579D02*
X12831191Y-16983531D01*
X12831191Y-16983531D02*
X12840715Y-16974008D01*
X12840715Y-16974008D02*
X12859762Y-16964484D01*
X13050239Y-16964484D02*
X13069286Y-16964484D01*
X13069286Y-16964484D02*
X13088334Y-16974008D01*
X13088334Y-16974008D02*
X13097858Y-16983531D01*
X13097858Y-16983531D02*
X13107382Y-17002579D01*
X13107382Y-17002579D02*
X13116905Y-17040674D01*
X13116905Y-17040674D02*
X13116905Y-17088293D01*
X13116905Y-17088293D02*
X13107382Y-17126389D01*
X13107382Y-17126389D02*
X13097858Y-17145436D01*
X13097858Y-17145436D02*
X13088334Y-17154960D01*
X13088334Y-17154960D02*
X13069286Y-17164484D01*
X13069286Y-17164484D02*
X13050239Y-17164484D01*
X13050239Y-17164484D02*
X13031191Y-17154960D01*
X13031191Y-17154960D02*
X13021667Y-17145436D01*
X13021667Y-17145436D02*
X13012143Y-17126389D01*
X13012143Y-17126389D02*
X13002620Y-17088293D01*
X13002620Y-17088293D02*
X13002620Y-17040674D01*
X13002620Y-17040674D02*
X13012143Y-17002579D01*
X13012143Y-17002579D02*
X13021667Y-16983531D01*
X13021667Y-16983531D02*
X13031191Y-16974008D01*
X13031191Y-16974008D02*
X13050239Y-16964484D01*
X13202620Y-17164484D02*
X13202620Y-17031150D01*
X13202620Y-17050198D02*
X13212143Y-17040674D01*
X13212143Y-17040674D02*
X13231191Y-17031150D01*
X13231191Y-17031150D02*
X13259763Y-17031150D01*
X13259763Y-17031150D02*
X13278810Y-17040674D01*
X13278810Y-17040674D02*
X13288334Y-17059722D01*
X13288334Y-17059722D02*
X13288334Y-17164484D01*
X13288334Y-17059722D02*
X13297858Y-17040674D01*
X13297858Y-17040674D02*
X13316905Y-17031150D01*
X13316905Y-17031150D02*
X13345477Y-17031150D01*
X13345477Y-17031150D02*
X13364524Y-17040674D01*
X13364524Y-17040674D02*
X13374048Y-17059722D01*
X13374048Y-17059722D02*
X13374048Y-17164484D01*
X13469286Y-17164484D02*
X13469286Y-17031150D01*
X13469286Y-17050198D02*
X13478810Y-17040674D01*
X13478810Y-17040674D02*
X13497858Y-17031150D01*
X13497858Y-17031150D02*
X13526429Y-17031150D01*
X13526429Y-17031150D02*
X13545477Y-17040674D01*
X13545477Y-17040674D02*
X13555001Y-17059722D01*
X13555001Y-17059722D02*
X13555001Y-17164484D01*
X13555001Y-17059722D02*
X13564524Y-17040674D01*
X13564524Y-17040674D02*
X13583572Y-17031150D01*
X13583572Y-17031150D02*
X13612143Y-17031150D01*
X13612143Y-17031150D02*
X13631191Y-17040674D01*
X13631191Y-17040674D02*
X13640715Y-17059722D01*
X13640715Y-17059722D02*
X13640715Y-17164484D01*
X14031191Y-16954960D02*
X13859763Y-17212103D01*
X14288334Y-16964484D02*
X14307382Y-16964484D01*
X14307382Y-16964484D02*
X14326429Y-16974008D01*
X14326429Y-16974008D02*
X14335953Y-16983531D01*
X14335953Y-16983531D02*
X14345477Y-17002579D01*
X14345477Y-17002579D02*
X14355001Y-17040674D01*
X14355001Y-17040674D02*
X14355001Y-17088293D01*
X14355001Y-17088293D02*
X14345477Y-17126389D01*
X14345477Y-17126389D02*
X14335953Y-17145436D01*
X14335953Y-17145436D02*
X14326429Y-17154960D01*
X14326429Y-17154960D02*
X14307382Y-17164484D01*
X14307382Y-17164484D02*
X14288334Y-17164484D01*
X14288334Y-17164484D02*
X14269286Y-17154960D01*
X14269286Y-17154960D02*
X14259763Y-17145436D01*
X14259763Y-17145436D02*
X14250239Y-17126389D01*
X14250239Y-17126389D02*
X14240715Y-17088293D01*
X14240715Y-17088293D02*
X14240715Y-17040674D01*
X14240715Y-17040674D02*
X14250239Y-17002579D01*
X14250239Y-17002579D02*
X14259763Y-16983531D01*
X14259763Y-16983531D02*
X14269286Y-16974008D01*
X14269286Y-16974008D02*
X14288334Y-16964484D01*
X14440715Y-17145436D02*
X14450239Y-17154960D01*
X14450239Y-17154960D02*
X14440715Y-17164484D01*
X14440715Y-17164484D02*
X14431191Y-17154960D01*
X14431191Y-17154960D02*
X14440715Y-17145436D01*
X14440715Y-17145436D02*
X14440715Y-17164484D01*
X14574048Y-16964484D02*
X14593096Y-16964484D01*
X14593096Y-16964484D02*
X14612144Y-16974008D01*
X14612144Y-16974008D02*
X14621667Y-16983531D01*
X14621667Y-16983531D02*
X14631191Y-17002579D01*
X14631191Y-17002579D02*
X14640715Y-17040674D01*
X14640715Y-17040674D02*
X14640715Y-17088293D01*
X14640715Y-17088293D02*
X14631191Y-17126389D01*
X14631191Y-17126389D02*
X14621667Y-17145436D01*
X14621667Y-17145436D02*
X14612144Y-17154960D01*
X14612144Y-17154960D02*
X14593096Y-17164484D01*
X14593096Y-17164484D02*
X14574048Y-17164484D01*
X14574048Y-17164484D02*
X14555001Y-17154960D01*
X14555001Y-17154960D02*
X14545477Y-17145436D01*
X14545477Y-17145436D02*
X14535953Y-17126389D01*
X14535953Y-17126389D02*
X14526429Y-17088293D01*
X14526429Y-17088293D02*
X14526429Y-17040674D01*
X14526429Y-17040674D02*
X14535953Y-17002579D01*
X14535953Y-17002579D02*
X14545477Y-16983531D01*
X14545477Y-16983531D02*
X14555001Y-16974008D01*
X14555001Y-16974008D02*
X14574048Y-16964484D01*
X14821667Y-16964484D02*
X14726429Y-16964484D01*
X14726429Y-16964484D02*
X14716906Y-17059722D01*
X14716906Y-17059722D02*
X14726429Y-17050198D01*
X14726429Y-17050198D02*
X14745477Y-17040674D01*
X14745477Y-17040674D02*
X14793096Y-17040674D01*
X14793096Y-17040674D02*
X14812144Y-17050198D01*
X14812144Y-17050198D02*
X14821667Y-17059722D01*
X14821667Y-17059722D02*
X14831191Y-17078770D01*
X14831191Y-17078770D02*
X14831191Y-17126389D01*
X14831191Y-17126389D02*
X14821667Y-17145436D01*
X14821667Y-17145436D02*
X14812144Y-17154960D01*
X14812144Y-17154960D02*
X14793096Y-17164484D01*
X14793096Y-17164484D02*
X14745477Y-17164484D01*
X14745477Y-17164484D02*
X14726429Y-17154960D01*
X14726429Y-17154960D02*
X14716906Y-17145436D01*
X14926429Y-17164484D02*
X14964525Y-17164484D01*
X14964525Y-17164484D02*
X14983572Y-17154960D01*
X14983572Y-17154960D02*
X14993096Y-17145436D01*
X14993096Y-17145436D02*
X15012144Y-17116865D01*
X15012144Y-17116865D02*
X15021667Y-17078770D01*
X15021667Y-17078770D02*
X15021667Y-17002579D01*
X15021667Y-17002579D02*
X15012144Y-16983531D01*
X15012144Y-16983531D02*
X15002620Y-16974008D01*
X15002620Y-16974008D02*
X14983572Y-16964484D01*
X14983572Y-16964484D02*
X14945477Y-16964484D01*
X14945477Y-16964484D02*
X14926429Y-16974008D01*
X14926429Y-16974008D02*
X14916906Y-16983531D01*
X14916906Y-16983531D02*
X14907382Y-17002579D01*
X14907382Y-17002579D02*
X14907382Y-17050198D01*
X14907382Y-17050198D02*
X14916906Y-17069246D01*
X14916906Y-17069246D02*
X14926429Y-17078770D01*
X14926429Y-17078770D02*
X14945477Y-17088293D01*
X14945477Y-17088293D02*
X14983572Y-17088293D01*
X14983572Y-17088293D02*
X15002620Y-17078770D01*
X15002620Y-17078770D02*
X15012144Y-17069246D01*
X15012144Y-17069246D02*
X15021667Y-17050198D01*
X15212144Y-17164484D02*
X15097858Y-17164484D01*
X15155001Y-17164484D02*
X15155001Y-16964484D01*
X15155001Y-16964484D02*
X15135953Y-16993055D01*
X15135953Y-16993055D02*
X15116906Y-17012103D01*
X15116906Y-17012103D02*
X15097858Y-17021627D01*
X15288334Y-16964484D02*
X15288334Y-17002579D01*
X15364525Y-16964484D02*
X15364525Y-17002579D01*
X15659763Y-17240674D02*
X15650239Y-17231150D01*
X15650239Y-17231150D02*
X15631191Y-17202579D01*
X15631191Y-17202579D02*
X15621668Y-17183531D01*
X15621668Y-17183531D02*
X15612144Y-17154960D01*
X15612144Y-17154960D02*
X15602620Y-17107341D01*
X15602620Y-17107341D02*
X15602620Y-17069246D01*
X15602620Y-17069246D02*
X15612144Y-17021627D01*
X15612144Y-17021627D02*
X15621668Y-16993055D01*
X15621668Y-16993055D02*
X15631191Y-16974008D01*
X15631191Y-16974008D02*
X15650239Y-16945436D01*
X15650239Y-16945436D02*
X15659763Y-16935912D01*
X15726429Y-16983531D02*
X15735953Y-16974008D01*
X15735953Y-16974008D02*
X15755001Y-16964484D01*
X15755001Y-16964484D02*
X15802620Y-16964484D01*
X15802620Y-16964484D02*
X15821668Y-16974008D01*
X15821668Y-16974008D02*
X15831191Y-16983531D01*
X15831191Y-16983531D02*
X15840715Y-17002579D01*
X15840715Y-17002579D02*
X15840715Y-17021627D01*
X15840715Y-17021627D02*
X15831191Y-17050198D01*
X15831191Y-17050198D02*
X15716906Y-17164484D01*
X15716906Y-17164484D02*
X15840715Y-17164484D01*
X16078810Y-17164484D02*
X16078810Y-16964484D01*
X16164525Y-17164484D02*
X16164525Y-17059722D01*
X16164525Y-17059722D02*
X16155001Y-17040674D01*
X16155001Y-17040674D02*
X16135953Y-17031150D01*
X16135953Y-17031150D02*
X16107382Y-17031150D01*
X16107382Y-17031150D02*
X16088334Y-17040674D01*
X16088334Y-17040674D02*
X16078810Y-17050198D01*
X16288334Y-17164484D02*
X16269287Y-17154960D01*
X16269287Y-17154960D02*
X16259763Y-17145436D01*
X16259763Y-17145436D02*
X16250239Y-17126389D01*
X16250239Y-17126389D02*
X16250239Y-17069246D01*
X16250239Y-17069246D02*
X16259763Y-17050198D01*
X16259763Y-17050198D02*
X16269287Y-17040674D01*
X16269287Y-17040674D02*
X16288334Y-17031150D01*
X16288334Y-17031150D02*
X16316906Y-17031150D01*
X16316906Y-17031150D02*
X16335953Y-17040674D01*
X16335953Y-17040674D02*
X16345477Y-17050198D01*
X16345477Y-17050198D02*
X16355001Y-17069246D01*
X16355001Y-17069246D02*
X16355001Y-17126389D01*
X16355001Y-17126389D02*
X16345477Y-17145436D01*
X16345477Y-17145436D02*
X16335953Y-17154960D01*
X16335953Y-17154960D02*
X16316906Y-17164484D01*
X16316906Y-17164484D02*
X16288334Y-17164484D01*
X16469287Y-17164484D02*
X16450239Y-17154960D01*
X16450239Y-17154960D02*
X16440715Y-17135912D01*
X16440715Y-17135912D02*
X16440715Y-16964484D01*
X16621668Y-17154960D02*
X16602620Y-17164484D01*
X16602620Y-17164484D02*
X16564525Y-17164484D01*
X16564525Y-17164484D02*
X16545477Y-17154960D01*
X16545477Y-17154960D02*
X16535953Y-17135912D01*
X16535953Y-17135912D02*
X16535953Y-17059722D01*
X16535953Y-17059722D02*
X16545477Y-17040674D01*
X16545477Y-17040674D02*
X16564525Y-17031150D01*
X16564525Y-17031150D02*
X16602620Y-17031150D01*
X16602620Y-17031150D02*
X16621668Y-17040674D01*
X16621668Y-17040674D02*
X16631191Y-17059722D01*
X16631191Y-17059722D02*
X16631191Y-17078770D01*
X16631191Y-17078770D02*
X16535953Y-17097817D01*
X16707382Y-17154960D02*
X16726430Y-17164484D01*
X16726430Y-17164484D02*
X16764525Y-17164484D01*
X16764525Y-17164484D02*
X16783573Y-17154960D01*
X16783573Y-17154960D02*
X16793096Y-17135912D01*
X16793096Y-17135912D02*
X16793096Y-17126389D01*
X16793096Y-17126389D02*
X16783573Y-17107341D01*
X16783573Y-17107341D02*
X16764525Y-17097817D01*
X16764525Y-17097817D02*
X16735953Y-17097817D01*
X16735953Y-17097817D02*
X16716906Y-17088293D01*
X16716906Y-17088293D02*
X16707382Y-17069246D01*
X16707382Y-17069246D02*
X16707382Y-17059722D01*
X16707382Y-17059722D02*
X16716906Y-17040674D01*
X16716906Y-17040674D02*
X16735953Y-17031150D01*
X16735953Y-17031150D02*
X16764525Y-17031150D01*
X16764525Y-17031150D02*
X16783573Y-17040674D01*
X16859763Y-17240674D02*
X16869287Y-17231150D01*
X16869287Y-17231150D02*
X16888334Y-17202579D01*
X16888334Y-17202579D02*
X16897858Y-17183531D01*
X16897858Y-17183531D02*
X16907382Y-17154960D01*
X16907382Y-17154960D02*
X16916906Y-17107341D01*
X16916906Y-17107341D02*
X16916906Y-17069246D01*
X16916906Y-17069246D02*
X16907382Y-17021627D01*
X16907382Y-17021627D02*
X16897858Y-16993055D01*
X16897858Y-16993055D02*
X16888334Y-16974008D01*
X16888334Y-16974008D02*
X16869287Y-16945436D01*
X16869287Y-16945436D02*
X16859763Y-16935912D01*
D16*
X11914700Y-17258000D02*
X12084700Y-17428000D01*
X12084700Y-17258000D02*
X11914700Y-17428000D01*
X12084700Y-17343000D02*
G75*
G02*
X11914700Y-17343000I-85000J0D01*
G01*
X11914700Y-17343000D02*
G75*
G02*
X12084700Y-17343000I85000J0D01*
G01*
D10*
X12450239Y-17434484D02*
X12335953Y-17434484D01*
X12393096Y-17434484D02*
X12393096Y-17234484D01*
X12393096Y-17234484D02*
X12374048Y-17263055D01*
X12374048Y-17263055D02*
X12355001Y-17282103D01*
X12355001Y-17282103D02*
X12335953Y-17291627D01*
X12535953Y-17415436D02*
X12545477Y-17424960D01*
X12545477Y-17424960D02*
X12535953Y-17434484D01*
X12535953Y-17434484D02*
X12526429Y-17424960D01*
X12526429Y-17424960D02*
X12535953Y-17415436D01*
X12535953Y-17415436D02*
X12535953Y-17434484D01*
X12612143Y-17234484D02*
X12745477Y-17234484D01*
X12745477Y-17234484D02*
X12659762Y-17434484D01*
X12859762Y-17234484D02*
X12878810Y-17234484D01*
X12878810Y-17234484D02*
X12897858Y-17244008D01*
X12897858Y-17244008D02*
X12907382Y-17253531D01*
X12907382Y-17253531D02*
X12916905Y-17272579D01*
X12916905Y-17272579D02*
X12926429Y-17310674D01*
X12926429Y-17310674D02*
X12926429Y-17358293D01*
X12926429Y-17358293D02*
X12916905Y-17396389D01*
X12916905Y-17396389D02*
X12907382Y-17415436D01*
X12907382Y-17415436D02*
X12897858Y-17424960D01*
X12897858Y-17424960D02*
X12878810Y-17434484D01*
X12878810Y-17434484D02*
X12859762Y-17434484D01*
X12859762Y-17434484D02*
X12840715Y-17424960D01*
X12840715Y-17424960D02*
X12831191Y-17415436D01*
X12831191Y-17415436D02*
X12821667Y-17396389D01*
X12821667Y-17396389D02*
X12812143Y-17358293D01*
X12812143Y-17358293D02*
X12812143Y-17310674D01*
X12812143Y-17310674D02*
X12821667Y-17272579D01*
X12821667Y-17272579D02*
X12831191Y-17253531D01*
X12831191Y-17253531D02*
X12840715Y-17244008D01*
X12840715Y-17244008D02*
X12859762Y-17234484D01*
X13050239Y-17234484D02*
X13069286Y-17234484D01*
X13069286Y-17234484D02*
X13088334Y-17244008D01*
X13088334Y-17244008D02*
X13097858Y-17253531D01*
X13097858Y-17253531D02*
X13107382Y-17272579D01*
X13107382Y-17272579D02*
X13116905Y-17310674D01*
X13116905Y-17310674D02*
X13116905Y-17358293D01*
X13116905Y-17358293D02*
X13107382Y-17396389D01*
X13107382Y-17396389D02*
X13097858Y-17415436D01*
X13097858Y-17415436D02*
X13088334Y-17424960D01*
X13088334Y-17424960D02*
X13069286Y-17434484D01*
X13069286Y-17434484D02*
X13050239Y-17434484D01*
X13050239Y-17434484D02*
X13031191Y-17424960D01*
X13031191Y-17424960D02*
X13021667Y-17415436D01*
X13021667Y-17415436D02*
X13012143Y-17396389D01*
X13012143Y-17396389D02*
X13002620Y-17358293D01*
X13002620Y-17358293D02*
X13002620Y-17310674D01*
X13002620Y-17310674D02*
X13012143Y-17272579D01*
X13012143Y-17272579D02*
X13021667Y-17253531D01*
X13021667Y-17253531D02*
X13031191Y-17244008D01*
X13031191Y-17244008D02*
X13050239Y-17234484D01*
X13202620Y-17434484D02*
X13202620Y-17301150D01*
X13202620Y-17320198D02*
X13212143Y-17310674D01*
X13212143Y-17310674D02*
X13231191Y-17301150D01*
X13231191Y-17301150D02*
X13259763Y-17301150D01*
X13259763Y-17301150D02*
X13278810Y-17310674D01*
X13278810Y-17310674D02*
X13288334Y-17329722D01*
X13288334Y-17329722D02*
X13288334Y-17434484D01*
X13288334Y-17329722D02*
X13297858Y-17310674D01*
X13297858Y-17310674D02*
X13316905Y-17301150D01*
X13316905Y-17301150D02*
X13345477Y-17301150D01*
X13345477Y-17301150D02*
X13364524Y-17310674D01*
X13364524Y-17310674D02*
X13374048Y-17329722D01*
X13374048Y-17329722D02*
X13374048Y-17434484D01*
X13469286Y-17434484D02*
X13469286Y-17301150D01*
X13469286Y-17320198D02*
X13478810Y-17310674D01*
X13478810Y-17310674D02*
X13497858Y-17301150D01*
X13497858Y-17301150D02*
X13526429Y-17301150D01*
X13526429Y-17301150D02*
X13545477Y-17310674D01*
X13545477Y-17310674D02*
X13555001Y-17329722D01*
X13555001Y-17329722D02*
X13555001Y-17434484D01*
X13555001Y-17329722D02*
X13564524Y-17310674D01*
X13564524Y-17310674D02*
X13583572Y-17301150D01*
X13583572Y-17301150D02*
X13612143Y-17301150D01*
X13612143Y-17301150D02*
X13631191Y-17310674D01*
X13631191Y-17310674D02*
X13640715Y-17329722D01*
X13640715Y-17329722D02*
X13640715Y-17434484D01*
X14031191Y-17224960D02*
X13859763Y-17482103D01*
X14288334Y-17234484D02*
X14307382Y-17234484D01*
X14307382Y-17234484D02*
X14326429Y-17244008D01*
X14326429Y-17244008D02*
X14335953Y-17253531D01*
X14335953Y-17253531D02*
X14345477Y-17272579D01*
X14345477Y-17272579D02*
X14355001Y-17310674D01*
X14355001Y-17310674D02*
X14355001Y-17358293D01*
X14355001Y-17358293D02*
X14345477Y-17396389D01*
X14345477Y-17396389D02*
X14335953Y-17415436D01*
X14335953Y-17415436D02*
X14326429Y-17424960D01*
X14326429Y-17424960D02*
X14307382Y-17434484D01*
X14307382Y-17434484D02*
X14288334Y-17434484D01*
X14288334Y-17434484D02*
X14269286Y-17424960D01*
X14269286Y-17424960D02*
X14259763Y-17415436D01*
X14259763Y-17415436D02*
X14250239Y-17396389D01*
X14250239Y-17396389D02*
X14240715Y-17358293D01*
X14240715Y-17358293D02*
X14240715Y-17310674D01*
X14240715Y-17310674D02*
X14250239Y-17272579D01*
X14250239Y-17272579D02*
X14259763Y-17253531D01*
X14259763Y-17253531D02*
X14269286Y-17244008D01*
X14269286Y-17244008D02*
X14288334Y-17234484D01*
X14440715Y-17415436D02*
X14450239Y-17424960D01*
X14450239Y-17424960D02*
X14440715Y-17434484D01*
X14440715Y-17434484D02*
X14431191Y-17424960D01*
X14431191Y-17424960D02*
X14440715Y-17415436D01*
X14440715Y-17415436D02*
X14440715Y-17434484D01*
X14574048Y-17234484D02*
X14593096Y-17234484D01*
X14593096Y-17234484D02*
X14612144Y-17244008D01*
X14612144Y-17244008D02*
X14621667Y-17253531D01*
X14621667Y-17253531D02*
X14631191Y-17272579D01*
X14631191Y-17272579D02*
X14640715Y-17310674D01*
X14640715Y-17310674D02*
X14640715Y-17358293D01*
X14640715Y-17358293D02*
X14631191Y-17396389D01*
X14631191Y-17396389D02*
X14621667Y-17415436D01*
X14621667Y-17415436D02*
X14612144Y-17424960D01*
X14612144Y-17424960D02*
X14593096Y-17434484D01*
X14593096Y-17434484D02*
X14574048Y-17434484D01*
X14574048Y-17434484D02*
X14555001Y-17424960D01*
X14555001Y-17424960D02*
X14545477Y-17415436D01*
X14545477Y-17415436D02*
X14535953Y-17396389D01*
X14535953Y-17396389D02*
X14526429Y-17358293D01*
X14526429Y-17358293D02*
X14526429Y-17310674D01*
X14526429Y-17310674D02*
X14535953Y-17272579D01*
X14535953Y-17272579D02*
X14545477Y-17253531D01*
X14545477Y-17253531D02*
X14555001Y-17244008D01*
X14555001Y-17244008D02*
X14574048Y-17234484D01*
X14812144Y-17234484D02*
X14774048Y-17234484D01*
X14774048Y-17234484D02*
X14755001Y-17244008D01*
X14755001Y-17244008D02*
X14745477Y-17253531D01*
X14745477Y-17253531D02*
X14726429Y-17282103D01*
X14726429Y-17282103D02*
X14716906Y-17320198D01*
X14716906Y-17320198D02*
X14716906Y-17396389D01*
X14716906Y-17396389D02*
X14726429Y-17415436D01*
X14726429Y-17415436D02*
X14735953Y-17424960D01*
X14735953Y-17424960D02*
X14755001Y-17434484D01*
X14755001Y-17434484D02*
X14793096Y-17434484D01*
X14793096Y-17434484D02*
X14812144Y-17424960D01*
X14812144Y-17424960D02*
X14821667Y-17415436D01*
X14821667Y-17415436D02*
X14831191Y-17396389D01*
X14831191Y-17396389D02*
X14831191Y-17348770D01*
X14831191Y-17348770D02*
X14821667Y-17329722D01*
X14821667Y-17329722D02*
X14812144Y-17320198D01*
X14812144Y-17320198D02*
X14793096Y-17310674D01*
X14793096Y-17310674D02*
X14755001Y-17310674D01*
X14755001Y-17310674D02*
X14735953Y-17320198D01*
X14735953Y-17320198D02*
X14726429Y-17329722D01*
X14726429Y-17329722D02*
X14716906Y-17348770D01*
X15002620Y-17234484D02*
X14964525Y-17234484D01*
X14964525Y-17234484D02*
X14945477Y-17244008D01*
X14945477Y-17244008D02*
X14935953Y-17253531D01*
X14935953Y-17253531D02*
X14916906Y-17282103D01*
X14916906Y-17282103D02*
X14907382Y-17320198D01*
X14907382Y-17320198D02*
X14907382Y-17396389D01*
X14907382Y-17396389D02*
X14916906Y-17415436D01*
X14916906Y-17415436D02*
X14926429Y-17424960D01*
X14926429Y-17424960D02*
X14945477Y-17434484D01*
X14945477Y-17434484D02*
X14983572Y-17434484D01*
X14983572Y-17434484D02*
X15002620Y-17424960D01*
X15002620Y-17424960D02*
X15012144Y-17415436D01*
X15012144Y-17415436D02*
X15021667Y-17396389D01*
X15021667Y-17396389D02*
X15021667Y-17348770D01*
X15021667Y-17348770D02*
X15012144Y-17329722D01*
X15012144Y-17329722D02*
X15002620Y-17320198D01*
X15002620Y-17320198D02*
X14983572Y-17310674D01*
X14983572Y-17310674D02*
X14945477Y-17310674D01*
X14945477Y-17310674D02*
X14926429Y-17320198D01*
X14926429Y-17320198D02*
X14916906Y-17329722D01*
X14916906Y-17329722D02*
X14907382Y-17348770D01*
X15116906Y-17434484D02*
X15155001Y-17434484D01*
X15155001Y-17434484D02*
X15174048Y-17424960D01*
X15174048Y-17424960D02*
X15183572Y-17415436D01*
X15183572Y-17415436D02*
X15202620Y-17386865D01*
X15202620Y-17386865D02*
X15212144Y-17348770D01*
X15212144Y-17348770D02*
X15212144Y-17272579D01*
X15212144Y-17272579D02*
X15202620Y-17253531D01*
X15202620Y-17253531D02*
X15193096Y-17244008D01*
X15193096Y-17244008D02*
X15174048Y-17234484D01*
X15174048Y-17234484D02*
X15135953Y-17234484D01*
X15135953Y-17234484D02*
X15116906Y-17244008D01*
X15116906Y-17244008D02*
X15107382Y-17253531D01*
X15107382Y-17253531D02*
X15097858Y-17272579D01*
X15097858Y-17272579D02*
X15097858Y-17320198D01*
X15097858Y-17320198D02*
X15107382Y-17339246D01*
X15107382Y-17339246D02*
X15116906Y-17348770D01*
X15116906Y-17348770D02*
X15135953Y-17358293D01*
X15135953Y-17358293D02*
X15174048Y-17358293D01*
X15174048Y-17358293D02*
X15193096Y-17348770D01*
X15193096Y-17348770D02*
X15202620Y-17339246D01*
X15202620Y-17339246D02*
X15212144Y-17320198D01*
X15288334Y-17234484D02*
X15288334Y-17272579D01*
X15364525Y-17234484D02*
X15364525Y-17272579D01*
X15659763Y-17510674D02*
X15650239Y-17501150D01*
X15650239Y-17501150D02*
X15631191Y-17472579D01*
X15631191Y-17472579D02*
X15621668Y-17453531D01*
X15621668Y-17453531D02*
X15612144Y-17424960D01*
X15612144Y-17424960D02*
X15602620Y-17377341D01*
X15602620Y-17377341D02*
X15602620Y-17339246D01*
X15602620Y-17339246D02*
X15612144Y-17291627D01*
X15612144Y-17291627D02*
X15621668Y-17263055D01*
X15621668Y-17263055D02*
X15631191Y-17244008D01*
X15631191Y-17244008D02*
X15650239Y-17215436D01*
X15650239Y-17215436D02*
X15659763Y-17205912D01*
X15726429Y-17253531D02*
X15735953Y-17244008D01*
X15735953Y-17244008D02*
X15755001Y-17234484D01*
X15755001Y-17234484D02*
X15802620Y-17234484D01*
X15802620Y-17234484D02*
X15821668Y-17244008D01*
X15821668Y-17244008D02*
X15831191Y-17253531D01*
X15831191Y-17253531D02*
X15840715Y-17272579D01*
X15840715Y-17272579D02*
X15840715Y-17291627D01*
X15840715Y-17291627D02*
X15831191Y-17320198D01*
X15831191Y-17320198D02*
X15716906Y-17434484D01*
X15716906Y-17434484D02*
X15840715Y-17434484D01*
X16078810Y-17434484D02*
X16078810Y-17234484D01*
X16164525Y-17434484D02*
X16164525Y-17329722D01*
X16164525Y-17329722D02*
X16155001Y-17310674D01*
X16155001Y-17310674D02*
X16135953Y-17301150D01*
X16135953Y-17301150D02*
X16107382Y-17301150D01*
X16107382Y-17301150D02*
X16088334Y-17310674D01*
X16088334Y-17310674D02*
X16078810Y-17320198D01*
X16288334Y-17434484D02*
X16269287Y-17424960D01*
X16269287Y-17424960D02*
X16259763Y-17415436D01*
X16259763Y-17415436D02*
X16250239Y-17396389D01*
X16250239Y-17396389D02*
X16250239Y-17339246D01*
X16250239Y-17339246D02*
X16259763Y-17320198D01*
X16259763Y-17320198D02*
X16269287Y-17310674D01*
X16269287Y-17310674D02*
X16288334Y-17301150D01*
X16288334Y-17301150D02*
X16316906Y-17301150D01*
X16316906Y-17301150D02*
X16335953Y-17310674D01*
X16335953Y-17310674D02*
X16345477Y-17320198D01*
X16345477Y-17320198D02*
X16355001Y-17339246D01*
X16355001Y-17339246D02*
X16355001Y-17396389D01*
X16355001Y-17396389D02*
X16345477Y-17415436D01*
X16345477Y-17415436D02*
X16335953Y-17424960D01*
X16335953Y-17424960D02*
X16316906Y-17434484D01*
X16316906Y-17434484D02*
X16288334Y-17434484D01*
X16469287Y-17434484D02*
X16450239Y-17424960D01*
X16450239Y-17424960D02*
X16440715Y-17405912D01*
X16440715Y-17405912D02*
X16440715Y-17234484D01*
X16621668Y-17424960D02*
X16602620Y-17434484D01*
X16602620Y-17434484D02*
X16564525Y-17434484D01*
X16564525Y-17434484D02*
X16545477Y-17424960D01*
X16545477Y-17424960D02*
X16535953Y-17405912D01*
X16535953Y-17405912D02*
X16535953Y-17329722D01*
X16535953Y-17329722D02*
X16545477Y-17310674D01*
X16545477Y-17310674D02*
X16564525Y-17301150D01*
X16564525Y-17301150D02*
X16602620Y-17301150D01*
X16602620Y-17301150D02*
X16621668Y-17310674D01*
X16621668Y-17310674D02*
X16631191Y-17329722D01*
X16631191Y-17329722D02*
X16631191Y-17348770D01*
X16631191Y-17348770D02*
X16535953Y-17367817D01*
X16707382Y-17424960D02*
X16726430Y-17434484D01*
X16726430Y-17434484D02*
X16764525Y-17434484D01*
X16764525Y-17434484D02*
X16783573Y-17424960D01*
X16783573Y-17424960D02*
X16793096Y-17405912D01*
X16793096Y-17405912D02*
X16793096Y-17396389D01*
X16793096Y-17396389D02*
X16783573Y-17377341D01*
X16783573Y-17377341D02*
X16764525Y-17367817D01*
X16764525Y-17367817D02*
X16735953Y-17367817D01*
X16735953Y-17367817D02*
X16716906Y-17358293D01*
X16716906Y-17358293D02*
X16707382Y-17339246D01*
X16707382Y-17339246D02*
X16707382Y-17329722D01*
X16707382Y-17329722D02*
X16716906Y-17310674D01*
X16716906Y-17310674D02*
X16735953Y-17301150D01*
X16735953Y-17301150D02*
X16764525Y-17301150D01*
X16764525Y-17301150D02*
X16783573Y-17310674D01*
X16859763Y-17510674D02*
X16869287Y-17501150D01*
X16869287Y-17501150D02*
X16888334Y-17472579D01*
X16888334Y-17472579D02*
X16897858Y-17453531D01*
X16897858Y-17453531D02*
X16907382Y-17424960D01*
X16907382Y-17424960D02*
X16916906Y-17377341D01*
X16916906Y-17377341D02*
X16916906Y-17339246D01*
X16916906Y-17339246D02*
X16907382Y-17291627D01*
X16907382Y-17291627D02*
X16897858Y-17263055D01*
X16897858Y-17263055D02*
X16888334Y-17244008D01*
X16888334Y-17244008D02*
X16869287Y-17215436D01*
X16869287Y-17215436D02*
X16859763Y-17205912D01*
X17221668Y-17510674D02*
X17212144Y-17501150D01*
X17212144Y-17501150D02*
X17193096Y-17472579D01*
X17193096Y-17472579D02*
X17183573Y-17453531D01*
X17183573Y-17453531D02*
X17174049Y-17424960D01*
X17174049Y-17424960D02*
X17164525Y-17377341D01*
X17164525Y-17377341D02*
X17164525Y-17339246D01*
X17164525Y-17339246D02*
X17174049Y-17291627D01*
X17174049Y-17291627D02*
X17183573Y-17263055D01*
X17183573Y-17263055D02*
X17193096Y-17244008D01*
X17193096Y-17244008D02*
X17212144Y-17215436D01*
X17212144Y-17215436D02*
X17221668Y-17205912D01*
X17297858Y-17301150D02*
X17297858Y-17434484D01*
X17297858Y-17320198D02*
X17307382Y-17310674D01*
X17307382Y-17310674D02*
X17326430Y-17301150D01*
X17326430Y-17301150D02*
X17355001Y-17301150D01*
X17355001Y-17301150D02*
X17374049Y-17310674D01*
X17374049Y-17310674D02*
X17383573Y-17329722D01*
X17383573Y-17329722D02*
X17383573Y-17434484D01*
X17507382Y-17434484D02*
X17488334Y-17424960D01*
X17488334Y-17424960D02*
X17478811Y-17415436D01*
X17478811Y-17415436D02*
X17469287Y-17396389D01*
X17469287Y-17396389D02*
X17469287Y-17339246D01*
X17469287Y-17339246D02*
X17478811Y-17320198D01*
X17478811Y-17320198D02*
X17488334Y-17310674D01*
X17488334Y-17310674D02*
X17507382Y-17301150D01*
X17507382Y-17301150D02*
X17535954Y-17301150D01*
X17535954Y-17301150D02*
X17555001Y-17310674D01*
X17555001Y-17310674D02*
X17564525Y-17320198D01*
X17564525Y-17320198D02*
X17574049Y-17339246D01*
X17574049Y-17339246D02*
X17574049Y-17396389D01*
X17574049Y-17396389D02*
X17564525Y-17415436D01*
X17564525Y-17415436D02*
X17555001Y-17424960D01*
X17555001Y-17424960D02*
X17535954Y-17434484D01*
X17535954Y-17434484D02*
X17507382Y-17434484D01*
X17631192Y-17301150D02*
X17707382Y-17301150D01*
X17659763Y-17234484D02*
X17659763Y-17405912D01*
X17659763Y-17405912D02*
X17669287Y-17424960D01*
X17669287Y-17424960D02*
X17688334Y-17434484D01*
X17688334Y-17434484D02*
X17707382Y-17434484D01*
X17926430Y-17301150D02*
X17926430Y-17501150D01*
X17926430Y-17310674D02*
X17945477Y-17301150D01*
X17945477Y-17301150D02*
X17983573Y-17301150D01*
X17983573Y-17301150D02*
X18002620Y-17310674D01*
X18002620Y-17310674D02*
X18012144Y-17320198D01*
X18012144Y-17320198D02*
X18021668Y-17339246D01*
X18021668Y-17339246D02*
X18021668Y-17396389D01*
X18021668Y-17396389D02*
X18012144Y-17415436D01*
X18012144Y-17415436D02*
X18002620Y-17424960D01*
X18002620Y-17424960D02*
X17983573Y-17434484D01*
X17983573Y-17434484D02*
X17945477Y-17434484D01*
X17945477Y-17434484D02*
X17926430Y-17424960D01*
X18135954Y-17434484D02*
X18116906Y-17424960D01*
X18116906Y-17424960D02*
X18107382Y-17405912D01*
X18107382Y-17405912D02*
X18107382Y-17234484D01*
X18297858Y-17434484D02*
X18297858Y-17329722D01*
X18297858Y-17329722D02*
X18288335Y-17310674D01*
X18288335Y-17310674D02*
X18269287Y-17301150D01*
X18269287Y-17301150D02*
X18231192Y-17301150D01*
X18231192Y-17301150D02*
X18212144Y-17310674D01*
X18297858Y-17424960D02*
X18278811Y-17434484D01*
X18278811Y-17434484D02*
X18231192Y-17434484D01*
X18231192Y-17434484D02*
X18212144Y-17424960D01*
X18212144Y-17424960D02*
X18202620Y-17405912D01*
X18202620Y-17405912D02*
X18202620Y-17386865D01*
X18202620Y-17386865D02*
X18212144Y-17367817D01*
X18212144Y-17367817D02*
X18231192Y-17358293D01*
X18231192Y-17358293D02*
X18278811Y-17358293D01*
X18278811Y-17358293D02*
X18297858Y-17348770D01*
X18364525Y-17301150D02*
X18440715Y-17301150D01*
X18393096Y-17234484D02*
X18393096Y-17405912D01*
X18393096Y-17405912D02*
X18402620Y-17424960D01*
X18402620Y-17424960D02*
X18421668Y-17434484D01*
X18421668Y-17434484D02*
X18440715Y-17434484D01*
X18583573Y-17424960D02*
X18564525Y-17434484D01*
X18564525Y-17434484D02*
X18526430Y-17434484D01*
X18526430Y-17434484D02*
X18507382Y-17424960D01*
X18507382Y-17424960D02*
X18497858Y-17405912D01*
X18497858Y-17405912D02*
X18497858Y-17329722D01*
X18497858Y-17329722D02*
X18507382Y-17310674D01*
X18507382Y-17310674D02*
X18526430Y-17301150D01*
X18526430Y-17301150D02*
X18564525Y-17301150D01*
X18564525Y-17301150D02*
X18583573Y-17310674D01*
X18583573Y-17310674D02*
X18593096Y-17329722D01*
X18593096Y-17329722D02*
X18593096Y-17348770D01*
X18593096Y-17348770D02*
X18497858Y-17367817D01*
X18764525Y-17434484D02*
X18764525Y-17234484D01*
X18764525Y-17424960D02*
X18745477Y-17434484D01*
X18745477Y-17434484D02*
X18707382Y-17434484D01*
X18707382Y-17434484D02*
X18688335Y-17424960D01*
X18688335Y-17424960D02*
X18678811Y-17415436D01*
X18678811Y-17415436D02*
X18669287Y-17396389D01*
X18669287Y-17396389D02*
X18669287Y-17339246D01*
X18669287Y-17339246D02*
X18678811Y-17320198D01*
X18678811Y-17320198D02*
X18688335Y-17310674D01*
X18688335Y-17310674D02*
X18707382Y-17301150D01*
X18707382Y-17301150D02*
X18745477Y-17301150D01*
X18745477Y-17301150D02*
X18764525Y-17310674D01*
X18840716Y-17510674D02*
X18850239Y-17501150D01*
X18850239Y-17501150D02*
X18869287Y-17472579D01*
X18869287Y-17472579D02*
X18878811Y-17453531D01*
X18878811Y-17453531D02*
X18888335Y-17424960D01*
X18888335Y-17424960D02*
X18897858Y-17377341D01*
X18897858Y-17377341D02*
X18897858Y-17339246D01*
X18897858Y-17339246D02*
X18888335Y-17291627D01*
X18888335Y-17291627D02*
X18878811Y-17263055D01*
X18878811Y-17263055D02*
X18869287Y-17244008D01*
X18869287Y-17244008D02*
X18850239Y-17215436D01*
X18850239Y-17215436D02*
X18840716Y-17205912D01*
X11884700Y-17533000D02*
X12084700Y-17733000D01*
X12084700Y-17533000D02*
X11884700Y-17733000D01*
X11984700Y-17533000D02*
X11984700Y-17733000D01*
X11884700Y-17633000D02*
X12084700Y-17633000D01*
X12335953Y-17543531D02*
X12345477Y-17534008D01*
X12345477Y-17534008D02*
X12364524Y-17524484D01*
X12364524Y-17524484D02*
X12412143Y-17524484D01*
X12412143Y-17524484D02*
X12431191Y-17534008D01*
X12431191Y-17534008D02*
X12440715Y-17543531D01*
X12440715Y-17543531D02*
X12450239Y-17562579D01*
X12450239Y-17562579D02*
X12450239Y-17581627D01*
X12450239Y-17581627D02*
X12440715Y-17610198D01*
X12440715Y-17610198D02*
X12326429Y-17724484D01*
X12326429Y-17724484D02*
X12450239Y-17724484D01*
X12535953Y-17705436D02*
X12545477Y-17714960D01*
X12545477Y-17714960D02*
X12535953Y-17724484D01*
X12535953Y-17724484D02*
X12526429Y-17714960D01*
X12526429Y-17714960D02*
X12535953Y-17705436D01*
X12535953Y-17705436D02*
X12535953Y-17724484D01*
X12621667Y-17543531D02*
X12631191Y-17534008D01*
X12631191Y-17534008D02*
X12650239Y-17524484D01*
X12650239Y-17524484D02*
X12697858Y-17524484D01*
X12697858Y-17524484D02*
X12716905Y-17534008D01*
X12716905Y-17534008D02*
X12726429Y-17543531D01*
X12726429Y-17543531D02*
X12735953Y-17562579D01*
X12735953Y-17562579D02*
X12735953Y-17581627D01*
X12735953Y-17581627D02*
X12726429Y-17610198D01*
X12726429Y-17610198D02*
X12612143Y-17724484D01*
X12612143Y-17724484D02*
X12735953Y-17724484D01*
X12859762Y-17524484D02*
X12878810Y-17524484D01*
X12878810Y-17524484D02*
X12897858Y-17534008D01*
X12897858Y-17534008D02*
X12907382Y-17543531D01*
X12907382Y-17543531D02*
X12916905Y-17562579D01*
X12916905Y-17562579D02*
X12926429Y-17600674D01*
X12926429Y-17600674D02*
X12926429Y-17648293D01*
X12926429Y-17648293D02*
X12916905Y-17686389D01*
X12916905Y-17686389D02*
X12907382Y-17705436D01*
X12907382Y-17705436D02*
X12897858Y-17714960D01*
X12897858Y-17714960D02*
X12878810Y-17724484D01*
X12878810Y-17724484D02*
X12859762Y-17724484D01*
X12859762Y-17724484D02*
X12840715Y-17714960D01*
X12840715Y-17714960D02*
X12831191Y-17705436D01*
X12831191Y-17705436D02*
X12821667Y-17686389D01*
X12821667Y-17686389D02*
X12812143Y-17648293D01*
X12812143Y-17648293D02*
X12812143Y-17600674D01*
X12812143Y-17600674D02*
X12821667Y-17562579D01*
X12821667Y-17562579D02*
X12831191Y-17543531D01*
X12831191Y-17543531D02*
X12840715Y-17534008D01*
X12840715Y-17534008D02*
X12859762Y-17524484D01*
X13050239Y-17524484D02*
X13069286Y-17524484D01*
X13069286Y-17524484D02*
X13088334Y-17534008D01*
X13088334Y-17534008D02*
X13097858Y-17543531D01*
X13097858Y-17543531D02*
X13107382Y-17562579D01*
X13107382Y-17562579D02*
X13116905Y-17600674D01*
X13116905Y-17600674D02*
X13116905Y-17648293D01*
X13116905Y-17648293D02*
X13107382Y-17686389D01*
X13107382Y-17686389D02*
X13097858Y-17705436D01*
X13097858Y-17705436D02*
X13088334Y-17714960D01*
X13088334Y-17714960D02*
X13069286Y-17724484D01*
X13069286Y-17724484D02*
X13050239Y-17724484D01*
X13050239Y-17724484D02*
X13031191Y-17714960D01*
X13031191Y-17714960D02*
X13021667Y-17705436D01*
X13021667Y-17705436D02*
X13012143Y-17686389D01*
X13012143Y-17686389D02*
X13002620Y-17648293D01*
X13002620Y-17648293D02*
X13002620Y-17600674D01*
X13002620Y-17600674D02*
X13012143Y-17562579D01*
X13012143Y-17562579D02*
X13021667Y-17543531D01*
X13021667Y-17543531D02*
X13031191Y-17534008D01*
X13031191Y-17534008D02*
X13050239Y-17524484D01*
X13202620Y-17724484D02*
X13202620Y-17591150D01*
X13202620Y-17610198D02*
X13212143Y-17600674D01*
X13212143Y-17600674D02*
X13231191Y-17591150D01*
X13231191Y-17591150D02*
X13259763Y-17591150D01*
X13259763Y-17591150D02*
X13278810Y-17600674D01*
X13278810Y-17600674D02*
X13288334Y-17619722D01*
X13288334Y-17619722D02*
X13288334Y-17724484D01*
X13288334Y-17619722D02*
X13297858Y-17600674D01*
X13297858Y-17600674D02*
X13316905Y-17591150D01*
X13316905Y-17591150D02*
X13345477Y-17591150D01*
X13345477Y-17591150D02*
X13364524Y-17600674D01*
X13364524Y-17600674D02*
X13374048Y-17619722D01*
X13374048Y-17619722D02*
X13374048Y-17724484D01*
X13469286Y-17724484D02*
X13469286Y-17591150D01*
X13469286Y-17610198D02*
X13478810Y-17600674D01*
X13478810Y-17600674D02*
X13497858Y-17591150D01*
X13497858Y-17591150D02*
X13526429Y-17591150D01*
X13526429Y-17591150D02*
X13545477Y-17600674D01*
X13545477Y-17600674D02*
X13555001Y-17619722D01*
X13555001Y-17619722D02*
X13555001Y-17724484D01*
X13555001Y-17619722D02*
X13564524Y-17600674D01*
X13564524Y-17600674D02*
X13583572Y-17591150D01*
X13583572Y-17591150D02*
X13612143Y-17591150D01*
X13612143Y-17591150D02*
X13631191Y-17600674D01*
X13631191Y-17600674D02*
X13640715Y-17619722D01*
X13640715Y-17619722D02*
X13640715Y-17724484D01*
X14031191Y-17514960D02*
X13859763Y-17772103D01*
X14288334Y-17524484D02*
X14307382Y-17524484D01*
X14307382Y-17524484D02*
X14326429Y-17534008D01*
X14326429Y-17534008D02*
X14335953Y-17543531D01*
X14335953Y-17543531D02*
X14345477Y-17562579D01*
X14345477Y-17562579D02*
X14355001Y-17600674D01*
X14355001Y-17600674D02*
X14355001Y-17648293D01*
X14355001Y-17648293D02*
X14345477Y-17686389D01*
X14345477Y-17686389D02*
X14335953Y-17705436D01*
X14335953Y-17705436D02*
X14326429Y-17714960D01*
X14326429Y-17714960D02*
X14307382Y-17724484D01*
X14307382Y-17724484D02*
X14288334Y-17724484D01*
X14288334Y-17724484D02*
X14269286Y-17714960D01*
X14269286Y-17714960D02*
X14259763Y-17705436D01*
X14259763Y-17705436D02*
X14250239Y-17686389D01*
X14250239Y-17686389D02*
X14240715Y-17648293D01*
X14240715Y-17648293D02*
X14240715Y-17600674D01*
X14240715Y-17600674D02*
X14250239Y-17562579D01*
X14250239Y-17562579D02*
X14259763Y-17543531D01*
X14259763Y-17543531D02*
X14269286Y-17534008D01*
X14269286Y-17534008D02*
X14288334Y-17524484D01*
X14440715Y-17705436D02*
X14450239Y-17714960D01*
X14450239Y-17714960D02*
X14440715Y-17724484D01*
X14440715Y-17724484D02*
X14431191Y-17714960D01*
X14431191Y-17714960D02*
X14440715Y-17705436D01*
X14440715Y-17705436D02*
X14440715Y-17724484D01*
X14574048Y-17524484D02*
X14593096Y-17524484D01*
X14593096Y-17524484D02*
X14612144Y-17534008D01*
X14612144Y-17534008D02*
X14621667Y-17543531D01*
X14621667Y-17543531D02*
X14631191Y-17562579D01*
X14631191Y-17562579D02*
X14640715Y-17600674D01*
X14640715Y-17600674D02*
X14640715Y-17648293D01*
X14640715Y-17648293D02*
X14631191Y-17686389D01*
X14631191Y-17686389D02*
X14621667Y-17705436D01*
X14621667Y-17705436D02*
X14612144Y-17714960D01*
X14612144Y-17714960D02*
X14593096Y-17724484D01*
X14593096Y-17724484D02*
X14574048Y-17724484D01*
X14574048Y-17724484D02*
X14555001Y-17714960D01*
X14555001Y-17714960D02*
X14545477Y-17705436D01*
X14545477Y-17705436D02*
X14535953Y-17686389D01*
X14535953Y-17686389D02*
X14526429Y-17648293D01*
X14526429Y-17648293D02*
X14526429Y-17600674D01*
X14526429Y-17600674D02*
X14535953Y-17562579D01*
X14535953Y-17562579D02*
X14545477Y-17543531D01*
X14545477Y-17543531D02*
X14555001Y-17534008D01*
X14555001Y-17534008D02*
X14574048Y-17524484D01*
X14755001Y-17610198D02*
X14735953Y-17600674D01*
X14735953Y-17600674D02*
X14726429Y-17591150D01*
X14726429Y-17591150D02*
X14716906Y-17572103D01*
X14716906Y-17572103D02*
X14716906Y-17562579D01*
X14716906Y-17562579D02*
X14726429Y-17543531D01*
X14726429Y-17543531D02*
X14735953Y-17534008D01*
X14735953Y-17534008D02*
X14755001Y-17524484D01*
X14755001Y-17524484D02*
X14793096Y-17524484D01*
X14793096Y-17524484D02*
X14812144Y-17534008D01*
X14812144Y-17534008D02*
X14821667Y-17543531D01*
X14821667Y-17543531D02*
X14831191Y-17562579D01*
X14831191Y-17562579D02*
X14831191Y-17572103D01*
X14831191Y-17572103D02*
X14821667Y-17591150D01*
X14821667Y-17591150D02*
X14812144Y-17600674D01*
X14812144Y-17600674D02*
X14793096Y-17610198D01*
X14793096Y-17610198D02*
X14755001Y-17610198D01*
X14755001Y-17610198D02*
X14735953Y-17619722D01*
X14735953Y-17619722D02*
X14726429Y-17629246D01*
X14726429Y-17629246D02*
X14716906Y-17648293D01*
X14716906Y-17648293D02*
X14716906Y-17686389D01*
X14716906Y-17686389D02*
X14726429Y-17705436D01*
X14726429Y-17705436D02*
X14735953Y-17714960D01*
X14735953Y-17714960D02*
X14755001Y-17724484D01*
X14755001Y-17724484D02*
X14793096Y-17724484D01*
X14793096Y-17724484D02*
X14812144Y-17714960D01*
X14812144Y-17714960D02*
X14821667Y-17705436D01*
X14821667Y-17705436D02*
X14831191Y-17686389D01*
X14831191Y-17686389D02*
X14831191Y-17648293D01*
X14831191Y-17648293D02*
X14821667Y-17629246D01*
X14821667Y-17629246D02*
X14812144Y-17619722D01*
X14812144Y-17619722D02*
X14793096Y-17610198D01*
X15002620Y-17524484D02*
X14964525Y-17524484D01*
X14964525Y-17524484D02*
X14945477Y-17534008D01*
X14945477Y-17534008D02*
X14935953Y-17543531D01*
X14935953Y-17543531D02*
X14916906Y-17572103D01*
X14916906Y-17572103D02*
X14907382Y-17610198D01*
X14907382Y-17610198D02*
X14907382Y-17686389D01*
X14907382Y-17686389D02*
X14916906Y-17705436D01*
X14916906Y-17705436D02*
X14926429Y-17714960D01*
X14926429Y-17714960D02*
X14945477Y-17724484D01*
X14945477Y-17724484D02*
X14983572Y-17724484D01*
X14983572Y-17724484D02*
X15002620Y-17714960D01*
X15002620Y-17714960D02*
X15012144Y-17705436D01*
X15012144Y-17705436D02*
X15021667Y-17686389D01*
X15021667Y-17686389D02*
X15021667Y-17638770D01*
X15021667Y-17638770D02*
X15012144Y-17619722D01*
X15012144Y-17619722D02*
X15002620Y-17610198D01*
X15002620Y-17610198D02*
X14983572Y-17600674D01*
X14983572Y-17600674D02*
X14945477Y-17600674D01*
X14945477Y-17600674D02*
X14926429Y-17610198D01*
X14926429Y-17610198D02*
X14916906Y-17619722D01*
X14916906Y-17619722D02*
X14907382Y-17638770D01*
X15193096Y-17524484D02*
X15155001Y-17524484D01*
X15155001Y-17524484D02*
X15135953Y-17534008D01*
X15135953Y-17534008D02*
X15126429Y-17543531D01*
X15126429Y-17543531D02*
X15107382Y-17572103D01*
X15107382Y-17572103D02*
X15097858Y-17610198D01*
X15097858Y-17610198D02*
X15097858Y-17686389D01*
X15097858Y-17686389D02*
X15107382Y-17705436D01*
X15107382Y-17705436D02*
X15116906Y-17714960D01*
X15116906Y-17714960D02*
X15135953Y-17724484D01*
X15135953Y-17724484D02*
X15174048Y-17724484D01*
X15174048Y-17724484D02*
X15193096Y-17714960D01*
X15193096Y-17714960D02*
X15202620Y-17705436D01*
X15202620Y-17705436D02*
X15212144Y-17686389D01*
X15212144Y-17686389D02*
X15212144Y-17638770D01*
X15212144Y-17638770D02*
X15202620Y-17619722D01*
X15202620Y-17619722D02*
X15193096Y-17610198D01*
X15193096Y-17610198D02*
X15174048Y-17600674D01*
X15174048Y-17600674D02*
X15135953Y-17600674D01*
X15135953Y-17600674D02*
X15116906Y-17610198D01*
X15116906Y-17610198D02*
X15107382Y-17619722D01*
X15107382Y-17619722D02*
X15097858Y-17638770D01*
X15288334Y-17524484D02*
X15288334Y-17562579D01*
X15364525Y-17524484D02*
X15364525Y-17562579D01*
X15659763Y-17800674D02*
X15650239Y-17791150D01*
X15650239Y-17791150D02*
X15631191Y-17762579D01*
X15631191Y-17762579D02*
X15621668Y-17743531D01*
X15621668Y-17743531D02*
X15612144Y-17714960D01*
X15612144Y-17714960D02*
X15602620Y-17667341D01*
X15602620Y-17667341D02*
X15602620Y-17629246D01*
X15602620Y-17629246D02*
X15612144Y-17581627D01*
X15612144Y-17581627D02*
X15621668Y-17553055D01*
X15621668Y-17553055D02*
X15631191Y-17534008D01*
X15631191Y-17534008D02*
X15650239Y-17505436D01*
X15650239Y-17505436D02*
X15659763Y-17495912D01*
X15764525Y-17610198D02*
X15745477Y-17600674D01*
X15745477Y-17600674D02*
X15735953Y-17591150D01*
X15735953Y-17591150D02*
X15726429Y-17572103D01*
X15726429Y-17572103D02*
X15726429Y-17562579D01*
X15726429Y-17562579D02*
X15735953Y-17543531D01*
X15735953Y-17543531D02*
X15745477Y-17534008D01*
X15745477Y-17534008D02*
X15764525Y-17524484D01*
X15764525Y-17524484D02*
X15802620Y-17524484D01*
X15802620Y-17524484D02*
X15821668Y-17534008D01*
X15821668Y-17534008D02*
X15831191Y-17543531D01*
X15831191Y-17543531D02*
X15840715Y-17562579D01*
X15840715Y-17562579D02*
X15840715Y-17572103D01*
X15840715Y-17572103D02*
X15831191Y-17591150D01*
X15831191Y-17591150D02*
X15821668Y-17600674D01*
X15821668Y-17600674D02*
X15802620Y-17610198D01*
X15802620Y-17610198D02*
X15764525Y-17610198D01*
X15764525Y-17610198D02*
X15745477Y-17619722D01*
X15745477Y-17619722D02*
X15735953Y-17629246D01*
X15735953Y-17629246D02*
X15726429Y-17648293D01*
X15726429Y-17648293D02*
X15726429Y-17686389D01*
X15726429Y-17686389D02*
X15735953Y-17705436D01*
X15735953Y-17705436D02*
X15745477Y-17714960D01*
X15745477Y-17714960D02*
X15764525Y-17724484D01*
X15764525Y-17724484D02*
X15802620Y-17724484D01*
X15802620Y-17724484D02*
X15821668Y-17714960D01*
X15821668Y-17714960D02*
X15831191Y-17705436D01*
X15831191Y-17705436D02*
X15840715Y-17686389D01*
X15840715Y-17686389D02*
X15840715Y-17648293D01*
X15840715Y-17648293D02*
X15831191Y-17629246D01*
X15831191Y-17629246D02*
X15821668Y-17619722D01*
X15821668Y-17619722D02*
X15802620Y-17610198D01*
X16078810Y-17724484D02*
X16078810Y-17524484D01*
X16164525Y-17724484D02*
X16164525Y-17619722D01*
X16164525Y-17619722D02*
X16155001Y-17600674D01*
X16155001Y-17600674D02*
X16135953Y-17591150D01*
X16135953Y-17591150D02*
X16107382Y-17591150D01*
X16107382Y-17591150D02*
X16088334Y-17600674D01*
X16088334Y-17600674D02*
X16078810Y-17610198D01*
X16288334Y-17724484D02*
X16269287Y-17714960D01*
X16269287Y-17714960D02*
X16259763Y-17705436D01*
X16259763Y-17705436D02*
X16250239Y-17686389D01*
X16250239Y-17686389D02*
X16250239Y-17629246D01*
X16250239Y-17629246D02*
X16259763Y-17610198D01*
X16259763Y-17610198D02*
X16269287Y-17600674D01*
X16269287Y-17600674D02*
X16288334Y-17591150D01*
X16288334Y-17591150D02*
X16316906Y-17591150D01*
X16316906Y-17591150D02*
X16335953Y-17600674D01*
X16335953Y-17600674D02*
X16345477Y-17610198D01*
X16345477Y-17610198D02*
X16355001Y-17629246D01*
X16355001Y-17629246D02*
X16355001Y-17686389D01*
X16355001Y-17686389D02*
X16345477Y-17705436D01*
X16345477Y-17705436D02*
X16335953Y-17714960D01*
X16335953Y-17714960D02*
X16316906Y-17724484D01*
X16316906Y-17724484D02*
X16288334Y-17724484D01*
X16469287Y-17724484D02*
X16450239Y-17714960D01*
X16450239Y-17714960D02*
X16440715Y-17695912D01*
X16440715Y-17695912D02*
X16440715Y-17524484D01*
X16621668Y-17714960D02*
X16602620Y-17724484D01*
X16602620Y-17724484D02*
X16564525Y-17724484D01*
X16564525Y-17724484D02*
X16545477Y-17714960D01*
X16545477Y-17714960D02*
X16535953Y-17695912D01*
X16535953Y-17695912D02*
X16535953Y-17619722D01*
X16535953Y-17619722D02*
X16545477Y-17600674D01*
X16545477Y-17600674D02*
X16564525Y-17591150D01*
X16564525Y-17591150D02*
X16602620Y-17591150D01*
X16602620Y-17591150D02*
X16621668Y-17600674D01*
X16621668Y-17600674D02*
X16631191Y-17619722D01*
X16631191Y-17619722D02*
X16631191Y-17638770D01*
X16631191Y-17638770D02*
X16535953Y-17657817D01*
X16707382Y-17714960D02*
X16726430Y-17724484D01*
X16726430Y-17724484D02*
X16764525Y-17724484D01*
X16764525Y-17724484D02*
X16783573Y-17714960D01*
X16783573Y-17714960D02*
X16793096Y-17695912D01*
X16793096Y-17695912D02*
X16793096Y-17686389D01*
X16793096Y-17686389D02*
X16783573Y-17667341D01*
X16783573Y-17667341D02*
X16764525Y-17657817D01*
X16764525Y-17657817D02*
X16735953Y-17657817D01*
X16735953Y-17657817D02*
X16716906Y-17648293D01*
X16716906Y-17648293D02*
X16707382Y-17629246D01*
X16707382Y-17629246D02*
X16707382Y-17619722D01*
X16707382Y-17619722D02*
X16716906Y-17600674D01*
X16716906Y-17600674D02*
X16735953Y-17591150D01*
X16735953Y-17591150D02*
X16764525Y-17591150D01*
X16764525Y-17591150D02*
X16783573Y-17600674D01*
X16859763Y-17800674D02*
X16869287Y-17791150D01*
X16869287Y-17791150D02*
X16888334Y-17762579D01*
X16888334Y-17762579D02*
X16897858Y-17743531D01*
X16897858Y-17743531D02*
X16907382Y-17714960D01*
X16907382Y-17714960D02*
X16916906Y-17667341D01*
X16916906Y-17667341D02*
X16916906Y-17629246D01*
X16916906Y-17629246D02*
X16907382Y-17581627D01*
X16907382Y-17581627D02*
X16897858Y-17553055D01*
X16897858Y-17553055D02*
X16888334Y-17534008D01*
X16888334Y-17534008D02*
X16869287Y-17505436D01*
X16869287Y-17505436D02*
X16859763Y-17495912D01*
X17221668Y-17800674D02*
X17212144Y-17791150D01*
X17212144Y-17791150D02*
X17193096Y-17762579D01*
X17193096Y-17762579D02*
X17183573Y-17743531D01*
X17183573Y-17743531D02*
X17174049Y-17714960D01*
X17174049Y-17714960D02*
X17164525Y-17667341D01*
X17164525Y-17667341D02*
X17164525Y-17629246D01*
X17164525Y-17629246D02*
X17174049Y-17581627D01*
X17174049Y-17581627D02*
X17183573Y-17553055D01*
X17183573Y-17553055D02*
X17193096Y-17534008D01*
X17193096Y-17534008D02*
X17212144Y-17505436D01*
X17212144Y-17505436D02*
X17221668Y-17495912D01*
X17297858Y-17591150D02*
X17297858Y-17724484D01*
X17297858Y-17610198D02*
X17307382Y-17600674D01*
X17307382Y-17600674D02*
X17326430Y-17591150D01*
X17326430Y-17591150D02*
X17355001Y-17591150D01*
X17355001Y-17591150D02*
X17374049Y-17600674D01*
X17374049Y-17600674D02*
X17383573Y-17619722D01*
X17383573Y-17619722D02*
X17383573Y-17724484D01*
X17507382Y-17724484D02*
X17488334Y-17714960D01*
X17488334Y-17714960D02*
X17478811Y-17705436D01*
X17478811Y-17705436D02*
X17469287Y-17686389D01*
X17469287Y-17686389D02*
X17469287Y-17629246D01*
X17469287Y-17629246D02*
X17478811Y-17610198D01*
X17478811Y-17610198D02*
X17488334Y-17600674D01*
X17488334Y-17600674D02*
X17507382Y-17591150D01*
X17507382Y-17591150D02*
X17535954Y-17591150D01*
X17535954Y-17591150D02*
X17555001Y-17600674D01*
X17555001Y-17600674D02*
X17564525Y-17610198D01*
X17564525Y-17610198D02*
X17574049Y-17629246D01*
X17574049Y-17629246D02*
X17574049Y-17686389D01*
X17574049Y-17686389D02*
X17564525Y-17705436D01*
X17564525Y-17705436D02*
X17555001Y-17714960D01*
X17555001Y-17714960D02*
X17535954Y-17724484D01*
X17535954Y-17724484D02*
X17507382Y-17724484D01*
X17631192Y-17591150D02*
X17707382Y-17591150D01*
X17659763Y-17524484D02*
X17659763Y-17695912D01*
X17659763Y-17695912D02*
X17669287Y-17714960D01*
X17669287Y-17714960D02*
X17688334Y-17724484D01*
X17688334Y-17724484D02*
X17707382Y-17724484D01*
X17926430Y-17591150D02*
X17926430Y-17791150D01*
X17926430Y-17600674D02*
X17945477Y-17591150D01*
X17945477Y-17591150D02*
X17983573Y-17591150D01*
X17983573Y-17591150D02*
X18002620Y-17600674D01*
X18002620Y-17600674D02*
X18012144Y-17610198D01*
X18012144Y-17610198D02*
X18021668Y-17629246D01*
X18021668Y-17629246D02*
X18021668Y-17686389D01*
X18021668Y-17686389D02*
X18012144Y-17705436D01*
X18012144Y-17705436D02*
X18002620Y-17714960D01*
X18002620Y-17714960D02*
X17983573Y-17724484D01*
X17983573Y-17724484D02*
X17945477Y-17724484D01*
X17945477Y-17724484D02*
X17926430Y-17714960D01*
X18135954Y-17724484D02*
X18116906Y-17714960D01*
X18116906Y-17714960D02*
X18107382Y-17695912D01*
X18107382Y-17695912D02*
X18107382Y-17524484D01*
X18297858Y-17724484D02*
X18297858Y-17619722D01*
X18297858Y-17619722D02*
X18288335Y-17600674D01*
X18288335Y-17600674D02*
X18269287Y-17591150D01*
X18269287Y-17591150D02*
X18231192Y-17591150D01*
X18231192Y-17591150D02*
X18212144Y-17600674D01*
X18297858Y-17714960D02*
X18278811Y-17724484D01*
X18278811Y-17724484D02*
X18231192Y-17724484D01*
X18231192Y-17724484D02*
X18212144Y-17714960D01*
X18212144Y-17714960D02*
X18202620Y-17695912D01*
X18202620Y-17695912D02*
X18202620Y-17676865D01*
X18202620Y-17676865D02*
X18212144Y-17657817D01*
X18212144Y-17657817D02*
X18231192Y-17648293D01*
X18231192Y-17648293D02*
X18278811Y-17648293D01*
X18278811Y-17648293D02*
X18297858Y-17638770D01*
X18364525Y-17591150D02*
X18440715Y-17591150D01*
X18393096Y-17524484D02*
X18393096Y-17695912D01*
X18393096Y-17695912D02*
X18402620Y-17714960D01*
X18402620Y-17714960D02*
X18421668Y-17724484D01*
X18421668Y-17724484D02*
X18440715Y-17724484D01*
X18583573Y-17714960D02*
X18564525Y-17724484D01*
X18564525Y-17724484D02*
X18526430Y-17724484D01*
X18526430Y-17724484D02*
X18507382Y-17714960D01*
X18507382Y-17714960D02*
X18497858Y-17695912D01*
X18497858Y-17695912D02*
X18497858Y-17619722D01*
X18497858Y-17619722D02*
X18507382Y-17600674D01*
X18507382Y-17600674D02*
X18526430Y-17591150D01*
X18526430Y-17591150D02*
X18564525Y-17591150D01*
X18564525Y-17591150D02*
X18583573Y-17600674D01*
X18583573Y-17600674D02*
X18593096Y-17619722D01*
X18593096Y-17619722D02*
X18593096Y-17638770D01*
X18593096Y-17638770D02*
X18497858Y-17657817D01*
X18764525Y-17724484D02*
X18764525Y-17524484D01*
X18764525Y-17714960D02*
X18745477Y-17724484D01*
X18745477Y-17724484D02*
X18707382Y-17724484D01*
X18707382Y-17724484D02*
X18688335Y-17714960D01*
X18688335Y-17714960D02*
X18678811Y-17705436D01*
X18678811Y-17705436D02*
X18669287Y-17686389D01*
X18669287Y-17686389D02*
X18669287Y-17629246D01*
X18669287Y-17629246D02*
X18678811Y-17610198D01*
X18678811Y-17610198D02*
X18688335Y-17600674D01*
X18688335Y-17600674D02*
X18707382Y-17591150D01*
X18707382Y-17591150D02*
X18745477Y-17591150D01*
X18745477Y-17591150D02*
X18764525Y-17600674D01*
X18840716Y-17800674D02*
X18850239Y-17791150D01*
X18850239Y-17791150D02*
X18869287Y-17762579D01*
X18869287Y-17762579D02*
X18878811Y-17743531D01*
X18878811Y-17743531D02*
X18888335Y-17714960D01*
X18888335Y-17714960D02*
X18897858Y-17667341D01*
X18897858Y-17667341D02*
X18897858Y-17629246D01*
X18897858Y-17629246D02*
X18888335Y-17581627D01*
X18888335Y-17581627D02*
X18878811Y-17553055D01*
X18878811Y-17553055D02*
X18869287Y-17534008D01*
X18869287Y-17534008D02*
X18850239Y-17505436D01*
X18850239Y-17505436D02*
X18840716Y-17495912D01*
X11884700Y-17853000D02*
X12084700Y-18053000D01*
X12084700Y-17853000D02*
X11884700Y-18053000D01*
X12055411Y-18023711D02*
X12055411Y-17882289D01*
X11913989Y-17882289D01*
X11913989Y-18023711D01*
X12055411Y-18023711D01*
X12431191Y-17911150D02*
X12431191Y-18044484D01*
X12383572Y-17834960D02*
X12335953Y-17977817D01*
X12335953Y-17977817D02*
X12459762Y-17977817D01*
X12535953Y-18025436D02*
X12545477Y-18034960D01*
X12545477Y-18034960D02*
X12535953Y-18044484D01*
X12535953Y-18044484D02*
X12526429Y-18034960D01*
X12526429Y-18034960D02*
X12535953Y-18025436D01*
X12535953Y-18025436D02*
X12535953Y-18044484D01*
X12669286Y-17844484D02*
X12688334Y-17844484D01*
X12688334Y-17844484D02*
X12707382Y-17854008D01*
X12707382Y-17854008D02*
X12716905Y-17863531D01*
X12716905Y-17863531D02*
X12726429Y-17882579D01*
X12726429Y-17882579D02*
X12735953Y-17920674D01*
X12735953Y-17920674D02*
X12735953Y-17968293D01*
X12735953Y-17968293D02*
X12726429Y-18006389D01*
X12726429Y-18006389D02*
X12716905Y-18025436D01*
X12716905Y-18025436D02*
X12707382Y-18034960D01*
X12707382Y-18034960D02*
X12688334Y-18044484D01*
X12688334Y-18044484D02*
X12669286Y-18044484D01*
X12669286Y-18044484D02*
X12650239Y-18034960D01*
X12650239Y-18034960D02*
X12640715Y-18025436D01*
X12640715Y-18025436D02*
X12631191Y-18006389D01*
X12631191Y-18006389D02*
X12621667Y-17968293D01*
X12621667Y-17968293D02*
X12621667Y-17920674D01*
X12621667Y-17920674D02*
X12631191Y-17882579D01*
X12631191Y-17882579D02*
X12640715Y-17863531D01*
X12640715Y-17863531D02*
X12650239Y-17854008D01*
X12650239Y-17854008D02*
X12669286Y-17844484D01*
X12859762Y-17844484D02*
X12878810Y-17844484D01*
X12878810Y-17844484D02*
X12897858Y-17854008D01*
X12897858Y-17854008D02*
X12907382Y-17863531D01*
X12907382Y-17863531D02*
X12916905Y-17882579D01*
X12916905Y-17882579D02*
X12926429Y-17920674D01*
X12926429Y-17920674D02*
X12926429Y-17968293D01*
X12926429Y-17968293D02*
X12916905Y-18006389D01*
X12916905Y-18006389D02*
X12907382Y-18025436D01*
X12907382Y-18025436D02*
X12897858Y-18034960D01*
X12897858Y-18034960D02*
X12878810Y-18044484D01*
X12878810Y-18044484D02*
X12859762Y-18044484D01*
X12859762Y-18044484D02*
X12840715Y-18034960D01*
X12840715Y-18034960D02*
X12831191Y-18025436D01*
X12831191Y-18025436D02*
X12821667Y-18006389D01*
X12821667Y-18006389D02*
X12812143Y-17968293D01*
X12812143Y-17968293D02*
X12812143Y-17920674D01*
X12812143Y-17920674D02*
X12821667Y-17882579D01*
X12821667Y-17882579D02*
X12831191Y-17863531D01*
X12831191Y-17863531D02*
X12840715Y-17854008D01*
X12840715Y-17854008D02*
X12859762Y-17844484D01*
X13050239Y-17844484D02*
X13069286Y-17844484D01*
X13069286Y-17844484D02*
X13088334Y-17854008D01*
X13088334Y-17854008D02*
X13097858Y-17863531D01*
X13097858Y-17863531D02*
X13107382Y-17882579D01*
X13107382Y-17882579D02*
X13116905Y-17920674D01*
X13116905Y-17920674D02*
X13116905Y-17968293D01*
X13116905Y-17968293D02*
X13107382Y-18006389D01*
X13107382Y-18006389D02*
X13097858Y-18025436D01*
X13097858Y-18025436D02*
X13088334Y-18034960D01*
X13088334Y-18034960D02*
X13069286Y-18044484D01*
X13069286Y-18044484D02*
X13050239Y-18044484D01*
X13050239Y-18044484D02*
X13031191Y-18034960D01*
X13031191Y-18034960D02*
X13021667Y-18025436D01*
X13021667Y-18025436D02*
X13012143Y-18006389D01*
X13012143Y-18006389D02*
X13002620Y-17968293D01*
X13002620Y-17968293D02*
X13002620Y-17920674D01*
X13002620Y-17920674D02*
X13012143Y-17882579D01*
X13012143Y-17882579D02*
X13021667Y-17863531D01*
X13021667Y-17863531D02*
X13031191Y-17854008D01*
X13031191Y-17854008D02*
X13050239Y-17844484D01*
X13202620Y-18044484D02*
X13202620Y-17911150D01*
X13202620Y-17930198D02*
X13212143Y-17920674D01*
X13212143Y-17920674D02*
X13231191Y-17911150D01*
X13231191Y-17911150D02*
X13259763Y-17911150D01*
X13259763Y-17911150D02*
X13278810Y-17920674D01*
X13278810Y-17920674D02*
X13288334Y-17939722D01*
X13288334Y-17939722D02*
X13288334Y-18044484D01*
X13288334Y-17939722D02*
X13297858Y-17920674D01*
X13297858Y-17920674D02*
X13316905Y-17911150D01*
X13316905Y-17911150D02*
X13345477Y-17911150D01*
X13345477Y-17911150D02*
X13364524Y-17920674D01*
X13364524Y-17920674D02*
X13374048Y-17939722D01*
X13374048Y-17939722D02*
X13374048Y-18044484D01*
X13469286Y-18044484D02*
X13469286Y-17911150D01*
X13469286Y-17930198D02*
X13478810Y-17920674D01*
X13478810Y-17920674D02*
X13497858Y-17911150D01*
X13497858Y-17911150D02*
X13526429Y-17911150D01*
X13526429Y-17911150D02*
X13545477Y-17920674D01*
X13545477Y-17920674D02*
X13555001Y-17939722D01*
X13555001Y-17939722D02*
X13555001Y-18044484D01*
X13555001Y-17939722D02*
X13564524Y-17920674D01*
X13564524Y-17920674D02*
X13583572Y-17911150D01*
X13583572Y-17911150D02*
X13612143Y-17911150D01*
X13612143Y-17911150D02*
X13631191Y-17920674D01*
X13631191Y-17920674D02*
X13640715Y-17939722D01*
X13640715Y-17939722D02*
X13640715Y-18044484D01*
X14031191Y-17834960D02*
X13859763Y-18092103D01*
X14288334Y-17844484D02*
X14307382Y-17844484D01*
X14307382Y-17844484D02*
X14326429Y-17854008D01*
X14326429Y-17854008D02*
X14335953Y-17863531D01*
X14335953Y-17863531D02*
X14345477Y-17882579D01*
X14345477Y-17882579D02*
X14355001Y-17920674D01*
X14355001Y-17920674D02*
X14355001Y-17968293D01*
X14355001Y-17968293D02*
X14345477Y-18006389D01*
X14345477Y-18006389D02*
X14335953Y-18025436D01*
X14335953Y-18025436D02*
X14326429Y-18034960D01*
X14326429Y-18034960D02*
X14307382Y-18044484D01*
X14307382Y-18044484D02*
X14288334Y-18044484D01*
X14288334Y-18044484D02*
X14269286Y-18034960D01*
X14269286Y-18034960D02*
X14259763Y-18025436D01*
X14259763Y-18025436D02*
X14250239Y-18006389D01*
X14250239Y-18006389D02*
X14240715Y-17968293D01*
X14240715Y-17968293D02*
X14240715Y-17920674D01*
X14240715Y-17920674D02*
X14250239Y-17882579D01*
X14250239Y-17882579D02*
X14259763Y-17863531D01*
X14259763Y-17863531D02*
X14269286Y-17854008D01*
X14269286Y-17854008D02*
X14288334Y-17844484D01*
X14440715Y-18025436D02*
X14450239Y-18034960D01*
X14450239Y-18034960D02*
X14440715Y-18044484D01*
X14440715Y-18044484D02*
X14431191Y-18034960D01*
X14431191Y-18034960D02*
X14440715Y-18025436D01*
X14440715Y-18025436D02*
X14440715Y-18044484D01*
X14640715Y-18044484D02*
X14526429Y-18044484D01*
X14583572Y-18044484D02*
X14583572Y-17844484D01*
X14583572Y-17844484D02*
X14564525Y-17873055D01*
X14564525Y-17873055D02*
X14545477Y-17892103D01*
X14545477Y-17892103D02*
X14526429Y-17901627D01*
X14821667Y-17844484D02*
X14726429Y-17844484D01*
X14726429Y-17844484D02*
X14716906Y-17939722D01*
X14716906Y-17939722D02*
X14726429Y-17930198D01*
X14726429Y-17930198D02*
X14745477Y-17920674D01*
X14745477Y-17920674D02*
X14793096Y-17920674D01*
X14793096Y-17920674D02*
X14812144Y-17930198D01*
X14812144Y-17930198D02*
X14821667Y-17939722D01*
X14821667Y-17939722D02*
X14831191Y-17958770D01*
X14831191Y-17958770D02*
X14831191Y-18006389D01*
X14831191Y-18006389D02*
X14821667Y-18025436D01*
X14821667Y-18025436D02*
X14812144Y-18034960D01*
X14812144Y-18034960D02*
X14793096Y-18044484D01*
X14793096Y-18044484D02*
X14745477Y-18044484D01*
X14745477Y-18044484D02*
X14726429Y-18034960D01*
X14726429Y-18034960D02*
X14716906Y-18025436D01*
X14897858Y-17844484D02*
X15031191Y-17844484D01*
X15031191Y-17844484D02*
X14945477Y-18044484D01*
X15202620Y-17844484D02*
X15107382Y-17844484D01*
X15107382Y-17844484D02*
X15097858Y-17939722D01*
X15097858Y-17939722D02*
X15107382Y-17930198D01*
X15107382Y-17930198D02*
X15126429Y-17920674D01*
X15126429Y-17920674D02*
X15174048Y-17920674D01*
X15174048Y-17920674D02*
X15193096Y-17930198D01*
X15193096Y-17930198D02*
X15202620Y-17939722D01*
X15202620Y-17939722D02*
X15212144Y-17958770D01*
X15212144Y-17958770D02*
X15212144Y-18006389D01*
X15212144Y-18006389D02*
X15202620Y-18025436D01*
X15202620Y-18025436D02*
X15193096Y-18034960D01*
X15193096Y-18034960D02*
X15174048Y-18044484D01*
X15174048Y-18044484D02*
X15126429Y-18044484D01*
X15126429Y-18044484D02*
X15107382Y-18034960D01*
X15107382Y-18034960D02*
X15097858Y-18025436D01*
X15288334Y-17844484D02*
X15288334Y-17882579D01*
X15364525Y-17844484D02*
X15364525Y-17882579D01*
X15659763Y-18120674D02*
X15650239Y-18111150D01*
X15650239Y-18111150D02*
X15631191Y-18082579D01*
X15631191Y-18082579D02*
X15621668Y-18063531D01*
X15621668Y-18063531D02*
X15612144Y-18034960D01*
X15612144Y-18034960D02*
X15602620Y-17987341D01*
X15602620Y-17987341D02*
X15602620Y-17949246D01*
X15602620Y-17949246D02*
X15612144Y-17901627D01*
X15612144Y-17901627D02*
X15621668Y-17873055D01*
X15621668Y-17873055D02*
X15631191Y-17854008D01*
X15631191Y-17854008D02*
X15650239Y-17825436D01*
X15650239Y-17825436D02*
X15659763Y-17815912D01*
X15840715Y-18044484D02*
X15726429Y-18044484D01*
X15783572Y-18044484D02*
X15783572Y-17844484D01*
X15783572Y-17844484D02*
X15764525Y-17873055D01*
X15764525Y-17873055D02*
X15745477Y-17892103D01*
X15745477Y-17892103D02*
X15726429Y-17901627D01*
X16078810Y-18044484D02*
X16078810Y-17844484D01*
X16164525Y-18044484D02*
X16164525Y-17939722D01*
X16164525Y-17939722D02*
X16155001Y-17920674D01*
X16155001Y-17920674D02*
X16135953Y-17911150D01*
X16135953Y-17911150D02*
X16107382Y-17911150D01*
X16107382Y-17911150D02*
X16088334Y-17920674D01*
X16088334Y-17920674D02*
X16078810Y-17930198D01*
X16288334Y-18044484D02*
X16269287Y-18034960D01*
X16269287Y-18034960D02*
X16259763Y-18025436D01*
X16259763Y-18025436D02*
X16250239Y-18006389D01*
X16250239Y-18006389D02*
X16250239Y-17949246D01*
X16250239Y-17949246D02*
X16259763Y-17930198D01*
X16259763Y-17930198D02*
X16269287Y-17920674D01*
X16269287Y-17920674D02*
X16288334Y-17911150D01*
X16288334Y-17911150D02*
X16316906Y-17911150D01*
X16316906Y-17911150D02*
X16335953Y-17920674D01*
X16335953Y-17920674D02*
X16345477Y-17930198D01*
X16345477Y-17930198D02*
X16355001Y-17949246D01*
X16355001Y-17949246D02*
X16355001Y-18006389D01*
X16355001Y-18006389D02*
X16345477Y-18025436D01*
X16345477Y-18025436D02*
X16335953Y-18034960D01*
X16335953Y-18034960D02*
X16316906Y-18044484D01*
X16316906Y-18044484D02*
X16288334Y-18044484D01*
X16469287Y-18044484D02*
X16450239Y-18034960D01*
X16450239Y-18034960D02*
X16440715Y-18015912D01*
X16440715Y-18015912D02*
X16440715Y-17844484D01*
X16621668Y-18034960D02*
X16602620Y-18044484D01*
X16602620Y-18044484D02*
X16564525Y-18044484D01*
X16564525Y-18044484D02*
X16545477Y-18034960D01*
X16545477Y-18034960D02*
X16535953Y-18015912D01*
X16535953Y-18015912D02*
X16535953Y-17939722D01*
X16535953Y-17939722D02*
X16545477Y-17920674D01*
X16545477Y-17920674D02*
X16564525Y-17911150D01*
X16564525Y-17911150D02*
X16602620Y-17911150D01*
X16602620Y-17911150D02*
X16621668Y-17920674D01*
X16621668Y-17920674D02*
X16631191Y-17939722D01*
X16631191Y-17939722D02*
X16631191Y-17958770D01*
X16631191Y-17958770D02*
X16535953Y-17977817D01*
X16697858Y-18120674D02*
X16707382Y-18111150D01*
X16707382Y-18111150D02*
X16726430Y-18082579D01*
X16726430Y-18082579D02*
X16735953Y-18063531D01*
X16735953Y-18063531D02*
X16745477Y-18034960D01*
X16745477Y-18034960D02*
X16755001Y-17987341D01*
X16755001Y-17987341D02*
X16755001Y-17949246D01*
X16755001Y-17949246D02*
X16745477Y-17901627D01*
X16745477Y-17901627D02*
X16735953Y-17873055D01*
X16735953Y-17873055D02*
X16726430Y-17854008D01*
X16726430Y-17854008D02*
X16707382Y-17825436D01*
X16707382Y-17825436D02*
X16697858Y-17815912D01*
X17059763Y-18120674D02*
X17050239Y-18111150D01*
X17050239Y-18111150D02*
X17031192Y-18082579D01*
X17031192Y-18082579D02*
X17021668Y-18063531D01*
X17021668Y-18063531D02*
X17012144Y-18034960D01*
X17012144Y-18034960D02*
X17002620Y-17987341D01*
X17002620Y-17987341D02*
X17002620Y-17949246D01*
X17002620Y-17949246D02*
X17012144Y-17901627D01*
X17012144Y-17901627D02*
X17021668Y-17873055D01*
X17021668Y-17873055D02*
X17031192Y-17854008D01*
X17031192Y-17854008D02*
X17050239Y-17825436D01*
X17050239Y-17825436D02*
X17059763Y-17815912D01*
X17135953Y-17911150D02*
X17135953Y-18044484D01*
X17135953Y-17930198D02*
X17145477Y-17920674D01*
X17145477Y-17920674D02*
X17164525Y-17911150D01*
X17164525Y-17911150D02*
X17193096Y-17911150D01*
X17193096Y-17911150D02*
X17212144Y-17920674D01*
X17212144Y-17920674D02*
X17221668Y-17939722D01*
X17221668Y-17939722D02*
X17221668Y-18044484D01*
X17345477Y-18044484D02*
X17326430Y-18034960D01*
X17326430Y-18034960D02*
X17316906Y-18025436D01*
X17316906Y-18025436D02*
X17307382Y-18006389D01*
X17307382Y-18006389D02*
X17307382Y-17949246D01*
X17307382Y-17949246D02*
X17316906Y-17930198D01*
X17316906Y-17930198D02*
X17326430Y-17920674D01*
X17326430Y-17920674D02*
X17345477Y-17911150D01*
X17345477Y-17911150D02*
X17374049Y-17911150D01*
X17374049Y-17911150D02*
X17393096Y-17920674D01*
X17393096Y-17920674D02*
X17402620Y-17930198D01*
X17402620Y-17930198D02*
X17412144Y-17949246D01*
X17412144Y-17949246D02*
X17412144Y-18006389D01*
X17412144Y-18006389D02*
X17402620Y-18025436D01*
X17402620Y-18025436D02*
X17393096Y-18034960D01*
X17393096Y-18034960D02*
X17374049Y-18044484D01*
X17374049Y-18044484D02*
X17345477Y-18044484D01*
X17469287Y-17911150D02*
X17545477Y-17911150D01*
X17497858Y-17844484D02*
X17497858Y-18015912D01*
X17497858Y-18015912D02*
X17507382Y-18034960D01*
X17507382Y-18034960D02*
X17526430Y-18044484D01*
X17526430Y-18044484D02*
X17545477Y-18044484D01*
X17764525Y-17911150D02*
X17764525Y-18111150D01*
X17764525Y-17920674D02*
X17783573Y-17911150D01*
X17783573Y-17911150D02*
X17821668Y-17911150D01*
X17821668Y-17911150D02*
X17840715Y-17920674D01*
X17840715Y-17920674D02*
X17850239Y-17930198D01*
X17850239Y-17930198D02*
X17859763Y-17949246D01*
X17859763Y-17949246D02*
X17859763Y-18006389D01*
X17859763Y-18006389D02*
X17850239Y-18025436D01*
X17850239Y-18025436D02*
X17840715Y-18034960D01*
X17840715Y-18034960D02*
X17821668Y-18044484D01*
X17821668Y-18044484D02*
X17783573Y-18044484D01*
X17783573Y-18044484D02*
X17764525Y-18034960D01*
X17974049Y-18044484D02*
X17955001Y-18034960D01*
X17955001Y-18034960D02*
X17945477Y-18015912D01*
X17945477Y-18015912D02*
X17945477Y-17844484D01*
X18135954Y-18044484D02*
X18135954Y-17939722D01*
X18135954Y-17939722D02*
X18126430Y-17920674D01*
X18126430Y-17920674D02*
X18107382Y-17911150D01*
X18107382Y-17911150D02*
X18069287Y-17911150D01*
X18069287Y-17911150D02*
X18050239Y-17920674D01*
X18135954Y-18034960D02*
X18116906Y-18044484D01*
X18116906Y-18044484D02*
X18069287Y-18044484D01*
X18069287Y-18044484D02*
X18050239Y-18034960D01*
X18050239Y-18034960D02*
X18040715Y-18015912D01*
X18040715Y-18015912D02*
X18040715Y-17996865D01*
X18040715Y-17996865D02*
X18050239Y-17977817D01*
X18050239Y-17977817D02*
X18069287Y-17968293D01*
X18069287Y-17968293D02*
X18116906Y-17968293D01*
X18116906Y-17968293D02*
X18135954Y-17958770D01*
X18202620Y-17911150D02*
X18278811Y-17911150D01*
X18231192Y-17844484D02*
X18231192Y-18015912D01*
X18231192Y-18015912D02*
X18240715Y-18034960D01*
X18240715Y-18034960D02*
X18259763Y-18044484D01*
X18259763Y-18044484D02*
X18278811Y-18044484D01*
X18421668Y-18034960D02*
X18402620Y-18044484D01*
X18402620Y-18044484D02*
X18364525Y-18044484D01*
X18364525Y-18044484D02*
X18345477Y-18034960D01*
X18345477Y-18034960D02*
X18335954Y-18015912D01*
X18335954Y-18015912D02*
X18335954Y-17939722D01*
X18335954Y-17939722D02*
X18345477Y-17920674D01*
X18345477Y-17920674D02*
X18364525Y-17911150D01*
X18364525Y-17911150D02*
X18402620Y-17911150D01*
X18402620Y-17911150D02*
X18421668Y-17920674D01*
X18421668Y-17920674D02*
X18431192Y-17939722D01*
X18431192Y-17939722D02*
X18431192Y-17958770D01*
X18431192Y-17958770D02*
X18335954Y-17977817D01*
X18602620Y-18044484D02*
X18602620Y-17844484D01*
X18602620Y-18034960D02*
X18583573Y-18044484D01*
X18583573Y-18044484D02*
X18545477Y-18044484D01*
X18545477Y-18044484D02*
X18526430Y-18034960D01*
X18526430Y-18034960D02*
X18516906Y-18025436D01*
X18516906Y-18025436D02*
X18507382Y-18006389D01*
X18507382Y-18006389D02*
X18507382Y-17949246D01*
X18507382Y-17949246D02*
X18516906Y-17930198D01*
X18516906Y-17930198D02*
X18526430Y-17920674D01*
X18526430Y-17920674D02*
X18545477Y-17911150D01*
X18545477Y-17911150D02*
X18583573Y-17911150D01*
X18583573Y-17911150D02*
X18602620Y-17920674D01*
X18678811Y-18120674D02*
X18688335Y-18111150D01*
X18688335Y-18111150D02*
X18707382Y-18082579D01*
X18707382Y-18082579D02*
X18716906Y-18063531D01*
X18716906Y-18063531D02*
X18726430Y-18034960D01*
X18726430Y-18034960D02*
X18735954Y-17987341D01*
X18735954Y-17987341D02*
X18735954Y-17949246D01*
X18735954Y-17949246D02*
X18726430Y-17901627D01*
X18726430Y-17901627D02*
X18716906Y-17873055D01*
X18716906Y-17873055D02*
X18707382Y-17854008D01*
X18707382Y-17854008D02*
X18688335Y-17825436D01*
X18688335Y-17825436D02*
X18678811Y-17815912D01*
M02*
