%TF.GenerationSoftware,KiCad,Pcbnew,8.0.7*%
%TF.CreationDate,2025-02-18T18:38:33-05:00*%
%TF.ProjectId,bing-bong-pcb-control,62696e67-2d62-46f6-9e67-2d7063622d63,rev?*%
%TF.SameCoordinates,Original*%
%TF.FileFunction,Legend,Top*%
%TF.FilePolarity,Positive*%
%FSLAX46Y46*%
G04 Gerber Fmt 4.6, Leading zero omitted, Abs format (unit mm)*
G04 Created by KiCad (PCBNEW 8.0.7) date 2025-02-18 18:38:33*
%MOMM*%
%LPD*%
G01*
G04 APERTURE LIST*
%ADD10C,0.200000*%
%ADD11C,0.150000*%
%ADD12C,0.120000*%
G04 APERTURE END LIST*
D10*
G36*
X158316288Y-128462901D02*
G01*
X158430350Y-128440431D01*
X158430350Y-128299747D01*
X157876896Y-128299747D01*
X157876896Y-128721799D01*
X158048842Y-128721799D01*
X158048842Y-128499538D01*
X158098943Y-128507552D01*
X158147788Y-128524049D01*
X158192725Y-128551669D01*
X158211508Y-128569147D01*
X158241132Y-128611412D01*
X158258413Y-128657772D01*
X158266806Y-128712014D01*
X158267684Y-128738651D01*
X158263597Y-128791511D01*
X158249944Y-128841566D01*
X158238619Y-128865413D01*
X158209374Y-128907194D01*
X158172929Y-128941495D01*
X158161194Y-128949921D01*
X158116588Y-128974812D01*
X158067401Y-128993065D01*
X158052506Y-128997060D01*
X158002727Y-129006548D01*
X157951819Y-129011200D01*
X157927942Y-129011715D01*
X157878517Y-129009654D01*
X157826292Y-129002770D01*
X157798738Y-128997060D01*
X157750193Y-128982093D01*
X157702962Y-128959573D01*
X157687363Y-128949921D01*
X157648240Y-128917758D01*
X157616785Y-128878114D01*
X157609205Y-128865413D01*
X157590229Y-128819395D01*
X157581299Y-128770262D01*
X157579896Y-128738651D01*
X157584889Y-128686403D01*
X157599868Y-128639811D01*
X157622150Y-128602364D01*
X157659634Y-128565235D01*
X157704494Y-128540312D01*
X157748668Y-128526404D01*
X157748668Y-128315378D01*
X157696972Y-128323479D01*
X157649044Y-128337398D01*
X157600676Y-128359432D01*
X157596505Y-128361785D01*
X157553313Y-128390236D01*
X157515086Y-128423536D01*
X157484642Y-128458016D01*
X157456006Y-128499822D01*
X157432566Y-128544976D01*
X157415765Y-128588930D01*
X157402416Y-128639350D01*
X157394607Y-128690867D01*
X157392318Y-128738651D01*
X157394293Y-128788072D01*
X157401387Y-128841806D01*
X157413641Y-128892608D01*
X157431055Y-128940480D01*
X157433595Y-128946258D01*
X157456187Y-128990511D01*
X157486275Y-129036027D01*
X157521308Y-129077022D01*
X157547412Y-129101840D01*
X157590186Y-129135086D01*
X157636902Y-129163656D01*
X157681736Y-129185126D01*
X157717405Y-129198805D01*
X157767154Y-129213551D01*
X157818949Y-129224084D01*
X157872789Y-129230404D01*
X157928675Y-129232510D01*
X157983294Y-129230404D01*
X158036020Y-129224084D01*
X158086853Y-129213551D01*
X158135793Y-129198805D01*
X158182245Y-129179998D01*
X158230817Y-129154461D01*
X158275487Y-129124288D01*
X158303099Y-129101596D01*
X158340664Y-129063733D01*
X158373398Y-129021311D01*
X158401303Y-128974329D01*
X158414718Y-128946258D01*
X158432456Y-128898661D01*
X158445127Y-128848194D01*
X158452729Y-128794858D01*
X158455223Y-128745834D01*
X158455263Y-128738651D01*
X158451626Y-128688588D01*
X158440717Y-128638814D01*
X158424488Y-128593815D01*
X158400698Y-128550176D01*
X158367797Y-128509017D01*
X158330396Y-128474095D01*
X158316288Y-128462901D01*
G37*
G36*
X157423581Y-128142454D02*
G01*
X158424000Y-128142454D01*
X158424000Y-127942664D01*
X157423581Y-127942664D01*
X157423581Y-128142454D01*
G37*
G36*
X158063557Y-127057554D02*
G01*
X158116108Y-127060702D01*
X158165414Y-127069098D01*
X158215905Y-127084394D01*
X158253868Y-127101166D01*
X158295913Y-127126545D01*
X158336316Y-127160354D01*
X158362527Y-127189592D01*
X158391825Y-127233624D01*
X158413009Y-127279056D01*
X158414646Y-127283422D01*
X158429232Y-127333530D01*
X158437031Y-127382388D01*
X158439631Y-127434394D01*
X158439605Y-127439751D01*
X158436485Y-127491481D01*
X158428166Y-127539872D01*
X158413009Y-127589244D01*
X158398140Y-127622461D01*
X158370457Y-127667707D01*
X158336316Y-127707458D01*
X158303043Y-127735970D01*
X158261869Y-127762320D01*
X158215905Y-127783418D01*
X158211477Y-127785055D01*
X158160629Y-127799641D01*
X158110998Y-127807440D01*
X158058124Y-127810040D01*
X158052675Y-127810014D01*
X157999943Y-127806894D01*
X157950408Y-127798575D01*
X157899610Y-127783418D01*
X157861311Y-127766547D01*
X157819067Y-127741152D01*
X157778710Y-127707458D01*
X157752342Y-127678160D01*
X157722776Y-127634288D01*
X157701285Y-127589244D01*
X157699587Y-127584923D01*
X157684467Y-127535183D01*
X157676381Y-127486458D01*
X157673685Y-127434394D01*
X157830001Y-127434394D01*
X157833306Y-127472732D01*
X157850029Y-127518903D01*
X157863538Y-127538680D01*
X157901320Y-127573124D01*
X157926290Y-127586680D01*
X157973860Y-127601945D01*
X158007441Y-127607322D01*
X158057391Y-127610249D01*
X158091558Y-127608879D01*
X158140189Y-127601945D01*
X158166943Y-127594683D01*
X158212729Y-127573124D01*
X158233365Y-127557461D01*
X158264265Y-127518903D01*
X158277939Y-127483425D01*
X158283316Y-127434394D01*
X158280171Y-127395818D01*
X158264265Y-127349154D01*
X158249470Y-127327151D01*
X158212729Y-127294443D01*
X158187416Y-127280773D01*
X158140189Y-127265623D01*
X158107083Y-127260088D01*
X158057391Y-127257074D01*
X158023103Y-127258485D01*
X157973860Y-127265623D01*
X157946775Y-127272775D01*
X157901320Y-127294443D01*
X157881044Y-127310054D01*
X157850029Y-127349154D01*
X157835653Y-127385035D01*
X157830001Y-127434394D01*
X157673685Y-127434394D01*
X157673712Y-127429052D01*
X157676947Y-127377360D01*
X157685572Y-127328817D01*
X157701285Y-127279056D01*
X157718469Y-127241524D01*
X157744352Y-127200059D01*
X157778710Y-127160354D01*
X157811926Y-127131737D01*
X157853257Y-127105381D01*
X157899610Y-127084394D01*
X157904068Y-127082742D01*
X157955217Y-127068023D01*
X158005072Y-127060151D01*
X158058124Y-127057528D01*
X158063557Y-127057554D01*
G37*
G36*
X158075148Y-126199983D02*
G01*
X158127733Y-126203525D01*
X158181085Y-126212446D01*
X158229094Y-126226614D01*
X158263746Y-126240948D01*
X158309656Y-126266284D01*
X158348284Y-126296223D01*
X158359512Y-126307076D01*
X158392918Y-126347708D01*
X158417161Y-126392454D01*
X158421176Y-126402497D01*
X158434694Y-126449700D01*
X158439631Y-126500898D01*
X158437544Y-126544647D01*
X158429327Y-126594550D01*
X158413253Y-126644513D01*
X158397637Y-126674204D01*
X158365568Y-126711470D01*
X158323127Y-126740012D01*
X158323127Y-126742699D01*
X158415939Y-126742699D01*
X158415939Y-126932720D01*
X157423581Y-126932720D01*
X157423581Y-126732929D01*
X157786281Y-126732929D01*
X157786281Y-126730242D01*
X157759048Y-126710306D01*
X157725526Y-126674334D01*
X157700796Y-126631080D01*
X157688935Y-126599405D01*
X157681962Y-126569775D01*
X157830001Y-126569775D01*
X157832194Y-126598504D01*
X157848563Y-126645979D01*
X157861300Y-126665031D01*
X157898389Y-126699224D01*
X157923393Y-126713432D01*
X157971173Y-126730242D01*
X158007872Y-126736921D01*
X158057391Y-126740012D01*
X158092510Y-126738400D01*
X158142387Y-126730242D01*
X158169472Y-126722059D01*
X158214928Y-126699224D01*
X158233356Y-126684998D01*
X158264997Y-126645979D01*
X158276160Y-126620035D01*
X158283316Y-126569775D01*
X158281151Y-126540437D01*
X158264997Y-126493083D01*
X158252132Y-126474287D01*
X158214928Y-126440326D01*
X158189958Y-126426152D01*
X158142387Y-126409551D01*
X158108447Y-126403068D01*
X158057391Y-126399538D01*
X158021363Y-126401190D01*
X157971173Y-126409551D01*
X157943950Y-126417596D01*
X157898389Y-126440326D01*
X157879985Y-126454504D01*
X157848563Y-126493083D01*
X157836545Y-126521057D01*
X157830001Y-126569775D01*
X157681962Y-126569775D01*
X157677498Y-126550804D01*
X157673685Y-126500898D01*
X157673883Y-126490607D01*
X157680795Y-126439538D01*
X157696156Y-126392454D01*
X157703768Y-126376001D01*
X157731364Y-126332725D01*
X157765277Y-126296223D01*
X157793447Y-126273337D01*
X157837440Y-126246850D01*
X157884223Y-126226614D01*
X157902785Y-126220317D01*
X157952931Y-126208248D01*
X158002631Y-126201872D01*
X158056658Y-126199747D01*
X158075148Y-126199983D01*
G37*
G36*
X158424000Y-125602329D02*
G01*
X158389561Y-125611610D01*
X158353658Y-125616495D01*
X158386504Y-125654769D01*
X158411039Y-125697782D01*
X158422778Y-125729091D01*
X158434685Y-125777898D01*
X158441096Y-125827597D01*
X158442318Y-125861226D01*
X158439143Y-125911540D01*
X158429617Y-125958435D01*
X158410924Y-126005438D01*
X158390294Y-126037081D01*
X158353482Y-126071940D01*
X158322639Y-126089838D01*
X158274958Y-126104703D01*
X158225674Y-126108889D01*
X158175599Y-126104728D01*
X158128674Y-126089783D01*
X158123581Y-126087151D01*
X158083618Y-126058480D01*
X158059589Y-126030731D01*
X158035385Y-125986391D01*
X158023685Y-125952085D01*
X158011844Y-125901921D01*
X158004879Y-125862692D01*
X157997838Y-125812400D01*
X157993644Y-125774032D01*
X157986622Y-125723294D01*
X157980943Y-125696607D01*
X157962053Y-125651026D01*
X157956274Y-125643117D01*
X157909136Y-125624799D01*
X158068138Y-125624799D01*
X158085723Y-125656551D01*
X158096226Y-125697339D01*
X158103309Y-125743013D01*
X158110392Y-125790884D01*
X158121627Y-125835337D01*
X158140434Y-125873194D01*
X158170720Y-125899328D01*
X158217126Y-125909098D01*
X158262311Y-125899328D01*
X158291131Y-125872461D01*
X158305786Y-125833138D01*
X158309938Y-125786732D01*
X158305645Y-125737223D01*
X158290399Y-125695385D01*
X158258048Y-125657522D01*
X158243260Y-125647514D01*
X158196576Y-125629830D01*
X158187817Y-125628463D01*
X158142632Y-125624799D01*
X158068138Y-125624799D01*
X157909136Y-125624799D01*
X157860249Y-125634245D01*
X157857845Y-125635546D01*
X157828291Y-125663634D01*
X157814125Y-125704422D01*
X157810706Y-125754248D01*
X157816287Y-125804133D01*
X157836107Y-125847304D01*
X157877950Y-125877428D01*
X157920371Y-125886628D01*
X157920371Y-126086418D01*
X157870980Y-126079411D01*
X157821866Y-126061860D01*
X157803623Y-126051247D01*
X157764142Y-126018464D01*
X157732711Y-125978275D01*
X157729129Y-125972357D01*
X157707470Y-125928225D01*
X157692076Y-125879606D01*
X157688829Y-125864890D01*
X157681080Y-125816149D01*
X157677281Y-125767167D01*
X157676861Y-125744478D01*
X157678578Y-125692690D01*
X157683280Y-125643870D01*
X157684676Y-125633348D01*
X157695224Y-125582654D01*
X157712211Y-125536361D01*
X157714963Y-125530521D01*
X157741829Y-125488329D01*
X157777489Y-125454562D01*
X157824078Y-125432397D01*
X157875563Y-125425124D01*
X157883734Y-125425009D01*
X158262311Y-125425009D01*
X158313369Y-125423423D01*
X158356588Y-125419391D01*
X158405896Y-125408442D01*
X158424000Y-125399852D01*
X158424000Y-125602329D01*
G37*
G36*
X157423581Y-125269182D02*
G01*
X158424000Y-125269182D01*
X158424000Y-125069391D01*
X157423581Y-125069391D01*
X157423581Y-125269182D01*
G37*
G36*
X158082060Y-124353759D02*
G01*
X158082060Y-124567716D01*
X158132296Y-124565642D01*
X158183491Y-124556541D01*
X158229821Y-124540283D01*
X158242771Y-124534011D01*
X158286485Y-124506916D01*
X158324599Y-124473991D01*
X158354390Y-124439000D01*
X158381874Y-124395725D01*
X158403873Y-124348178D01*
X158419115Y-124301247D01*
X158429934Y-124251922D01*
X158436746Y-124201642D01*
X158439551Y-124150408D01*
X158439631Y-124140047D01*
X158438150Y-124090191D01*
X158432945Y-124037825D01*
X158423991Y-123989401D01*
X158415939Y-123959307D01*
X158399143Y-123912939D01*
X158376424Y-123867665D01*
X158349261Y-123828393D01*
X158314972Y-123792501D01*
X158272786Y-123761912D01*
X158247900Y-123749014D01*
X158198462Y-123731619D01*
X158149965Y-123723433D01*
X158120406Y-123722147D01*
X158070722Y-123725654D01*
X158022958Y-123737610D01*
X157982408Y-123758051D01*
X157942139Y-123789440D01*
X157906796Y-123828202D01*
X157896191Y-123843292D01*
X157871347Y-123886435D01*
X157852198Y-123933075D01*
X157849296Y-123942454D01*
X157835669Y-123991630D01*
X157829024Y-124020368D01*
X157816236Y-124070559D01*
X157803614Y-124119665D01*
X157790671Y-124169336D01*
X157789701Y-124173020D01*
X157775275Y-124222218D01*
X157758926Y-124264611D01*
X157731047Y-124304777D01*
X157725465Y-124308819D01*
X157677593Y-124320054D01*
X157628628Y-124308620D01*
X157624593Y-124306132D01*
X157589666Y-124270228D01*
X157570618Y-124224934D01*
X157569882Y-124221624D01*
X157564287Y-124171464D01*
X157564265Y-124168135D01*
X157567315Y-124117335D01*
X157571348Y-124092908D01*
X157587468Y-124045647D01*
X157595284Y-124031847D01*
X157629368Y-123996427D01*
X157641690Y-123988861D01*
X157689598Y-123972930D01*
X157716184Y-123969810D01*
X157716184Y-123755853D01*
X157664215Y-123759097D01*
X157612890Y-123770158D01*
X157567684Y-123789070D01*
X157524797Y-123817097D01*
X157488091Y-123851718D01*
X157467056Y-123878463D01*
X157440472Y-123922896D01*
X157420070Y-123971932D01*
X157409903Y-124007179D01*
X157399891Y-124057662D01*
X157394035Y-124109703D01*
X157392318Y-124158365D01*
X157394894Y-124208958D01*
X157402622Y-124259619D01*
X157410636Y-124293431D01*
X157426973Y-124342032D01*
X157448875Y-124386717D01*
X157466568Y-124414332D01*
X157500273Y-124454446D01*
X157540266Y-124487869D01*
X157560845Y-124501038D01*
X157606194Y-124521131D01*
X157657245Y-124531950D01*
X157694446Y-124534011D01*
X157746706Y-124529738D01*
X157795593Y-124515579D01*
X157811194Y-124508121D01*
X157852814Y-124480078D01*
X157887458Y-124444952D01*
X157891550Y-124439733D01*
X157919145Y-124397705D01*
X157941482Y-124350847D01*
X157944062Y-124344234D01*
X157960585Y-124296870D01*
X157974677Y-124248384D01*
X157978256Y-124234325D01*
X157991206Y-124186567D01*
X158003939Y-124136124D01*
X158006344Y-124126125D01*
X158018988Y-124078448D01*
X158035653Y-124030382D01*
X158058390Y-123985974D01*
X158077419Y-123962238D01*
X158121531Y-123938171D01*
X158143120Y-123936104D01*
X158192350Y-123947232D01*
X158205402Y-123955888D01*
X158238320Y-123994250D01*
X158243993Y-124004981D01*
X158259792Y-124051646D01*
X158262799Y-124068240D01*
X158267450Y-124118370D01*
X158267684Y-124131498D01*
X158263982Y-124182382D01*
X158257182Y-124216006D01*
X158239665Y-124262890D01*
X158224942Y-124287081D01*
X158188483Y-124322847D01*
X158167789Y-124335441D01*
X158120599Y-124350736D01*
X158082060Y-124353759D01*
G37*
G36*
X158111369Y-122927625D02*
G01*
X158111369Y-123452259D01*
X158153562Y-123447634D01*
X158201407Y-123432949D01*
X158242771Y-123403166D01*
X158264152Y-123371109D01*
X158279356Y-123322566D01*
X158283316Y-123273718D01*
X158283052Y-123262511D01*
X158274837Y-123214185D01*
X158253274Y-123169670D01*
X158232187Y-123143596D01*
X158189526Y-123115937D01*
X158189526Y-122940082D01*
X158206019Y-122945539D01*
X158259042Y-122967405D01*
X158304748Y-122993571D01*
X158348025Y-123028742D01*
X158381745Y-123069531D01*
X158388755Y-123080573D01*
X158412271Y-123127605D01*
X158428551Y-123179217D01*
X158436861Y-123228133D01*
X158439631Y-123280556D01*
X158439604Y-123285913D01*
X158436399Y-123337643D01*
X158427850Y-123386034D01*
X158412276Y-123435406D01*
X158397041Y-123468532D01*
X158368808Y-123513297D01*
X158334118Y-123552154D01*
X158303996Y-123577363D01*
X158259025Y-123605624D01*
X158212974Y-123626160D01*
X158208563Y-123627753D01*
X158158225Y-123641937D01*
X158109558Y-123649521D01*
X158058124Y-123652050D01*
X158008106Y-123649450D01*
X157955677Y-123640584D01*
X157905960Y-123625427D01*
X157867900Y-123608557D01*
X157825475Y-123583162D01*
X157784327Y-123549468D01*
X157754265Y-123516795D01*
X157726154Y-123476613D01*
X157703239Y-123431987D01*
X157686413Y-123383239D01*
X157676572Y-123331027D01*
X157674006Y-123286174D01*
X157830001Y-123286174D01*
X157831935Y-123317181D01*
X157846365Y-123365797D01*
X157853899Y-123378986D01*
X157886909Y-123416355D01*
X157893000Y-123420943D01*
X157938200Y-123443222D01*
X157986316Y-123452259D01*
X157986316Y-123127172D01*
X157958853Y-123133248D01*
X157911707Y-123149987D01*
X157869812Y-123177242D01*
X157856283Y-123192011D01*
X157835599Y-123236623D01*
X157830001Y-123286174D01*
X157674006Y-123286174D01*
X157673685Y-123280556D01*
X157674005Y-123263364D01*
X157678803Y-123214313D01*
X157690886Y-123164253D01*
X157710078Y-123118868D01*
X157735256Y-123078229D01*
X157768571Y-123039091D01*
X157807775Y-123005783D01*
X157851942Y-122978166D01*
X157900150Y-122956437D01*
X157947482Y-122941792D01*
X157957310Y-122939418D01*
X158007279Y-122930526D01*
X158058632Y-122926595D01*
X158111369Y-122927625D01*
G37*
G36*
X158674104Y-122304562D02*
G01*
X158324593Y-122304562D01*
X158324593Y-122307249D01*
X158353398Y-122326605D01*
X158388306Y-122362280D01*
X158413253Y-122405923D01*
X158424793Y-122437812D01*
X158435922Y-122486618D01*
X158439631Y-122536593D01*
X158439557Y-122542956D01*
X158434254Y-122591535D01*
X158420580Y-122641617D01*
X158414012Y-122658270D01*
X158389088Y-122702616D01*
X158357321Y-122740780D01*
X158330095Y-122764842D01*
X158286881Y-122793138D01*
X158240329Y-122815274D01*
X158216855Y-122823788D01*
X158165078Y-122836486D01*
X158112971Y-122842980D01*
X158062276Y-122844827D01*
X158016123Y-122842919D01*
X157966291Y-122836412D01*
X157917440Y-122825288D01*
X157883170Y-122814083D01*
X157835599Y-122792353D01*
X157792632Y-122764715D01*
X157766895Y-122743039D01*
X157733441Y-122705716D01*
X157706170Y-122662622D01*
X157687675Y-122617906D01*
X157676858Y-122568053D01*
X157673685Y-122518274D01*
X157674983Y-122489144D01*
X157678651Y-122467716D01*
X157830001Y-122467716D01*
X157832714Y-122502521D01*
X157849296Y-122550759D01*
X157863952Y-122572459D01*
X157900587Y-122605713D01*
X157925901Y-122619818D01*
X157973127Y-122636000D01*
X158006476Y-122641851D01*
X158057391Y-122645036D01*
X158091558Y-122643666D01*
X158140189Y-122636732D01*
X158166943Y-122629470D01*
X158212729Y-122607912D01*
X158233365Y-122592335D01*
X158264265Y-122554422D01*
X158277288Y-122522272D01*
X158283316Y-122471868D01*
X158280740Y-122437316D01*
X158264997Y-122389803D01*
X158252203Y-122370306D01*
X158215660Y-122336314D01*
X158191091Y-122322541D01*
X158144341Y-122306760D01*
X158110875Y-122300751D01*
X158060078Y-122297479D01*
X158026739Y-122299011D01*
X157978012Y-122306760D01*
X157950644Y-122314243D01*
X157904006Y-122335581D01*
X157882810Y-122350630D01*
X157850517Y-122388337D01*
X157837234Y-122417345D01*
X157830001Y-122467716D01*
X157678651Y-122467716D01*
X157683243Y-122440893D01*
X157700796Y-122391024D01*
X157714364Y-122366095D01*
X157748615Y-122326433D01*
X157790678Y-122297479D01*
X157790678Y-122294548D01*
X157697866Y-122294548D01*
X157697866Y-122104771D01*
X158674104Y-122104771D01*
X158674104Y-122304562D01*
G37*
G36*
X158421313Y-121276544D02*
G01*
X157689317Y-121276544D01*
X157689317Y-121476334D01*
X158073511Y-121476334D01*
X158125611Y-121478624D01*
X158174772Y-121486674D01*
X158221266Y-121504384D01*
X158234467Y-121512971D01*
X158267860Y-121553630D01*
X158281598Y-121602173D01*
X158283316Y-121631184D01*
X158275939Y-121682313D01*
X158249095Y-121723375D01*
X158238619Y-121731080D01*
X158190721Y-121750280D01*
X158140755Y-121757824D01*
X158103309Y-121759168D01*
X157689317Y-121759168D01*
X157689317Y-121958958D01*
X158139457Y-121958958D01*
X158188698Y-121957275D01*
X158238245Y-121951654D01*
X158263288Y-121946990D01*
X158312021Y-121931907D01*
X158355839Y-121907299D01*
X158358298Y-121905469D01*
X158392736Y-121870481D01*
X158417037Y-121827809D01*
X158418382Y-121824625D01*
X158432908Y-121774182D01*
X158438884Y-121722090D01*
X158439631Y-121692978D01*
X158434995Y-121642064D01*
X158421089Y-121592117D01*
X158411543Y-121569391D01*
X158385382Y-121527122D01*
X158349399Y-121491172D01*
X158319952Y-121470717D01*
X158319952Y-121466565D01*
X158421313Y-121466565D01*
X158421313Y-121276544D01*
G37*
G36*
X158111369Y-120440256D02*
G01*
X158111369Y-120964890D01*
X158153562Y-120960265D01*
X158201407Y-120945580D01*
X158242771Y-120915797D01*
X158264152Y-120883740D01*
X158279356Y-120835197D01*
X158283316Y-120786348D01*
X158283052Y-120775141D01*
X158274837Y-120726816D01*
X158253274Y-120682301D01*
X158232187Y-120656227D01*
X158189526Y-120628568D01*
X158189526Y-120452713D01*
X158206019Y-120458170D01*
X158259042Y-120480035D01*
X158304748Y-120506202D01*
X158348025Y-120541373D01*
X158381745Y-120582161D01*
X158388755Y-120593204D01*
X158412271Y-120640236D01*
X158428551Y-120691847D01*
X158436861Y-120740764D01*
X158439631Y-120793187D01*
X158439604Y-120798544D01*
X158436399Y-120850274D01*
X158427850Y-120898664D01*
X158412276Y-120948037D01*
X158397041Y-120981163D01*
X158368808Y-121025928D01*
X158334118Y-121064785D01*
X158303996Y-121089994D01*
X158259025Y-121118255D01*
X158212974Y-121138791D01*
X158208563Y-121140384D01*
X158158225Y-121154567D01*
X158109558Y-121162152D01*
X158058124Y-121164681D01*
X158008106Y-121162081D01*
X157955677Y-121153215D01*
X157905960Y-121138058D01*
X157867900Y-121121187D01*
X157825475Y-121095793D01*
X157784327Y-121062099D01*
X157754265Y-121029426D01*
X157726154Y-120989244D01*
X157703239Y-120944618D01*
X157686413Y-120895869D01*
X157676572Y-120843658D01*
X157674006Y-120798805D01*
X157830001Y-120798805D01*
X157831935Y-120829812D01*
X157846365Y-120878428D01*
X157853899Y-120891616D01*
X157886909Y-120928986D01*
X157893000Y-120933573D01*
X157938200Y-120955853D01*
X157986316Y-120964890D01*
X157986316Y-120639803D01*
X157958853Y-120645879D01*
X157911707Y-120662617D01*
X157869812Y-120689872D01*
X157856283Y-120704642D01*
X157835599Y-120749254D01*
X157830001Y-120798805D01*
X157674006Y-120798805D01*
X157673685Y-120793187D01*
X157674005Y-120775995D01*
X157678803Y-120726944D01*
X157690886Y-120676884D01*
X157710078Y-120631498D01*
X157735256Y-120590860D01*
X157768571Y-120551722D01*
X157807775Y-120518414D01*
X157851942Y-120490797D01*
X157900150Y-120469067D01*
X157947482Y-120454422D01*
X157957310Y-120452049D01*
X158007279Y-120443157D01*
X158058632Y-120439226D01*
X158111369Y-120440256D01*
G37*
G36*
X157692248Y-120326439D02*
G01*
X158424000Y-120326439D01*
X158424000Y-120126648D01*
X158039806Y-120126648D01*
X157987705Y-120124359D01*
X157938545Y-120116309D01*
X157892050Y-120098599D01*
X157878849Y-120090012D01*
X157845457Y-120049353D01*
X157831718Y-120000810D01*
X157830001Y-119971799D01*
X157837378Y-119920670D01*
X157864222Y-119879608D01*
X157874697Y-119871903D01*
X157922596Y-119852702D01*
X157972561Y-119845159D01*
X158010008Y-119843815D01*
X158424000Y-119843815D01*
X158424000Y-119644025D01*
X157974593Y-119644025D01*
X157925534Y-119645708D01*
X157876186Y-119651329D01*
X157851250Y-119655993D01*
X157802571Y-119671076D01*
X157758928Y-119695684D01*
X157756484Y-119697514D01*
X157721740Y-119732502D01*
X157697043Y-119775174D01*
X157695667Y-119778358D01*
X157680641Y-119828801D01*
X157674458Y-119880893D01*
X157673685Y-119910005D01*
X157678402Y-119960960D01*
X157692550Y-120011027D01*
X157702262Y-120033836D01*
X157728503Y-120075957D01*
X157764361Y-120111826D01*
X157793609Y-120132266D01*
X157793609Y-120136418D01*
X157692248Y-120136418D01*
X157692248Y-120326439D01*
G37*
G36*
X157955053Y-119001666D02*
G01*
X157955053Y-118806272D01*
X157903945Y-118812958D01*
X157854780Y-118828263D01*
X157830978Y-118839977D01*
X157788349Y-118869202D01*
X157752358Y-118905159D01*
X157743295Y-118916669D01*
X157715980Y-118960347D01*
X157695583Y-119008886D01*
X157691027Y-119023648D01*
X157679799Y-119073033D01*
X157674295Y-119123951D01*
X157673685Y-119147967D01*
X157676572Y-119201472D01*
X157685230Y-119251160D01*
X157701421Y-119301409D01*
X157703239Y-119305748D01*
X157726299Y-119350619D01*
X157754842Y-119390525D01*
X157785549Y-119422496D01*
X157824156Y-119452527D01*
X157867440Y-119477132D01*
X157910845Y-119494792D01*
X157962131Y-119508837D01*
X158011208Y-119516546D01*
X158062623Y-119519437D01*
X158067893Y-119519461D01*
X158117591Y-119516861D01*
X158169283Y-119507995D01*
X158217859Y-119492838D01*
X158262624Y-119471885D01*
X158306325Y-119443366D01*
X158335584Y-119418100D01*
X158369381Y-119379346D01*
X158397133Y-119334890D01*
X158412276Y-119302085D01*
X158427850Y-119253648D01*
X158436960Y-119202038D01*
X158439631Y-119152364D01*
X158436840Y-119099796D01*
X158428468Y-119050904D01*
X158411647Y-118998507D01*
X158387229Y-118951113D01*
X158360252Y-118914471D01*
X158322296Y-118877372D01*
X158278100Y-118847285D01*
X158227662Y-118824211D01*
X158179462Y-118810014D01*
X158135793Y-118802120D01*
X158135793Y-118994827D01*
X158186050Y-119007562D01*
X158230074Y-119032005D01*
X158243260Y-119043431D01*
X158272011Y-119086909D01*
X158282690Y-119136396D01*
X158283316Y-119153829D01*
X158276083Y-119204029D01*
X158262799Y-119232720D01*
X158229048Y-119270816D01*
X158210043Y-119284011D01*
X158164572Y-119304277D01*
X158138235Y-119311366D01*
X158089043Y-119318502D01*
X158060078Y-119319670D01*
X158010122Y-119316426D01*
X157979966Y-119311366D01*
X157932262Y-119296101D01*
X157906205Y-119282545D01*
X157867331Y-119250568D01*
X157851250Y-119229789D01*
X157832989Y-119183173D01*
X157830001Y-119149433D01*
X157835985Y-119098618D01*
X157857478Y-119053223D01*
X157894603Y-119021353D01*
X157947360Y-119003008D01*
X157955053Y-119001666D01*
G37*
G36*
X158111369Y-118004667D02*
G01*
X158111369Y-118529300D01*
X158153562Y-118524675D01*
X158201407Y-118509990D01*
X158242771Y-118480207D01*
X158264152Y-118448151D01*
X158279356Y-118399607D01*
X158283316Y-118350759D01*
X158283052Y-118339552D01*
X158274837Y-118291226D01*
X158253274Y-118246711D01*
X158232187Y-118220637D01*
X158189526Y-118192978D01*
X158189526Y-118017123D01*
X158206019Y-118022580D01*
X158259042Y-118044446D01*
X158304748Y-118070612D01*
X158348025Y-118105783D01*
X158381745Y-118146572D01*
X158388755Y-118157614D01*
X158412271Y-118204646D01*
X158428551Y-118256258D01*
X158436861Y-118305175D01*
X158439631Y-118357598D01*
X158439604Y-118362954D01*
X158436399Y-118414684D01*
X158427850Y-118463075D01*
X158412276Y-118512448D01*
X158397041Y-118545573D01*
X158368808Y-118590338D01*
X158334118Y-118629196D01*
X158303996Y-118654404D01*
X158259025Y-118682665D01*
X158212974Y-118703201D01*
X158208563Y-118704794D01*
X158158225Y-118718978D01*
X158109558Y-118726563D01*
X158058124Y-118729091D01*
X158008106Y-118726491D01*
X157955677Y-118717626D01*
X157905960Y-118702468D01*
X157867900Y-118685598D01*
X157825475Y-118660203D01*
X157784327Y-118626509D01*
X157754265Y-118593837D01*
X157726154Y-118553655D01*
X157703239Y-118509028D01*
X157686413Y-118460280D01*
X157676572Y-118408068D01*
X157674006Y-118363215D01*
X157830001Y-118363215D01*
X157831935Y-118394222D01*
X157846365Y-118442838D01*
X157853899Y-118456027D01*
X157886909Y-118493397D01*
X157893000Y-118497984D01*
X157938200Y-118520263D01*
X157986316Y-118529300D01*
X157986316Y-118204213D01*
X157958853Y-118210290D01*
X157911707Y-118227028D01*
X157869812Y-118254283D01*
X157856283Y-118269052D01*
X157835599Y-118313664D01*
X157830001Y-118363215D01*
X157674006Y-118363215D01*
X157673685Y-118357598D01*
X157674005Y-118340406D01*
X157678803Y-118291354D01*
X157690886Y-118241294D01*
X157710078Y-118195909D01*
X157735256Y-118155270D01*
X157768571Y-118116132D01*
X157807775Y-118082824D01*
X157851942Y-118055207D01*
X157900150Y-118033478D01*
X157947482Y-118018833D01*
X157957310Y-118016459D01*
X158007279Y-118007567D01*
X158058632Y-118003636D01*
X158111369Y-118004667D01*
G37*
G36*
X157821941Y-117525951D02*
G01*
X157821941Y-117334709D01*
X157772501Y-117331751D01*
X157742562Y-117327137D01*
X157695259Y-117313265D01*
X157669533Y-117301003D01*
X157629978Y-117270159D01*
X157616044Y-117252399D01*
X157597952Y-117206863D01*
X157595528Y-117178393D01*
X157602139Y-117129634D01*
X157624044Y-117085689D01*
X157635584Y-117072147D01*
X157676449Y-117043764D01*
X157725196Y-117031640D01*
X157746714Y-117030626D01*
X157796433Y-117037859D01*
X157826581Y-117051143D01*
X157867568Y-117080394D01*
X157889596Y-117101701D01*
X157921025Y-117139904D01*
X157940643Y-117168623D01*
X157967734Y-117210579D01*
X157986072Y-117237500D01*
X158015649Y-117280269D01*
X158044937Y-117321595D01*
X158071313Y-117357912D01*
X158103919Y-117398532D01*
X158138724Y-117435031D01*
X158163148Y-117457074D01*
X158205650Y-117488345D01*
X158248818Y-117512130D01*
X158275744Y-117523752D01*
X158326016Y-117538785D01*
X158377711Y-117546470D01*
X158424000Y-117548421D01*
X158424000Y-116825218D01*
X158252053Y-116825218D01*
X158252053Y-117290989D01*
X158213228Y-117259368D01*
X158178515Y-117224038D01*
X158163881Y-117206481D01*
X158133968Y-117167142D01*
X158105748Y-117126916D01*
X158093295Y-117108051D01*
X158066424Y-117067093D01*
X158039391Y-117026378D01*
X158026861Y-117007667D01*
X157995919Y-116965913D01*
X157962079Y-116928273D01*
X157951878Y-116918274D01*
X157913470Y-116886645D01*
X157870480Y-116861000D01*
X157857356Y-116854771D01*
X157810668Y-116839274D01*
X157761490Y-116831981D01*
X157730106Y-116830836D01*
X157678574Y-116834717D01*
X157630958Y-116846360D01*
X157601390Y-116858435D01*
X157557778Y-116883805D01*
X157520212Y-116915464D01*
X157504914Y-116932196D01*
X157475987Y-116972360D01*
X157453107Y-117017442D01*
X157444586Y-117039907D01*
X157430986Y-117090608D01*
X157424586Y-117139340D01*
X157423581Y-117168623D01*
X157426538Y-117222032D01*
X157435411Y-117271434D01*
X157452004Y-117321148D01*
X157453867Y-117325427D01*
X157477517Y-117369563D01*
X157509768Y-117411523D01*
X157538375Y-117438756D01*
X157581617Y-117469302D01*
X157625782Y-117491750D01*
X157665137Y-117506167D01*
X157716394Y-117518643D01*
X157765395Y-117524825D01*
X157816686Y-117526094D01*
X157821941Y-117525951D01*
G37*
G36*
X157956668Y-116047999D02*
G01*
X158008603Y-116050363D01*
X158064831Y-116055683D01*
X158116360Y-116063760D01*
X158169498Y-116076369D01*
X158193843Y-116083907D01*
X158244012Y-116103293D01*
X158287806Y-116126041D01*
X158328989Y-116155260D01*
X158359826Y-116184523D01*
X158390221Y-116223648D01*
X158414230Y-116270542D01*
X158426509Y-116308077D01*
X158436630Y-116360347D01*
X158439631Y-116410494D01*
X158438043Y-116446642D01*
X158429709Y-116499032D01*
X158414230Y-116549224D01*
X158394886Y-116588560D01*
X158365949Y-116628194D01*
X158328989Y-116664018D01*
X158309382Y-116678864D01*
X158264263Y-116705588D01*
X158216927Y-116726254D01*
X158169498Y-116741931D01*
X158130220Y-116751726D01*
X158080033Y-116760591D01*
X158025147Y-116766699D01*
X157974363Y-116769739D01*
X157920127Y-116770752D01*
X157884696Y-116770301D01*
X157834241Y-116767937D01*
X157779457Y-116762618D01*
X157729068Y-116754540D01*
X157676861Y-116741931D01*
X157652803Y-116734409D01*
X157603137Y-116715169D01*
X157559655Y-116692721D01*
X157518591Y-116664018D01*
X157487774Y-116634990D01*
X157457454Y-116596049D01*
X157433595Y-116549224D01*
X157421198Y-116511786D01*
X157410980Y-116459945D01*
X157407949Y-116410494D01*
X157579896Y-116410494D01*
X157581365Y-116432394D01*
X157598459Y-116478882D01*
X157608442Y-116491949D01*
X157646819Y-116523822D01*
X157668257Y-116535018D01*
X157714474Y-116551422D01*
X157740449Y-116557475D01*
X157790678Y-116565344D01*
X157814453Y-116567605D01*
X157865416Y-116570228D01*
X157876526Y-116570439D01*
X157927454Y-116570961D01*
X157930128Y-116570958D01*
X157980983Y-116570111D01*
X158030524Y-116568274D01*
X158045602Y-116567359D01*
X158097354Y-116561268D01*
X158147517Y-116550689D01*
X158151012Y-116549741D01*
X158199601Y-116531455D01*
X158243504Y-116503550D01*
X158245953Y-116501492D01*
X158274568Y-116461108D01*
X158283316Y-116410494D01*
X158283277Y-116406660D01*
X158273363Y-116355905D01*
X158243504Y-116315727D01*
X158238464Y-116311648D01*
X158196586Y-116285673D01*
X158147517Y-116267856D01*
X158133347Y-116264322D01*
X158082730Y-116254959D01*
X158030524Y-116250270D01*
X158026756Y-116250090D01*
X157977709Y-116248167D01*
X157927454Y-116247339D01*
X157915720Y-116247374D01*
X157865416Y-116248072D01*
X157840166Y-116249066D01*
X157790678Y-116253690D01*
X157764262Y-116257567D01*
X157714474Y-116267856D01*
X157691600Y-116274410D01*
X157646819Y-116295211D01*
X157632622Y-116304981D01*
X157598459Y-116341617D01*
X157588670Y-116360412D01*
X157579896Y-116410494D01*
X157407949Y-116410494D01*
X157409978Y-116369305D01*
X157417967Y-116320906D01*
X157433595Y-116270542D01*
X157452810Y-116231158D01*
X157481660Y-116191362D01*
X157518591Y-116155260D01*
X157538169Y-116140132D01*
X157583048Y-116112988D01*
X157629966Y-116092108D01*
X157676861Y-116076369D01*
X157715478Y-116066575D01*
X157764612Y-116057709D01*
X157818140Y-116051602D01*
X157867519Y-116048562D01*
X157920127Y-116047549D01*
X157956668Y-116047999D01*
G37*
G36*
X157821941Y-115970612D02*
G01*
X157821941Y-115779370D01*
X157772501Y-115776412D01*
X157742562Y-115771799D01*
X157695259Y-115757926D01*
X157669533Y-115745665D01*
X157629978Y-115714820D01*
X157616044Y-115697060D01*
X157597952Y-115651524D01*
X157595528Y-115623055D01*
X157602139Y-115574296D01*
X157624044Y-115530351D01*
X157635584Y-115516809D01*
X157676449Y-115488425D01*
X157725196Y-115476301D01*
X157746714Y-115475288D01*
X157796433Y-115482521D01*
X157826581Y-115495804D01*
X157867568Y-115525056D01*
X157889596Y-115546362D01*
X157921025Y-115584566D01*
X157940643Y-115613285D01*
X157967734Y-115655241D01*
X157986072Y-115682161D01*
X158015649Y-115724930D01*
X158044937Y-115766256D01*
X158071313Y-115802573D01*
X158103919Y-115843194D01*
X158138724Y-115879693D01*
X158163148Y-115901736D01*
X158205650Y-115933007D01*
X158248818Y-115956792D01*
X158275744Y-115968414D01*
X158326016Y-115983446D01*
X158377711Y-115991131D01*
X158424000Y-115993083D01*
X158424000Y-115269879D01*
X158252053Y-115269879D01*
X158252053Y-115735651D01*
X158213228Y-115704029D01*
X158178515Y-115668699D01*
X158163881Y-115651143D01*
X158133968Y-115611803D01*
X158105748Y-115571578D01*
X158093295Y-115552713D01*
X158066424Y-115511755D01*
X158039391Y-115471039D01*
X158026861Y-115452329D01*
X157995919Y-115410575D01*
X157962079Y-115372935D01*
X157951878Y-115362936D01*
X157913470Y-115331307D01*
X157870480Y-115305661D01*
X157857356Y-115299433D01*
X157810668Y-115283935D01*
X157761490Y-115276642D01*
X157730106Y-115275497D01*
X157678574Y-115279378D01*
X157630958Y-115291022D01*
X157601390Y-115303096D01*
X157557778Y-115328467D01*
X157520212Y-115360125D01*
X157504914Y-115376858D01*
X157475987Y-115417022D01*
X157453107Y-115462103D01*
X157444586Y-115484569D01*
X157430986Y-115535269D01*
X157424586Y-115584001D01*
X157423581Y-115613285D01*
X157426538Y-115666694D01*
X157435411Y-115716096D01*
X157452004Y-115765810D01*
X157453867Y-115770089D01*
X157477517Y-115814225D01*
X157509768Y-115856185D01*
X157538375Y-115883418D01*
X157581617Y-115913963D01*
X157625782Y-115936412D01*
X157665137Y-115950829D01*
X157716394Y-115963304D01*
X157765395Y-115969487D01*
X157816686Y-115970756D01*
X157821941Y-115970612D01*
G37*
G36*
X158205158Y-114616041D02*
G01*
X158424000Y-114616041D01*
X158424000Y-114806062D01*
X158205158Y-114806062D01*
X158205158Y-115222496D01*
X158020022Y-115222496D01*
X157460109Y-114810214D01*
X157691271Y-114810214D01*
X158033211Y-115064960D01*
X158033211Y-114806062D01*
X157691271Y-114806062D01*
X157691271Y-114810214D01*
X157460109Y-114810214D01*
X157439212Y-114794827D01*
X157439212Y-114616041D01*
X158033211Y-114616041D01*
X158033211Y-114485371D01*
X158205158Y-114485371D01*
X158205158Y-114616041D01*
G37*
G36*
X159847735Y-128349033D02*
G01*
X159897978Y-128358037D01*
X159945974Y-128377172D01*
X159965878Y-128388976D01*
X160004172Y-128419499D01*
X160035856Y-128456795D01*
X160048235Y-128475978D01*
X160070756Y-128520957D01*
X160087391Y-128570612D01*
X160094657Y-128602837D01*
X160101664Y-128652033D01*
X160104000Y-128702259D01*
X160104000Y-129189035D01*
X159103581Y-129189035D01*
X159103581Y-128761122D01*
X159275528Y-128761122D01*
X159275528Y-128967995D01*
X159510001Y-128967995D01*
X159510001Y-128744269D01*
X159507951Y-128727416D01*
X159666316Y-128727416D01*
X159666316Y-128967995D01*
X159932053Y-128967995D01*
X159932053Y-128731568D01*
X159931838Y-128719573D01*
X159925946Y-128669775D01*
X159924731Y-128664296D01*
X159905674Y-128617751D01*
X159903835Y-128614949D01*
X159867084Y-128581847D01*
X159854017Y-128575970D01*
X159804558Y-128568414D01*
X159786602Y-128569097D01*
X159737471Y-128580753D01*
X159698312Y-128612133D01*
X159687439Y-128629433D01*
X159670816Y-128677545D01*
X159666316Y-128727416D01*
X159507951Y-128727416D01*
X159503829Y-128693525D01*
X159481913Y-128647304D01*
X159480123Y-128644960D01*
X159439186Y-128616496D01*
X159390566Y-128609203D01*
X159382029Y-128609401D01*
X159333169Y-128621903D01*
X159297998Y-128655853D01*
X159297212Y-128657172D01*
X159280413Y-128704213D01*
X159279268Y-128711086D01*
X159275528Y-128761122D01*
X159103581Y-128761122D01*
X159103581Y-128716181D01*
X159104189Y-128685468D01*
X159108058Y-128635591D01*
X159116281Y-128585511D01*
X159118807Y-128574577D01*
X159134394Y-128527466D01*
X159158047Y-128484150D01*
X159191691Y-128446659D01*
X159234983Y-128418693D01*
X159253734Y-128410808D01*
X159303696Y-128398753D01*
X159353441Y-128395490D01*
X159385660Y-128397138D01*
X159435182Y-128407631D01*
X159480692Y-128429928D01*
X159507819Y-128451927D01*
X159539481Y-128489434D01*
X159563979Y-128532022D01*
X159569274Y-128515034D01*
X159589361Y-128469042D01*
X159619066Y-128426685D01*
X159656547Y-128393536D01*
X159669193Y-128385330D01*
X159714760Y-128363806D01*
X159765574Y-128351251D01*
X159815793Y-128347618D01*
X159847735Y-128349033D01*
G37*
G36*
X159259896Y-128019845D02*
G01*
X159087949Y-128019845D01*
X159087949Y-128219635D01*
X159259896Y-128219635D01*
X159259896Y-128019845D01*
G37*
G36*
X159376644Y-128219635D02*
G01*
X160104000Y-128219635D01*
X160104000Y-128019845D01*
X159376644Y-128019845D01*
X159376644Y-128219635D01*
G37*
G36*
X159372248Y-127864750D02*
G01*
X160104000Y-127864750D01*
X160104000Y-127664960D01*
X159719806Y-127664960D01*
X159667705Y-127662670D01*
X159618545Y-127654620D01*
X159572050Y-127636910D01*
X159558849Y-127628323D01*
X159525457Y-127587664D01*
X159511718Y-127539121D01*
X159510001Y-127510110D01*
X159517378Y-127458982D01*
X159544222Y-127417920D01*
X159554697Y-127410214D01*
X159602596Y-127391014D01*
X159652561Y-127383471D01*
X159690008Y-127382127D01*
X160104000Y-127382127D01*
X160104000Y-127182336D01*
X159654593Y-127182336D01*
X159605534Y-127184019D01*
X159556186Y-127189640D01*
X159531250Y-127194304D01*
X159482571Y-127209388D01*
X159438928Y-127233995D01*
X159436484Y-127235825D01*
X159401740Y-127270813D01*
X159377043Y-127313485D01*
X159375667Y-127316669D01*
X159360641Y-127367112D01*
X159354458Y-127419205D01*
X159353685Y-127448316D01*
X159358402Y-127499271D01*
X159372550Y-127549338D01*
X159382262Y-127572147D01*
X159408503Y-127614268D01*
X159444361Y-127650137D01*
X159473609Y-127670577D01*
X159473609Y-127674729D01*
X159372248Y-127674729D01*
X159372248Y-127864750D01*
G37*
G36*
X160112774Y-126339412D02*
G01*
X160163106Y-126348002D01*
X160180623Y-126352416D01*
X160227640Y-126371944D01*
X160268619Y-126399538D01*
X160294918Y-126424439D01*
X160326317Y-126466296D01*
X160351418Y-126513355D01*
X160366271Y-126553777D01*
X160377908Y-126606842D01*
X160383743Y-126660759D01*
X160385367Y-126713145D01*
X160385249Y-126723194D01*
X160381117Y-126774016D01*
X160371934Y-126822322D01*
X160370197Y-126829214D01*
X160353456Y-126878473D01*
X160330168Y-126923438D01*
X160326593Y-126929088D01*
X160295638Y-126967624D01*
X160257384Y-126999398D01*
X160248895Y-127004847D01*
X160201811Y-127025201D01*
X160150894Y-127033836D01*
X160150894Y-126835511D01*
X160190885Y-126818020D01*
X160224167Y-126780556D01*
X160239554Y-126736593D01*
X160244683Y-126686279D01*
X160242264Y-126651599D01*
X160226860Y-126602317D01*
X160194125Y-126563424D01*
X160163698Y-126544768D01*
X160116517Y-126529810D01*
X160066630Y-126526055D01*
X159971376Y-126526055D01*
X159971376Y-126528742D01*
X159992716Y-126541802D01*
X160031414Y-126576757D01*
X160059792Y-126620822D01*
X160070926Y-126647305D01*
X160084349Y-126698102D01*
X160088368Y-126746851D01*
X160086069Y-126790961D01*
X160077014Y-126840045D01*
X160059303Y-126887535D01*
X160047565Y-126908961D01*
X160017007Y-126950319D01*
X159979436Y-126984743D01*
X159956498Y-127000336D01*
X159909559Y-127024147D01*
X159861222Y-127040187D01*
X159818174Y-127049460D01*
X159769059Y-127055694D01*
X159718096Y-127057772D01*
X159682864Y-127056505D01*
X159631161Y-127049853D01*
X159580831Y-127037500D01*
X159552621Y-127027624D01*
X159507742Y-127006507D01*
X159464083Y-126977660D01*
X159445854Y-126962161D01*
X159411364Y-126924044D01*
X159383727Y-126879719D01*
X159369205Y-126845493D01*
X159357235Y-126795530D01*
X159353685Y-126745385D01*
X159355018Y-126714823D01*
X159358264Y-126696293D01*
X159510001Y-126696293D01*
X159511647Y-126721533D01*
X159526854Y-126768833D01*
X159537162Y-126784978D01*
X159572283Y-126819391D01*
X159590978Y-126830988D01*
X159637984Y-126848944D01*
X159666160Y-126854451D01*
X159715409Y-126857981D01*
X159744650Y-126856917D01*
X159793078Y-126850410D01*
X159816305Y-126844428D01*
X159862199Y-126823543D01*
X159880336Y-126810491D01*
X159912513Y-126773718D01*
X159925164Y-126745975D01*
X159932053Y-126696293D01*
X159930090Y-126668426D01*
X159915444Y-126621799D01*
X159905095Y-126604434D01*
X159870748Y-126568309D01*
X159852453Y-126556078D01*
X159807000Y-126536558D01*
X159782080Y-126530578D01*
X159732262Y-126526055D01*
X159696752Y-126527466D01*
X159647754Y-126534604D01*
X159621451Y-126541669D01*
X159577168Y-126562692D01*
X159559174Y-126576168D01*
X159528319Y-126614715D01*
X159515797Y-126646198D01*
X159510001Y-126696293D01*
X159358264Y-126696293D01*
X159363501Y-126666400D01*
X159381529Y-126619600D01*
X159397710Y-126593588D01*
X159434163Y-126556008D01*
X159474830Y-126528742D01*
X159474830Y-126526055D01*
X159377621Y-126526055D01*
X159377621Y-126336034D01*
X160062478Y-126336034D01*
X160112774Y-126339412D01*
G37*
G36*
X159847735Y-124930610D02*
G01*
X159897978Y-124939614D01*
X159945974Y-124958749D01*
X159965878Y-124970553D01*
X160004172Y-125001076D01*
X160035856Y-125038372D01*
X160048235Y-125057555D01*
X160070756Y-125102534D01*
X160087391Y-125152189D01*
X160094657Y-125184414D01*
X160101664Y-125233610D01*
X160104000Y-125283836D01*
X160104000Y-125770612D01*
X159103581Y-125770612D01*
X159103581Y-125342699D01*
X159275528Y-125342699D01*
X159275528Y-125549572D01*
X159510001Y-125549572D01*
X159510001Y-125325846D01*
X159507951Y-125308993D01*
X159666316Y-125308993D01*
X159666316Y-125549572D01*
X159932053Y-125549572D01*
X159932053Y-125313145D01*
X159931838Y-125301150D01*
X159925946Y-125251352D01*
X159924731Y-125245873D01*
X159905674Y-125199328D01*
X159903835Y-125196526D01*
X159867084Y-125163424D01*
X159854017Y-125157547D01*
X159804558Y-125149991D01*
X159786602Y-125150674D01*
X159737471Y-125162330D01*
X159698312Y-125193711D01*
X159687439Y-125211010D01*
X159670816Y-125259122D01*
X159666316Y-125308993D01*
X159507951Y-125308993D01*
X159503829Y-125275102D01*
X159481913Y-125228882D01*
X159480123Y-125226537D01*
X159439186Y-125198073D01*
X159390566Y-125190780D01*
X159382029Y-125190978D01*
X159333169Y-125203480D01*
X159297998Y-125237430D01*
X159297212Y-125238749D01*
X159280413Y-125285790D01*
X159279268Y-125292663D01*
X159275528Y-125342699D01*
X159103581Y-125342699D01*
X159103581Y-125297758D01*
X159104189Y-125267045D01*
X159108058Y-125217168D01*
X159116281Y-125167088D01*
X159118807Y-125156154D01*
X159134394Y-125109043D01*
X159158047Y-125065727D01*
X159191691Y-125028236D01*
X159234983Y-125000270D01*
X159253734Y-124992385D01*
X159303696Y-124980330D01*
X159353441Y-124977067D01*
X159385660Y-124978715D01*
X159435182Y-124989208D01*
X159480692Y-125011505D01*
X159507819Y-125033504D01*
X159539481Y-125071011D01*
X159563979Y-125113599D01*
X159569274Y-125096611D01*
X159589361Y-125050619D01*
X159619066Y-125008263D01*
X159656547Y-124975113D01*
X159669193Y-124966907D01*
X159714760Y-124945383D01*
X159765574Y-124932828D01*
X159815793Y-124929196D01*
X159847735Y-124930610D01*
G37*
G36*
X159743557Y-124076814D02*
G01*
X159796108Y-124079963D01*
X159845414Y-124088359D01*
X159895905Y-124103655D01*
X159933868Y-124120427D01*
X159975913Y-124145806D01*
X160016316Y-124179614D01*
X160042527Y-124208852D01*
X160071825Y-124252884D01*
X160093009Y-124298316D01*
X160094646Y-124302683D01*
X160109232Y-124352790D01*
X160117031Y-124401648D01*
X160119631Y-124453655D01*
X160119605Y-124459011D01*
X160116485Y-124510741D01*
X160108166Y-124559132D01*
X160093009Y-124608505D01*
X160078140Y-124641722D01*
X160050457Y-124686968D01*
X160016316Y-124726718D01*
X159983043Y-124755231D01*
X159941869Y-124781581D01*
X159895905Y-124802678D01*
X159891477Y-124804316D01*
X159840629Y-124818901D01*
X159790998Y-124826700D01*
X159738124Y-124829300D01*
X159732675Y-124829274D01*
X159679943Y-124826154D01*
X159630408Y-124817835D01*
X159579610Y-124802678D01*
X159541311Y-124785807D01*
X159499067Y-124760412D01*
X159458710Y-124726718D01*
X159432342Y-124697421D01*
X159402776Y-124653548D01*
X159381285Y-124608505D01*
X159379587Y-124604183D01*
X159364467Y-124554443D01*
X159356381Y-124505719D01*
X159353685Y-124453655D01*
X159510001Y-124453655D01*
X159513306Y-124491992D01*
X159530029Y-124538163D01*
X159543538Y-124557941D01*
X159581320Y-124592385D01*
X159606290Y-124605940D01*
X159653860Y-124621205D01*
X159687441Y-124626582D01*
X159737391Y-124629510D01*
X159771558Y-124628139D01*
X159820189Y-124621205D01*
X159846943Y-124613943D01*
X159892729Y-124592385D01*
X159913365Y-124576721D01*
X159944265Y-124538163D01*
X159957939Y-124502686D01*
X159963316Y-124453655D01*
X159960171Y-124415078D01*
X159944265Y-124368414D01*
X159929470Y-124346412D01*
X159892729Y-124313704D01*
X159867416Y-124300034D01*
X159820189Y-124284883D01*
X159787083Y-124279348D01*
X159737391Y-124276334D01*
X159703103Y-124277745D01*
X159653860Y-124284883D01*
X159626775Y-124292035D01*
X159581320Y-124313704D01*
X159561044Y-124329315D01*
X159530029Y-124368414D01*
X159515653Y-124404296D01*
X159510001Y-124453655D01*
X159353685Y-124453655D01*
X159353712Y-124448312D01*
X159356947Y-124396621D01*
X159365572Y-124348077D01*
X159381285Y-124298316D01*
X159398469Y-124260784D01*
X159424352Y-124219319D01*
X159458710Y-124179614D01*
X159491926Y-124150997D01*
X159533257Y-124124642D01*
X159579610Y-124103655D01*
X159584068Y-124102002D01*
X159635217Y-124087283D01*
X159685072Y-124079412D01*
X159738124Y-124076788D01*
X159743557Y-124076814D01*
G37*
G36*
X159372248Y-123951980D02*
G01*
X160104000Y-123951980D01*
X160104000Y-123752189D01*
X159719806Y-123752189D01*
X159667705Y-123749900D01*
X159618545Y-123741850D01*
X159572050Y-123724140D01*
X159558849Y-123715553D01*
X159525457Y-123674894D01*
X159511718Y-123626351D01*
X159510001Y-123597339D01*
X159517378Y-123546211D01*
X159544222Y-123505149D01*
X159554697Y-123497444D01*
X159602596Y-123478243D01*
X159652561Y-123470700D01*
X159690008Y-123469356D01*
X160104000Y-123469356D01*
X160104000Y-123269565D01*
X159654593Y-123269565D01*
X159605534Y-123271248D01*
X159556186Y-123276870D01*
X159531250Y-123281533D01*
X159482571Y-123296617D01*
X159438928Y-123321225D01*
X159436484Y-123323055D01*
X159401740Y-123358042D01*
X159377043Y-123400715D01*
X159375667Y-123403899D01*
X159360641Y-123454342D01*
X159354458Y-123506434D01*
X159353685Y-123535546D01*
X159358402Y-123586500D01*
X159372550Y-123636568D01*
X159382262Y-123659377D01*
X159408503Y-123701497D01*
X159444361Y-123737367D01*
X159473609Y-123757807D01*
X159473609Y-123761959D01*
X159372248Y-123761959D01*
X159372248Y-123951980D01*
G37*
G36*
X160112774Y-122426642D02*
G01*
X160163106Y-122435232D01*
X160180623Y-122439646D01*
X160227640Y-122459174D01*
X160268619Y-122486767D01*
X160294918Y-122511668D01*
X160326317Y-122553526D01*
X160351418Y-122600584D01*
X160366271Y-122641006D01*
X160377908Y-122694072D01*
X160383743Y-122747989D01*
X160385367Y-122800375D01*
X160385249Y-122810423D01*
X160381117Y-122861246D01*
X160371934Y-122909551D01*
X160370197Y-122916444D01*
X160353456Y-122965703D01*
X160330168Y-123010668D01*
X160326593Y-123016317D01*
X160295638Y-123054853D01*
X160257384Y-123086628D01*
X160248895Y-123092077D01*
X160201811Y-123112430D01*
X160150894Y-123121066D01*
X160150894Y-122922741D01*
X160190885Y-122905250D01*
X160224167Y-122867786D01*
X160239554Y-122823822D01*
X160244683Y-122773508D01*
X160242264Y-122738828D01*
X160226860Y-122689547D01*
X160194125Y-122650654D01*
X160163698Y-122631997D01*
X160116517Y-122617039D01*
X160066630Y-122613285D01*
X159971376Y-122613285D01*
X159971376Y-122615972D01*
X159992716Y-122629032D01*
X160031414Y-122663987D01*
X160059792Y-122708051D01*
X160070926Y-122734535D01*
X160084349Y-122785331D01*
X160088368Y-122834080D01*
X160086069Y-122878190D01*
X160077014Y-122927274D01*
X160059303Y-122974764D01*
X160047565Y-122996191D01*
X160017007Y-123037549D01*
X159979436Y-123071973D01*
X159956498Y-123087566D01*
X159909559Y-123111376D01*
X159861222Y-123127416D01*
X159818174Y-123136690D01*
X159769059Y-123142924D01*
X159718096Y-123145002D01*
X159682864Y-123143735D01*
X159631161Y-123137083D01*
X159580831Y-123124729D01*
X159552621Y-123114854D01*
X159507742Y-123093736D01*
X159464083Y-123064890D01*
X159445854Y-123049391D01*
X159411364Y-123011274D01*
X159383727Y-122966949D01*
X159369205Y-122932722D01*
X159357235Y-122882759D01*
X159353685Y-122832615D01*
X159355018Y-122802052D01*
X159358264Y-122783522D01*
X159510001Y-122783522D01*
X159511647Y-122808762D01*
X159526854Y-122856062D01*
X159537162Y-122872207D01*
X159572283Y-122906621D01*
X159590978Y-122918217D01*
X159637984Y-122936174D01*
X159666160Y-122941681D01*
X159715409Y-122945211D01*
X159744650Y-122944146D01*
X159793078Y-122937639D01*
X159816305Y-122931657D01*
X159862199Y-122910773D01*
X159880336Y-122897721D01*
X159912513Y-122860947D01*
X159925164Y-122833205D01*
X159932053Y-122783522D01*
X159930090Y-122755656D01*
X159915444Y-122709028D01*
X159905095Y-122691664D01*
X159870748Y-122655539D01*
X159852453Y-122643308D01*
X159807000Y-122623787D01*
X159782080Y-122617808D01*
X159732262Y-122613285D01*
X159696752Y-122614696D01*
X159647754Y-122621833D01*
X159621451Y-122628899D01*
X159577168Y-122649921D01*
X159559174Y-122663398D01*
X159528319Y-122701945D01*
X159515797Y-122733428D01*
X159510001Y-122783522D01*
X159358264Y-122783522D01*
X159363501Y-122753629D01*
X159381529Y-122706830D01*
X159397710Y-122680818D01*
X159434163Y-122643237D01*
X159474830Y-122615972D01*
X159474830Y-122613285D01*
X159377621Y-122613285D01*
X159377621Y-122423264D01*
X160062478Y-122423264D01*
X160112774Y-122426642D01*
G37*
G36*
X159651830Y-120970309D02*
G01*
X159703380Y-120975576D01*
X159752824Y-120984353D01*
X159800161Y-120996642D01*
X159828398Y-121006129D01*
X159876130Y-121026782D01*
X159919881Y-121052033D01*
X159959652Y-121081882D01*
X159979944Y-121100358D01*
X160012953Y-121137100D01*
X160041442Y-121178325D01*
X160065409Y-121224032D01*
X160084064Y-121274257D01*
X160095520Y-121322957D01*
X160102153Y-121375473D01*
X160104000Y-121424555D01*
X160104000Y-121857842D01*
X159103581Y-121857842D01*
X159103581Y-121479265D01*
X159291159Y-121479265D01*
X159291159Y-121636802D01*
X159916421Y-121636802D01*
X159916421Y-121439942D01*
X159913094Y-121395707D01*
X159901278Y-121347130D01*
X159882452Y-121307145D01*
X159850475Y-121267018D01*
X159843646Y-121260548D01*
X159803833Y-121231933D01*
X159758152Y-121210842D01*
X159724052Y-121200571D01*
X159672515Y-121192104D01*
X159619177Y-121189593D01*
X159586979Y-121190306D01*
X159535098Y-121194846D01*
X159483623Y-121204492D01*
X159472420Y-121207407D01*
X159424228Y-121225439D01*
X159380064Y-121252852D01*
X159372180Y-121259365D01*
X159338041Y-121297726D01*
X159314118Y-121342245D01*
X159303020Y-121375499D01*
X159293872Y-121426269D01*
X159291159Y-121479265D01*
X159103581Y-121479265D01*
X159103581Y-121424555D01*
X159104332Y-121394511D01*
X159109471Y-121342115D01*
X159119479Y-121291883D01*
X159134355Y-121243815D01*
X159140398Y-121228305D01*
X159161798Y-121184144D01*
X159191332Y-121139245D01*
X159226923Y-121098735D01*
X159246915Y-121080233D01*
X159286716Y-121050236D01*
X159331425Y-121024489D01*
X159381041Y-121002992D01*
X159392708Y-120998822D01*
X159441915Y-120984831D01*
X159495183Y-120975145D01*
X159545123Y-120970202D01*
X159598173Y-120968554D01*
X159651830Y-120970309D01*
G37*
G36*
X159374935Y-120842280D02*
G01*
X160104000Y-120842280D01*
X160104000Y-120642489D01*
X159775493Y-120642489D01*
X159724881Y-120639732D01*
X159683658Y-120632720D01*
X159637183Y-120616178D01*
X159609652Y-120599503D01*
X159575210Y-120564774D01*
X159559582Y-120538442D01*
X159544770Y-120490322D01*
X159541264Y-120445630D01*
X159543462Y-120407528D01*
X159548347Y-120373822D01*
X159360769Y-120373822D01*
X159353685Y-120417297D01*
X159358629Y-120466044D01*
X159365165Y-120490570D01*
X159385116Y-120536968D01*
X159397161Y-120556760D01*
X159429411Y-120595843D01*
X159446742Y-120611471D01*
X159489131Y-120639765D01*
X159510001Y-120649572D01*
X159510001Y-120652259D01*
X159374935Y-120652259D01*
X159374935Y-120842280D01*
G37*
G36*
X160101313Y-119615692D02*
G01*
X159369317Y-119615692D01*
X159369317Y-119815483D01*
X159753511Y-119815483D01*
X159805611Y-119817773D01*
X159854772Y-119825823D01*
X159901266Y-119843533D01*
X159914467Y-119852120D01*
X159947860Y-119892778D01*
X159961598Y-119941322D01*
X159963316Y-119970333D01*
X159955939Y-120021461D01*
X159929095Y-120062523D01*
X159918619Y-120070228D01*
X159870721Y-120089429D01*
X159820755Y-120096972D01*
X159783309Y-120098316D01*
X159369317Y-120098316D01*
X159369317Y-120298107D01*
X159819457Y-120298107D01*
X159868698Y-120296424D01*
X159918245Y-120290802D01*
X159943288Y-120286139D01*
X159992021Y-120271055D01*
X160035839Y-120246448D01*
X160038298Y-120244618D01*
X160072736Y-120209630D01*
X160097037Y-120166958D01*
X160098382Y-120163773D01*
X160112908Y-120113331D01*
X160118884Y-120061238D01*
X160119631Y-120032127D01*
X160114995Y-119981212D01*
X160101089Y-119931266D01*
X160091543Y-119908540D01*
X160065382Y-119866270D01*
X160029399Y-119830321D01*
X159999952Y-119809866D01*
X159999952Y-119805713D01*
X160101313Y-119805713D01*
X160101313Y-119615692D01*
G37*
G36*
X159372492Y-119463041D02*
G01*
X160104000Y-119463041D01*
X160104000Y-119263250D01*
X159678773Y-119263250D01*
X159629985Y-119259403D01*
X159591578Y-119247863D01*
X159550316Y-119220981D01*
X159540531Y-119210494D01*
X159516759Y-119167002D01*
X159516351Y-119165553D01*
X159510001Y-119128184D01*
X159515770Y-119079602D01*
X159526365Y-119055888D01*
X159563044Y-119023564D01*
X159569596Y-119020717D01*
X159618585Y-119009428D01*
X159628459Y-119008749D01*
X159678667Y-119007354D01*
X159692939Y-119007284D01*
X160104000Y-119007284D01*
X160104000Y-118807493D01*
X159695625Y-118807493D01*
X159645113Y-118804745D01*
X159628459Y-118802608D01*
X159580648Y-118789012D01*
X159568863Y-118783069D01*
X159531718Y-118749928D01*
X159526365Y-118742036D01*
X159511024Y-118693767D01*
X159510001Y-118673648D01*
X159516697Y-118624081D01*
X159524167Y-118606969D01*
X159559530Y-118571235D01*
X159562513Y-118569600D01*
X159611133Y-118555041D01*
X159619177Y-118554213D01*
X159668145Y-118551514D01*
X159688542Y-118551282D01*
X160104000Y-118551282D01*
X160104000Y-118351736D01*
X159615025Y-118351736D01*
X159564971Y-118354518D01*
X159513867Y-118364796D01*
X159494369Y-118371519D01*
X159448879Y-118394967D01*
X159413036Y-118426230D01*
X159384835Y-118467597D01*
X159367852Y-118510738D01*
X159357684Y-118558694D01*
X159353741Y-118610515D01*
X159353685Y-118617716D01*
X159357986Y-118667543D01*
X159372486Y-118716435D01*
X159390078Y-118749363D01*
X159421302Y-118790581D01*
X159459076Y-118826405D01*
X159473609Y-118837046D01*
X159429118Y-118863058D01*
X159393789Y-118899920D01*
X159380308Y-118923508D01*
X159363071Y-118971762D01*
X159354621Y-119024047D01*
X159353685Y-119049538D01*
X159358013Y-119100977D01*
X159372469Y-119151665D01*
X159384460Y-119176788D01*
X159413458Y-119219175D01*
X159450841Y-119256241D01*
X159470922Y-119271554D01*
X159470922Y-119274485D01*
X159372492Y-119274485D01*
X159372492Y-119463041D01*
G37*
G36*
X159103581Y-117790710D02*
G01*
X160104000Y-117790710D01*
X160104000Y-117583836D01*
X159402046Y-117583836D01*
X159402046Y-117580905D01*
X160104000Y-117334709D01*
X160104000Y-117164715D01*
X159394963Y-116918519D01*
X159394963Y-116915588D01*
X160104000Y-116915588D01*
X160104000Y-116708714D01*
X159103581Y-116708714D01*
X159103581Y-117019635D01*
X159791613Y-117241896D01*
X159791613Y-117244827D01*
X159103581Y-117479789D01*
X159103581Y-117790710D01*
G37*
G36*
X159743557Y-115812613D02*
G01*
X159796108Y-115815762D01*
X159845414Y-115824158D01*
X159895905Y-115839454D01*
X159933868Y-115856226D01*
X159975913Y-115881605D01*
X160016316Y-115915413D01*
X160042527Y-115944651D01*
X160071825Y-115988683D01*
X160093009Y-116034115D01*
X160094646Y-116038482D01*
X160109232Y-116088589D01*
X160117031Y-116137447D01*
X160119631Y-116189454D01*
X160119605Y-116194810D01*
X160116485Y-116246540D01*
X160108166Y-116294931D01*
X160093009Y-116344304D01*
X160078140Y-116377521D01*
X160050457Y-116422767D01*
X160016316Y-116462517D01*
X159983043Y-116491030D01*
X159941869Y-116517380D01*
X159895905Y-116538477D01*
X159891477Y-116540115D01*
X159840629Y-116554700D01*
X159790998Y-116562499D01*
X159738124Y-116565099D01*
X159732675Y-116565073D01*
X159679943Y-116561953D01*
X159630408Y-116553634D01*
X159579610Y-116538477D01*
X159541311Y-116521606D01*
X159499067Y-116496211D01*
X159458710Y-116462517D01*
X159432342Y-116433220D01*
X159402776Y-116389347D01*
X159381285Y-116344304D01*
X159379587Y-116339982D01*
X159364467Y-116290242D01*
X159356381Y-116241518D01*
X159353685Y-116189454D01*
X159510001Y-116189454D01*
X159513306Y-116227791D01*
X159530029Y-116273962D01*
X159543538Y-116293740D01*
X159581320Y-116328184D01*
X159606290Y-116341739D01*
X159653860Y-116357004D01*
X159687441Y-116362381D01*
X159737391Y-116365309D01*
X159771558Y-116363938D01*
X159820189Y-116357004D01*
X159846943Y-116349742D01*
X159892729Y-116328184D01*
X159913365Y-116312520D01*
X159944265Y-116273962D01*
X159957939Y-116238485D01*
X159963316Y-116189454D01*
X159960171Y-116150877D01*
X159944265Y-116104213D01*
X159929470Y-116082211D01*
X159892729Y-116049503D01*
X159867416Y-116035833D01*
X159820189Y-116020682D01*
X159787083Y-116015147D01*
X159737391Y-116012133D01*
X159703103Y-116013544D01*
X159653860Y-116020682D01*
X159626775Y-116027834D01*
X159581320Y-116049503D01*
X159561044Y-116065114D01*
X159530029Y-116104213D01*
X159515653Y-116140095D01*
X159510001Y-116189454D01*
X159353685Y-116189454D01*
X159353712Y-116184111D01*
X159356947Y-116132420D01*
X159365572Y-116083876D01*
X159381285Y-116034115D01*
X159398469Y-115996583D01*
X159424352Y-115955118D01*
X159458710Y-115915413D01*
X159491926Y-115886796D01*
X159533257Y-115860441D01*
X159579610Y-115839454D01*
X159584068Y-115837801D01*
X159635217Y-115823082D01*
X159685072Y-115815211D01*
X159738124Y-115812587D01*
X159743557Y-115812613D01*
G37*
G36*
X160101557Y-115168519D02*
G01*
X160009233Y-115168519D01*
X160009233Y-115171450D01*
X160030065Y-115185412D01*
X160067304Y-115220965D01*
X160093741Y-115263773D01*
X160103829Y-115289372D01*
X160115990Y-115340634D01*
X160119631Y-115392245D01*
X160117139Y-115436705D01*
X160107323Y-115486794D01*
X160088124Y-115536104D01*
X160070844Y-115565642D01*
X160039657Y-115604855D01*
X160002150Y-115637953D01*
X159970375Y-115658939D01*
X159924042Y-115682112D01*
X159877586Y-115698526D01*
X159832945Y-115709216D01*
X159782628Y-115716402D01*
X159731041Y-115718798D01*
X159690230Y-115717194D01*
X159641453Y-115710879D01*
X159589624Y-115698526D01*
X159556453Y-115687046D01*
X159510531Y-115665248D01*
X159469212Y-115637953D01*
X159444376Y-115616552D01*
X159411987Y-115579755D01*
X159385437Y-115537325D01*
X159368693Y-115497560D01*
X159357437Y-115449409D01*
X159353685Y-115396642D01*
X159354690Y-115372593D01*
X159359970Y-115343152D01*
X159510001Y-115343152D01*
X159512714Y-115377842D01*
X159529296Y-115426195D01*
X159542419Y-115445973D01*
X159579854Y-115480417D01*
X159604756Y-115494075D01*
X159651906Y-115509970D01*
X159685214Y-115515821D01*
X159735926Y-115519007D01*
X159769305Y-115517395D01*
X159818235Y-115509237D01*
X159847773Y-115500078D01*
X159891508Y-115477486D01*
X159912091Y-115461214D01*
X159943532Y-115422775D01*
X159956341Y-115393610D01*
X159963316Y-115343152D01*
X159960637Y-115308451D01*
X159944265Y-115260842D01*
X159930941Y-115241418D01*
X159892729Y-115208086D01*
X159867313Y-115194863D01*
X159819457Y-115179998D01*
X159785674Y-115174463D01*
X159734704Y-115171450D01*
X159699588Y-115172860D01*
X159650441Y-115179998D01*
X159623721Y-115187150D01*
X159579122Y-115208819D01*
X159561032Y-115222681D01*
X159529296Y-115261575D01*
X159516106Y-115293058D01*
X159510001Y-115343152D01*
X159359970Y-115343152D01*
X159363760Y-115322020D01*
X159382262Y-115273543D01*
X159393848Y-115252437D01*
X159425550Y-115212717D01*
X159466281Y-115181219D01*
X159466281Y-115178533D01*
X159103581Y-115178533D01*
X159103581Y-114978742D01*
X160101557Y-114978742D01*
X160101557Y-115168519D01*
G37*
G36*
X160101313Y-114150515D02*
G01*
X159369317Y-114150515D01*
X159369317Y-114350305D01*
X159753511Y-114350305D01*
X159805611Y-114352595D01*
X159854772Y-114360645D01*
X159901266Y-114378355D01*
X159914467Y-114386942D01*
X159947860Y-114427600D01*
X159961598Y-114476144D01*
X159963316Y-114505155D01*
X159955939Y-114556283D01*
X159929095Y-114597345D01*
X159918619Y-114605050D01*
X159870721Y-114624251D01*
X159820755Y-114631794D01*
X159783309Y-114633138D01*
X159369317Y-114633138D01*
X159369317Y-114832929D01*
X159819457Y-114832929D01*
X159868698Y-114831246D01*
X159918245Y-114825624D01*
X159943288Y-114820961D01*
X159992021Y-114805877D01*
X160035839Y-114781270D01*
X160038298Y-114779440D01*
X160072736Y-114744452D01*
X160097037Y-114701780D01*
X160098382Y-114698595D01*
X160112908Y-114648153D01*
X160118884Y-114596060D01*
X160119631Y-114566949D01*
X160114995Y-114516034D01*
X160101089Y-114466088D01*
X160091543Y-114443362D01*
X160065382Y-114401092D01*
X160029399Y-114365143D01*
X159999952Y-114344688D01*
X159999952Y-114340535D01*
X160101313Y-114340535D01*
X160101313Y-114150515D01*
G37*
G36*
X159103581Y-113997863D02*
G01*
X160104000Y-113997863D01*
X160104000Y-113798072D01*
X159103581Y-113798072D01*
X159103581Y-113997863D01*
G37*
G36*
X159791369Y-112953725D02*
G01*
X159791369Y-113478358D01*
X159833562Y-113473733D01*
X159881407Y-113459048D01*
X159922771Y-113429265D01*
X159944152Y-113397209D01*
X159959356Y-113348665D01*
X159963316Y-113299817D01*
X159963052Y-113288610D01*
X159954837Y-113240284D01*
X159933274Y-113195769D01*
X159912187Y-113169695D01*
X159869526Y-113142036D01*
X159869526Y-112966181D01*
X159886019Y-112971638D01*
X159939042Y-112993504D01*
X159984748Y-113019670D01*
X160028025Y-113054841D01*
X160061745Y-113095630D01*
X160068755Y-113106672D01*
X160092271Y-113153704D01*
X160108551Y-113205316D01*
X160116861Y-113254232D01*
X160119631Y-113306655D01*
X160119604Y-113312012D01*
X160116399Y-113363742D01*
X160107850Y-113412133D01*
X160092276Y-113461505D01*
X160077041Y-113494631D01*
X160048808Y-113539396D01*
X160014118Y-113578254D01*
X159983996Y-113603462D01*
X159939025Y-113631723D01*
X159892974Y-113652259D01*
X159888563Y-113653852D01*
X159838225Y-113668036D01*
X159789558Y-113675621D01*
X159738124Y-113678149D01*
X159688106Y-113675549D01*
X159635677Y-113666683D01*
X159585960Y-113651526D01*
X159547900Y-113634656D01*
X159505475Y-113609261D01*
X159464327Y-113575567D01*
X159434265Y-113542895D01*
X159406154Y-113502713D01*
X159383239Y-113458086D01*
X159366413Y-113409338D01*
X159356572Y-113357126D01*
X159354006Y-113312273D01*
X159510001Y-113312273D01*
X159511935Y-113343280D01*
X159526365Y-113391896D01*
X159533899Y-113405085D01*
X159566909Y-113442454D01*
X159573000Y-113447042D01*
X159618200Y-113469321D01*
X159666316Y-113478358D01*
X159666316Y-113153271D01*
X159638853Y-113159347D01*
X159591707Y-113176086D01*
X159549812Y-113203341D01*
X159536283Y-113218110D01*
X159515599Y-113262722D01*
X159510001Y-113312273D01*
X159354006Y-113312273D01*
X159353685Y-113306655D01*
X159354005Y-113289464D01*
X159358803Y-113240412D01*
X159370886Y-113190352D01*
X159390078Y-113144967D01*
X159415256Y-113104328D01*
X159448571Y-113065190D01*
X159487775Y-113031882D01*
X159531942Y-113004265D01*
X159580150Y-112982536D01*
X159627482Y-112967891D01*
X159637310Y-112965517D01*
X159687279Y-112956625D01*
X159738632Y-112952694D01*
X159791369Y-112953725D01*
G37*
G36*
X159435751Y-111760354D02*
G01*
X159435751Y-111546397D01*
X159383163Y-111555399D01*
X159334390Y-111569887D01*
X159289434Y-111589860D01*
X159280901Y-111594513D01*
X159236789Y-111622965D01*
X159197814Y-111656265D01*
X159166840Y-111690745D01*
X159137701Y-111732724D01*
X159113757Y-111778397D01*
X159096498Y-111823124D01*
X159082731Y-111874903D01*
X159075175Y-111923828D01*
X159072341Y-111974518D01*
X159072318Y-111979684D01*
X159074293Y-112029105D01*
X159081387Y-112082839D01*
X159093641Y-112133641D01*
X159111055Y-112181513D01*
X159113595Y-112187290D01*
X159136187Y-112231544D01*
X159166275Y-112277060D01*
X159201308Y-112318055D01*
X159227412Y-112342873D01*
X159270186Y-112376119D01*
X159316902Y-112404689D01*
X159361736Y-112426159D01*
X159397405Y-112439838D01*
X159447154Y-112454584D01*
X159498949Y-112465117D01*
X159552789Y-112471437D01*
X159608675Y-112473543D01*
X159663294Y-112471437D01*
X159716020Y-112465117D01*
X159766853Y-112454584D01*
X159815793Y-112439838D01*
X159862245Y-112421138D01*
X159910817Y-112395685D01*
X159955487Y-112365556D01*
X159983099Y-112342873D01*
X160020664Y-112304892D01*
X160053398Y-112262390D01*
X160081303Y-112215368D01*
X160094718Y-112187290D01*
X160112456Y-112139785D01*
X160125127Y-112089349D01*
X160132729Y-112035982D01*
X160135223Y-111986882D01*
X160135263Y-111979684D01*
X160132983Y-111928714D01*
X160126144Y-111880216D01*
X160113197Y-111829230D01*
X160106442Y-111809691D01*
X160086077Y-111763232D01*
X160060704Y-111720638D01*
X160030321Y-111681907D01*
X160023644Y-111674625D01*
X159987479Y-111640665D01*
X159947070Y-111611141D01*
X159902414Y-111586053D01*
X159892974Y-111581568D01*
X159843581Y-111562210D01*
X159796110Y-111549274D01*
X159745779Y-111540589D01*
X159722492Y-111538093D01*
X159722492Y-111751806D01*
X159770715Y-111760934D01*
X159819090Y-111777846D01*
X159865544Y-111804884D01*
X159885891Y-111821659D01*
X159918477Y-111861544D01*
X159938994Y-111910063D01*
X159947141Y-111961113D01*
X159947684Y-111979684D01*
X159943597Y-112032544D01*
X159929944Y-112082599D01*
X159918619Y-112106446D01*
X159889374Y-112148227D01*
X159852929Y-112182528D01*
X159841194Y-112190954D01*
X159796588Y-112215845D01*
X159747401Y-112234097D01*
X159732506Y-112238093D01*
X159682727Y-112247581D01*
X159631819Y-112252232D01*
X159607942Y-112252748D01*
X159558517Y-112250687D01*
X159506292Y-112243803D01*
X159478738Y-112238093D01*
X159430193Y-112223126D01*
X159382962Y-112200606D01*
X159367363Y-112190954D01*
X159328240Y-112158790D01*
X159296785Y-112119147D01*
X159289205Y-112106446D01*
X159270229Y-112060428D01*
X159261299Y-112011295D01*
X159259896Y-111979684D01*
X159265144Y-111930129D01*
X159273330Y-111901771D01*
X159295268Y-111856090D01*
X159310454Y-111834848D01*
X159345236Y-111800372D01*
X159366142Y-111785755D01*
X159412581Y-111765248D01*
X159435751Y-111760354D01*
G37*
G36*
X159743557Y-110684490D02*
G01*
X159796108Y-110687639D01*
X159845414Y-110696035D01*
X159895905Y-110711331D01*
X159933868Y-110728103D01*
X159975913Y-110753482D01*
X160016316Y-110787290D01*
X160042527Y-110816528D01*
X160071825Y-110860560D01*
X160093009Y-110905993D01*
X160094646Y-110910359D01*
X160109232Y-110960466D01*
X160117031Y-111009324D01*
X160119631Y-111061331D01*
X160119605Y-111066688D01*
X160116485Y-111118417D01*
X160108166Y-111166808D01*
X160093009Y-111216181D01*
X160078140Y-111249398D01*
X160050457Y-111294644D01*
X160016316Y-111334394D01*
X159983043Y-111362907D01*
X159941869Y-111389257D01*
X159895905Y-111410354D01*
X159891477Y-111411992D01*
X159840629Y-111426577D01*
X159790998Y-111434377D01*
X159738124Y-111436976D01*
X159732675Y-111436950D01*
X159679943Y-111433831D01*
X159630408Y-111425511D01*
X159579610Y-111410354D01*
X159541311Y-111393483D01*
X159499067Y-111368089D01*
X159458710Y-111334394D01*
X159432342Y-111305097D01*
X159402776Y-111261225D01*
X159381285Y-111216181D01*
X159379587Y-111211859D01*
X159364467Y-111162119D01*
X159356381Y-111113395D01*
X159353685Y-111061331D01*
X159510001Y-111061331D01*
X159513306Y-111099669D01*
X159530029Y-111145839D01*
X159543538Y-111165617D01*
X159581320Y-111200061D01*
X159606290Y-111213616D01*
X159653860Y-111228882D01*
X159687441Y-111234258D01*
X159737391Y-111237186D01*
X159771558Y-111235815D01*
X159820189Y-111228882D01*
X159846943Y-111221619D01*
X159892729Y-111200061D01*
X159913365Y-111184397D01*
X159944265Y-111145839D01*
X159957939Y-111110362D01*
X159963316Y-111061331D01*
X159960171Y-111022755D01*
X159944265Y-110976090D01*
X159929470Y-110954088D01*
X159892729Y-110921380D01*
X159867416Y-110907710D01*
X159820189Y-110892559D01*
X159787083Y-110887024D01*
X159737391Y-110884011D01*
X159703103Y-110885422D01*
X159653860Y-110892559D01*
X159626775Y-110899711D01*
X159581320Y-110921380D01*
X159561044Y-110936991D01*
X159530029Y-110976090D01*
X159515653Y-111011972D01*
X159510001Y-111061331D01*
X159353685Y-111061331D01*
X159353712Y-111055989D01*
X159356947Y-111004297D01*
X159365572Y-110955754D01*
X159381285Y-110905993D01*
X159398469Y-110868460D01*
X159424352Y-110826995D01*
X159458710Y-110787290D01*
X159491926Y-110758673D01*
X159533257Y-110732318D01*
X159579610Y-110711331D01*
X159584068Y-110709678D01*
X159635217Y-110694959D01*
X159685072Y-110687088D01*
X159738124Y-110684464D01*
X159743557Y-110684490D01*
G37*
G36*
X159372248Y-110559656D02*
G01*
X160104000Y-110559656D01*
X160104000Y-110359866D01*
X159719806Y-110359866D01*
X159667705Y-110357576D01*
X159618545Y-110349526D01*
X159572050Y-110331816D01*
X159558849Y-110323229D01*
X159525457Y-110282570D01*
X159511718Y-110234027D01*
X159510001Y-110205016D01*
X159517378Y-110153887D01*
X159544222Y-110112825D01*
X159554697Y-110105120D01*
X159602596Y-110085919D01*
X159652561Y-110078376D01*
X159690008Y-110077032D01*
X160104000Y-110077032D01*
X160104000Y-109877242D01*
X159654593Y-109877242D01*
X159605534Y-109878925D01*
X159556186Y-109884546D01*
X159531250Y-109889210D01*
X159482571Y-109904293D01*
X159438928Y-109928901D01*
X159436484Y-109930731D01*
X159401740Y-109965719D01*
X159377043Y-110008391D01*
X159375667Y-110011575D01*
X159360641Y-110062018D01*
X159354458Y-110114110D01*
X159353685Y-110143222D01*
X159358402Y-110194177D01*
X159372550Y-110244244D01*
X159382262Y-110267053D01*
X159408503Y-110309174D01*
X159444361Y-110345043D01*
X159473609Y-110365483D01*
X159473609Y-110369635D01*
X159372248Y-110369635D01*
X159372248Y-110559656D01*
G37*
G36*
X159369317Y-109476928D02*
G01*
X159166107Y-109476928D01*
X159166107Y-109676718D01*
X159369317Y-109676718D01*
X159369317Y-109797618D01*
X159510001Y-109797618D01*
X159510001Y-109676718D01*
X159934251Y-109676718D01*
X159983282Y-109672139D01*
X160021934Y-109658400D01*
X160060670Y-109626979D01*
X160073469Y-109608575D01*
X160092142Y-109562693D01*
X160097893Y-109535302D01*
X160102992Y-109484273D01*
X160104000Y-109447374D01*
X160104000Y-109396634D01*
X160104000Y-109387046D01*
X160104000Y-109337064D01*
X160104000Y-109330626D01*
X159942066Y-109330626D01*
X159946463Y-109360180D01*
X159947684Y-109392664D01*
X159941196Y-109442695D01*
X159931076Y-109460075D01*
X159884851Y-109476121D01*
X159864642Y-109476928D01*
X159510001Y-109476928D01*
X159510001Y-109330626D01*
X159369317Y-109330626D01*
X159369317Y-109476928D01*
G37*
G36*
X159374935Y-109237814D02*
G01*
X160104000Y-109237814D01*
X160104000Y-109038023D01*
X159775493Y-109038023D01*
X159724881Y-109035266D01*
X159683658Y-109028254D01*
X159637183Y-109011712D01*
X159609652Y-108995036D01*
X159575210Y-108960308D01*
X159559582Y-108933976D01*
X159544770Y-108885856D01*
X159541264Y-108841163D01*
X159543462Y-108803062D01*
X159548347Y-108769356D01*
X159360769Y-108769356D01*
X159353685Y-108812831D01*
X159358629Y-108861578D01*
X159365165Y-108886104D01*
X159385116Y-108932502D01*
X159397161Y-108952294D01*
X159429411Y-108991377D01*
X159446742Y-109007004D01*
X159489131Y-109035298D01*
X159510001Y-109045106D01*
X159510001Y-109047793D01*
X159374935Y-109047793D01*
X159374935Y-109237814D01*
G37*
G36*
X159743557Y-107976326D02*
G01*
X159796108Y-107979474D01*
X159845414Y-107987870D01*
X159895905Y-108003166D01*
X159933868Y-108019938D01*
X159975913Y-108045317D01*
X160016316Y-108079126D01*
X160042527Y-108108363D01*
X160071825Y-108152396D01*
X160093009Y-108197828D01*
X160094646Y-108202194D01*
X160109232Y-108252302D01*
X160117031Y-108301160D01*
X160119631Y-108353166D01*
X160119605Y-108358523D01*
X160116485Y-108410253D01*
X160108166Y-108458643D01*
X160093009Y-108508016D01*
X160078140Y-108541233D01*
X160050457Y-108586479D01*
X160016316Y-108626230D01*
X159983043Y-108654742D01*
X159941869Y-108681092D01*
X159895905Y-108702189D01*
X159891477Y-108703827D01*
X159840629Y-108718412D01*
X159790998Y-108726212D01*
X159738124Y-108728812D01*
X159732675Y-108728786D01*
X159679943Y-108725666D01*
X159630408Y-108717346D01*
X159579610Y-108702189D01*
X159541311Y-108685319D01*
X159499067Y-108659924D01*
X159458710Y-108626230D01*
X159432342Y-108596932D01*
X159402776Y-108553060D01*
X159381285Y-108508016D01*
X159379587Y-108503695D01*
X159364467Y-108453955D01*
X159356381Y-108405230D01*
X159353685Y-108353166D01*
X159510001Y-108353166D01*
X159513306Y-108391504D01*
X159530029Y-108437674D01*
X159543538Y-108457452D01*
X159581320Y-108491896D01*
X159606290Y-108505452D01*
X159653860Y-108520717D01*
X159687441Y-108526094D01*
X159737391Y-108529021D01*
X159771558Y-108527651D01*
X159820189Y-108520717D01*
X159846943Y-108513454D01*
X159892729Y-108491896D01*
X159913365Y-108476233D01*
X159944265Y-108437674D01*
X159957939Y-108402197D01*
X159963316Y-108353166D01*
X159960171Y-108314590D01*
X159944265Y-108267926D01*
X159929470Y-108245923D01*
X159892729Y-108213215D01*
X159867416Y-108199545D01*
X159820189Y-108184394D01*
X159787083Y-108178860D01*
X159737391Y-108175846D01*
X159703103Y-108177257D01*
X159653860Y-108184394D01*
X159626775Y-108191547D01*
X159581320Y-108213215D01*
X159561044Y-108228826D01*
X159530029Y-108267926D01*
X159515653Y-108303807D01*
X159510001Y-108353166D01*
X159353685Y-108353166D01*
X159353712Y-108347824D01*
X159356947Y-108296132D01*
X159365572Y-108247589D01*
X159381285Y-108197828D01*
X159398469Y-108160296D01*
X159424352Y-108118831D01*
X159458710Y-108079126D01*
X159491926Y-108050508D01*
X159533257Y-108024153D01*
X159579610Y-108003166D01*
X159584068Y-108001513D01*
X159635217Y-107986794D01*
X159685072Y-107978923D01*
X159738124Y-107976300D01*
X159743557Y-107976326D01*
G37*
G36*
X159103581Y-107858575D02*
G01*
X160104000Y-107858575D01*
X160104000Y-107658784D01*
X159103581Y-107658784D01*
X159103581Y-107858575D01*
G37*
G36*
X159847735Y-106253848D02*
G01*
X159897978Y-106262852D01*
X159945974Y-106281987D01*
X159965878Y-106293791D01*
X160004172Y-106324314D01*
X160035856Y-106361610D01*
X160048235Y-106380793D01*
X160070756Y-106425772D01*
X160087391Y-106475427D01*
X160094657Y-106507652D01*
X160101664Y-106556848D01*
X160104000Y-106607074D01*
X160104000Y-107093850D01*
X159103581Y-107093850D01*
X159103581Y-106665937D01*
X159275528Y-106665937D01*
X159275528Y-106872810D01*
X159510001Y-106872810D01*
X159510001Y-106649084D01*
X159507951Y-106632231D01*
X159666316Y-106632231D01*
X159666316Y-106872810D01*
X159932053Y-106872810D01*
X159932053Y-106636383D01*
X159931838Y-106624388D01*
X159925946Y-106574590D01*
X159924731Y-106569111D01*
X159905674Y-106522566D01*
X159903835Y-106519764D01*
X159867084Y-106486662D01*
X159854017Y-106480785D01*
X159804558Y-106473229D01*
X159786602Y-106473912D01*
X159737471Y-106485568D01*
X159698312Y-106516949D01*
X159687439Y-106534248D01*
X159670816Y-106582360D01*
X159666316Y-106632231D01*
X159507951Y-106632231D01*
X159503829Y-106598340D01*
X159481913Y-106552120D01*
X159480123Y-106549775D01*
X159439186Y-106521311D01*
X159390566Y-106514018D01*
X159382029Y-106514216D01*
X159333169Y-106526718D01*
X159297998Y-106560668D01*
X159297212Y-106561987D01*
X159280413Y-106609028D01*
X159279268Y-106615901D01*
X159275528Y-106665937D01*
X159103581Y-106665937D01*
X159103581Y-106620996D01*
X159104189Y-106590283D01*
X159108058Y-106540406D01*
X159116281Y-106490326D01*
X159118807Y-106479392D01*
X159134394Y-106432281D01*
X159158047Y-106388965D01*
X159191691Y-106351474D01*
X159234983Y-106323508D01*
X159253734Y-106315623D01*
X159303696Y-106303568D01*
X159353441Y-106300305D01*
X159385660Y-106301953D01*
X159435182Y-106312446D01*
X159480692Y-106334743D01*
X159507819Y-106356742D01*
X159539481Y-106394249D01*
X159563979Y-106436837D01*
X159569274Y-106419849D01*
X159589361Y-106373857D01*
X159619066Y-106331500D01*
X159656547Y-106298351D01*
X159669193Y-106290145D01*
X159714760Y-106268621D01*
X159765574Y-106256066D01*
X159815793Y-106252434D01*
X159847735Y-106253848D01*
G37*
G36*
X159743557Y-105400052D02*
G01*
X159796108Y-105403201D01*
X159845414Y-105411597D01*
X159895905Y-105426893D01*
X159933868Y-105443665D01*
X159975913Y-105469044D01*
X160016316Y-105502852D01*
X160042527Y-105532090D01*
X160071825Y-105576122D01*
X160093009Y-105621554D01*
X160094646Y-105625921D01*
X160109232Y-105676028D01*
X160117031Y-105724886D01*
X160119631Y-105776893D01*
X160119605Y-105782249D01*
X160116485Y-105833979D01*
X160108166Y-105882370D01*
X160093009Y-105931743D01*
X160078140Y-105964960D01*
X160050457Y-106010206D01*
X160016316Y-106049956D01*
X159983043Y-106078469D01*
X159941869Y-106104819D01*
X159895905Y-106125916D01*
X159891477Y-106127554D01*
X159840629Y-106142139D01*
X159790998Y-106149938D01*
X159738124Y-106152538D01*
X159732675Y-106152512D01*
X159679943Y-106149392D01*
X159630408Y-106141073D01*
X159579610Y-106125916D01*
X159541311Y-106109045D01*
X159499067Y-106083650D01*
X159458710Y-106049956D01*
X159432342Y-106020659D01*
X159402776Y-105976786D01*
X159381285Y-105931743D01*
X159379587Y-105927421D01*
X159364467Y-105877681D01*
X159356381Y-105828957D01*
X159353685Y-105776893D01*
X159510001Y-105776893D01*
X159513306Y-105815230D01*
X159530029Y-105861401D01*
X159543538Y-105881179D01*
X159581320Y-105915623D01*
X159606290Y-105929178D01*
X159653860Y-105944443D01*
X159687441Y-105949820D01*
X159737391Y-105952748D01*
X159771558Y-105951377D01*
X159820189Y-105944443D01*
X159846943Y-105937181D01*
X159892729Y-105915623D01*
X159913365Y-105899959D01*
X159944265Y-105861401D01*
X159957939Y-105825924D01*
X159963316Y-105776893D01*
X159960171Y-105738316D01*
X159944265Y-105691652D01*
X159929470Y-105669650D01*
X159892729Y-105636942D01*
X159867416Y-105623272D01*
X159820189Y-105608121D01*
X159787083Y-105602586D01*
X159737391Y-105599572D01*
X159703103Y-105600983D01*
X159653860Y-105608121D01*
X159626775Y-105615273D01*
X159581320Y-105636942D01*
X159561044Y-105652553D01*
X159530029Y-105691652D01*
X159515653Y-105727533D01*
X159510001Y-105776893D01*
X159353685Y-105776893D01*
X159353712Y-105771550D01*
X159356947Y-105719859D01*
X159365572Y-105671315D01*
X159381285Y-105621554D01*
X159398469Y-105584022D01*
X159424352Y-105542557D01*
X159458710Y-105502852D01*
X159491926Y-105474235D01*
X159533257Y-105447880D01*
X159579610Y-105426893D01*
X159584068Y-105425240D01*
X159635217Y-105410521D01*
X159685072Y-105402650D01*
X159738124Y-105400026D01*
X159743557Y-105400052D01*
G37*
G36*
X160104000Y-104799677D02*
G01*
X160069561Y-104808958D01*
X160033658Y-104813843D01*
X160066504Y-104852117D01*
X160091039Y-104895130D01*
X160102778Y-104926439D01*
X160114685Y-104975246D01*
X160121096Y-105024945D01*
X160122318Y-105058575D01*
X160119143Y-105108889D01*
X160109617Y-105155783D01*
X160090924Y-105202787D01*
X160070294Y-105234429D01*
X160033482Y-105269288D01*
X160002639Y-105287186D01*
X159954958Y-105302051D01*
X159905674Y-105306237D01*
X159855599Y-105302076D01*
X159808674Y-105287131D01*
X159803581Y-105284499D01*
X159763618Y-105255828D01*
X159739589Y-105228079D01*
X159715385Y-105183739D01*
X159703685Y-105149433D01*
X159691844Y-105099270D01*
X159684879Y-105060040D01*
X159677838Y-105009748D01*
X159673644Y-104971380D01*
X159666622Y-104920642D01*
X159660943Y-104893955D01*
X159642053Y-104848374D01*
X159636274Y-104840466D01*
X159589136Y-104822147D01*
X159748138Y-104822147D01*
X159765723Y-104853899D01*
X159776226Y-104894688D01*
X159783309Y-104940361D01*
X159790392Y-104988233D01*
X159801627Y-105032685D01*
X159820434Y-105070542D01*
X159850720Y-105096676D01*
X159897126Y-105106446D01*
X159942311Y-105096676D01*
X159971131Y-105069810D01*
X159985786Y-105030487D01*
X159989938Y-104984080D01*
X159985645Y-104934571D01*
X159970399Y-104892734D01*
X159938048Y-104854870D01*
X159923260Y-104844862D01*
X159876576Y-104827178D01*
X159867817Y-104825811D01*
X159822632Y-104822147D01*
X159748138Y-104822147D01*
X159589136Y-104822147D01*
X159540249Y-104831593D01*
X159537845Y-104832894D01*
X159508291Y-104860982D01*
X159494125Y-104901771D01*
X159490706Y-104951596D01*
X159496287Y-105001481D01*
X159516107Y-105044653D01*
X159557950Y-105074776D01*
X159600371Y-105083976D01*
X159600371Y-105283766D01*
X159550980Y-105276760D01*
X159501866Y-105259209D01*
X159483623Y-105248595D01*
X159444142Y-105215812D01*
X159412711Y-105175623D01*
X159409129Y-105169705D01*
X159387470Y-105125573D01*
X159372076Y-105076954D01*
X159368829Y-105062238D01*
X159361080Y-105013498D01*
X159357281Y-104964515D01*
X159356861Y-104941826D01*
X159358578Y-104890038D01*
X159363280Y-104841218D01*
X159364676Y-104830696D01*
X159375224Y-104780002D01*
X159392211Y-104733710D01*
X159394963Y-104727870D01*
X159421829Y-104685677D01*
X159457489Y-104651910D01*
X159504078Y-104629745D01*
X159555563Y-104622472D01*
X159563734Y-104622357D01*
X159942311Y-104622357D01*
X159993369Y-104620771D01*
X160036588Y-104616739D01*
X160085896Y-104605790D01*
X160104000Y-104597200D01*
X160104000Y-104799677D01*
G37*
G36*
X159374935Y-104472147D02*
G01*
X160104000Y-104472147D01*
X160104000Y-104272357D01*
X159775493Y-104272357D01*
X159724881Y-104269600D01*
X159683658Y-104262587D01*
X159637183Y-104246046D01*
X159609652Y-104229370D01*
X159575210Y-104194642D01*
X159559582Y-104168309D01*
X159544770Y-104120190D01*
X159541264Y-104075497D01*
X159543462Y-104037395D01*
X159548347Y-104003690D01*
X159360769Y-104003690D01*
X159353685Y-104047165D01*
X159358629Y-104095911D01*
X159365165Y-104120438D01*
X159385116Y-104166835D01*
X159397161Y-104186628D01*
X159429411Y-104225710D01*
X159446742Y-104241338D01*
X159489131Y-104269632D01*
X159510001Y-104279440D01*
X159510001Y-104282127D01*
X159374935Y-104282127D01*
X159374935Y-104472147D01*
G37*
G36*
X160101557Y-103421415D02*
G01*
X160009233Y-103421415D01*
X160009233Y-103424346D01*
X160030065Y-103438308D01*
X160067304Y-103473861D01*
X160093741Y-103516669D01*
X160103829Y-103542268D01*
X160115990Y-103593530D01*
X160119631Y-103645141D01*
X160117139Y-103689601D01*
X160107323Y-103739690D01*
X160088124Y-103789000D01*
X160070844Y-103818538D01*
X160039657Y-103857751D01*
X160002150Y-103890849D01*
X159970375Y-103911835D01*
X159924042Y-103935008D01*
X159877586Y-103951422D01*
X159832945Y-103962112D01*
X159782628Y-103969298D01*
X159731041Y-103971694D01*
X159690230Y-103970090D01*
X159641453Y-103963775D01*
X159589624Y-103951422D01*
X159556453Y-103939942D01*
X159510531Y-103918144D01*
X159469212Y-103890849D01*
X159444376Y-103869448D01*
X159411987Y-103832651D01*
X159385437Y-103790221D01*
X159368693Y-103750456D01*
X159357437Y-103702305D01*
X159353685Y-103649538D01*
X159354690Y-103625489D01*
X159359970Y-103596048D01*
X159510001Y-103596048D01*
X159512714Y-103630738D01*
X159529296Y-103679091D01*
X159542419Y-103698869D01*
X159579854Y-103733313D01*
X159604756Y-103746971D01*
X159651906Y-103762866D01*
X159685214Y-103768717D01*
X159735926Y-103771903D01*
X159769305Y-103770291D01*
X159818235Y-103762133D01*
X159847773Y-103752974D01*
X159891508Y-103730382D01*
X159912091Y-103714110D01*
X159943532Y-103675672D01*
X159956341Y-103646506D01*
X159963316Y-103596048D01*
X159960637Y-103561347D01*
X159944265Y-103513739D01*
X159930941Y-103494314D01*
X159892729Y-103460982D01*
X159867313Y-103447759D01*
X159819457Y-103432894D01*
X159785674Y-103427359D01*
X159734704Y-103424346D01*
X159699588Y-103425756D01*
X159650441Y-103432894D01*
X159623721Y-103440046D01*
X159579122Y-103461715D01*
X159561032Y-103475577D01*
X159529296Y-103514471D01*
X159516106Y-103545954D01*
X159510001Y-103596048D01*
X159359970Y-103596048D01*
X159363760Y-103574916D01*
X159382262Y-103526439D01*
X159393848Y-103505333D01*
X159425550Y-103465613D01*
X159466281Y-103434115D01*
X159466281Y-103431429D01*
X159103581Y-103431429D01*
X159103581Y-103231638D01*
X160101557Y-103231638D01*
X160101557Y-103421415D01*
G37*
D11*
X136550819Y-122729333D02*
X137265104Y-122729333D01*
X137265104Y-122729333D02*
X137407961Y-122776952D01*
X137407961Y-122776952D02*
X137503200Y-122872190D01*
X137503200Y-122872190D02*
X137550819Y-123015047D01*
X137550819Y-123015047D02*
X137550819Y-123110285D01*
X136550819Y-121776952D02*
X136550819Y-122253142D01*
X136550819Y-122253142D02*
X137027009Y-122300761D01*
X137027009Y-122300761D02*
X136979390Y-122253142D01*
X136979390Y-122253142D02*
X136931771Y-122157904D01*
X136931771Y-122157904D02*
X136931771Y-121919809D01*
X136931771Y-121919809D02*
X136979390Y-121824571D01*
X136979390Y-121824571D02*
X137027009Y-121776952D01*
X137027009Y-121776952D02*
X137122247Y-121729333D01*
X137122247Y-121729333D02*
X137360342Y-121729333D01*
X137360342Y-121729333D02*
X137455580Y-121776952D01*
X137455580Y-121776952D02*
X137503200Y-121824571D01*
X137503200Y-121824571D02*
X137550819Y-121919809D01*
X137550819Y-121919809D02*
X137550819Y-122157904D01*
X137550819Y-122157904D02*
X137503200Y-122253142D01*
X137503200Y-122253142D02*
X137455580Y-122300761D01*
X135522666Y-148680819D02*
X135522666Y-149395104D01*
X135522666Y-149395104D02*
X135475047Y-149537961D01*
X135475047Y-149537961D02*
X135379809Y-149633200D01*
X135379809Y-149633200D02*
X135236952Y-149680819D01*
X135236952Y-149680819D02*
X135141714Y-149680819D01*
X136427428Y-148680819D02*
X136236952Y-148680819D01*
X136236952Y-148680819D02*
X136141714Y-148728438D01*
X136141714Y-148728438D02*
X136094095Y-148776057D01*
X136094095Y-148776057D02*
X135998857Y-148918914D01*
X135998857Y-148918914D02*
X135951238Y-149109390D01*
X135951238Y-149109390D02*
X135951238Y-149490342D01*
X135951238Y-149490342D02*
X135998857Y-149585580D01*
X135998857Y-149585580D02*
X136046476Y-149633200D01*
X136046476Y-149633200D02*
X136141714Y-149680819D01*
X136141714Y-149680819D02*
X136332190Y-149680819D01*
X136332190Y-149680819D02*
X136427428Y-149633200D01*
X136427428Y-149633200D02*
X136475047Y-149585580D01*
X136475047Y-149585580D02*
X136522666Y-149490342D01*
X136522666Y-149490342D02*
X136522666Y-149252247D01*
X136522666Y-149252247D02*
X136475047Y-149157009D01*
X136475047Y-149157009D02*
X136427428Y-149109390D01*
X136427428Y-149109390D02*
X136332190Y-149061771D01*
X136332190Y-149061771D02*
X136141714Y-149061771D01*
X136141714Y-149061771D02*
X136046476Y-149109390D01*
X136046476Y-149109390D02*
X135998857Y-149157009D01*
X135998857Y-149157009D02*
X135951238Y-149252247D01*
X136550819Y-69201333D02*
X137265104Y-69201333D01*
X137265104Y-69201333D02*
X137407961Y-69248952D01*
X137407961Y-69248952D02*
X137503200Y-69344190D01*
X137503200Y-69344190D02*
X137550819Y-69487047D01*
X137550819Y-69487047D02*
X137550819Y-69582285D01*
X136646057Y-68772761D02*
X136598438Y-68725142D01*
X136598438Y-68725142D02*
X136550819Y-68629904D01*
X136550819Y-68629904D02*
X136550819Y-68391809D01*
X136550819Y-68391809D02*
X136598438Y-68296571D01*
X136598438Y-68296571D02*
X136646057Y-68248952D01*
X136646057Y-68248952D02*
X136741295Y-68201333D01*
X136741295Y-68201333D02*
X136836533Y-68201333D01*
X136836533Y-68201333D02*
X136979390Y-68248952D01*
X136979390Y-68248952D02*
X137550819Y-68820380D01*
X137550819Y-68820380D02*
X137550819Y-68201333D01*
X136550819Y-104886665D02*
X137265104Y-104886665D01*
X137265104Y-104886665D02*
X137407961Y-104934284D01*
X137407961Y-104934284D02*
X137503200Y-105029522D01*
X137503200Y-105029522D02*
X137550819Y-105172379D01*
X137550819Y-105172379D02*
X137550819Y-105267617D01*
X136884152Y-103981903D02*
X137550819Y-103981903D01*
X136503200Y-104219998D02*
X137217485Y-104458093D01*
X137217485Y-104458093D02*
X137217485Y-103839046D01*
X143254819Y-127021238D02*
X142778628Y-127354571D01*
X143254819Y-127592666D02*
X142254819Y-127592666D01*
X142254819Y-127592666D02*
X142254819Y-127211714D01*
X142254819Y-127211714D02*
X142302438Y-127116476D01*
X142302438Y-127116476D02*
X142350057Y-127068857D01*
X142350057Y-127068857D02*
X142445295Y-127021238D01*
X142445295Y-127021238D02*
X142588152Y-127021238D01*
X142588152Y-127021238D02*
X142683390Y-127068857D01*
X142683390Y-127068857D02*
X142731009Y-127116476D01*
X142731009Y-127116476D02*
X142778628Y-127211714D01*
X142778628Y-127211714D02*
X142778628Y-127592666D01*
X142254819Y-126735523D02*
X143254819Y-126402190D01*
X143254819Y-126402190D02*
X142254819Y-126068857D01*
X142254819Y-125830761D02*
X142254819Y-125164095D01*
X142254819Y-125164095D02*
X143254819Y-125592666D01*
X143254819Y-73493238D02*
X142778628Y-73826571D01*
X143254819Y-74064666D02*
X142254819Y-74064666D01*
X142254819Y-74064666D02*
X142254819Y-73683714D01*
X142254819Y-73683714D02*
X142302438Y-73588476D01*
X142302438Y-73588476D02*
X142350057Y-73540857D01*
X142350057Y-73540857D02*
X142445295Y-73493238D01*
X142445295Y-73493238D02*
X142588152Y-73493238D01*
X142588152Y-73493238D02*
X142683390Y-73540857D01*
X142683390Y-73540857D02*
X142731009Y-73588476D01*
X142731009Y-73588476D02*
X142778628Y-73683714D01*
X142778628Y-73683714D02*
X142778628Y-74064666D01*
X142254819Y-73207523D02*
X143254819Y-72874190D01*
X143254819Y-72874190D02*
X142254819Y-72540857D01*
X143254819Y-71683714D02*
X143254819Y-72255142D01*
X143254819Y-71969428D02*
X142254819Y-71969428D01*
X142254819Y-71969428D02*
X142397676Y-72064666D01*
X142397676Y-72064666D02*
X142492914Y-72159904D01*
X142492914Y-72159904D02*
X142540533Y-72255142D01*
X143254819Y-91335904D02*
X142778628Y-91669237D01*
X143254819Y-91907332D02*
X142254819Y-91907332D01*
X142254819Y-91907332D02*
X142254819Y-91526380D01*
X142254819Y-91526380D02*
X142302438Y-91431142D01*
X142302438Y-91431142D02*
X142350057Y-91383523D01*
X142350057Y-91383523D02*
X142445295Y-91335904D01*
X142445295Y-91335904D02*
X142588152Y-91335904D01*
X142588152Y-91335904D02*
X142683390Y-91383523D01*
X142683390Y-91383523D02*
X142731009Y-91431142D01*
X142731009Y-91431142D02*
X142778628Y-91526380D01*
X142778628Y-91526380D02*
X142778628Y-91907332D01*
X142254819Y-91050189D02*
X143254819Y-90716856D01*
X143254819Y-90716856D02*
X142254819Y-90383523D01*
X142254819Y-89573999D02*
X142254819Y-90050189D01*
X142254819Y-90050189D02*
X142731009Y-90097808D01*
X142731009Y-90097808D02*
X142683390Y-90050189D01*
X142683390Y-90050189D02*
X142635771Y-89954951D01*
X142635771Y-89954951D02*
X142635771Y-89716856D01*
X142635771Y-89716856D02*
X142683390Y-89621618D01*
X142683390Y-89621618D02*
X142731009Y-89573999D01*
X142731009Y-89573999D02*
X142826247Y-89526380D01*
X142826247Y-89526380D02*
X143064342Y-89526380D01*
X143064342Y-89526380D02*
X143159580Y-89573999D01*
X143159580Y-89573999D02*
X143207200Y-89621618D01*
X143207200Y-89621618D02*
X143254819Y-89716856D01*
X143254819Y-89716856D02*
X143254819Y-89954951D01*
X143254819Y-89954951D02*
X143207200Y-90050189D01*
X143207200Y-90050189D02*
X143159580Y-90097808D01*
X154064666Y-148712819D02*
X154064666Y-149427104D01*
X154064666Y-149427104D02*
X154017047Y-149569961D01*
X154017047Y-149569961D02*
X153921809Y-149665200D01*
X153921809Y-149665200D02*
X153778952Y-149712819D01*
X153778952Y-149712819D02*
X153683714Y-149712819D01*
X155064666Y-149712819D02*
X154493238Y-149712819D01*
X154778952Y-149712819D02*
X154778952Y-148712819D01*
X154778952Y-148712819D02*
X154683714Y-148855676D01*
X154683714Y-148855676D02*
X154588476Y-148950914D01*
X154588476Y-148950914D02*
X154493238Y-148998533D01*
X123059866Y-68034819D02*
X123059866Y-68749104D01*
X123059866Y-68749104D02*
X123012247Y-68891961D01*
X123012247Y-68891961D02*
X122917009Y-68987200D01*
X122917009Y-68987200D02*
X122774152Y-69034819D01*
X122774152Y-69034819D02*
X122678914Y-69034819D01*
X123678914Y-68463390D02*
X123583676Y-68415771D01*
X123583676Y-68415771D02*
X123536057Y-68368152D01*
X123536057Y-68368152D02*
X123488438Y-68272914D01*
X123488438Y-68272914D02*
X123488438Y-68225295D01*
X123488438Y-68225295D02*
X123536057Y-68130057D01*
X123536057Y-68130057D02*
X123583676Y-68082438D01*
X123583676Y-68082438D02*
X123678914Y-68034819D01*
X123678914Y-68034819D02*
X123869390Y-68034819D01*
X123869390Y-68034819D02*
X123964628Y-68082438D01*
X123964628Y-68082438D02*
X124012247Y-68130057D01*
X124012247Y-68130057D02*
X124059866Y-68225295D01*
X124059866Y-68225295D02*
X124059866Y-68272914D01*
X124059866Y-68272914D02*
X124012247Y-68368152D01*
X124012247Y-68368152D02*
X123964628Y-68415771D01*
X123964628Y-68415771D02*
X123869390Y-68463390D01*
X123869390Y-68463390D02*
X123678914Y-68463390D01*
X123678914Y-68463390D02*
X123583676Y-68511009D01*
X123583676Y-68511009D02*
X123536057Y-68558628D01*
X123536057Y-68558628D02*
X123488438Y-68653866D01*
X123488438Y-68653866D02*
X123488438Y-68844342D01*
X123488438Y-68844342D02*
X123536057Y-68939580D01*
X123536057Y-68939580D02*
X123583676Y-68987200D01*
X123583676Y-68987200D02*
X123678914Y-69034819D01*
X123678914Y-69034819D02*
X123869390Y-69034819D01*
X123869390Y-69034819D02*
X123964628Y-68987200D01*
X123964628Y-68987200D02*
X124012247Y-68939580D01*
X124012247Y-68939580D02*
X124059866Y-68844342D01*
X124059866Y-68844342D02*
X124059866Y-68653866D01*
X124059866Y-68653866D02*
X124012247Y-68558628D01*
X124012247Y-68558628D02*
X123964628Y-68511009D01*
X123964628Y-68511009D02*
X123869390Y-68463390D01*
X158619866Y-129984419D02*
X158619866Y-130698704D01*
X158619866Y-130698704D02*
X158572247Y-130841561D01*
X158572247Y-130841561D02*
X158477009Y-130936800D01*
X158477009Y-130936800D02*
X158334152Y-130984419D01*
X158334152Y-130984419D02*
X158238914Y-130984419D01*
X159143676Y-130984419D02*
X159334152Y-130984419D01*
X159334152Y-130984419D02*
X159429390Y-130936800D01*
X159429390Y-130936800D02*
X159477009Y-130889180D01*
X159477009Y-130889180D02*
X159572247Y-130746323D01*
X159572247Y-130746323D02*
X159619866Y-130555847D01*
X159619866Y-130555847D02*
X159619866Y-130174895D01*
X159619866Y-130174895D02*
X159572247Y-130079657D01*
X159572247Y-130079657D02*
X159524628Y-130032038D01*
X159524628Y-130032038D02*
X159429390Y-129984419D01*
X159429390Y-129984419D02*
X159238914Y-129984419D01*
X159238914Y-129984419D02*
X159143676Y-130032038D01*
X159143676Y-130032038D02*
X159096057Y-130079657D01*
X159096057Y-130079657D02*
X159048438Y-130174895D01*
X159048438Y-130174895D02*
X159048438Y-130412990D01*
X159048438Y-130412990D02*
X159096057Y-130508228D01*
X159096057Y-130508228D02*
X159143676Y-130555847D01*
X159143676Y-130555847D02*
X159238914Y-130603466D01*
X159238914Y-130603466D02*
X159429390Y-130603466D01*
X159429390Y-130603466D02*
X159524628Y-130555847D01*
X159524628Y-130555847D02*
X159572247Y-130508228D01*
X159572247Y-130508228D02*
X159619866Y-130412990D01*
X131000667Y-47905200D02*
X131143524Y-47952819D01*
X131143524Y-47952819D02*
X131381619Y-47952819D01*
X131381619Y-47952819D02*
X131476857Y-47905200D01*
X131476857Y-47905200D02*
X131524476Y-47857580D01*
X131524476Y-47857580D02*
X131572095Y-47762342D01*
X131572095Y-47762342D02*
X131572095Y-47667104D01*
X131572095Y-47667104D02*
X131524476Y-47571866D01*
X131524476Y-47571866D02*
X131476857Y-47524247D01*
X131476857Y-47524247D02*
X131381619Y-47476628D01*
X131381619Y-47476628D02*
X131191143Y-47429009D01*
X131191143Y-47429009D02*
X131095905Y-47381390D01*
X131095905Y-47381390D02*
X131048286Y-47333771D01*
X131048286Y-47333771D02*
X131000667Y-47238533D01*
X131000667Y-47238533D02*
X131000667Y-47143295D01*
X131000667Y-47143295D02*
X131048286Y-47048057D01*
X131048286Y-47048057D02*
X131095905Y-47000438D01*
X131095905Y-47000438D02*
X131191143Y-46952819D01*
X131191143Y-46952819D02*
X131429238Y-46952819D01*
X131429238Y-46952819D02*
X131572095Y-47000438D01*
X131905429Y-46952819D02*
X132143524Y-47952819D01*
X132143524Y-47952819D02*
X132334000Y-47238533D01*
X132334000Y-47238533D02*
X132524476Y-47952819D01*
X132524476Y-47952819D02*
X132762572Y-46952819D01*
X133667333Y-47952819D02*
X133095905Y-47952819D01*
X133381619Y-47952819D02*
X133381619Y-46952819D01*
X133381619Y-46952819D02*
X133286381Y-47095676D01*
X133286381Y-47095676D02*
X133191143Y-47190914D01*
X133191143Y-47190914D02*
X133095905Y-47238533D01*
X136550819Y-87043999D02*
X137265104Y-87043999D01*
X137265104Y-87043999D02*
X137407961Y-87091618D01*
X137407961Y-87091618D02*
X137503200Y-87186856D01*
X137503200Y-87186856D02*
X137550819Y-87329713D01*
X137550819Y-87329713D02*
X137550819Y-87424951D01*
X136550819Y-86663046D02*
X136550819Y-86043999D01*
X136550819Y-86043999D02*
X136931771Y-86377332D01*
X136931771Y-86377332D02*
X136931771Y-86234475D01*
X136931771Y-86234475D02*
X136979390Y-86139237D01*
X136979390Y-86139237D02*
X137027009Y-86091618D01*
X137027009Y-86091618D02*
X137122247Y-86043999D01*
X137122247Y-86043999D02*
X137360342Y-86043999D01*
X137360342Y-86043999D02*
X137455580Y-86091618D01*
X137455580Y-86091618D02*
X137503200Y-86139237D01*
X137503200Y-86139237D02*
X137550819Y-86234475D01*
X137550819Y-86234475D02*
X137550819Y-86520189D01*
X137550819Y-86520189D02*
X137503200Y-86615427D01*
X137503200Y-86615427D02*
X137455580Y-86663046D01*
X143254819Y-109178570D02*
X142778628Y-109511903D01*
X143254819Y-109749998D02*
X142254819Y-109749998D01*
X142254819Y-109749998D02*
X142254819Y-109369046D01*
X142254819Y-109369046D02*
X142302438Y-109273808D01*
X142302438Y-109273808D02*
X142350057Y-109226189D01*
X142350057Y-109226189D02*
X142445295Y-109178570D01*
X142445295Y-109178570D02*
X142588152Y-109178570D01*
X142588152Y-109178570D02*
X142683390Y-109226189D01*
X142683390Y-109226189D02*
X142731009Y-109273808D01*
X142731009Y-109273808D02*
X142778628Y-109369046D01*
X142778628Y-109369046D02*
X142778628Y-109749998D01*
X142254819Y-108892855D02*
X143254819Y-108559522D01*
X143254819Y-108559522D02*
X142254819Y-108226189D01*
X142254819Y-107464284D02*
X142254819Y-107654760D01*
X142254819Y-107654760D02*
X142302438Y-107749998D01*
X142302438Y-107749998D02*
X142350057Y-107797617D01*
X142350057Y-107797617D02*
X142492914Y-107892855D01*
X142492914Y-107892855D02*
X142683390Y-107940474D01*
X142683390Y-107940474D02*
X143064342Y-107940474D01*
X143064342Y-107940474D02*
X143159580Y-107892855D01*
X143159580Y-107892855D02*
X143207200Y-107845236D01*
X143207200Y-107845236D02*
X143254819Y-107749998D01*
X143254819Y-107749998D02*
X143254819Y-107559522D01*
X143254819Y-107559522D02*
X143207200Y-107464284D01*
X143207200Y-107464284D02*
X143159580Y-107416665D01*
X143159580Y-107416665D02*
X143064342Y-107369046D01*
X143064342Y-107369046D02*
X142826247Y-107369046D01*
X142826247Y-107369046D02*
X142731009Y-107416665D01*
X142731009Y-107416665D02*
X142683390Y-107464284D01*
X142683390Y-107464284D02*
X142635771Y-107559522D01*
X142635771Y-107559522D02*
X142635771Y-107749998D01*
X142635771Y-107749998D02*
X142683390Y-107845236D01*
X142683390Y-107845236D02*
X142731009Y-107892855D01*
X142731009Y-107892855D02*
X142826247Y-107940474D01*
D12*
%TO.C,J5*%
X125696000Y-125626000D02*
X125696000Y-121926000D01*
X125696000Y-130926000D02*
X125696000Y-127226000D01*
X136196000Y-121926000D02*
X125696000Y-121926000D01*
X136196000Y-125706000D02*
X136196000Y-121926000D01*
X136196000Y-130926000D02*
X125696000Y-130926000D01*
X136196000Y-130926000D02*
X136196000Y-127146000D01*
X139346000Y-125196000D02*
X138546000Y-125196000D01*
X139346000Y-125196000D02*
X139346000Y-126056000D01*
X133496000Y-126426000D02*
G75*
G02*
X129896000Y-126426000I-1800000J0D01*
G01*
X129896000Y-126426000D02*
G75*
G02*
X133496000Y-126426000I1800000J0D01*
G01*
%TO.C,J6*%
X127326000Y-137826000D02*
X131026000Y-137826000D01*
X127326000Y-148326000D02*
X127326000Y-137826000D01*
X127326000Y-148326000D02*
X131106000Y-148326000D01*
X132546000Y-148326000D02*
X136326000Y-148326000D01*
X132626000Y-137826000D02*
X136326000Y-137826000D01*
X133056000Y-151476000D02*
X132196000Y-151476000D01*
X133056000Y-151476000D02*
X133056000Y-150676000D01*
X136326000Y-148326000D02*
X136326000Y-137826000D01*
X133626000Y-143826000D02*
G75*
G02*
X130026000Y-143826000I-1800000J0D01*
G01*
X130026000Y-143826000D02*
G75*
G02*
X133626000Y-143826000I1800000J0D01*
G01*
%TO.C,J2*%
X125696000Y-72098000D02*
X125696000Y-68398000D01*
X125696000Y-77398000D02*
X125696000Y-73698000D01*
X136196000Y-68398000D02*
X125696000Y-68398000D01*
X136196000Y-72178000D02*
X136196000Y-68398000D01*
X136196000Y-77398000D02*
X125696000Y-77398000D01*
X136196000Y-77398000D02*
X136196000Y-73618000D01*
X139346000Y-71668000D02*
X138546000Y-71668000D01*
X139346000Y-71668000D02*
X139346000Y-72528000D01*
X133496000Y-72898000D02*
G75*
G02*
X129896000Y-72898000I-1800000J0D01*
G01*
X129896000Y-72898000D02*
G75*
G02*
X133496000Y-72898000I1800000J0D01*
G01*
%TO.C,J4*%
X125696000Y-107783332D02*
X125696000Y-104083332D01*
X125696000Y-113083332D02*
X125696000Y-109383332D01*
X136196000Y-104083332D02*
X125696000Y-104083332D01*
X136196000Y-107863332D02*
X136196000Y-104083332D01*
X136196000Y-113083332D02*
X125696000Y-113083332D01*
X136196000Y-113083332D02*
X136196000Y-109303332D01*
X139346000Y-107353332D02*
X138546000Y-107353332D01*
X139346000Y-107353332D02*
X139346000Y-108213332D01*
X133496000Y-108583332D02*
G75*
G02*
X129896000Y-108583332I-1800000J0D01*
G01*
X129896000Y-108583332D02*
G75*
G02*
X133496000Y-108583332I1800000J0D01*
G01*
%TO.C,RV7*%
X145480000Y-119356000D02*
X155420000Y-119356000D01*
X145480000Y-123221000D02*
X145480000Y-119356000D01*
X145480000Y-131596000D02*
X145480000Y-127731000D01*
X145480000Y-131596000D02*
X147079000Y-131596000D01*
X148821000Y-131596000D02*
X149580000Y-131596000D01*
X151321000Y-131596000D02*
X152080000Y-131596000D01*
X153820000Y-131596000D02*
X155420000Y-131596000D01*
X155420000Y-123221000D02*
X155420000Y-119356000D01*
X155420000Y-131596000D02*
X155420000Y-127731000D01*
%TO.C,SW2*%
X143505000Y-46609000D02*
X157475000Y-46609000D01*
X143505000Y-55499000D02*
X143505000Y-46609000D01*
X147315000Y-51054000D02*
X148585000Y-47879000D01*
X148585000Y-47879000D02*
X152395000Y-47879000D01*
X148585000Y-54229000D02*
X147315000Y-51054000D01*
X152395000Y-47879000D02*
X153665000Y-51054000D01*
X152395000Y-54229000D02*
X148585000Y-54229000D01*
X153665000Y-51054000D02*
X152395000Y-54229000D01*
X157475000Y-46609000D02*
X157475000Y-55499000D01*
X157475000Y-55499000D02*
X143505000Y-55499000D01*
X154192654Y-51054000D02*
G75*
G02*
X146787346Y-51054000I-3702654J0D01*
G01*
X146787346Y-51054000D02*
G75*
G02*
X154192654Y-51054000I3702654J0D01*
G01*
%TO.C,RV1*%
X145480000Y-65828000D02*
X155420000Y-65828000D01*
X145480000Y-69693000D02*
X145480000Y-65828000D01*
X145480000Y-78068000D02*
X145480000Y-74203000D01*
X145480000Y-78068000D02*
X147079000Y-78068000D01*
X148821000Y-78068000D02*
X149580000Y-78068000D01*
X151321000Y-78068000D02*
X152080000Y-78068000D01*
X153820000Y-78068000D02*
X155420000Y-78068000D01*
X155420000Y-69693000D02*
X155420000Y-65828000D01*
X155420000Y-78068000D02*
X155420000Y-74203000D01*
%TO.C,RV5*%
X145480000Y-83670666D02*
X155420000Y-83670666D01*
X145480000Y-87535666D02*
X145480000Y-83670666D01*
X145480000Y-95910666D02*
X145480000Y-92045666D01*
X145480000Y-95910666D02*
X147079000Y-95910666D01*
X148821000Y-95910666D02*
X149580000Y-95910666D01*
X151321000Y-95910666D02*
X152080000Y-95910666D01*
X153820000Y-95910666D02*
X155420000Y-95910666D01*
X155420000Y-87535666D02*
X155420000Y-83670666D01*
X155420000Y-95910666D02*
X155420000Y-92045666D01*
%TO.C,J1*%
X145868000Y-137858000D02*
X149568000Y-137858000D01*
X145868000Y-148358000D02*
X145868000Y-137858000D01*
X145868000Y-148358000D02*
X149648000Y-148358000D01*
X151088000Y-148358000D02*
X154868000Y-148358000D01*
X151168000Y-137858000D02*
X154868000Y-137858000D01*
X151598000Y-151508000D02*
X150738000Y-151508000D01*
X151598000Y-151508000D02*
X151598000Y-150708000D01*
X154868000Y-148358000D02*
X154868000Y-137858000D01*
X152168000Y-143858000D02*
G75*
G02*
X148568000Y-143858000I-1800000J0D01*
G01*
X148568000Y-143858000D02*
G75*
G02*
X152168000Y-143858000I1800000J0D01*
G01*
%TO.C,J8*%
X122063200Y-49581200D02*
X122063200Y-67421200D01*
X122063200Y-49581200D02*
X124723200Y-49581200D01*
X122063200Y-67421200D02*
X124723200Y-67421200D01*
X123393200Y-46981200D02*
X124723200Y-46981200D01*
X124723200Y-46981200D02*
X124723200Y-48311200D01*
X124723200Y-49581200D02*
X124723200Y-67421200D01*
%TO.C,J9*%
X157623200Y-134569600D02*
X157623200Y-152409600D01*
X157623200Y-134569600D02*
X160283200Y-134569600D01*
X157623200Y-152409600D02*
X160283200Y-152409600D01*
X158953200Y-131969600D02*
X160283200Y-131969600D01*
X160283200Y-131969600D02*
X160283200Y-133299600D01*
X160283200Y-134569600D02*
X160283200Y-152409600D01*
%TO.C,SW1*%
X125349000Y-48387000D02*
X139319000Y-48387000D01*
X125349000Y-62357000D02*
X125349000Y-48387000D01*
X139319000Y-48387000D02*
X139319000Y-62357000D01*
X139319000Y-62357000D02*
X125349000Y-62357000D01*
%TO.C,J3*%
X125696000Y-89940666D02*
X125696000Y-86240666D01*
X125696000Y-95240666D02*
X125696000Y-91540666D01*
X136196000Y-86240666D02*
X125696000Y-86240666D01*
X136196000Y-90020666D02*
X136196000Y-86240666D01*
X136196000Y-95240666D02*
X125696000Y-95240666D01*
X136196000Y-95240666D02*
X136196000Y-91460666D01*
X139346000Y-89510666D02*
X138546000Y-89510666D01*
X139346000Y-89510666D02*
X139346000Y-90370666D01*
X133496000Y-90740666D02*
G75*
G02*
X129896000Y-90740666I-1800000J0D01*
G01*
X129896000Y-90740666D02*
G75*
G02*
X133496000Y-90740666I1800000J0D01*
G01*
%TO.C,RV6*%
X145480000Y-101513332D02*
X155420000Y-101513332D01*
X145480000Y-105378332D02*
X145480000Y-101513332D01*
X145480000Y-113753332D02*
X145480000Y-109888332D01*
X145480000Y-113753332D02*
X147079000Y-113753332D01*
X148821000Y-113753332D02*
X149580000Y-113753332D01*
X151321000Y-113753332D02*
X152080000Y-113753332D01*
X153820000Y-113753332D02*
X155420000Y-113753332D01*
X155420000Y-105378332D02*
X155420000Y-101513332D01*
X155420000Y-113753332D02*
X155420000Y-109888332D01*
%TD*%
M02*
